G75*
%MOIN*%
%OFA0B0*%
%FSLAX25Y25*%
%IPPOS*%
%LPD*%
%AMOC8*
5,1,8,0,0,1.08239X$1,22.5*
%
%ADD10C,0.00000*%
%ADD11C,0.06000*%
%ADD12C,0.05400*%
%ADD13C,0.06496*%
%ADD14R,0.05315X0.05315*%
%ADD15C,0.03200*%
%ADD16OC8,0.06000*%
%ADD17C,0.01600*%
%ADD18R,0.03169X0.03169*%
%ADD19C,0.01200*%
D10*
X0001000Y0001013D02*
X0197850Y0001013D01*
X0197850Y0099438D01*
X0001000Y0099438D01*
X0001000Y0197863D01*
X0197850Y0197863D01*
X0197850Y0099438D01*
X0188795Y0093139D02*
X0188797Y0093227D01*
X0188803Y0093315D01*
X0188813Y0093403D01*
X0188827Y0093491D01*
X0188844Y0093577D01*
X0188866Y0093663D01*
X0188891Y0093747D01*
X0188921Y0093831D01*
X0188953Y0093913D01*
X0188990Y0093993D01*
X0189030Y0094072D01*
X0189074Y0094149D01*
X0189121Y0094224D01*
X0189171Y0094296D01*
X0189225Y0094367D01*
X0189281Y0094434D01*
X0189341Y0094500D01*
X0189403Y0094562D01*
X0189469Y0094622D01*
X0189536Y0094678D01*
X0189607Y0094732D01*
X0189679Y0094782D01*
X0189754Y0094829D01*
X0189831Y0094873D01*
X0189910Y0094913D01*
X0189990Y0094950D01*
X0190072Y0094982D01*
X0190156Y0095012D01*
X0190240Y0095037D01*
X0190326Y0095059D01*
X0190412Y0095076D01*
X0190500Y0095090D01*
X0190588Y0095100D01*
X0190676Y0095106D01*
X0190764Y0095108D01*
X0190852Y0095106D01*
X0190940Y0095100D01*
X0191028Y0095090D01*
X0191116Y0095076D01*
X0191202Y0095059D01*
X0191288Y0095037D01*
X0191372Y0095012D01*
X0191456Y0094982D01*
X0191538Y0094950D01*
X0191618Y0094913D01*
X0191697Y0094873D01*
X0191774Y0094829D01*
X0191849Y0094782D01*
X0191921Y0094732D01*
X0191992Y0094678D01*
X0192059Y0094622D01*
X0192125Y0094562D01*
X0192187Y0094500D01*
X0192247Y0094434D01*
X0192303Y0094367D01*
X0192357Y0094296D01*
X0192407Y0094224D01*
X0192454Y0094149D01*
X0192498Y0094072D01*
X0192538Y0093993D01*
X0192575Y0093913D01*
X0192607Y0093831D01*
X0192637Y0093747D01*
X0192662Y0093663D01*
X0192684Y0093577D01*
X0192701Y0093491D01*
X0192715Y0093403D01*
X0192725Y0093315D01*
X0192731Y0093227D01*
X0192733Y0093139D01*
X0192731Y0093051D01*
X0192725Y0092963D01*
X0192715Y0092875D01*
X0192701Y0092787D01*
X0192684Y0092701D01*
X0192662Y0092615D01*
X0192637Y0092531D01*
X0192607Y0092447D01*
X0192575Y0092365D01*
X0192538Y0092285D01*
X0192498Y0092206D01*
X0192454Y0092129D01*
X0192407Y0092054D01*
X0192357Y0091982D01*
X0192303Y0091911D01*
X0192247Y0091844D01*
X0192187Y0091778D01*
X0192125Y0091716D01*
X0192059Y0091656D01*
X0191992Y0091600D01*
X0191921Y0091546D01*
X0191849Y0091496D01*
X0191774Y0091449D01*
X0191697Y0091405D01*
X0191618Y0091365D01*
X0191538Y0091328D01*
X0191456Y0091296D01*
X0191372Y0091266D01*
X0191288Y0091241D01*
X0191202Y0091219D01*
X0191116Y0091202D01*
X0191028Y0091188D01*
X0190940Y0091178D01*
X0190852Y0091172D01*
X0190764Y0091170D01*
X0190676Y0091172D01*
X0190588Y0091178D01*
X0190500Y0091188D01*
X0190412Y0091202D01*
X0190326Y0091219D01*
X0190240Y0091241D01*
X0190156Y0091266D01*
X0190072Y0091296D01*
X0189990Y0091328D01*
X0189910Y0091365D01*
X0189831Y0091405D01*
X0189754Y0091449D01*
X0189679Y0091496D01*
X0189607Y0091546D01*
X0189536Y0091600D01*
X0189469Y0091656D01*
X0189403Y0091716D01*
X0189341Y0091778D01*
X0189281Y0091844D01*
X0189225Y0091911D01*
X0189171Y0091982D01*
X0189121Y0092054D01*
X0189074Y0092129D01*
X0189030Y0092206D01*
X0188990Y0092285D01*
X0188953Y0092365D01*
X0188921Y0092447D01*
X0188891Y0092531D01*
X0188866Y0092615D01*
X0188844Y0092701D01*
X0188827Y0092787D01*
X0188813Y0092875D01*
X0188803Y0092963D01*
X0188797Y0093051D01*
X0188795Y0093139D01*
X0188401Y0106918D02*
X0188403Y0107006D01*
X0188409Y0107094D01*
X0188419Y0107182D01*
X0188433Y0107270D01*
X0188450Y0107356D01*
X0188472Y0107442D01*
X0188497Y0107526D01*
X0188527Y0107610D01*
X0188559Y0107692D01*
X0188596Y0107772D01*
X0188636Y0107851D01*
X0188680Y0107928D01*
X0188727Y0108003D01*
X0188777Y0108075D01*
X0188831Y0108146D01*
X0188887Y0108213D01*
X0188947Y0108279D01*
X0189009Y0108341D01*
X0189075Y0108401D01*
X0189142Y0108457D01*
X0189213Y0108511D01*
X0189285Y0108561D01*
X0189360Y0108608D01*
X0189437Y0108652D01*
X0189516Y0108692D01*
X0189596Y0108729D01*
X0189678Y0108761D01*
X0189762Y0108791D01*
X0189846Y0108816D01*
X0189932Y0108838D01*
X0190018Y0108855D01*
X0190106Y0108869D01*
X0190194Y0108879D01*
X0190282Y0108885D01*
X0190370Y0108887D01*
X0190458Y0108885D01*
X0190546Y0108879D01*
X0190634Y0108869D01*
X0190722Y0108855D01*
X0190808Y0108838D01*
X0190894Y0108816D01*
X0190978Y0108791D01*
X0191062Y0108761D01*
X0191144Y0108729D01*
X0191224Y0108692D01*
X0191303Y0108652D01*
X0191380Y0108608D01*
X0191455Y0108561D01*
X0191527Y0108511D01*
X0191598Y0108457D01*
X0191665Y0108401D01*
X0191731Y0108341D01*
X0191793Y0108279D01*
X0191853Y0108213D01*
X0191909Y0108146D01*
X0191963Y0108075D01*
X0192013Y0108003D01*
X0192060Y0107928D01*
X0192104Y0107851D01*
X0192144Y0107772D01*
X0192181Y0107692D01*
X0192213Y0107610D01*
X0192243Y0107526D01*
X0192268Y0107442D01*
X0192290Y0107356D01*
X0192307Y0107270D01*
X0192321Y0107182D01*
X0192331Y0107094D01*
X0192337Y0107006D01*
X0192339Y0106918D01*
X0192337Y0106830D01*
X0192331Y0106742D01*
X0192321Y0106654D01*
X0192307Y0106566D01*
X0192290Y0106480D01*
X0192268Y0106394D01*
X0192243Y0106310D01*
X0192213Y0106226D01*
X0192181Y0106144D01*
X0192144Y0106064D01*
X0192104Y0105985D01*
X0192060Y0105908D01*
X0192013Y0105833D01*
X0191963Y0105761D01*
X0191909Y0105690D01*
X0191853Y0105623D01*
X0191793Y0105557D01*
X0191731Y0105495D01*
X0191665Y0105435D01*
X0191598Y0105379D01*
X0191527Y0105325D01*
X0191455Y0105275D01*
X0191380Y0105228D01*
X0191303Y0105184D01*
X0191224Y0105144D01*
X0191144Y0105107D01*
X0191062Y0105075D01*
X0190978Y0105045D01*
X0190894Y0105020D01*
X0190808Y0104998D01*
X0190722Y0104981D01*
X0190634Y0104967D01*
X0190546Y0104957D01*
X0190458Y0104951D01*
X0190370Y0104949D01*
X0190282Y0104951D01*
X0190194Y0104957D01*
X0190106Y0104967D01*
X0190018Y0104981D01*
X0189932Y0104998D01*
X0189846Y0105020D01*
X0189762Y0105045D01*
X0189678Y0105075D01*
X0189596Y0105107D01*
X0189516Y0105144D01*
X0189437Y0105184D01*
X0189360Y0105228D01*
X0189285Y0105275D01*
X0189213Y0105325D01*
X0189142Y0105379D01*
X0189075Y0105435D01*
X0189009Y0105495D01*
X0188947Y0105557D01*
X0188887Y0105623D01*
X0188831Y0105690D01*
X0188777Y0105761D01*
X0188727Y0105833D01*
X0188680Y0105908D01*
X0188636Y0105985D01*
X0188596Y0106064D01*
X0188559Y0106144D01*
X0188527Y0106226D01*
X0188497Y0106310D01*
X0188472Y0106394D01*
X0188450Y0106480D01*
X0188433Y0106566D01*
X0188419Y0106654D01*
X0188409Y0106742D01*
X0188403Y0106830D01*
X0188401Y0106918D01*
X0188795Y0191564D02*
X0188797Y0191652D01*
X0188803Y0191740D01*
X0188813Y0191828D01*
X0188827Y0191916D01*
X0188844Y0192002D01*
X0188866Y0192088D01*
X0188891Y0192172D01*
X0188921Y0192256D01*
X0188953Y0192338D01*
X0188990Y0192418D01*
X0189030Y0192497D01*
X0189074Y0192574D01*
X0189121Y0192649D01*
X0189171Y0192721D01*
X0189225Y0192792D01*
X0189281Y0192859D01*
X0189341Y0192925D01*
X0189403Y0192987D01*
X0189469Y0193047D01*
X0189536Y0193103D01*
X0189607Y0193157D01*
X0189679Y0193207D01*
X0189754Y0193254D01*
X0189831Y0193298D01*
X0189910Y0193338D01*
X0189990Y0193375D01*
X0190072Y0193407D01*
X0190156Y0193437D01*
X0190240Y0193462D01*
X0190326Y0193484D01*
X0190412Y0193501D01*
X0190500Y0193515D01*
X0190588Y0193525D01*
X0190676Y0193531D01*
X0190764Y0193533D01*
X0190852Y0193531D01*
X0190940Y0193525D01*
X0191028Y0193515D01*
X0191116Y0193501D01*
X0191202Y0193484D01*
X0191288Y0193462D01*
X0191372Y0193437D01*
X0191456Y0193407D01*
X0191538Y0193375D01*
X0191618Y0193338D01*
X0191697Y0193298D01*
X0191774Y0193254D01*
X0191849Y0193207D01*
X0191921Y0193157D01*
X0191992Y0193103D01*
X0192059Y0193047D01*
X0192125Y0192987D01*
X0192187Y0192925D01*
X0192247Y0192859D01*
X0192303Y0192792D01*
X0192357Y0192721D01*
X0192407Y0192649D01*
X0192454Y0192574D01*
X0192498Y0192497D01*
X0192538Y0192418D01*
X0192575Y0192338D01*
X0192607Y0192256D01*
X0192637Y0192172D01*
X0192662Y0192088D01*
X0192684Y0192002D01*
X0192701Y0191916D01*
X0192715Y0191828D01*
X0192725Y0191740D01*
X0192731Y0191652D01*
X0192733Y0191564D01*
X0192731Y0191476D01*
X0192725Y0191388D01*
X0192715Y0191300D01*
X0192701Y0191212D01*
X0192684Y0191126D01*
X0192662Y0191040D01*
X0192637Y0190956D01*
X0192607Y0190872D01*
X0192575Y0190790D01*
X0192538Y0190710D01*
X0192498Y0190631D01*
X0192454Y0190554D01*
X0192407Y0190479D01*
X0192357Y0190407D01*
X0192303Y0190336D01*
X0192247Y0190269D01*
X0192187Y0190203D01*
X0192125Y0190141D01*
X0192059Y0190081D01*
X0191992Y0190025D01*
X0191921Y0189971D01*
X0191849Y0189921D01*
X0191774Y0189874D01*
X0191697Y0189830D01*
X0191618Y0189790D01*
X0191538Y0189753D01*
X0191456Y0189721D01*
X0191372Y0189691D01*
X0191288Y0189666D01*
X0191202Y0189644D01*
X0191116Y0189627D01*
X0191028Y0189613D01*
X0190940Y0189603D01*
X0190852Y0189597D01*
X0190764Y0189595D01*
X0190676Y0189597D01*
X0190588Y0189603D01*
X0190500Y0189613D01*
X0190412Y0189627D01*
X0190326Y0189644D01*
X0190240Y0189666D01*
X0190156Y0189691D01*
X0190072Y0189721D01*
X0189990Y0189753D01*
X0189910Y0189790D01*
X0189831Y0189830D01*
X0189754Y0189874D01*
X0189679Y0189921D01*
X0189607Y0189971D01*
X0189536Y0190025D01*
X0189469Y0190081D01*
X0189403Y0190141D01*
X0189341Y0190203D01*
X0189281Y0190269D01*
X0189225Y0190336D01*
X0189171Y0190407D01*
X0189121Y0190479D01*
X0189074Y0190554D01*
X0189030Y0190631D01*
X0188990Y0190710D01*
X0188953Y0190790D01*
X0188921Y0190872D01*
X0188891Y0190956D01*
X0188866Y0191040D01*
X0188844Y0191126D01*
X0188827Y0191212D01*
X0188813Y0191300D01*
X0188803Y0191388D01*
X0188797Y0191476D01*
X0188795Y0191564D01*
X0052181Y0172272D02*
X0052183Y0172360D01*
X0052189Y0172448D01*
X0052199Y0172536D01*
X0052213Y0172624D01*
X0052230Y0172710D01*
X0052252Y0172796D01*
X0052277Y0172880D01*
X0052307Y0172964D01*
X0052339Y0173046D01*
X0052376Y0173126D01*
X0052416Y0173205D01*
X0052460Y0173282D01*
X0052507Y0173357D01*
X0052557Y0173429D01*
X0052611Y0173500D01*
X0052667Y0173567D01*
X0052727Y0173633D01*
X0052789Y0173695D01*
X0052855Y0173755D01*
X0052922Y0173811D01*
X0052993Y0173865D01*
X0053065Y0173915D01*
X0053140Y0173962D01*
X0053217Y0174006D01*
X0053296Y0174046D01*
X0053376Y0174083D01*
X0053458Y0174115D01*
X0053542Y0174145D01*
X0053626Y0174170D01*
X0053712Y0174192D01*
X0053798Y0174209D01*
X0053886Y0174223D01*
X0053974Y0174233D01*
X0054062Y0174239D01*
X0054150Y0174241D01*
X0054238Y0174239D01*
X0054326Y0174233D01*
X0054414Y0174223D01*
X0054502Y0174209D01*
X0054588Y0174192D01*
X0054674Y0174170D01*
X0054758Y0174145D01*
X0054842Y0174115D01*
X0054924Y0174083D01*
X0055004Y0174046D01*
X0055083Y0174006D01*
X0055160Y0173962D01*
X0055235Y0173915D01*
X0055307Y0173865D01*
X0055378Y0173811D01*
X0055445Y0173755D01*
X0055511Y0173695D01*
X0055573Y0173633D01*
X0055633Y0173567D01*
X0055689Y0173500D01*
X0055743Y0173429D01*
X0055793Y0173357D01*
X0055840Y0173282D01*
X0055884Y0173205D01*
X0055924Y0173126D01*
X0055961Y0173046D01*
X0055993Y0172964D01*
X0056023Y0172880D01*
X0056048Y0172796D01*
X0056070Y0172710D01*
X0056087Y0172624D01*
X0056101Y0172536D01*
X0056111Y0172448D01*
X0056117Y0172360D01*
X0056119Y0172272D01*
X0056117Y0172184D01*
X0056111Y0172096D01*
X0056101Y0172008D01*
X0056087Y0171920D01*
X0056070Y0171834D01*
X0056048Y0171748D01*
X0056023Y0171664D01*
X0055993Y0171580D01*
X0055961Y0171498D01*
X0055924Y0171418D01*
X0055884Y0171339D01*
X0055840Y0171262D01*
X0055793Y0171187D01*
X0055743Y0171115D01*
X0055689Y0171044D01*
X0055633Y0170977D01*
X0055573Y0170911D01*
X0055511Y0170849D01*
X0055445Y0170789D01*
X0055378Y0170733D01*
X0055307Y0170679D01*
X0055235Y0170629D01*
X0055160Y0170582D01*
X0055083Y0170538D01*
X0055004Y0170498D01*
X0054924Y0170461D01*
X0054842Y0170429D01*
X0054758Y0170399D01*
X0054674Y0170374D01*
X0054588Y0170352D01*
X0054502Y0170335D01*
X0054414Y0170321D01*
X0054326Y0170311D01*
X0054238Y0170305D01*
X0054150Y0170303D01*
X0054062Y0170305D01*
X0053974Y0170311D01*
X0053886Y0170321D01*
X0053798Y0170335D01*
X0053712Y0170352D01*
X0053626Y0170374D01*
X0053542Y0170399D01*
X0053458Y0170429D01*
X0053376Y0170461D01*
X0053296Y0170498D01*
X0053217Y0170538D01*
X0053140Y0170582D01*
X0053065Y0170629D01*
X0052993Y0170679D01*
X0052922Y0170733D01*
X0052855Y0170789D01*
X0052789Y0170849D01*
X0052727Y0170911D01*
X0052667Y0170977D01*
X0052611Y0171044D01*
X0052557Y0171115D01*
X0052507Y0171187D01*
X0052460Y0171262D01*
X0052416Y0171339D01*
X0052376Y0171418D01*
X0052339Y0171498D01*
X0052307Y0171580D01*
X0052277Y0171664D01*
X0052252Y0171748D01*
X0052230Y0171834D01*
X0052213Y0171920D01*
X0052199Y0172008D01*
X0052189Y0172096D01*
X0052183Y0172184D01*
X0052181Y0172272D01*
X0001000Y0099438D02*
X0001000Y0001013D01*
X0052181Y0073847D02*
X0052183Y0073935D01*
X0052189Y0074023D01*
X0052199Y0074111D01*
X0052213Y0074199D01*
X0052230Y0074285D01*
X0052252Y0074371D01*
X0052277Y0074455D01*
X0052307Y0074539D01*
X0052339Y0074621D01*
X0052376Y0074701D01*
X0052416Y0074780D01*
X0052460Y0074857D01*
X0052507Y0074932D01*
X0052557Y0075004D01*
X0052611Y0075075D01*
X0052667Y0075142D01*
X0052727Y0075208D01*
X0052789Y0075270D01*
X0052855Y0075330D01*
X0052922Y0075386D01*
X0052993Y0075440D01*
X0053065Y0075490D01*
X0053140Y0075537D01*
X0053217Y0075581D01*
X0053296Y0075621D01*
X0053376Y0075658D01*
X0053458Y0075690D01*
X0053542Y0075720D01*
X0053626Y0075745D01*
X0053712Y0075767D01*
X0053798Y0075784D01*
X0053886Y0075798D01*
X0053974Y0075808D01*
X0054062Y0075814D01*
X0054150Y0075816D01*
X0054238Y0075814D01*
X0054326Y0075808D01*
X0054414Y0075798D01*
X0054502Y0075784D01*
X0054588Y0075767D01*
X0054674Y0075745D01*
X0054758Y0075720D01*
X0054842Y0075690D01*
X0054924Y0075658D01*
X0055004Y0075621D01*
X0055083Y0075581D01*
X0055160Y0075537D01*
X0055235Y0075490D01*
X0055307Y0075440D01*
X0055378Y0075386D01*
X0055445Y0075330D01*
X0055511Y0075270D01*
X0055573Y0075208D01*
X0055633Y0075142D01*
X0055689Y0075075D01*
X0055743Y0075004D01*
X0055793Y0074932D01*
X0055840Y0074857D01*
X0055884Y0074780D01*
X0055924Y0074701D01*
X0055961Y0074621D01*
X0055993Y0074539D01*
X0056023Y0074455D01*
X0056048Y0074371D01*
X0056070Y0074285D01*
X0056087Y0074199D01*
X0056101Y0074111D01*
X0056111Y0074023D01*
X0056117Y0073935D01*
X0056119Y0073847D01*
X0056117Y0073759D01*
X0056111Y0073671D01*
X0056101Y0073583D01*
X0056087Y0073495D01*
X0056070Y0073409D01*
X0056048Y0073323D01*
X0056023Y0073239D01*
X0055993Y0073155D01*
X0055961Y0073073D01*
X0055924Y0072993D01*
X0055884Y0072914D01*
X0055840Y0072837D01*
X0055793Y0072762D01*
X0055743Y0072690D01*
X0055689Y0072619D01*
X0055633Y0072552D01*
X0055573Y0072486D01*
X0055511Y0072424D01*
X0055445Y0072364D01*
X0055378Y0072308D01*
X0055307Y0072254D01*
X0055235Y0072204D01*
X0055160Y0072157D01*
X0055083Y0072113D01*
X0055004Y0072073D01*
X0054924Y0072036D01*
X0054842Y0072004D01*
X0054758Y0071974D01*
X0054674Y0071949D01*
X0054588Y0071927D01*
X0054502Y0071910D01*
X0054414Y0071896D01*
X0054326Y0071886D01*
X0054238Y0071880D01*
X0054150Y0071878D01*
X0054062Y0071880D01*
X0053974Y0071886D01*
X0053886Y0071896D01*
X0053798Y0071910D01*
X0053712Y0071927D01*
X0053626Y0071949D01*
X0053542Y0071974D01*
X0053458Y0072004D01*
X0053376Y0072036D01*
X0053296Y0072073D01*
X0053217Y0072113D01*
X0053140Y0072157D01*
X0053065Y0072204D01*
X0052993Y0072254D01*
X0052922Y0072308D01*
X0052855Y0072364D01*
X0052789Y0072424D01*
X0052727Y0072486D01*
X0052667Y0072552D01*
X0052611Y0072619D01*
X0052557Y0072690D01*
X0052507Y0072762D01*
X0052460Y0072837D01*
X0052416Y0072914D01*
X0052376Y0072993D01*
X0052339Y0073073D01*
X0052307Y0073155D01*
X0052277Y0073239D01*
X0052252Y0073323D01*
X0052230Y0073409D01*
X0052213Y0073495D01*
X0052199Y0073583D01*
X0052189Y0073671D01*
X0052183Y0073759D01*
X0052181Y0073847D01*
X0188401Y0008493D02*
X0188403Y0008581D01*
X0188409Y0008669D01*
X0188419Y0008757D01*
X0188433Y0008845D01*
X0188450Y0008931D01*
X0188472Y0009017D01*
X0188497Y0009101D01*
X0188527Y0009185D01*
X0188559Y0009267D01*
X0188596Y0009347D01*
X0188636Y0009426D01*
X0188680Y0009503D01*
X0188727Y0009578D01*
X0188777Y0009650D01*
X0188831Y0009721D01*
X0188887Y0009788D01*
X0188947Y0009854D01*
X0189009Y0009916D01*
X0189075Y0009976D01*
X0189142Y0010032D01*
X0189213Y0010086D01*
X0189285Y0010136D01*
X0189360Y0010183D01*
X0189437Y0010227D01*
X0189516Y0010267D01*
X0189596Y0010304D01*
X0189678Y0010336D01*
X0189762Y0010366D01*
X0189846Y0010391D01*
X0189932Y0010413D01*
X0190018Y0010430D01*
X0190106Y0010444D01*
X0190194Y0010454D01*
X0190282Y0010460D01*
X0190370Y0010462D01*
X0190458Y0010460D01*
X0190546Y0010454D01*
X0190634Y0010444D01*
X0190722Y0010430D01*
X0190808Y0010413D01*
X0190894Y0010391D01*
X0190978Y0010366D01*
X0191062Y0010336D01*
X0191144Y0010304D01*
X0191224Y0010267D01*
X0191303Y0010227D01*
X0191380Y0010183D01*
X0191455Y0010136D01*
X0191527Y0010086D01*
X0191598Y0010032D01*
X0191665Y0009976D01*
X0191731Y0009916D01*
X0191793Y0009854D01*
X0191853Y0009788D01*
X0191909Y0009721D01*
X0191963Y0009650D01*
X0192013Y0009578D01*
X0192060Y0009503D01*
X0192104Y0009426D01*
X0192144Y0009347D01*
X0192181Y0009267D01*
X0192213Y0009185D01*
X0192243Y0009101D01*
X0192268Y0009017D01*
X0192290Y0008931D01*
X0192307Y0008845D01*
X0192321Y0008757D01*
X0192331Y0008669D01*
X0192337Y0008581D01*
X0192339Y0008493D01*
X0192337Y0008405D01*
X0192331Y0008317D01*
X0192321Y0008229D01*
X0192307Y0008141D01*
X0192290Y0008055D01*
X0192268Y0007969D01*
X0192243Y0007885D01*
X0192213Y0007801D01*
X0192181Y0007719D01*
X0192144Y0007639D01*
X0192104Y0007560D01*
X0192060Y0007483D01*
X0192013Y0007408D01*
X0191963Y0007336D01*
X0191909Y0007265D01*
X0191853Y0007198D01*
X0191793Y0007132D01*
X0191731Y0007070D01*
X0191665Y0007010D01*
X0191598Y0006954D01*
X0191527Y0006900D01*
X0191455Y0006850D01*
X0191380Y0006803D01*
X0191303Y0006759D01*
X0191224Y0006719D01*
X0191144Y0006682D01*
X0191062Y0006650D01*
X0190978Y0006620D01*
X0190894Y0006595D01*
X0190808Y0006573D01*
X0190722Y0006556D01*
X0190634Y0006542D01*
X0190546Y0006532D01*
X0190458Y0006526D01*
X0190370Y0006524D01*
X0190282Y0006526D01*
X0190194Y0006532D01*
X0190106Y0006542D01*
X0190018Y0006556D01*
X0189932Y0006573D01*
X0189846Y0006595D01*
X0189762Y0006620D01*
X0189678Y0006650D01*
X0189596Y0006682D01*
X0189516Y0006719D01*
X0189437Y0006759D01*
X0189360Y0006803D01*
X0189285Y0006850D01*
X0189213Y0006900D01*
X0189142Y0006954D01*
X0189075Y0007010D01*
X0189009Y0007070D01*
X0188947Y0007132D01*
X0188887Y0007198D01*
X0188831Y0007265D01*
X0188777Y0007336D01*
X0188727Y0007408D01*
X0188680Y0007483D01*
X0188636Y0007560D01*
X0188596Y0007639D01*
X0188559Y0007719D01*
X0188527Y0007801D01*
X0188497Y0007885D01*
X0188472Y0007969D01*
X0188450Y0008055D01*
X0188433Y0008141D01*
X0188419Y0008229D01*
X0188409Y0008317D01*
X0188403Y0008405D01*
X0188401Y0008493D01*
D11*
X0180173Y0086202D02*
X0180173Y0092202D01*
X0170173Y0092202D02*
X0170173Y0086202D01*
X0160173Y0086202D02*
X0160173Y0092202D01*
X0150173Y0092202D02*
X0150173Y0086202D01*
X0132496Y0086162D02*
X0132496Y0092162D01*
X0122496Y0092162D02*
X0122496Y0086162D01*
X0112496Y0086162D02*
X0112496Y0092162D01*
X0102496Y0092162D02*
X0102496Y0086162D01*
X0092496Y0086162D02*
X0092496Y0092162D01*
X0092496Y0184587D02*
X0092496Y0190587D01*
X0102496Y0190587D02*
X0102496Y0184587D01*
X0112496Y0184587D02*
X0112496Y0190587D01*
X0122496Y0190587D02*
X0122496Y0184587D01*
X0132496Y0184587D02*
X0132496Y0190587D01*
X0150173Y0190627D02*
X0150173Y0184627D01*
X0160173Y0184627D02*
X0160173Y0190627D01*
X0170173Y0190627D02*
X0170173Y0184627D01*
X0180173Y0184627D02*
X0180173Y0190627D01*
D12*
X0184560Y0146800D02*
X0189960Y0146800D01*
X0189960Y0136800D02*
X0184560Y0136800D01*
X0184560Y0048375D02*
X0189960Y0048375D01*
X0189960Y0038375D02*
X0184560Y0038375D01*
D13*
X0101591Y0010107D03*
X0081591Y0010107D03*
X0081591Y0108532D03*
X0101591Y0108532D03*
D14*
X0188008Y0123060D03*
X0188008Y0075816D03*
X0188008Y0024635D03*
X0188008Y0174241D03*
X0010843Y0174241D03*
X0010843Y0075816D03*
D15*
X0012654Y0028611D02*
X0012654Y0025411D01*
X0017654Y0025411D02*
X0017654Y0028611D01*
X0022654Y0028611D02*
X0022654Y0025411D01*
X0027654Y0025411D02*
X0027654Y0028611D01*
X0032654Y0028611D02*
X0032654Y0025411D01*
X0037654Y0025411D02*
X0037654Y0028611D01*
X0042654Y0028611D02*
X0042654Y0025411D01*
X0007654Y0025411D02*
X0007654Y0028611D01*
X0007654Y0123836D02*
X0007654Y0127036D01*
X0012654Y0127036D02*
X0012654Y0123836D01*
X0017654Y0123836D02*
X0017654Y0127036D01*
X0022654Y0127036D02*
X0022654Y0123836D01*
X0027654Y0123836D02*
X0027654Y0127036D01*
X0032654Y0127036D02*
X0032654Y0123836D01*
X0037654Y0123836D02*
X0037654Y0127036D01*
X0042654Y0127036D02*
X0042654Y0123836D01*
D16*
X0117142Y0107312D03*
X0130921Y0107312D03*
X0130921Y0008887D03*
X0117142Y0008887D03*
D17*
X0120614Y0012202D02*
X0127449Y0012202D01*
X0126121Y0010875D02*
X0128933Y0013687D01*
X0132909Y0013687D01*
X0135721Y0010875D01*
X0135721Y0006898D01*
X0132909Y0004087D01*
X0128933Y0004087D01*
X0126121Y0006898D01*
X0126121Y0010875D01*
X0126121Y0010604D02*
X0121942Y0010604D01*
X0121942Y0010875D02*
X0119130Y0013687D01*
X0115154Y0013687D01*
X0112342Y0010875D01*
X0112342Y0006898D01*
X0115154Y0004087D01*
X0119130Y0004087D01*
X0121942Y0006898D01*
X0121942Y0010875D01*
X0121942Y0009005D02*
X0126121Y0009005D01*
X0126121Y0007407D02*
X0121942Y0007407D01*
X0120851Y0005808D02*
X0127212Y0005808D01*
X0128810Y0004210D02*
X0119253Y0004210D01*
X0115030Y0004210D02*
X0043966Y0004210D01*
X0044094Y0004338D02*
X0080348Y0004518D01*
X0080818Y0004518D01*
X0080824Y0004520D01*
X0080830Y0004521D01*
X0081266Y0004704D01*
X0081700Y0004883D01*
X0081704Y0004888D01*
X0081710Y0004890D01*
X0081877Y0005059D01*
X0082595Y0005059D01*
X0084450Y0005828D01*
X0085870Y0007248D01*
X0086639Y0009103D01*
X0086639Y0011111D01*
X0085870Y0012967D01*
X0084450Y0014387D01*
X0082595Y0015155D01*
X0080586Y0015155D01*
X0078731Y0014387D01*
X0077311Y0012967D01*
X0076543Y0011111D01*
X0076543Y0009299D01*
X0044061Y0009138D01*
X0043094Y0010105D01*
X0038434Y0010105D01*
X0037470Y0009142D01*
X0012363Y0009297D01*
X0011274Y0010392D01*
X0011274Y0022302D01*
X0011662Y0022142D01*
X0012319Y0022011D01*
X0012653Y0022011D01*
X0012653Y0028611D01*
X0012653Y0032011D01*
X0012319Y0032011D01*
X0011662Y0031880D01*
X0011043Y0031624D01*
X0010486Y0031252D01*
X0010154Y0030919D01*
X0009579Y0031493D01*
X0008330Y0032011D01*
X0006977Y0032011D01*
X0005728Y0031493D01*
X0004771Y0030537D01*
X0004254Y0029287D01*
X0004254Y0024735D01*
X0004771Y0023485D01*
X0005728Y0022529D01*
X0006474Y0022219D01*
X0006474Y0009406D01*
X0006473Y0008933D01*
X0006474Y0008929D01*
X0006474Y0008925D01*
X0006655Y0008489D01*
X0006835Y0008050D01*
X0006838Y0008047D01*
X0006839Y0008043D01*
X0007173Y0007710D01*
X0009653Y0005214D01*
X0009987Y0004877D01*
X0009990Y0004875D01*
X0009993Y0004872D01*
X0010428Y0004690D01*
X0010866Y0004506D01*
X0010870Y0004506D01*
X0010874Y0004504D01*
X0011346Y0004503D01*
X0037429Y0004342D01*
X0037958Y0003813D01*
X0003800Y0003813D01*
X0003800Y0034083D01*
X0057299Y0034083D01*
X0057299Y0034477D01*
X0057145Y0059833D01*
X0061598Y0059833D01*
X0062480Y0060716D01*
X0068482Y0060528D01*
X0068482Y0060494D01*
X0069536Y0059439D01*
X0074196Y0059439D01*
X0075250Y0060494D01*
X0075250Y0065153D01*
X0074196Y0066208D01*
X0069536Y0066208D01*
X0068654Y0065325D01*
X0062652Y0065513D01*
X0062652Y0065547D01*
X0061598Y0066602D01*
X0057103Y0066602D01*
X0057082Y0070036D01*
X0058192Y0071146D01*
X0058918Y0072899D01*
X0058918Y0074796D01*
X0058192Y0076548D01*
X0057036Y0077705D01*
X0056920Y0096638D01*
X0090758Y0096638D01*
X0089777Y0096231D01*
X0088427Y0094881D01*
X0087696Y0093117D01*
X0087696Y0085207D01*
X0088427Y0083443D01*
X0089777Y0082093D01*
X0091541Y0081362D01*
X0093451Y0081362D01*
X0095215Y0082093D01*
X0096565Y0083443D01*
X0097296Y0085207D01*
X0097296Y0093117D01*
X0096565Y0094881D01*
X0095215Y0096231D01*
X0094234Y0096638D01*
X0100758Y0096638D01*
X0099777Y0096231D01*
X0098427Y0094881D01*
X0097696Y0093117D01*
X0097696Y0085207D01*
X0098427Y0083443D01*
X0099777Y0082093D01*
X0101541Y0081362D01*
X0103451Y0081362D01*
X0105215Y0082093D01*
X0106565Y0083443D01*
X0107296Y0085207D01*
X0107296Y0093117D01*
X0106565Y0094881D01*
X0105215Y0096231D01*
X0104234Y0096638D01*
X0110737Y0096638D01*
X0110653Y0096611D01*
X0109980Y0096268D01*
X0109369Y0095823D01*
X0108835Y0095289D01*
X0108391Y0094678D01*
X0108048Y0094005D01*
X0107814Y0093286D01*
X0107696Y0092540D01*
X0107696Y0089362D01*
X0112296Y0089362D01*
X0112296Y0088962D01*
X0107696Y0088962D01*
X0107696Y0085784D01*
X0107814Y0085038D01*
X0108048Y0084320D01*
X0108391Y0083646D01*
X0108835Y0083035D01*
X0109369Y0082501D01*
X0109825Y0082170D01*
X0109752Y0082056D01*
X0109595Y0081900D01*
X0109495Y0081659D01*
X0109354Y0081439D01*
X0109315Y0081222D01*
X0109230Y0081018D01*
X0109230Y0080757D01*
X0108840Y0078609D01*
X0104605Y0078609D01*
X0104585Y0078617D01*
X0104128Y0078609D01*
X0103672Y0078609D01*
X0103652Y0078601D01*
X0096186Y0078470D01*
X0095259Y0079397D01*
X0090599Y0079397D01*
X0089545Y0078342D01*
X0089545Y0073926D01*
X0077219Y0074203D01*
X0077219Y0074209D01*
X0076164Y0075263D01*
X0071505Y0075263D01*
X0070450Y0074209D01*
X0070450Y0069549D01*
X0071505Y0068494D01*
X0076164Y0068494D01*
X0077075Y0069405D01*
X0104899Y0068780D01*
X0104899Y0064234D01*
X0105916Y0063217D01*
X0106048Y0049963D01*
X0105096Y0049012D01*
X0105096Y0047276D01*
X0098085Y0059403D01*
X0098085Y0062791D01*
X0097031Y0063846D01*
X0092371Y0063846D01*
X0091317Y0062791D01*
X0091317Y0058132D01*
X0092371Y0057077D01*
X0093885Y0057077D01*
X0105883Y0036323D01*
X0105883Y0032935D01*
X0106938Y0031880D01*
X0111598Y0031880D01*
X0112652Y0032935D01*
X0112652Y0037594D01*
X0112067Y0038180D01*
X0113566Y0038180D01*
X0114620Y0039234D01*
X0114620Y0042917D01*
X0117742Y0049037D01*
X0117817Y0049114D01*
X0117958Y0049460D01*
X0118127Y0049792D01*
X0118136Y0049899D01*
X0118176Y0049998D01*
X0118173Y0050372D01*
X0118203Y0050744D01*
X0118170Y0050846D01*
X0117992Y0074102D01*
X0118951Y0075061D01*
X0118951Y0078140D01*
X0154322Y0078140D01*
X0154574Y0078093D01*
X0154795Y0078140D01*
X0155021Y0078140D01*
X0155257Y0078238D01*
X0155508Y0078291D01*
X0155694Y0078419D01*
X0155903Y0078506D01*
X0156084Y0078687D01*
X0156295Y0078832D01*
X0156418Y0079021D01*
X0156578Y0079181D01*
X0156676Y0079418D01*
X0158231Y0081810D01*
X0159218Y0081402D01*
X0161128Y0081402D01*
X0162892Y0082132D01*
X0164242Y0083483D01*
X0164973Y0085247D01*
X0164973Y0093156D01*
X0164242Y0094921D01*
X0162892Y0096271D01*
X0162006Y0096638D01*
X0168340Y0096638D01*
X0167454Y0096271D01*
X0166104Y0094921D01*
X0165373Y0093156D01*
X0165373Y0085247D01*
X0165886Y0084008D01*
X0157484Y0059121D01*
X0156544Y0059121D01*
X0155490Y0058067D01*
X0155490Y0053407D01*
X0156544Y0052353D01*
X0161204Y0052353D01*
X0162258Y0053407D01*
X0162258Y0058067D01*
X0162210Y0058115D01*
X0170073Y0081402D01*
X0171128Y0081402D01*
X0172892Y0082132D01*
X0174242Y0083483D01*
X0174973Y0085247D01*
X0174973Y0093156D01*
X0174242Y0094921D01*
X0172892Y0096271D01*
X0172006Y0096638D01*
X0178307Y0096638D01*
X0177657Y0096307D01*
X0177046Y0095863D01*
X0176512Y0095329D01*
X0176068Y0094717D01*
X0175725Y0094044D01*
X0175491Y0093326D01*
X0175373Y0092579D01*
X0175373Y0089402D01*
X0179973Y0089402D01*
X0179973Y0089002D01*
X0175373Y0089002D01*
X0175373Y0085824D01*
X0175491Y0085078D01*
X0175725Y0084359D01*
X0176068Y0083686D01*
X0176512Y0083075D01*
X0177046Y0082540D01*
X0177657Y0082096D01*
X0178331Y0081753D01*
X0179049Y0081520D01*
X0179795Y0081402D01*
X0179973Y0081402D01*
X0179973Y0089001D01*
X0180373Y0089001D01*
X0180373Y0081402D01*
X0180551Y0081402D01*
X0181297Y0081520D01*
X0182016Y0081753D01*
X0182689Y0082096D01*
X0183300Y0082540D01*
X0183834Y0083075D01*
X0184279Y0083686D01*
X0184622Y0084359D01*
X0184855Y0085078D01*
X0184973Y0085824D01*
X0184973Y0089002D01*
X0180373Y0089002D01*
X0180373Y0089402D01*
X0184973Y0089402D01*
X0184973Y0092579D01*
X0184855Y0093326D01*
X0184622Y0094044D01*
X0184279Y0094717D01*
X0183834Y0095329D01*
X0183300Y0095863D01*
X0182689Y0096307D01*
X0182040Y0096638D01*
X0187519Y0096638D01*
X0186721Y0095840D01*
X0185995Y0094087D01*
X0185995Y0092190D01*
X0186721Y0090437D01*
X0188063Y0089096D01*
X0189815Y0088370D01*
X0191712Y0088370D01*
X0193465Y0089096D01*
X0194806Y0090437D01*
X0195050Y0091027D01*
X0195050Y0009654D01*
X0194413Y0011194D01*
X0193071Y0012535D01*
X0191319Y0013261D01*
X0189422Y0013261D01*
X0187669Y0012535D01*
X0186328Y0011194D01*
X0185602Y0009441D01*
X0185602Y0007544D01*
X0186328Y0005792D01*
X0187669Y0004450D01*
X0189209Y0003813D01*
X0043569Y0003813D01*
X0044094Y0004338D01*
X0037561Y0004210D02*
X0003800Y0004210D01*
X0003800Y0005808D02*
X0009063Y0005808D01*
X0007474Y0007407D02*
X0003800Y0007407D01*
X0003800Y0009005D02*
X0006473Y0009005D01*
X0006474Y0010604D02*
X0003800Y0010604D01*
X0003800Y0012202D02*
X0006474Y0012202D01*
X0006474Y0013801D02*
X0003800Y0013801D01*
X0003800Y0015399D02*
X0006474Y0015399D01*
X0006474Y0016998D02*
X0003800Y0016998D01*
X0003800Y0018596D02*
X0006474Y0018596D01*
X0006474Y0020195D02*
X0003800Y0020195D01*
X0003800Y0021793D02*
X0006474Y0021793D01*
X0004864Y0023392D02*
X0003800Y0023392D01*
X0003800Y0024990D02*
X0004254Y0024990D01*
X0004254Y0026589D02*
X0003800Y0026589D01*
X0003800Y0028187D02*
X0004254Y0028187D01*
X0004460Y0029786D02*
X0003800Y0029786D01*
X0003800Y0031384D02*
X0005619Y0031384D01*
X0003800Y0032983D02*
X0078079Y0032983D01*
X0077734Y0033328D02*
X0078788Y0032274D01*
X0081108Y0032274D01*
X0083946Y0029436D01*
X0083639Y0029130D01*
X0083639Y0024470D01*
X0084694Y0023416D01*
X0089353Y0023416D01*
X0090408Y0024470D01*
X0090408Y0029130D01*
X0089424Y0030114D01*
X0089424Y0030230D01*
X0089058Y0031112D01*
X0088383Y0031787D01*
X0084502Y0035668D01*
X0084502Y0037988D01*
X0083448Y0039043D01*
X0078788Y0039043D01*
X0077734Y0037988D01*
X0077734Y0033328D01*
X0077734Y0034581D02*
X0057299Y0034581D01*
X0057289Y0036180D02*
X0077734Y0036180D01*
X0077734Y0037778D02*
X0057279Y0037778D01*
X0057269Y0039377D02*
X0104118Y0039377D01*
X0103194Y0040975D02*
X0057260Y0040975D01*
X0057250Y0042574D02*
X0102270Y0042574D01*
X0101346Y0044172D02*
X0057240Y0044172D01*
X0057230Y0045771D02*
X0100422Y0045771D01*
X0099497Y0047369D02*
X0057221Y0047369D01*
X0057211Y0048968D02*
X0098573Y0048968D01*
X0097649Y0050566D02*
X0057201Y0050566D01*
X0057191Y0052165D02*
X0096725Y0052165D01*
X0095801Y0053763D02*
X0057182Y0053763D01*
X0057172Y0055362D02*
X0094877Y0055362D01*
X0093953Y0056960D02*
X0057162Y0056960D01*
X0057152Y0058559D02*
X0091317Y0058559D01*
X0091317Y0060158D02*
X0074914Y0060158D01*
X0075250Y0061756D02*
X0091317Y0061756D01*
X0091880Y0063355D02*
X0075250Y0063355D01*
X0075250Y0064953D02*
X0104899Y0064953D01*
X0104899Y0066552D02*
X0061648Y0066552D01*
X0058275Y0071347D02*
X0070450Y0071347D01*
X0070450Y0069749D02*
X0057084Y0069749D01*
X0057094Y0068150D02*
X0104899Y0068150D01*
X0105779Y0063355D02*
X0097522Y0063355D01*
X0098085Y0061756D02*
X0105931Y0061756D01*
X0105947Y0060158D02*
X0098085Y0060158D01*
X0098573Y0058559D02*
X0105963Y0058559D01*
X0105978Y0056960D02*
X0099497Y0056960D01*
X0100421Y0055362D02*
X0105994Y0055362D01*
X0106010Y0053763D02*
X0101345Y0053763D01*
X0102269Y0052165D02*
X0106026Y0052165D01*
X0106042Y0050566D02*
X0103194Y0050566D01*
X0104118Y0048968D02*
X0105096Y0048968D01*
X0105042Y0047369D02*
X0105096Y0047369D01*
X0105042Y0037778D02*
X0084502Y0037778D01*
X0084502Y0036180D02*
X0105883Y0036180D01*
X0105883Y0034581D02*
X0085589Y0034581D01*
X0087188Y0032983D02*
X0105883Y0032983D01*
X0112652Y0032983D02*
X0126075Y0032983D01*
X0125962Y0032870D02*
X0125962Y0028210D01*
X0127017Y0027156D01*
X0131676Y0027156D01*
X0132731Y0028210D01*
X0132731Y0032870D01*
X0131676Y0033924D01*
X0131154Y0033924D01*
X0125218Y0065580D01*
X0125644Y0066006D01*
X0125644Y0070665D01*
X0124590Y0071720D01*
X0119930Y0071720D01*
X0118876Y0070665D01*
X0118876Y0066006D01*
X0119930Y0064951D01*
X0120453Y0064951D01*
X0126388Y0033296D01*
X0125962Y0032870D01*
X0125962Y0031384D02*
X0088786Y0031384D01*
X0089752Y0029786D02*
X0125962Y0029786D01*
X0125985Y0028187D02*
X0090408Y0028187D01*
X0090408Y0026589D02*
X0183550Y0026589D01*
X0183550Y0027529D02*
X0183550Y0024720D01*
X0187922Y0024720D01*
X0187922Y0024549D01*
X0183550Y0024549D01*
X0183550Y0021740D01*
X0183673Y0021282D01*
X0183910Y0020872D01*
X0184245Y0020537D01*
X0184656Y0020300D01*
X0185113Y0020177D01*
X0187922Y0020177D01*
X0187922Y0024549D01*
X0188094Y0024549D01*
X0188094Y0024720D01*
X0192465Y0024720D01*
X0192465Y0027529D01*
X0192343Y0027987D01*
X0192106Y0028397D01*
X0191771Y0028732D01*
X0191360Y0028969D01*
X0190902Y0029092D01*
X0188094Y0029092D01*
X0188094Y0024721D01*
X0187922Y0024721D01*
X0187922Y0029092D01*
X0185113Y0029092D01*
X0184656Y0028969D01*
X0184245Y0028732D01*
X0183910Y0028397D01*
X0183673Y0027987D01*
X0183550Y0027529D01*
X0183789Y0028187D02*
X0132708Y0028187D01*
X0132731Y0029786D02*
X0195050Y0029786D01*
X0195050Y0031384D02*
X0132731Y0031384D01*
X0132618Y0032983D02*
X0195050Y0032983D01*
X0195050Y0034581D02*
X0192530Y0034581D01*
X0192509Y0034560D02*
X0193775Y0035826D01*
X0194460Y0037480D01*
X0194460Y0039270D01*
X0193775Y0040924D01*
X0192509Y0042190D01*
X0190855Y0042875D01*
X0183665Y0042875D01*
X0182011Y0042190D01*
X0180745Y0040924D01*
X0180060Y0039270D01*
X0180060Y0037480D01*
X0180745Y0035826D01*
X0182011Y0034560D01*
X0183665Y0033875D01*
X0190855Y0033875D01*
X0192509Y0034560D01*
X0193921Y0036180D02*
X0195050Y0036180D01*
X0195050Y0037778D02*
X0194460Y0037778D01*
X0194416Y0039377D02*
X0195050Y0039377D01*
X0195050Y0040975D02*
X0193723Y0040975D01*
X0195050Y0042574D02*
X0191581Y0042574D01*
X0190855Y0043875D02*
X0192509Y0044560D01*
X0193775Y0045826D01*
X0194460Y0047480D01*
X0194460Y0049270D01*
X0193775Y0050924D01*
X0192509Y0052190D01*
X0190855Y0052875D01*
X0190752Y0052875D01*
X0190475Y0071358D01*
X0191411Y0071358D01*
X0192465Y0072413D01*
X0192465Y0079219D01*
X0191411Y0080273D01*
X0184605Y0080273D01*
X0183550Y0079219D01*
X0183550Y0072413D01*
X0184605Y0071358D01*
X0185674Y0071358D01*
X0185951Y0052875D01*
X0183665Y0052875D01*
X0182011Y0052190D01*
X0180745Y0050924D01*
X0180060Y0049270D01*
X0180060Y0047480D01*
X0180745Y0045826D01*
X0182011Y0044560D01*
X0183665Y0043875D01*
X0190855Y0043875D01*
X0191573Y0044172D02*
X0195050Y0044172D01*
X0195050Y0045771D02*
X0193720Y0045771D01*
X0194414Y0047369D02*
X0195050Y0047369D01*
X0195050Y0048968D02*
X0194460Y0048968D01*
X0193923Y0050566D02*
X0195050Y0050566D01*
X0195050Y0052165D02*
X0192534Y0052165D01*
X0190738Y0053763D02*
X0195050Y0053763D01*
X0195050Y0055362D02*
X0190714Y0055362D01*
X0190690Y0056960D02*
X0195050Y0056960D01*
X0195050Y0058559D02*
X0190666Y0058559D01*
X0190643Y0060158D02*
X0195050Y0060158D01*
X0195050Y0061756D02*
X0190619Y0061756D01*
X0190595Y0063355D02*
X0195050Y0063355D01*
X0195050Y0064953D02*
X0190571Y0064953D01*
X0190547Y0066552D02*
X0195050Y0066552D01*
X0195050Y0068150D02*
X0190523Y0068150D01*
X0190499Y0069749D02*
X0195050Y0069749D01*
X0195050Y0071347D02*
X0190475Y0071347D01*
X0192465Y0072946D02*
X0195050Y0072946D01*
X0195050Y0074544D02*
X0192465Y0074544D01*
X0192465Y0076143D02*
X0195050Y0076143D01*
X0195050Y0077741D02*
X0192465Y0077741D01*
X0192345Y0079340D02*
X0195050Y0079340D01*
X0195050Y0080938D02*
X0169916Y0080938D01*
X0169376Y0079340D02*
X0183671Y0079340D01*
X0183550Y0077741D02*
X0168837Y0077741D01*
X0168297Y0076143D02*
X0183550Y0076143D01*
X0183550Y0074544D02*
X0167757Y0074544D01*
X0167218Y0072946D02*
X0183550Y0072946D01*
X0185674Y0071347D02*
X0166678Y0071347D01*
X0166138Y0069749D02*
X0185698Y0069749D01*
X0185722Y0068150D02*
X0165598Y0068150D01*
X0165059Y0066552D02*
X0185746Y0066552D01*
X0185770Y0064953D02*
X0164519Y0064953D01*
X0163979Y0063355D02*
X0185794Y0063355D01*
X0185818Y0061756D02*
X0163439Y0061756D01*
X0162900Y0060158D02*
X0185842Y0060158D01*
X0185866Y0058559D02*
X0162360Y0058559D01*
X0162258Y0056960D02*
X0185890Y0056960D01*
X0185914Y0055362D02*
X0162258Y0055362D01*
X0162258Y0053763D02*
X0185938Y0053763D01*
X0181986Y0052165D02*
X0127734Y0052165D01*
X0128033Y0050566D02*
X0180597Y0050566D01*
X0180060Y0048968D02*
X0128333Y0048968D01*
X0128633Y0047369D02*
X0180106Y0047369D01*
X0180800Y0045771D02*
X0128933Y0045771D01*
X0129232Y0044172D02*
X0182946Y0044172D01*
X0182938Y0042574D02*
X0129532Y0042574D01*
X0129832Y0040975D02*
X0180796Y0040975D01*
X0180104Y0039377D02*
X0130131Y0039377D01*
X0130431Y0037778D02*
X0180060Y0037778D01*
X0180598Y0036180D02*
X0130731Y0036180D01*
X0131031Y0034581D02*
X0181989Y0034581D01*
X0187922Y0028187D02*
X0188094Y0028187D01*
X0188094Y0026589D02*
X0187922Y0026589D01*
X0187922Y0024990D02*
X0188094Y0024990D01*
X0188094Y0024549D02*
X0192465Y0024549D01*
X0192465Y0021740D01*
X0192343Y0021282D01*
X0192106Y0020872D01*
X0191771Y0020537D01*
X0191360Y0020300D01*
X0190902Y0020177D01*
X0188094Y0020177D01*
X0188094Y0024549D01*
X0188094Y0023392D02*
X0187922Y0023392D01*
X0187922Y0021793D02*
X0188094Y0021793D01*
X0188094Y0020195D02*
X0187922Y0020195D01*
X0185048Y0020195D02*
X0011274Y0020195D01*
X0011274Y0021793D02*
X0183550Y0021793D01*
X0183550Y0023392D02*
X0045443Y0023392D01*
X0045536Y0023485D02*
X0046054Y0024735D01*
X0046054Y0029287D01*
X0045536Y0030537D01*
X0044579Y0031493D01*
X0043330Y0032011D01*
X0041977Y0032011D01*
X0040728Y0031493D01*
X0040154Y0030919D01*
X0039579Y0031493D01*
X0038330Y0032011D01*
X0036977Y0032011D01*
X0035728Y0031493D01*
X0035154Y0030919D01*
X0034579Y0031493D01*
X0033330Y0032011D01*
X0031977Y0032011D01*
X0030728Y0031493D01*
X0030154Y0030919D01*
X0029579Y0031493D01*
X0028330Y0032011D01*
X0026977Y0032011D01*
X0025728Y0031493D01*
X0025154Y0030919D01*
X0024579Y0031493D01*
X0023330Y0032011D01*
X0021977Y0032011D01*
X0020728Y0031493D01*
X0020154Y0030919D01*
X0019579Y0031493D01*
X0018330Y0032011D01*
X0016977Y0032011D01*
X0015728Y0031493D01*
X0015154Y0030919D01*
X0014821Y0031252D01*
X0014264Y0031624D01*
X0013645Y0031880D01*
X0012988Y0032011D01*
X0012654Y0032011D01*
X0012654Y0028611D01*
X0012654Y0022011D01*
X0012988Y0022011D01*
X0013645Y0022142D01*
X0014264Y0022398D01*
X0014821Y0022770D01*
X0015154Y0023103D01*
X0015728Y0022529D01*
X0016977Y0022011D01*
X0018330Y0022011D01*
X0019579Y0022529D01*
X0020154Y0023103D01*
X0020728Y0022529D01*
X0021977Y0022011D01*
X0023330Y0022011D01*
X0024579Y0022529D01*
X0025154Y0023103D01*
X0025728Y0022529D01*
X0026977Y0022011D01*
X0028330Y0022011D01*
X0029579Y0022529D01*
X0030154Y0023103D01*
X0030728Y0022529D01*
X0031977Y0022011D01*
X0033330Y0022011D01*
X0034579Y0022529D01*
X0035154Y0023103D01*
X0035728Y0022529D01*
X0036977Y0022011D01*
X0038330Y0022011D01*
X0039579Y0022529D01*
X0040154Y0023103D01*
X0040728Y0022529D01*
X0041977Y0022011D01*
X0043330Y0022011D01*
X0044579Y0022529D01*
X0045536Y0023485D01*
X0046054Y0024990D02*
X0083639Y0024990D01*
X0083639Y0026589D02*
X0046054Y0026589D01*
X0046054Y0028187D02*
X0083639Y0028187D01*
X0083596Y0029786D02*
X0045847Y0029786D01*
X0044689Y0031384D02*
X0081998Y0031384D01*
X0090408Y0024990D02*
X0183550Y0024990D01*
X0190968Y0020195D02*
X0195050Y0020195D01*
X0195050Y0021793D02*
X0192465Y0021793D01*
X0192465Y0023392D02*
X0195050Y0023392D01*
X0195050Y0024990D02*
X0192465Y0024990D01*
X0192465Y0026589D02*
X0195050Y0026589D01*
X0195050Y0028187D02*
X0192227Y0028187D01*
X0195050Y0018596D02*
X0011274Y0018596D01*
X0011274Y0016998D02*
X0195050Y0016998D01*
X0195050Y0015399D02*
X0011274Y0015399D01*
X0011274Y0013801D02*
X0078145Y0013801D01*
X0076994Y0012202D02*
X0011274Y0012202D01*
X0011274Y0010604D02*
X0076543Y0010604D01*
X0085036Y0013801D02*
X0098145Y0013801D01*
X0098731Y0014387D02*
X0097311Y0012967D01*
X0096543Y0011111D01*
X0096543Y0009103D01*
X0097311Y0007248D01*
X0098731Y0005828D01*
X0100586Y0005059D01*
X0102595Y0005059D01*
X0104450Y0005828D01*
X0105870Y0007248D01*
X0106639Y0009103D01*
X0106639Y0011111D01*
X0105870Y0012967D01*
X0104450Y0014387D01*
X0102595Y0015155D01*
X0100586Y0015155D01*
X0098731Y0014387D01*
X0096994Y0012202D02*
X0086187Y0012202D01*
X0086639Y0010604D02*
X0096543Y0010604D01*
X0096583Y0009005D02*
X0086598Y0009005D01*
X0085936Y0007407D02*
X0097245Y0007407D01*
X0098778Y0005808D02*
X0084403Y0005808D01*
X0104403Y0005808D02*
X0113432Y0005808D01*
X0112342Y0007407D02*
X0105936Y0007407D01*
X0106598Y0009005D02*
X0112342Y0009005D01*
X0112342Y0010604D02*
X0106639Y0010604D01*
X0106187Y0012202D02*
X0113669Y0012202D01*
X0105036Y0013801D02*
X0195050Y0013801D01*
X0195050Y0012202D02*
X0193404Y0012202D01*
X0194657Y0010604D02*
X0195050Y0010604D01*
X0187336Y0012202D02*
X0134394Y0012202D01*
X0135721Y0010604D02*
X0186083Y0010604D01*
X0185602Y0009005D02*
X0135721Y0009005D01*
X0135721Y0007407D02*
X0185659Y0007407D01*
X0186321Y0005808D02*
X0134631Y0005808D01*
X0133032Y0004210D02*
X0188250Y0004210D01*
X0155490Y0053763D02*
X0127434Y0053763D01*
X0127134Y0055362D02*
X0155490Y0055362D01*
X0155490Y0056960D02*
X0135880Y0056960D01*
X0135880Y0056754D02*
X0134826Y0055699D01*
X0130166Y0055699D01*
X0129112Y0056754D01*
X0129112Y0061413D01*
X0130096Y0062398D01*
X0130096Y0068565D01*
X0129112Y0069549D01*
X0129112Y0074209D01*
X0130166Y0075263D01*
X0134826Y0075263D01*
X0135880Y0074209D01*
X0135880Y0069549D01*
X0134896Y0068565D01*
X0134896Y0062398D01*
X0135880Y0061413D01*
X0135880Y0056754D01*
X0135880Y0058559D02*
X0155982Y0058559D01*
X0157833Y0060158D02*
X0135880Y0060158D01*
X0135538Y0061756D02*
X0158373Y0061756D01*
X0158913Y0063355D02*
X0134896Y0063355D01*
X0134896Y0064953D02*
X0159453Y0064953D01*
X0159992Y0066552D02*
X0134896Y0066552D01*
X0134896Y0068150D02*
X0160532Y0068150D01*
X0161072Y0069749D02*
X0135880Y0069749D01*
X0135880Y0071347D02*
X0161612Y0071347D01*
X0162151Y0072946D02*
X0135880Y0072946D01*
X0135545Y0074544D02*
X0162691Y0074544D01*
X0163231Y0076143D02*
X0118951Y0076143D01*
X0118951Y0077741D02*
X0163771Y0077741D01*
X0164310Y0079340D02*
X0156644Y0079340D01*
X0157664Y0080938D02*
X0164850Y0080938D01*
X0165390Y0082537D02*
X0163297Y0082537D01*
X0164513Y0084135D02*
X0165834Y0084135D01*
X0165373Y0085734D02*
X0164973Y0085734D01*
X0164973Y0087332D02*
X0165373Y0087332D01*
X0165373Y0088931D02*
X0164973Y0088931D01*
X0164973Y0090529D02*
X0165373Y0090529D01*
X0165373Y0092128D02*
X0164973Y0092128D01*
X0164737Y0093726D02*
X0165609Y0093726D01*
X0166508Y0095325D02*
X0163838Y0095325D01*
X0173838Y0095325D02*
X0176509Y0095325D01*
X0175622Y0093726D02*
X0174737Y0093726D01*
X0174973Y0092128D02*
X0175373Y0092128D01*
X0175373Y0090529D02*
X0174973Y0090529D01*
X0174973Y0088931D02*
X0175373Y0088931D01*
X0175373Y0087332D02*
X0174973Y0087332D01*
X0174973Y0085734D02*
X0175387Y0085734D01*
X0175839Y0084135D02*
X0174513Y0084135D01*
X0173297Y0082537D02*
X0177051Y0082537D01*
X0179973Y0082537D02*
X0180373Y0082537D01*
X0180373Y0084135D02*
X0179973Y0084135D01*
X0179973Y0085734D02*
X0180373Y0085734D01*
X0180373Y0087332D02*
X0179973Y0087332D01*
X0179973Y0088931D02*
X0180373Y0088931D01*
X0184508Y0084135D02*
X0195050Y0084135D01*
X0195050Y0082537D02*
X0183295Y0082537D01*
X0184959Y0085734D02*
X0195050Y0085734D01*
X0195050Y0087332D02*
X0184973Y0087332D01*
X0184973Y0088931D02*
X0188462Y0088931D01*
X0186683Y0090529D02*
X0184973Y0090529D01*
X0184973Y0092128D02*
X0186021Y0092128D01*
X0185995Y0093726D02*
X0184725Y0093726D01*
X0183837Y0095325D02*
X0186508Y0095325D01*
X0189209Y0102238D02*
X0187669Y0102876D01*
X0186328Y0104217D01*
X0185602Y0105970D01*
X0185602Y0107867D01*
X0186328Y0109619D01*
X0187669Y0110961D01*
X0189422Y0111687D01*
X0191319Y0111687D01*
X0193071Y0110961D01*
X0194413Y0109619D01*
X0195050Y0108079D01*
X0195050Y0189452D01*
X0194806Y0188863D01*
X0193465Y0187521D01*
X0191712Y0186795D01*
X0189815Y0186795D01*
X0188063Y0187521D01*
X0186721Y0188863D01*
X0185995Y0190615D01*
X0185995Y0192512D01*
X0186721Y0194265D01*
X0187519Y0195063D01*
X0182040Y0195063D01*
X0182689Y0194732D01*
X0183300Y0194288D01*
X0183834Y0193754D01*
X0184279Y0193143D01*
X0184622Y0192469D01*
X0184855Y0191751D01*
X0184973Y0191005D01*
X0184973Y0187827D01*
X0180373Y0187827D01*
X0180373Y0187427D01*
X0184973Y0187427D01*
X0184973Y0184249D01*
X0184855Y0183503D01*
X0184622Y0182784D01*
X0184279Y0182111D01*
X0183834Y0181500D01*
X0183300Y0180966D01*
X0182689Y0180521D01*
X0182016Y0180178D01*
X0181297Y0179945D01*
X0180551Y0179827D01*
X0180373Y0179827D01*
X0180373Y0187427D01*
X0179973Y0187427D01*
X0175373Y0187427D01*
X0175373Y0184249D01*
X0175491Y0183503D01*
X0175725Y0182784D01*
X0176068Y0182111D01*
X0176512Y0181500D01*
X0177046Y0180966D01*
X0177657Y0180521D01*
X0178331Y0180178D01*
X0179049Y0179945D01*
X0179795Y0179827D01*
X0179973Y0179827D01*
X0179973Y0187427D01*
X0179973Y0187827D01*
X0175373Y0187827D01*
X0175373Y0191005D01*
X0175491Y0191751D01*
X0175725Y0192469D01*
X0176068Y0193143D01*
X0176512Y0193754D01*
X0177046Y0194288D01*
X0177657Y0194732D01*
X0178307Y0195063D01*
X0172006Y0195063D01*
X0172892Y0194696D01*
X0174242Y0193346D01*
X0174973Y0191582D01*
X0174973Y0183672D01*
X0174242Y0181908D01*
X0172892Y0180558D01*
X0171128Y0179827D01*
X0170073Y0179827D01*
X0162210Y0156540D01*
X0162258Y0156492D01*
X0162258Y0151832D01*
X0161204Y0150778D01*
X0156544Y0150778D01*
X0155490Y0151832D01*
X0155490Y0156492D01*
X0156544Y0157546D01*
X0157484Y0157546D01*
X0165886Y0182433D01*
X0165373Y0183672D01*
X0165373Y0191582D01*
X0166104Y0193346D01*
X0167454Y0194696D01*
X0168340Y0195063D01*
X0162006Y0195063D01*
X0162892Y0194696D01*
X0164242Y0193346D01*
X0164973Y0191582D01*
X0164973Y0183672D01*
X0164242Y0181908D01*
X0162892Y0180558D01*
X0161128Y0179827D01*
X0159218Y0179827D01*
X0158231Y0180236D01*
X0156676Y0177843D01*
X0156578Y0177606D01*
X0156418Y0177446D01*
X0156295Y0177257D01*
X0156084Y0177112D01*
X0155903Y0176931D01*
X0155694Y0176844D01*
X0155508Y0176717D01*
X0155257Y0176663D01*
X0155021Y0176565D01*
X0154795Y0176565D01*
X0154574Y0176519D01*
X0154322Y0176565D01*
X0118951Y0176565D01*
X0118951Y0173486D01*
X0117992Y0172527D01*
X0118170Y0149271D01*
X0118203Y0149169D01*
X0118173Y0148797D01*
X0118176Y0148424D01*
X0118136Y0148324D01*
X0118127Y0148217D01*
X0117958Y0147885D01*
X0117817Y0147539D01*
X0117742Y0147462D01*
X0114620Y0141342D01*
X0114620Y0137659D01*
X0113566Y0136605D01*
X0112067Y0136605D01*
X0112652Y0136020D01*
X0112652Y0131360D01*
X0111598Y0130306D01*
X0106938Y0130306D01*
X0105883Y0131360D01*
X0105883Y0134748D01*
X0093885Y0155502D01*
X0092371Y0155502D01*
X0091317Y0156557D01*
X0091317Y0161216D01*
X0092371Y0162271D01*
X0097031Y0162271D01*
X0098085Y0161216D01*
X0098085Y0157828D01*
X0105096Y0145701D01*
X0105096Y0147437D01*
X0106048Y0148389D01*
X0105916Y0161642D01*
X0104899Y0162659D01*
X0104899Y0167205D01*
X0077075Y0167831D01*
X0076164Y0166920D01*
X0071505Y0166920D01*
X0070450Y0167974D01*
X0070450Y0172634D01*
X0071505Y0173688D01*
X0076164Y0173688D01*
X0077219Y0172634D01*
X0077219Y0172628D01*
X0089545Y0172351D01*
X0089545Y0176768D01*
X0090599Y0177822D01*
X0095259Y0177822D01*
X0096186Y0176895D01*
X0103652Y0177026D01*
X0103672Y0177035D01*
X0104128Y0177035D01*
X0104585Y0177043D01*
X0104605Y0177035D01*
X0108840Y0177035D01*
X0109230Y0179182D01*
X0109230Y0179443D01*
X0109315Y0179647D01*
X0109354Y0179864D01*
X0109495Y0180084D01*
X0109595Y0180325D01*
X0109752Y0180481D01*
X0109825Y0180595D01*
X0109369Y0180926D01*
X0108835Y0181460D01*
X0108391Y0182072D01*
X0108048Y0182745D01*
X0107814Y0183463D01*
X0107696Y0184210D01*
X0107696Y0187387D01*
X0112296Y0187387D01*
X0112296Y0187787D01*
X0107696Y0187787D01*
X0107696Y0190965D01*
X0107814Y0191711D01*
X0108048Y0192430D01*
X0108391Y0193103D01*
X0108835Y0193714D01*
X0109369Y0194249D01*
X0109980Y0194693D01*
X0110653Y0195036D01*
X0110737Y0195063D01*
X0104234Y0195063D01*
X0105215Y0194657D01*
X0106565Y0193306D01*
X0107296Y0191542D01*
X0107296Y0183633D01*
X0106565Y0181868D01*
X0105215Y0180518D01*
X0103451Y0179787D01*
X0101541Y0179787D01*
X0099777Y0180518D01*
X0098427Y0181868D01*
X0097696Y0183633D01*
X0097696Y0191542D01*
X0098427Y0193306D01*
X0099777Y0194657D01*
X0100758Y0195063D01*
X0094234Y0195063D01*
X0095215Y0194657D01*
X0096565Y0193306D01*
X0097296Y0191542D01*
X0097296Y0183633D01*
X0096565Y0181868D01*
X0095215Y0180518D01*
X0093451Y0179787D01*
X0091541Y0179787D01*
X0089777Y0180518D01*
X0088427Y0181868D01*
X0087696Y0183633D01*
X0087696Y0191542D01*
X0088427Y0193306D01*
X0089777Y0194657D01*
X0090758Y0195063D01*
X0056920Y0195063D01*
X0057036Y0176130D01*
X0058192Y0174974D01*
X0058918Y0173221D01*
X0058918Y0171324D01*
X0058192Y0169571D01*
X0057082Y0168462D01*
X0057103Y0165027D01*
X0061598Y0165027D01*
X0062652Y0163972D01*
X0062652Y0163938D01*
X0068654Y0163750D01*
X0069536Y0164633D01*
X0074196Y0164633D01*
X0075250Y0163579D01*
X0075250Y0158919D01*
X0074196Y0157865D01*
X0069536Y0157865D01*
X0068482Y0158919D01*
X0068482Y0158953D01*
X0062480Y0159141D01*
X0061598Y0158258D01*
X0057145Y0158258D01*
X0057299Y0132902D01*
X0057299Y0132509D01*
X0003800Y0132509D01*
X0003800Y0102238D01*
X0037958Y0102238D01*
X0037429Y0102767D01*
X0011346Y0102928D01*
X0010874Y0102929D01*
X0010870Y0102931D01*
X0010866Y0102931D01*
X0010428Y0103116D01*
X0009993Y0103298D01*
X0009990Y0103300D01*
X0009987Y0103302D01*
X0009653Y0103639D01*
X0007173Y0106135D01*
X0006839Y0106468D01*
X0006838Y0106472D01*
X0006835Y0106475D01*
X0006655Y0106915D01*
X0006474Y0107351D01*
X0006474Y0107354D01*
X0006473Y0107358D01*
X0006474Y0107831D01*
X0006474Y0120645D01*
X0005728Y0120954D01*
X0004771Y0121910D01*
X0004254Y0123160D01*
X0004254Y0127713D01*
X0004771Y0128962D01*
X0005728Y0129919D01*
X0006977Y0130436D01*
X0008330Y0130436D01*
X0009579Y0129919D01*
X0010154Y0129345D01*
X0010486Y0129677D01*
X0011043Y0130049D01*
X0011662Y0130306D01*
X0012319Y0130436D01*
X0012653Y0130436D01*
X0012653Y0127036D01*
X0012654Y0127036D01*
X0012654Y0120436D01*
X0012988Y0120436D01*
X0013645Y0120567D01*
X0014264Y0120823D01*
X0014821Y0121195D01*
X0015154Y0121528D01*
X0015728Y0120954D01*
X0016977Y0120436D01*
X0018330Y0120436D01*
X0019579Y0120954D01*
X0020154Y0121528D01*
X0020728Y0120954D01*
X0021977Y0120436D01*
X0023330Y0120436D01*
X0024579Y0120954D01*
X0025154Y0121528D01*
X0025728Y0120954D01*
X0026977Y0120436D01*
X0028330Y0120436D01*
X0029579Y0120954D01*
X0030154Y0121528D01*
X0030728Y0120954D01*
X0031977Y0120436D01*
X0033330Y0120436D01*
X0034579Y0120954D01*
X0035154Y0121528D01*
X0035728Y0120954D01*
X0036977Y0120436D01*
X0038330Y0120436D01*
X0039579Y0120954D01*
X0040154Y0121528D01*
X0040728Y0120954D01*
X0041977Y0120436D01*
X0043330Y0120436D01*
X0044579Y0120954D01*
X0045536Y0121910D01*
X0046054Y0123160D01*
X0046054Y0127713D01*
X0045536Y0128962D01*
X0044579Y0129919D01*
X0043330Y0130436D01*
X0041977Y0130436D01*
X0040728Y0129919D01*
X0040154Y0129345D01*
X0039579Y0129919D01*
X0038330Y0130436D01*
X0036977Y0130436D01*
X0035728Y0129919D01*
X0035154Y0129345D01*
X0034579Y0129919D01*
X0033330Y0130436D01*
X0031977Y0130436D01*
X0030728Y0129919D01*
X0030154Y0129345D01*
X0029579Y0129919D01*
X0028330Y0130436D01*
X0026977Y0130436D01*
X0025728Y0129919D01*
X0025154Y0129345D01*
X0024579Y0129919D01*
X0023330Y0130436D01*
X0021977Y0130436D01*
X0020728Y0129919D01*
X0020154Y0129345D01*
X0019579Y0129919D01*
X0018330Y0130436D01*
X0016977Y0130436D01*
X0015728Y0129919D01*
X0015154Y0129345D01*
X0014821Y0129677D01*
X0014264Y0130049D01*
X0013645Y0130306D01*
X0012988Y0130436D01*
X0012654Y0130436D01*
X0012654Y0127036D01*
X0012654Y0174241D01*
X0010843Y0174241D01*
X0003800Y0132091D02*
X0077734Y0132091D01*
X0077734Y0131754D02*
X0078788Y0130699D01*
X0081108Y0130699D01*
X0083946Y0127862D01*
X0083639Y0127555D01*
X0083639Y0122895D01*
X0084694Y0121841D01*
X0089353Y0121841D01*
X0090408Y0122895D01*
X0090408Y0127555D01*
X0089424Y0128539D01*
X0089424Y0128655D01*
X0089058Y0129537D01*
X0088383Y0130213D01*
X0084502Y0134093D01*
X0084502Y0136413D01*
X0083448Y0137468D01*
X0078788Y0137468D01*
X0077734Y0136413D01*
X0077734Y0131754D01*
X0077734Y0133689D02*
X0057294Y0133689D01*
X0057285Y0135288D02*
X0077734Y0135288D01*
X0078207Y0136886D02*
X0057275Y0136886D01*
X0057265Y0138485D02*
X0103723Y0138485D01*
X0102799Y0140083D02*
X0057255Y0140083D01*
X0057246Y0141682D02*
X0101875Y0141682D01*
X0100951Y0143280D02*
X0057236Y0143280D01*
X0057226Y0144879D02*
X0100027Y0144879D01*
X0099103Y0146477D02*
X0057216Y0146477D01*
X0057207Y0148076D02*
X0098179Y0148076D01*
X0097255Y0149674D02*
X0057197Y0149674D01*
X0057187Y0151273D02*
X0096330Y0151273D01*
X0095406Y0152871D02*
X0057177Y0152871D01*
X0057168Y0154470D02*
X0094482Y0154470D01*
X0091805Y0156068D02*
X0057158Y0156068D01*
X0057148Y0157667D02*
X0091317Y0157667D01*
X0091317Y0159265D02*
X0075250Y0159265D01*
X0075250Y0160864D02*
X0091317Y0160864D01*
X0098085Y0160864D02*
X0105924Y0160864D01*
X0105940Y0159265D02*
X0098085Y0159265D01*
X0098178Y0157667D02*
X0105956Y0157667D01*
X0105972Y0156068D02*
X0099102Y0156068D01*
X0100027Y0154470D02*
X0105987Y0154470D01*
X0106003Y0152871D02*
X0100951Y0152871D01*
X0101875Y0151273D02*
X0106019Y0151273D01*
X0106035Y0149674D02*
X0102799Y0149674D01*
X0103723Y0148076D02*
X0105735Y0148076D01*
X0105096Y0146477D02*
X0104647Y0146477D01*
X0104648Y0136886D02*
X0084030Y0136886D01*
X0084502Y0135288D02*
X0105572Y0135288D01*
X0105883Y0133689D02*
X0084907Y0133689D01*
X0086505Y0132091D02*
X0105883Y0132091D01*
X0106751Y0130492D02*
X0088104Y0130492D01*
X0088383Y0130213D02*
X0088383Y0130213D01*
X0089325Y0128894D02*
X0125962Y0128894D01*
X0125962Y0130492D02*
X0111784Y0130492D01*
X0112652Y0132091D02*
X0126319Y0132091D01*
X0126388Y0131721D02*
X0125962Y0131295D01*
X0125962Y0126636D01*
X0127017Y0125581D01*
X0131676Y0125581D01*
X0132731Y0126636D01*
X0132731Y0131295D01*
X0131676Y0132350D01*
X0131154Y0132350D01*
X0125218Y0164005D01*
X0125644Y0164431D01*
X0125644Y0169090D01*
X0124590Y0170145D01*
X0119930Y0170145D01*
X0118876Y0169090D01*
X0118876Y0164431D01*
X0119930Y0163376D01*
X0120453Y0163376D01*
X0126388Y0131721D01*
X0126019Y0133689D02*
X0112652Y0133689D01*
X0112652Y0135288D02*
X0125719Y0135288D01*
X0125420Y0136886D02*
X0113847Y0136886D01*
X0114620Y0138485D02*
X0125120Y0138485D01*
X0124820Y0140083D02*
X0114620Y0140083D01*
X0114794Y0141682D02*
X0124520Y0141682D01*
X0124221Y0143280D02*
X0115609Y0143280D01*
X0116424Y0144879D02*
X0123921Y0144879D01*
X0123621Y0146477D02*
X0117240Y0146477D01*
X0118055Y0148076D02*
X0123321Y0148076D01*
X0123022Y0149674D02*
X0118166Y0149674D01*
X0118154Y0151273D02*
X0122722Y0151273D01*
X0122422Y0152871D02*
X0118142Y0152871D01*
X0118130Y0154470D02*
X0122123Y0154470D01*
X0121823Y0156068D02*
X0118118Y0156068D01*
X0118105Y0157667D02*
X0121523Y0157667D01*
X0121223Y0159265D02*
X0118093Y0159265D01*
X0118081Y0160864D02*
X0120924Y0160864D01*
X0120624Y0162462D02*
X0118069Y0162462D01*
X0118057Y0164061D02*
X0119246Y0164061D01*
X0118876Y0165659D02*
X0118044Y0165659D01*
X0118032Y0167258D02*
X0118876Y0167258D01*
X0118876Y0168856D02*
X0118020Y0168856D01*
X0118008Y0170455D02*
X0129112Y0170455D01*
X0129112Y0172053D02*
X0117996Y0172053D01*
X0118951Y0173652D02*
X0130130Y0173652D01*
X0130166Y0173688D02*
X0129112Y0172634D01*
X0129112Y0167974D01*
X0130096Y0166990D01*
X0130096Y0160823D01*
X0129112Y0159838D01*
X0129112Y0155179D01*
X0130166Y0154124D01*
X0134826Y0154124D01*
X0135880Y0155179D01*
X0135880Y0159838D01*
X0134896Y0160823D01*
X0134896Y0166990D01*
X0135880Y0167974D01*
X0135880Y0172634D01*
X0134826Y0173688D01*
X0130166Y0173688D01*
X0134862Y0173652D02*
X0162922Y0173652D01*
X0163461Y0175250D02*
X0118951Y0175250D01*
X0118930Y0181365D02*
X0116062Y0181365D01*
X0116157Y0181460D01*
X0116601Y0182072D01*
X0116944Y0182745D01*
X0117178Y0183463D01*
X0117296Y0184210D01*
X0117296Y0187387D01*
X0112696Y0187387D01*
X0112696Y0187787D01*
X0117296Y0187787D01*
X0117296Y0190965D01*
X0117178Y0191711D01*
X0116944Y0192430D01*
X0116601Y0193103D01*
X0116157Y0193714D01*
X0115623Y0194249D01*
X0115012Y0194693D01*
X0114339Y0195036D01*
X0114255Y0195063D01*
X0120758Y0195063D01*
X0119777Y0194657D01*
X0118427Y0193306D01*
X0117696Y0191542D01*
X0117696Y0183633D01*
X0118427Y0181868D01*
X0118930Y0181365D01*
X0118651Y0181644D02*
X0116291Y0181644D01*
X0117106Y0183243D02*
X0117857Y0183243D01*
X0117696Y0184841D02*
X0117296Y0184841D01*
X0117296Y0186440D02*
X0117696Y0186440D01*
X0117696Y0188038D02*
X0117296Y0188038D01*
X0117296Y0189637D02*
X0117696Y0189637D01*
X0117696Y0191235D02*
X0117253Y0191235D01*
X0116739Y0192834D02*
X0118231Y0192834D01*
X0119553Y0194432D02*
X0115370Y0194432D01*
X0109622Y0194432D02*
X0105439Y0194432D01*
X0106761Y0192834D02*
X0108254Y0192834D01*
X0107739Y0191235D02*
X0107296Y0191235D01*
X0107296Y0189637D02*
X0107696Y0189637D01*
X0107696Y0188038D02*
X0107296Y0188038D01*
X0107296Y0186440D02*
X0107696Y0186440D01*
X0107696Y0184841D02*
X0107296Y0184841D01*
X0107135Y0183243D02*
X0107886Y0183243D01*
X0108701Y0181644D02*
X0106341Y0181644D01*
X0104075Y0180046D02*
X0109471Y0180046D01*
X0109096Y0178447D02*
X0057021Y0178447D01*
X0057031Y0176849D02*
X0089626Y0176849D01*
X0089545Y0175250D02*
X0057915Y0175250D01*
X0058740Y0173652D02*
X0071468Y0173652D01*
X0070450Y0172053D02*
X0058918Y0172053D01*
X0058558Y0170455D02*
X0070450Y0170455D01*
X0070450Y0168856D02*
X0057477Y0168856D01*
X0057090Y0167258D02*
X0071167Y0167258D01*
X0068964Y0164061D02*
X0062564Y0164061D01*
X0057099Y0165659D02*
X0104899Y0165659D01*
X0104899Y0164061D02*
X0074768Y0164061D01*
X0075250Y0162462D02*
X0105096Y0162462D01*
X0102561Y0167258D02*
X0076503Y0167258D01*
X0076201Y0173652D02*
X0089545Y0173652D01*
X0090917Y0180046D02*
X0057012Y0180046D01*
X0057002Y0181644D02*
X0088651Y0181644D01*
X0087857Y0183243D02*
X0056992Y0183243D01*
X0056983Y0184841D02*
X0087696Y0184841D01*
X0087696Y0186440D02*
X0056973Y0186440D01*
X0056963Y0188038D02*
X0087696Y0188038D01*
X0087696Y0189637D02*
X0056953Y0189637D01*
X0056944Y0191235D02*
X0087696Y0191235D01*
X0088231Y0192834D02*
X0056934Y0192834D01*
X0056924Y0194432D02*
X0089553Y0194432D01*
X0095439Y0194432D02*
X0099553Y0194432D01*
X0098231Y0192834D02*
X0096761Y0192834D01*
X0097296Y0191235D02*
X0097696Y0191235D01*
X0097696Y0189637D02*
X0097296Y0189637D01*
X0097296Y0188038D02*
X0097696Y0188038D01*
X0097696Y0186440D02*
X0097296Y0186440D01*
X0097296Y0184841D02*
X0097696Y0184841D01*
X0097857Y0183243D02*
X0097135Y0183243D01*
X0096341Y0181644D02*
X0098651Y0181644D01*
X0100917Y0180046D02*
X0094075Y0180046D01*
X0125274Y0164061D02*
X0130096Y0164061D01*
X0130096Y0165659D02*
X0125644Y0165659D01*
X0125644Y0167258D02*
X0129828Y0167258D01*
X0129112Y0168856D02*
X0125644Y0168856D01*
X0125508Y0162462D02*
X0130096Y0162462D01*
X0130096Y0160864D02*
X0125807Y0160864D01*
X0126107Y0159265D02*
X0129112Y0159265D01*
X0129112Y0157667D02*
X0126407Y0157667D01*
X0126706Y0156068D02*
X0129112Y0156068D01*
X0129821Y0154470D02*
X0127006Y0154470D01*
X0127306Y0152871D02*
X0155490Y0152871D01*
X0155490Y0154470D02*
X0135171Y0154470D01*
X0135880Y0156068D02*
X0155490Y0156068D01*
X0157524Y0157667D02*
X0135880Y0157667D01*
X0135880Y0159265D02*
X0158064Y0159265D01*
X0158604Y0160864D02*
X0134896Y0160864D01*
X0134896Y0162462D02*
X0159143Y0162462D01*
X0159683Y0164061D02*
X0134896Y0164061D01*
X0134896Y0165659D02*
X0160223Y0165659D01*
X0160763Y0167258D02*
X0135164Y0167258D01*
X0135880Y0168856D02*
X0161302Y0168856D01*
X0161842Y0170455D02*
X0135880Y0170455D01*
X0135880Y0172053D02*
X0162382Y0172053D01*
X0166908Y0170455D02*
X0183933Y0170455D01*
X0183550Y0170838D02*
X0184605Y0169783D01*
X0185674Y0169783D01*
X0185951Y0151300D01*
X0183665Y0151300D01*
X0182011Y0150615D01*
X0180745Y0149349D01*
X0180060Y0147695D01*
X0180060Y0145905D01*
X0180745Y0144251D01*
X0182011Y0142985D01*
X0183665Y0142300D01*
X0190855Y0142300D01*
X0192509Y0142985D01*
X0193775Y0144251D01*
X0194460Y0145905D01*
X0194460Y0147695D01*
X0193775Y0149349D01*
X0192509Y0150615D01*
X0190855Y0151300D01*
X0190752Y0151300D01*
X0190475Y0169783D01*
X0191411Y0169783D01*
X0192465Y0170838D01*
X0192465Y0177644D01*
X0191411Y0178698D01*
X0184605Y0178698D01*
X0183550Y0177644D01*
X0183550Y0170838D01*
X0183550Y0172053D02*
X0167448Y0172053D01*
X0167988Y0173652D02*
X0183550Y0173652D01*
X0183550Y0175250D02*
X0168527Y0175250D01*
X0169067Y0176849D02*
X0183550Y0176849D01*
X0184354Y0178447D02*
X0169607Y0178447D01*
X0171657Y0180046D02*
X0178739Y0180046D01*
X0179973Y0180046D02*
X0180373Y0180046D01*
X0181608Y0180046D02*
X0195050Y0180046D01*
X0195050Y0181644D02*
X0183940Y0181644D01*
X0184771Y0183243D02*
X0195050Y0183243D01*
X0195050Y0184841D02*
X0184973Y0184841D01*
X0184973Y0186440D02*
X0195050Y0186440D01*
X0195050Y0188038D02*
X0193982Y0188038D01*
X0187545Y0188038D02*
X0184973Y0188038D01*
X0184973Y0189637D02*
X0186401Y0189637D01*
X0185995Y0191235D02*
X0184937Y0191235D01*
X0184436Y0192834D02*
X0186129Y0192834D01*
X0186889Y0194432D02*
X0183101Y0194432D01*
X0177245Y0194432D02*
X0173156Y0194432D01*
X0174454Y0192834D02*
X0175911Y0192834D01*
X0175410Y0191235D02*
X0174973Y0191235D01*
X0174973Y0189637D02*
X0175373Y0189637D01*
X0175373Y0188038D02*
X0174973Y0188038D01*
X0174973Y0186440D02*
X0175373Y0186440D01*
X0175373Y0184841D02*
X0174973Y0184841D01*
X0174795Y0183243D02*
X0175576Y0183243D01*
X0176407Y0181644D02*
X0173979Y0181644D01*
X0179973Y0181644D02*
X0180373Y0181644D01*
X0180373Y0183243D02*
X0179973Y0183243D01*
X0179973Y0184841D02*
X0180373Y0184841D01*
X0180373Y0186440D02*
X0179973Y0186440D01*
X0191662Y0178447D02*
X0195050Y0178447D01*
X0195050Y0176849D02*
X0192465Y0176849D01*
X0192465Y0175250D02*
X0195050Y0175250D01*
X0195050Y0173652D02*
X0192465Y0173652D01*
X0192465Y0172053D02*
X0195050Y0172053D01*
X0195050Y0170455D02*
X0192082Y0170455D01*
X0190489Y0168856D02*
X0195050Y0168856D01*
X0195050Y0167258D02*
X0190513Y0167258D01*
X0190537Y0165659D02*
X0195050Y0165659D01*
X0195050Y0164061D02*
X0190561Y0164061D01*
X0190584Y0162462D02*
X0195050Y0162462D01*
X0195050Y0160864D02*
X0190608Y0160864D01*
X0190632Y0159265D02*
X0195050Y0159265D01*
X0195050Y0157667D02*
X0190656Y0157667D01*
X0190680Y0156068D02*
X0195050Y0156068D01*
X0195050Y0154470D02*
X0190704Y0154470D01*
X0190728Y0152871D02*
X0195050Y0152871D01*
X0195050Y0151273D02*
X0190921Y0151273D01*
X0193450Y0149674D02*
X0195050Y0149674D01*
X0195050Y0148076D02*
X0194302Y0148076D01*
X0194460Y0146477D02*
X0195050Y0146477D01*
X0195050Y0144879D02*
X0194035Y0144879D01*
X0195050Y0143280D02*
X0192804Y0143280D01*
X0192509Y0140615D02*
X0190855Y0141300D01*
X0183665Y0141300D01*
X0182011Y0140615D01*
X0180745Y0139349D01*
X0180060Y0137695D01*
X0180060Y0135905D01*
X0180745Y0134251D01*
X0182011Y0132985D01*
X0183665Y0132300D01*
X0190855Y0132300D01*
X0192509Y0132985D01*
X0193775Y0134251D01*
X0194460Y0135905D01*
X0194460Y0137695D01*
X0193775Y0139349D01*
X0192509Y0140615D01*
X0193041Y0140083D02*
X0195050Y0140083D01*
X0195050Y0138485D02*
X0194133Y0138485D01*
X0194460Y0136886D02*
X0195050Y0136886D01*
X0195050Y0135288D02*
X0194204Y0135288D01*
X0195050Y0133689D02*
X0193213Y0133689D01*
X0195050Y0132091D02*
X0131935Y0132091D01*
X0132731Y0130492D02*
X0195050Y0130492D01*
X0195050Y0128894D02*
X0132731Y0128894D01*
X0132731Y0127295D02*
X0184483Y0127295D01*
X0184656Y0127395D02*
X0184245Y0127158D01*
X0183910Y0126823D01*
X0183673Y0126412D01*
X0183550Y0125954D01*
X0183550Y0123146D01*
X0187922Y0123146D01*
X0187922Y0127517D01*
X0185113Y0127517D01*
X0184656Y0127395D01*
X0183550Y0125696D02*
X0131792Y0125696D01*
X0126901Y0125696D02*
X0090408Y0125696D01*
X0090408Y0124098D02*
X0183550Y0124098D01*
X0183550Y0122974D02*
X0183550Y0120165D01*
X0183673Y0119708D01*
X0183910Y0119297D01*
X0184245Y0118962D01*
X0184656Y0118725D01*
X0185113Y0118602D01*
X0187922Y0118602D01*
X0187922Y0122974D01*
X0183550Y0122974D01*
X0183550Y0122499D02*
X0090012Y0122499D01*
X0090408Y0127295D02*
X0125962Y0127295D01*
X0130903Y0133689D02*
X0181307Y0133689D01*
X0180316Y0135288D02*
X0130603Y0135288D01*
X0130303Y0136886D02*
X0180060Y0136886D01*
X0180387Y0138485D02*
X0130003Y0138485D01*
X0129704Y0140083D02*
X0181479Y0140083D01*
X0181716Y0143280D02*
X0129104Y0143280D01*
X0129404Y0141682D02*
X0195050Y0141682D01*
X0185928Y0152871D02*
X0162258Y0152871D01*
X0162258Y0154470D02*
X0185904Y0154470D01*
X0185880Y0156068D02*
X0162258Y0156068D01*
X0162590Y0157667D02*
X0185856Y0157667D01*
X0185832Y0159265D02*
X0163130Y0159265D01*
X0163670Y0160864D02*
X0185808Y0160864D01*
X0185784Y0162462D02*
X0164210Y0162462D01*
X0164749Y0164061D02*
X0185760Y0164061D01*
X0185736Y0165659D02*
X0165289Y0165659D01*
X0165829Y0167258D02*
X0185712Y0167258D01*
X0185688Y0168856D02*
X0166369Y0168856D01*
X0164001Y0176849D02*
X0155705Y0176849D01*
X0157069Y0178447D02*
X0164541Y0178447D01*
X0165080Y0180046D02*
X0161657Y0180046D01*
X0163979Y0181644D02*
X0165620Y0181644D01*
X0165551Y0183243D02*
X0164795Y0183243D01*
X0164973Y0184841D02*
X0165373Y0184841D01*
X0165373Y0186440D02*
X0164973Y0186440D01*
X0164973Y0188038D02*
X0165373Y0188038D01*
X0165373Y0189637D02*
X0164973Y0189637D01*
X0164973Y0191235D02*
X0165373Y0191235D01*
X0165892Y0192834D02*
X0164454Y0192834D01*
X0163156Y0194432D02*
X0167191Y0194432D01*
X0158690Y0180046D02*
X0158108Y0180046D01*
X0156049Y0151273D02*
X0127606Y0151273D01*
X0127905Y0149674D02*
X0181070Y0149674D01*
X0180217Y0148076D02*
X0128205Y0148076D01*
X0128505Y0146477D02*
X0180060Y0146477D01*
X0180485Y0144879D02*
X0128805Y0144879D01*
X0128933Y0112112D02*
X0126121Y0109300D01*
X0126121Y0105324D01*
X0128933Y0102512D01*
X0132909Y0102512D01*
X0135721Y0105324D01*
X0135721Y0109300D01*
X0132909Y0112112D01*
X0128933Y0112112D01*
X0128131Y0111310D02*
X0119932Y0111310D01*
X0119130Y0112112D02*
X0115154Y0112112D01*
X0112342Y0109300D01*
X0112342Y0105324D01*
X0115154Y0102512D01*
X0119130Y0102512D01*
X0121942Y0105324D01*
X0121942Y0109300D01*
X0119130Y0112112D01*
X0121530Y0109711D02*
X0126533Y0109711D01*
X0126121Y0108113D02*
X0121942Y0108113D01*
X0121942Y0106514D02*
X0126121Y0106514D01*
X0126529Y0104916D02*
X0121534Y0104916D01*
X0119935Y0103317D02*
X0128128Y0103317D01*
X0133715Y0103317D02*
X0187227Y0103317D01*
X0186038Y0104916D02*
X0135313Y0104916D01*
X0135721Y0106514D02*
X0185602Y0106514D01*
X0185704Y0108113D02*
X0135721Y0108113D01*
X0135310Y0109711D02*
X0186420Y0109711D01*
X0188512Y0111310D02*
X0133711Y0111310D01*
X0120758Y0096638D02*
X0119777Y0096231D01*
X0118427Y0094881D01*
X0117696Y0093117D01*
X0117696Y0085207D01*
X0118427Y0083443D01*
X0118930Y0082940D01*
X0116062Y0082940D01*
X0116157Y0083035D01*
X0116601Y0083646D01*
X0116944Y0084320D01*
X0117178Y0085038D01*
X0117296Y0085784D01*
X0117296Y0088962D01*
X0112696Y0088962D01*
X0112696Y0089362D01*
X0117296Y0089362D01*
X0117296Y0092540D01*
X0117178Y0093286D01*
X0116944Y0094005D01*
X0116601Y0094678D01*
X0116157Y0095289D01*
X0115623Y0095823D01*
X0115012Y0096268D01*
X0114339Y0096611D01*
X0114255Y0096638D01*
X0120758Y0096638D01*
X0118870Y0095325D02*
X0116122Y0095325D01*
X0117035Y0093726D02*
X0117948Y0093726D01*
X0117696Y0092128D02*
X0117296Y0092128D01*
X0117296Y0090529D02*
X0117696Y0090529D01*
X0117696Y0088931D02*
X0117296Y0088931D01*
X0117296Y0087332D02*
X0117696Y0087332D01*
X0117696Y0085734D02*
X0117288Y0085734D01*
X0116850Y0084135D02*
X0118140Y0084135D01*
X0109333Y0082537D02*
X0105659Y0082537D01*
X0106852Y0084135D02*
X0108142Y0084135D01*
X0107704Y0085734D02*
X0107296Y0085734D01*
X0107296Y0087332D02*
X0107696Y0087332D01*
X0107696Y0088931D02*
X0107296Y0088931D01*
X0107296Y0090529D02*
X0107696Y0090529D01*
X0107696Y0092128D02*
X0107296Y0092128D01*
X0107044Y0093726D02*
X0107957Y0093726D01*
X0108870Y0095325D02*
X0106122Y0095325D01*
X0098870Y0095325D02*
X0096122Y0095325D01*
X0097044Y0093726D02*
X0097948Y0093726D01*
X0097696Y0092128D02*
X0097296Y0092128D01*
X0097296Y0090529D02*
X0097696Y0090529D01*
X0097696Y0088931D02*
X0097296Y0088931D01*
X0097296Y0087332D02*
X0097696Y0087332D01*
X0097696Y0085734D02*
X0097296Y0085734D01*
X0096852Y0084135D02*
X0098140Y0084135D01*
X0099333Y0082537D02*
X0095659Y0082537D01*
X0095316Y0079340D02*
X0108972Y0079340D01*
X0109230Y0080938D02*
X0057016Y0080938D01*
X0057026Y0079340D02*
X0090542Y0079340D01*
X0089545Y0077741D02*
X0057035Y0077741D01*
X0058360Y0076143D02*
X0089545Y0076143D01*
X0089545Y0074544D02*
X0076883Y0074544D01*
X0070786Y0074544D02*
X0058918Y0074544D01*
X0058918Y0072946D02*
X0070450Y0072946D01*
X0068818Y0060158D02*
X0061922Y0060158D01*
X0057006Y0082537D02*
X0089333Y0082537D01*
X0088140Y0084135D02*
X0056996Y0084135D01*
X0056987Y0085734D02*
X0087696Y0085734D01*
X0087696Y0087332D02*
X0056977Y0087332D01*
X0056967Y0088931D02*
X0087696Y0088931D01*
X0087696Y0090529D02*
X0056957Y0090529D01*
X0056948Y0092128D02*
X0087696Y0092128D01*
X0087948Y0093726D02*
X0056938Y0093726D01*
X0056928Y0095325D02*
X0088870Y0095325D01*
X0084450Y0104253D02*
X0082595Y0103484D01*
X0081877Y0103484D01*
X0081710Y0103315D01*
X0081704Y0103313D01*
X0081700Y0103309D01*
X0081266Y0103129D01*
X0080830Y0102946D01*
X0080824Y0102946D01*
X0080818Y0102943D01*
X0080348Y0102943D01*
X0044094Y0102763D01*
X0043569Y0102238D01*
X0189209Y0102238D01*
X0195037Y0108113D02*
X0195050Y0108113D01*
X0195050Y0109711D02*
X0194320Y0109711D01*
X0195050Y0111310D02*
X0192228Y0111310D01*
X0195050Y0112908D02*
X0104217Y0112908D01*
X0104450Y0112812D02*
X0102595Y0113580D01*
X0100586Y0113580D01*
X0098731Y0112812D01*
X0097311Y0111392D01*
X0096543Y0109536D01*
X0096543Y0107528D01*
X0097311Y0105673D01*
X0098731Y0104253D01*
X0100586Y0103484D01*
X0102595Y0103484D01*
X0104450Y0104253D01*
X0105870Y0105673D01*
X0106639Y0107528D01*
X0106639Y0109536D01*
X0105870Y0111392D01*
X0104450Y0112812D01*
X0105904Y0111310D02*
X0114352Y0111310D01*
X0112753Y0109711D02*
X0106566Y0109711D01*
X0106639Y0108113D02*
X0112342Y0108113D01*
X0112342Y0106514D02*
X0106219Y0106514D01*
X0105113Y0104916D02*
X0112749Y0104916D01*
X0114348Y0103317D02*
X0081712Y0103317D01*
X0084450Y0104253D02*
X0085870Y0105673D01*
X0086639Y0107528D01*
X0086639Y0109536D01*
X0085870Y0111392D01*
X0084450Y0112812D01*
X0082595Y0113580D01*
X0080586Y0113580D01*
X0078731Y0112812D01*
X0077311Y0111392D01*
X0076543Y0109536D01*
X0076543Y0107724D01*
X0044061Y0107563D01*
X0043094Y0108531D01*
X0038434Y0108531D01*
X0037470Y0107567D01*
X0012363Y0107722D01*
X0011274Y0108818D01*
X0011274Y0120728D01*
X0011662Y0120567D01*
X0012319Y0120436D01*
X0012653Y0120436D01*
X0012653Y0127036D01*
X0012654Y0127036D01*
X0012653Y0127295D02*
X0012654Y0127295D01*
X0012653Y0128894D02*
X0012654Y0128894D01*
X0012653Y0125696D02*
X0012654Y0125696D01*
X0012653Y0124098D02*
X0012654Y0124098D01*
X0012653Y0122499D02*
X0012654Y0122499D01*
X0012653Y0120901D02*
X0012654Y0120901D01*
X0014380Y0120901D02*
X0015855Y0120901D01*
X0019452Y0120901D02*
X0020855Y0120901D01*
X0024452Y0120901D02*
X0025855Y0120901D01*
X0029452Y0120901D02*
X0030855Y0120901D01*
X0034452Y0120901D02*
X0035855Y0120901D01*
X0039452Y0120901D02*
X0040855Y0120901D01*
X0044452Y0120901D02*
X0183550Y0120901D01*
X0183907Y0119302D02*
X0011274Y0119302D01*
X0011274Y0117704D02*
X0195050Y0117704D01*
X0195050Y0119302D02*
X0192109Y0119302D01*
X0192106Y0119297D02*
X0192343Y0119708D01*
X0192465Y0120165D01*
X0192465Y0122974D01*
X0188094Y0122974D01*
X0188094Y0123146D01*
X0187922Y0123146D01*
X0187922Y0122974D01*
X0188094Y0122974D01*
X0188094Y0118602D01*
X0190902Y0118602D01*
X0191360Y0118725D01*
X0191771Y0118962D01*
X0192106Y0119297D01*
X0192465Y0120901D02*
X0195050Y0120901D01*
X0195050Y0122499D02*
X0192465Y0122499D01*
X0192465Y0123146D02*
X0192465Y0125954D01*
X0192343Y0126412D01*
X0192106Y0126823D01*
X0191771Y0127158D01*
X0191360Y0127395D01*
X0190902Y0127517D01*
X0188094Y0127517D01*
X0188094Y0123146D01*
X0192465Y0123146D01*
X0192465Y0124098D02*
X0195050Y0124098D01*
X0195050Y0125696D02*
X0192465Y0125696D01*
X0191533Y0127295D02*
X0195050Y0127295D01*
X0188094Y0127295D02*
X0187922Y0127295D01*
X0187922Y0125696D02*
X0188094Y0125696D01*
X0188094Y0124098D02*
X0187922Y0124098D01*
X0187922Y0122499D02*
X0188094Y0122499D01*
X0188094Y0120901D02*
X0187922Y0120901D01*
X0187922Y0119302D02*
X0188094Y0119302D01*
X0195050Y0116105D02*
X0011274Y0116105D01*
X0011274Y0114507D02*
X0195050Y0114507D01*
X0194844Y0090529D02*
X0195050Y0090529D01*
X0195050Y0088931D02*
X0193066Y0088931D01*
X0183599Y0151273D02*
X0161699Y0151273D01*
X0098964Y0112908D02*
X0084217Y0112908D01*
X0085904Y0111310D02*
X0097277Y0111310D01*
X0096615Y0109711D02*
X0086566Y0109711D01*
X0086639Y0108113D02*
X0096543Y0108113D01*
X0096962Y0106514D02*
X0086219Y0106514D01*
X0085113Y0104916D02*
X0098068Y0104916D01*
X0084035Y0122499D02*
X0045780Y0122499D01*
X0046054Y0124098D02*
X0083639Y0124098D01*
X0083639Y0125696D02*
X0046054Y0125696D01*
X0046054Y0127295D02*
X0083639Y0127295D01*
X0082914Y0128894D02*
X0045564Y0128894D01*
X0043511Y0108113D02*
X0076543Y0108113D01*
X0076615Y0109711D02*
X0011274Y0109711D01*
X0011274Y0111310D02*
X0077277Y0111310D01*
X0078964Y0112908D02*
X0011274Y0112908D01*
X0006474Y0112908D02*
X0003800Y0112908D01*
X0003800Y0111310D02*
X0006474Y0111310D01*
X0006474Y0109711D02*
X0003800Y0109711D01*
X0003800Y0108113D02*
X0006474Y0108113D01*
X0006819Y0106514D02*
X0003800Y0106514D01*
X0003800Y0104916D02*
X0008384Y0104916D01*
X0009971Y0103317D02*
X0003800Y0103317D01*
X0011975Y0108113D02*
X0038016Y0108113D01*
X0006474Y0114507D02*
X0003800Y0114507D01*
X0003800Y0116105D02*
X0006474Y0116105D01*
X0006474Y0117704D02*
X0003800Y0117704D01*
X0003800Y0119302D02*
X0006474Y0119302D01*
X0005855Y0120901D02*
X0003800Y0120901D01*
X0003800Y0122499D02*
X0004527Y0122499D01*
X0004254Y0124098D02*
X0003800Y0124098D01*
X0003800Y0125696D02*
X0004254Y0125696D01*
X0004254Y0127295D02*
X0003800Y0127295D01*
X0003800Y0128894D02*
X0004743Y0128894D01*
X0003800Y0130492D02*
X0081315Y0130492D01*
X0118435Y0074544D02*
X0129447Y0074544D01*
X0129112Y0072946D02*
X0118001Y0072946D01*
X0118013Y0071347D02*
X0119557Y0071347D01*
X0118876Y0069749D02*
X0118025Y0069749D01*
X0118037Y0068150D02*
X0118876Y0068150D01*
X0118876Y0066552D02*
X0118050Y0066552D01*
X0118062Y0064953D02*
X0119928Y0064953D01*
X0120752Y0063355D02*
X0118074Y0063355D01*
X0118086Y0061756D02*
X0121052Y0061756D01*
X0121351Y0060158D02*
X0118098Y0060158D01*
X0118111Y0058559D02*
X0121651Y0058559D01*
X0121951Y0056960D02*
X0118123Y0056960D01*
X0118135Y0055362D02*
X0122251Y0055362D01*
X0122550Y0053763D02*
X0118147Y0053763D01*
X0118159Y0052165D02*
X0122850Y0052165D01*
X0123150Y0050566D02*
X0118189Y0050566D01*
X0117707Y0048968D02*
X0123449Y0048968D01*
X0123749Y0047369D02*
X0116892Y0047369D01*
X0116076Y0045771D02*
X0124049Y0045771D01*
X0124349Y0044172D02*
X0115261Y0044172D01*
X0114620Y0042574D02*
X0124648Y0042574D01*
X0124948Y0040975D02*
X0114620Y0040975D01*
X0114620Y0039377D02*
X0125248Y0039377D01*
X0125547Y0037778D02*
X0112468Y0037778D01*
X0112652Y0036180D02*
X0125847Y0036180D01*
X0126147Y0034581D02*
X0112652Y0034581D01*
X0126834Y0056960D02*
X0129112Y0056960D01*
X0129112Y0058559D02*
X0126535Y0058559D01*
X0126235Y0060158D02*
X0129112Y0060158D01*
X0129455Y0061756D02*
X0125935Y0061756D01*
X0125636Y0063355D02*
X0130096Y0063355D01*
X0130096Y0064953D02*
X0125336Y0064953D01*
X0125644Y0066552D02*
X0130096Y0066552D01*
X0130096Y0068150D02*
X0125644Y0068150D01*
X0125644Y0069749D02*
X0129112Y0069749D01*
X0129112Y0071347D02*
X0124962Y0071347D01*
X0040619Y0031384D02*
X0039689Y0031384D01*
X0035619Y0031384D02*
X0034689Y0031384D01*
X0030619Y0031384D02*
X0029689Y0031384D01*
X0025619Y0031384D02*
X0024689Y0031384D01*
X0020619Y0031384D02*
X0019689Y0031384D01*
X0015619Y0031384D02*
X0014623Y0031384D01*
X0012654Y0031384D02*
X0012653Y0031384D01*
X0012653Y0029786D02*
X0012654Y0029786D01*
X0012654Y0028611D02*
X0012653Y0028611D01*
X0012654Y0028611D01*
X0012654Y0075816D01*
X0010843Y0075816D01*
X0010684Y0031384D02*
X0009689Y0031384D01*
X0012653Y0028187D02*
X0012654Y0028187D01*
X0012653Y0026589D02*
X0012654Y0026589D01*
X0012653Y0024990D02*
X0012654Y0024990D01*
X0012653Y0023392D02*
X0012654Y0023392D01*
D18*
X0012811Y0016367D03*
X0012811Y0033296D03*
X0040764Y0006721D03*
X0053756Y0016367D03*
X0081118Y0035658D03*
X0087024Y0026800D03*
X0101787Y0034871D03*
X0109268Y0035265D03*
X0111236Y0041564D03*
X0108480Y0046682D03*
X0094701Y0060461D03*
X0108283Y0066564D03*
X0108874Y0071091D03*
X0115567Y0077391D03*
X0122260Y0068335D03*
X0132496Y0071879D03*
X0132496Y0059083D03*
X0158874Y0055737D03*
X0129346Y0030540D03*
X0117142Y0027784D03*
X0139189Y0010855D03*
X0149819Y0023060D03*
X0092929Y0076013D03*
X0084465Y0083296D03*
X0073835Y0071879D03*
X0071866Y0062824D03*
X0059268Y0063217D03*
X0087220Y0045894D03*
X0040764Y0105146D03*
X0053756Y0114792D03*
X0081118Y0134083D03*
X0087024Y0125225D03*
X0101787Y0133296D03*
X0109268Y0133690D03*
X0111236Y0139989D03*
X0108480Y0145107D03*
X0094701Y0158887D03*
X0108283Y0164989D03*
X0108874Y0169517D03*
X0115567Y0175816D03*
X0122260Y0166761D03*
X0132496Y0170304D03*
X0132496Y0157509D03*
X0158874Y0154162D03*
X0129346Y0128965D03*
X0117142Y0126209D03*
X0139189Y0109280D03*
X0149819Y0121485D03*
X0092929Y0174438D03*
X0084465Y0181721D03*
X0073835Y0170304D03*
X0071866Y0161249D03*
X0059268Y0161643D03*
X0087220Y0144320D03*
X0012811Y0131721D03*
X0012811Y0114792D03*
D19*
X0008874Y0107828D02*
X0011359Y0105328D01*
X0040764Y0105146D01*
X0080341Y0105343D01*
X0081591Y0106593D01*
X0081591Y0108532D01*
X0087024Y0125225D02*
X0087024Y0128178D01*
X0081118Y0134083D01*
X0109268Y0133690D02*
X0094701Y0158887D01*
X0108283Y0164989D02*
X0108480Y0145107D01*
X0111236Y0139989D02*
X0115772Y0148883D01*
X0115567Y0175816D01*
X0110843Y0174635D02*
X0111630Y0178965D01*
X0154543Y0178965D01*
X0160173Y0187627D01*
X0170173Y0187627D02*
X0158874Y0154162D01*
X0132496Y0157509D02*
X0132496Y0170304D01*
X0122260Y0166761D02*
X0129346Y0128965D01*
X0108874Y0169517D02*
X0073835Y0170304D01*
X0071866Y0161249D02*
X0059268Y0161643D01*
X0092929Y0174438D02*
X0104150Y0174635D01*
X0110843Y0174635D01*
X0188008Y0174241D02*
X0188402Y0147942D01*
X0187260Y0146800D01*
X0170173Y0089202D02*
X0158874Y0055737D01*
X0154543Y0080540D02*
X0160173Y0089202D01*
X0154543Y0080540D02*
X0111630Y0080540D01*
X0110843Y0076209D01*
X0104150Y0076209D01*
X0092929Y0076013D01*
X0094701Y0060461D02*
X0109268Y0035265D01*
X0111236Y0041564D02*
X0115772Y0050457D01*
X0115567Y0077391D01*
X0108874Y0071091D02*
X0073835Y0071879D01*
X0071866Y0062824D02*
X0059268Y0063217D01*
X0081118Y0035658D02*
X0087024Y0029753D01*
X0087024Y0026800D01*
X0081591Y0010107D02*
X0081591Y0008168D01*
X0080341Y0006918D01*
X0040764Y0006721D01*
X0011359Y0006903D01*
X0008874Y0009403D01*
X0008874Y0027391D01*
X0007654Y0028611D01*
X0008874Y0107828D02*
X0008874Y0125816D01*
X0007654Y0127036D01*
X0108283Y0066564D02*
X0108480Y0046682D01*
X0122260Y0068335D02*
X0129346Y0030540D01*
X0132496Y0059083D02*
X0132496Y0071879D01*
X0188008Y0075816D02*
X0188402Y0049517D01*
X0187260Y0048375D01*
M02*
