G75*
%MOIN*%
%OFA0B0*%
%FSLAX25Y25*%
%IPPOS*%
%LPD*%
%AMOC8*
5,1,8,0,0,1.08239X$1,22.5*
%
%ADD10C,0.00000*%
%ADD11R,0.05118X0.05906*%
%ADD12R,0.05906X0.05118*%
%ADD13R,0.04200X0.08600*%
%ADD14C,0.06000*%
%ADD15C,0.05400*%
%ADD16R,0.04724X0.04724*%
%ADD17C,0.06496*%
%ADD18R,0.05200X0.02200*%
%ADD19R,0.06500X0.01700*%
%ADD20R,0.02800X0.01600*%
%ADD21R,0.05900X0.09400*%
%ADD22R,0.05315X0.05315*%
%ADD23C,0.03200*%
%ADD24R,0.03200X0.06600*%
%ADD25OC8,0.06000*%
%ADD26C,0.02400*%
%ADD27C,0.01200*%
%ADD28C,0.01600*%
%ADD29R,0.03169X0.03169*%
D10*
X0001000Y0001013D02*
X0197850Y0001013D01*
X0197850Y0099438D01*
X0001000Y0099438D01*
X0001000Y0197863D01*
X0197850Y0197863D01*
X0197850Y0099438D01*
X0188795Y0093139D02*
X0188797Y0093227D01*
X0188803Y0093315D01*
X0188813Y0093403D01*
X0188827Y0093491D01*
X0188844Y0093577D01*
X0188866Y0093663D01*
X0188891Y0093747D01*
X0188921Y0093831D01*
X0188953Y0093913D01*
X0188990Y0093993D01*
X0189030Y0094072D01*
X0189074Y0094149D01*
X0189121Y0094224D01*
X0189171Y0094296D01*
X0189225Y0094367D01*
X0189281Y0094434D01*
X0189341Y0094500D01*
X0189403Y0094562D01*
X0189469Y0094622D01*
X0189536Y0094678D01*
X0189607Y0094732D01*
X0189679Y0094782D01*
X0189754Y0094829D01*
X0189831Y0094873D01*
X0189910Y0094913D01*
X0189990Y0094950D01*
X0190072Y0094982D01*
X0190156Y0095012D01*
X0190240Y0095037D01*
X0190326Y0095059D01*
X0190412Y0095076D01*
X0190500Y0095090D01*
X0190588Y0095100D01*
X0190676Y0095106D01*
X0190764Y0095108D01*
X0190852Y0095106D01*
X0190940Y0095100D01*
X0191028Y0095090D01*
X0191116Y0095076D01*
X0191202Y0095059D01*
X0191288Y0095037D01*
X0191372Y0095012D01*
X0191456Y0094982D01*
X0191538Y0094950D01*
X0191618Y0094913D01*
X0191697Y0094873D01*
X0191774Y0094829D01*
X0191849Y0094782D01*
X0191921Y0094732D01*
X0191992Y0094678D01*
X0192059Y0094622D01*
X0192125Y0094562D01*
X0192187Y0094500D01*
X0192247Y0094434D01*
X0192303Y0094367D01*
X0192357Y0094296D01*
X0192407Y0094224D01*
X0192454Y0094149D01*
X0192498Y0094072D01*
X0192538Y0093993D01*
X0192575Y0093913D01*
X0192607Y0093831D01*
X0192637Y0093747D01*
X0192662Y0093663D01*
X0192684Y0093577D01*
X0192701Y0093491D01*
X0192715Y0093403D01*
X0192725Y0093315D01*
X0192731Y0093227D01*
X0192733Y0093139D01*
X0192731Y0093051D01*
X0192725Y0092963D01*
X0192715Y0092875D01*
X0192701Y0092787D01*
X0192684Y0092701D01*
X0192662Y0092615D01*
X0192637Y0092531D01*
X0192607Y0092447D01*
X0192575Y0092365D01*
X0192538Y0092285D01*
X0192498Y0092206D01*
X0192454Y0092129D01*
X0192407Y0092054D01*
X0192357Y0091982D01*
X0192303Y0091911D01*
X0192247Y0091844D01*
X0192187Y0091778D01*
X0192125Y0091716D01*
X0192059Y0091656D01*
X0191992Y0091600D01*
X0191921Y0091546D01*
X0191849Y0091496D01*
X0191774Y0091449D01*
X0191697Y0091405D01*
X0191618Y0091365D01*
X0191538Y0091328D01*
X0191456Y0091296D01*
X0191372Y0091266D01*
X0191288Y0091241D01*
X0191202Y0091219D01*
X0191116Y0091202D01*
X0191028Y0091188D01*
X0190940Y0091178D01*
X0190852Y0091172D01*
X0190764Y0091170D01*
X0190676Y0091172D01*
X0190588Y0091178D01*
X0190500Y0091188D01*
X0190412Y0091202D01*
X0190326Y0091219D01*
X0190240Y0091241D01*
X0190156Y0091266D01*
X0190072Y0091296D01*
X0189990Y0091328D01*
X0189910Y0091365D01*
X0189831Y0091405D01*
X0189754Y0091449D01*
X0189679Y0091496D01*
X0189607Y0091546D01*
X0189536Y0091600D01*
X0189469Y0091656D01*
X0189403Y0091716D01*
X0189341Y0091778D01*
X0189281Y0091844D01*
X0189225Y0091911D01*
X0189171Y0091982D01*
X0189121Y0092054D01*
X0189074Y0092129D01*
X0189030Y0092206D01*
X0188990Y0092285D01*
X0188953Y0092365D01*
X0188921Y0092447D01*
X0188891Y0092531D01*
X0188866Y0092615D01*
X0188844Y0092701D01*
X0188827Y0092787D01*
X0188813Y0092875D01*
X0188803Y0092963D01*
X0188797Y0093051D01*
X0188795Y0093139D01*
X0188401Y0106918D02*
X0188403Y0107006D01*
X0188409Y0107094D01*
X0188419Y0107182D01*
X0188433Y0107270D01*
X0188450Y0107356D01*
X0188472Y0107442D01*
X0188497Y0107526D01*
X0188527Y0107610D01*
X0188559Y0107692D01*
X0188596Y0107772D01*
X0188636Y0107851D01*
X0188680Y0107928D01*
X0188727Y0108003D01*
X0188777Y0108075D01*
X0188831Y0108146D01*
X0188887Y0108213D01*
X0188947Y0108279D01*
X0189009Y0108341D01*
X0189075Y0108401D01*
X0189142Y0108457D01*
X0189213Y0108511D01*
X0189285Y0108561D01*
X0189360Y0108608D01*
X0189437Y0108652D01*
X0189516Y0108692D01*
X0189596Y0108729D01*
X0189678Y0108761D01*
X0189762Y0108791D01*
X0189846Y0108816D01*
X0189932Y0108838D01*
X0190018Y0108855D01*
X0190106Y0108869D01*
X0190194Y0108879D01*
X0190282Y0108885D01*
X0190370Y0108887D01*
X0190458Y0108885D01*
X0190546Y0108879D01*
X0190634Y0108869D01*
X0190722Y0108855D01*
X0190808Y0108838D01*
X0190894Y0108816D01*
X0190978Y0108791D01*
X0191062Y0108761D01*
X0191144Y0108729D01*
X0191224Y0108692D01*
X0191303Y0108652D01*
X0191380Y0108608D01*
X0191455Y0108561D01*
X0191527Y0108511D01*
X0191598Y0108457D01*
X0191665Y0108401D01*
X0191731Y0108341D01*
X0191793Y0108279D01*
X0191853Y0108213D01*
X0191909Y0108146D01*
X0191963Y0108075D01*
X0192013Y0108003D01*
X0192060Y0107928D01*
X0192104Y0107851D01*
X0192144Y0107772D01*
X0192181Y0107692D01*
X0192213Y0107610D01*
X0192243Y0107526D01*
X0192268Y0107442D01*
X0192290Y0107356D01*
X0192307Y0107270D01*
X0192321Y0107182D01*
X0192331Y0107094D01*
X0192337Y0107006D01*
X0192339Y0106918D01*
X0192337Y0106830D01*
X0192331Y0106742D01*
X0192321Y0106654D01*
X0192307Y0106566D01*
X0192290Y0106480D01*
X0192268Y0106394D01*
X0192243Y0106310D01*
X0192213Y0106226D01*
X0192181Y0106144D01*
X0192144Y0106064D01*
X0192104Y0105985D01*
X0192060Y0105908D01*
X0192013Y0105833D01*
X0191963Y0105761D01*
X0191909Y0105690D01*
X0191853Y0105623D01*
X0191793Y0105557D01*
X0191731Y0105495D01*
X0191665Y0105435D01*
X0191598Y0105379D01*
X0191527Y0105325D01*
X0191455Y0105275D01*
X0191380Y0105228D01*
X0191303Y0105184D01*
X0191224Y0105144D01*
X0191144Y0105107D01*
X0191062Y0105075D01*
X0190978Y0105045D01*
X0190894Y0105020D01*
X0190808Y0104998D01*
X0190722Y0104981D01*
X0190634Y0104967D01*
X0190546Y0104957D01*
X0190458Y0104951D01*
X0190370Y0104949D01*
X0190282Y0104951D01*
X0190194Y0104957D01*
X0190106Y0104967D01*
X0190018Y0104981D01*
X0189932Y0104998D01*
X0189846Y0105020D01*
X0189762Y0105045D01*
X0189678Y0105075D01*
X0189596Y0105107D01*
X0189516Y0105144D01*
X0189437Y0105184D01*
X0189360Y0105228D01*
X0189285Y0105275D01*
X0189213Y0105325D01*
X0189142Y0105379D01*
X0189075Y0105435D01*
X0189009Y0105495D01*
X0188947Y0105557D01*
X0188887Y0105623D01*
X0188831Y0105690D01*
X0188777Y0105761D01*
X0188727Y0105833D01*
X0188680Y0105908D01*
X0188636Y0105985D01*
X0188596Y0106064D01*
X0188559Y0106144D01*
X0188527Y0106226D01*
X0188497Y0106310D01*
X0188472Y0106394D01*
X0188450Y0106480D01*
X0188433Y0106566D01*
X0188419Y0106654D01*
X0188409Y0106742D01*
X0188403Y0106830D01*
X0188401Y0106918D01*
X0188795Y0191564D02*
X0188797Y0191652D01*
X0188803Y0191740D01*
X0188813Y0191828D01*
X0188827Y0191916D01*
X0188844Y0192002D01*
X0188866Y0192088D01*
X0188891Y0192172D01*
X0188921Y0192256D01*
X0188953Y0192338D01*
X0188990Y0192418D01*
X0189030Y0192497D01*
X0189074Y0192574D01*
X0189121Y0192649D01*
X0189171Y0192721D01*
X0189225Y0192792D01*
X0189281Y0192859D01*
X0189341Y0192925D01*
X0189403Y0192987D01*
X0189469Y0193047D01*
X0189536Y0193103D01*
X0189607Y0193157D01*
X0189679Y0193207D01*
X0189754Y0193254D01*
X0189831Y0193298D01*
X0189910Y0193338D01*
X0189990Y0193375D01*
X0190072Y0193407D01*
X0190156Y0193437D01*
X0190240Y0193462D01*
X0190326Y0193484D01*
X0190412Y0193501D01*
X0190500Y0193515D01*
X0190588Y0193525D01*
X0190676Y0193531D01*
X0190764Y0193533D01*
X0190852Y0193531D01*
X0190940Y0193525D01*
X0191028Y0193515D01*
X0191116Y0193501D01*
X0191202Y0193484D01*
X0191288Y0193462D01*
X0191372Y0193437D01*
X0191456Y0193407D01*
X0191538Y0193375D01*
X0191618Y0193338D01*
X0191697Y0193298D01*
X0191774Y0193254D01*
X0191849Y0193207D01*
X0191921Y0193157D01*
X0191992Y0193103D01*
X0192059Y0193047D01*
X0192125Y0192987D01*
X0192187Y0192925D01*
X0192247Y0192859D01*
X0192303Y0192792D01*
X0192357Y0192721D01*
X0192407Y0192649D01*
X0192454Y0192574D01*
X0192498Y0192497D01*
X0192538Y0192418D01*
X0192575Y0192338D01*
X0192607Y0192256D01*
X0192637Y0192172D01*
X0192662Y0192088D01*
X0192684Y0192002D01*
X0192701Y0191916D01*
X0192715Y0191828D01*
X0192725Y0191740D01*
X0192731Y0191652D01*
X0192733Y0191564D01*
X0192731Y0191476D01*
X0192725Y0191388D01*
X0192715Y0191300D01*
X0192701Y0191212D01*
X0192684Y0191126D01*
X0192662Y0191040D01*
X0192637Y0190956D01*
X0192607Y0190872D01*
X0192575Y0190790D01*
X0192538Y0190710D01*
X0192498Y0190631D01*
X0192454Y0190554D01*
X0192407Y0190479D01*
X0192357Y0190407D01*
X0192303Y0190336D01*
X0192247Y0190269D01*
X0192187Y0190203D01*
X0192125Y0190141D01*
X0192059Y0190081D01*
X0191992Y0190025D01*
X0191921Y0189971D01*
X0191849Y0189921D01*
X0191774Y0189874D01*
X0191697Y0189830D01*
X0191618Y0189790D01*
X0191538Y0189753D01*
X0191456Y0189721D01*
X0191372Y0189691D01*
X0191288Y0189666D01*
X0191202Y0189644D01*
X0191116Y0189627D01*
X0191028Y0189613D01*
X0190940Y0189603D01*
X0190852Y0189597D01*
X0190764Y0189595D01*
X0190676Y0189597D01*
X0190588Y0189603D01*
X0190500Y0189613D01*
X0190412Y0189627D01*
X0190326Y0189644D01*
X0190240Y0189666D01*
X0190156Y0189691D01*
X0190072Y0189721D01*
X0189990Y0189753D01*
X0189910Y0189790D01*
X0189831Y0189830D01*
X0189754Y0189874D01*
X0189679Y0189921D01*
X0189607Y0189971D01*
X0189536Y0190025D01*
X0189469Y0190081D01*
X0189403Y0190141D01*
X0189341Y0190203D01*
X0189281Y0190269D01*
X0189225Y0190336D01*
X0189171Y0190407D01*
X0189121Y0190479D01*
X0189074Y0190554D01*
X0189030Y0190631D01*
X0188990Y0190710D01*
X0188953Y0190790D01*
X0188921Y0190872D01*
X0188891Y0190956D01*
X0188866Y0191040D01*
X0188844Y0191126D01*
X0188827Y0191212D01*
X0188813Y0191300D01*
X0188803Y0191388D01*
X0188797Y0191476D01*
X0188795Y0191564D01*
X0052181Y0172272D02*
X0052183Y0172360D01*
X0052189Y0172448D01*
X0052199Y0172536D01*
X0052213Y0172624D01*
X0052230Y0172710D01*
X0052252Y0172796D01*
X0052277Y0172880D01*
X0052307Y0172964D01*
X0052339Y0173046D01*
X0052376Y0173126D01*
X0052416Y0173205D01*
X0052460Y0173282D01*
X0052507Y0173357D01*
X0052557Y0173429D01*
X0052611Y0173500D01*
X0052667Y0173567D01*
X0052727Y0173633D01*
X0052789Y0173695D01*
X0052855Y0173755D01*
X0052922Y0173811D01*
X0052993Y0173865D01*
X0053065Y0173915D01*
X0053140Y0173962D01*
X0053217Y0174006D01*
X0053296Y0174046D01*
X0053376Y0174083D01*
X0053458Y0174115D01*
X0053542Y0174145D01*
X0053626Y0174170D01*
X0053712Y0174192D01*
X0053798Y0174209D01*
X0053886Y0174223D01*
X0053974Y0174233D01*
X0054062Y0174239D01*
X0054150Y0174241D01*
X0054238Y0174239D01*
X0054326Y0174233D01*
X0054414Y0174223D01*
X0054502Y0174209D01*
X0054588Y0174192D01*
X0054674Y0174170D01*
X0054758Y0174145D01*
X0054842Y0174115D01*
X0054924Y0174083D01*
X0055004Y0174046D01*
X0055083Y0174006D01*
X0055160Y0173962D01*
X0055235Y0173915D01*
X0055307Y0173865D01*
X0055378Y0173811D01*
X0055445Y0173755D01*
X0055511Y0173695D01*
X0055573Y0173633D01*
X0055633Y0173567D01*
X0055689Y0173500D01*
X0055743Y0173429D01*
X0055793Y0173357D01*
X0055840Y0173282D01*
X0055884Y0173205D01*
X0055924Y0173126D01*
X0055961Y0173046D01*
X0055993Y0172964D01*
X0056023Y0172880D01*
X0056048Y0172796D01*
X0056070Y0172710D01*
X0056087Y0172624D01*
X0056101Y0172536D01*
X0056111Y0172448D01*
X0056117Y0172360D01*
X0056119Y0172272D01*
X0056117Y0172184D01*
X0056111Y0172096D01*
X0056101Y0172008D01*
X0056087Y0171920D01*
X0056070Y0171834D01*
X0056048Y0171748D01*
X0056023Y0171664D01*
X0055993Y0171580D01*
X0055961Y0171498D01*
X0055924Y0171418D01*
X0055884Y0171339D01*
X0055840Y0171262D01*
X0055793Y0171187D01*
X0055743Y0171115D01*
X0055689Y0171044D01*
X0055633Y0170977D01*
X0055573Y0170911D01*
X0055511Y0170849D01*
X0055445Y0170789D01*
X0055378Y0170733D01*
X0055307Y0170679D01*
X0055235Y0170629D01*
X0055160Y0170582D01*
X0055083Y0170538D01*
X0055004Y0170498D01*
X0054924Y0170461D01*
X0054842Y0170429D01*
X0054758Y0170399D01*
X0054674Y0170374D01*
X0054588Y0170352D01*
X0054502Y0170335D01*
X0054414Y0170321D01*
X0054326Y0170311D01*
X0054238Y0170305D01*
X0054150Y0170303D01*
X0054062Y0170305D01*
X0053974Y0170311D01*
X0053886Y0170321D01*
X0053798Y0170335D01*
X0053712Y0170352D01*
X0053626Y0170374D01*
X0053542Y0170399D01*
X0053458Y0170429D01*
X0053376Y0170461D01*
X0053296Y0170498D01*
X0053217Y0170538D01*
X0053140Y0170582D01*
X0053065Y0170629D01*
X0052993Y0170679D01*
X0052922Y0170733D01*
X0052855Y0170789D01*
X0052789Y0170849D01*
X0052727Y0170911D01*
X0052667Y0170977D01*
X0052611Y0171044D01*
X0052557Y0171115D01*
X0052507Y0171187D01*
X0052460Y0171262D01*
X0052416Y0171339D01*
X0052376Y0171418D01*
X0052339Y0171498D01*
X0052307Y0171580D01*
X0052277Y0171664D01*
X0052252Y0171748D01*
X0052230Y0171834D01*
X0052213Y0171920D01*
X0052199Y0172008D01*
X0052189Y0172096D01*
X0052183Y0172184D01*
X0052181Y0172272D01*
X0001000Y0099438D02*
X0001000Y0001013D01*
X0052181Y0073847D02*
X0052183Y0073935D01*
X0052189Y0074023D01*
X0052199Y0074111D01*
X0052213Y0074199D01*
X0052230Y0074285D01*
X0052252Y0074371D01*
X0052277Y0074455D01*
X0052307Y0074539D01*
X0052339Y0074621D01*
X0052376Y0074701D01*
X0052416Y0074780D01*
X0052460Y0074857D01*
X0052507Y0074932D01*
X0052557Y0075004D01*
X0052611Y0075075D01*
X0052667Y0075142D01*
X0052727Y0075208D01*
X0052789Y0075270D01*
X0052855Y0075330D01*
X0052922Y0075386D01*
X0052993Y0075440D01*
X0053065Y0075490D01*
X0053140Y0075537D01*
X0053217Y0075581D01*
X0053296Y0075621D01*
X0053376Y0075658D01*
X0053458Y0075690D01*
X0053542Y0075720D01*
X0053626Y0075745D01*
X0053712Y0075767D01*
X0053798Y0075784D01*
X0053886Y0075798D01*
X0053974Y0075808D01*
X0054062Y0075814D01*
X0054150Y0075816D01*
X0054238Y0075814D01*
X0054326Y0075808D01*
X0054414Y0075798D01*
X0054502Y0075784D01*
X0054588Y0075767D01*
X0054674Y0075745D01*
X0054758Y0075720D01*
X0054842Y0075690D01*
X0054924Y0075658D01*
X0055004Y0075621D01*
X0055083Y0075581D01*
X0055160Y0075537D01*
X0055235Y0075490D01*
X0055307Y0075440D01*
X0055378Y0075386D01*
X0055445Y0075330D01*
X0055511Y0075270D01*
X0055573Y0075208D01*
X0055633Y0075142D01*
X0055689Y0075075D01*
X0055743Y0075004D01*
X0055793Y0074932D01*
X0055840Y0074857D01*
X0055884Y0074780D01*
X0055924Y0074701D01*
X0055961Y0074621D01*
X0055993Y0074539D01*
X0056023Y0074455D01*
X0056048Y0074371D01*
X0056070Y0074285D01*
X0056087Y0074199D01*
X0056101Y0074111D01*
X0056111Y0074023D01*
X0056117Y0073935D01*
X0056119Y0073847D01*
X0056117Y0073759D01*
X0056111Y0073671D01*
X0056101Y0073583D01*
X0056087Y0073495D01*
X0056070Y0073409D01*
X0056048Y0073323D01*
X0056023Y0073239D01*
X0055993Y0073155D01*
X0055961Y0073073D01*
X0055924Y0072993D01*
X0055884Y0072914D01*
X0055840Y0072837D01*
X0055793Y0072762D01*
X0055743Y0072690D01*
X0055689Y0072619D01*
X0055633Y0072552D01*
X0055573Y0072486D01*
X0055511Y0072424D01*
X0055445Y0072364D01*
X0055378Y0072308D01*
X0055307Y0072254D01*
X0055235Y0072204D01*
X0055160Y0072157D01*
X0055083Y0072113D01*
X0055004Y0072073D01*
X0054924Y0072036D01*
X0054842Y0072004D01*
X0054758Y0071974D01*
X0054674Y0071949D01*
X0054588Y0071927D01*
X0054502Y0071910D01*
X0054414Y0071896D01*
X0054326Y0071886D01*
X0054238Y0071880D01*
X0054150Y0071878D01*
X0054062Y0071880D01*
X0053974Y0071886D01*
X0053886Y0071896D01*
X0053798Y0071910D01*
X0053712Y0071927D01*
X0053626Y0071949D01*
X0053542Y0071974D01*
X0053458Y0072004D01*
X0053376Y0072036D01*
X0053296Y0072073D01*
X0053217Y0072113D01*
X0053140Y0072157D01*
X0053065Y0072204D01*
X0052993Y0072254D01*
X0052922Y0072308D01*
X0052855Y0072364D01*
X0052789Y0072424D01*
X0052727Y0072486D01*
X0052667Y0072552D01*
X0052611Y0072619D01*
X0052557Y0072690D01*
X0052507Y0072762D01*
X0052460Y0072837D01*
X0052416Y0072914D01*
X0052376Y0072993D01*
X0052339Y0073073D01*
X0052307Y0073155D01*
X0052277Y0073239D01*
X0052252Y0073323D01*
X0052230Y0073409D01*
X0052213Y0073495D01*
X0052199Y0073583D01*
X0052189Y0073671D01*
X0052183Y0073759D01*
X0052181Y0073847D01*
X0188401Y0008493D02*
X0188403Y0008581D01*
X0188409Y0008669D01*
X0188419Y0008757D01*
X0188433Y0008845D01*
X0188450Y0008931D01*
X0188472Y0009017D01*
X0188497Y0009101D01*
X0188527Y0009185D01*
X0188559Y0009267D01*
X0188596Y0009347D01*
X0188636Y0009426D01*
X0188680Y0009503D01*
X0188727Y0009578D01*
X0188777Y0009650D01*
X0188831Y0009721D01*
X0188887Y0009788D01*
X0188947Y0009854D01*
X0189009Y0009916D01*
X0189075Y0009976D01*
X0189142Y0010032D01*
X0189213Y0010086D01*
X0189285Y0010136D01*
X0189360Y0010183D01*
X0189437Y0010227D01*
X0189516Y0010267D01*
X0189596Y0010304D01*
X0189678Y0010336D01*
X0189762Y0010366D01*
X0189846Y0010391D01*
X0189932Y0010413D01*
X0190018Y0010430D01*
X0190106Y0010444D01*
X0190194Y0010454D01*
X0190282Y0010460D01*
X0190370Y0010462D01*
X0190458Y0010460D01*
X0190546Y0010454D01*
X0190634Y0010444D01*
X0190722Y0010430D01*
X0190808Y0010413D01*
X0190894Y0010391D01*
X0190978Y0010366D01*
X0191062Y0010336D01*
X0191144Y0010304D01*
X0191224Y0010267D01*
X0191303Y0010227D01*
X0191380Y0010183D01*
X0191455Y0010136D01*
X0191527Y0010086D01*
X0191598Y0010032D01*
X0191665Y0009976D01*
X0191731Y0009916D01*
X0191793Y0009854D01*
X0191853Y0009788D01*
X0191909Y0009721D01*
X0191963Y0009650D01*
X0192013Y0009578D01*
X0192060Y0009503D01*
X0192104Y0009426D01*
X0192144Y0009347D01*
X0192181Y0009267D01*
X0192213Y0009185D01*
X0192243Y0009101D01*
X0192268Y0009017D01*
X0192290Y0008931D01*
X0192307Y0008845D01*
X0192321Y0008757D01*
X0192331Y0008669D01*
X0192337Y0008581D01*
X0192339Y0008493D01*
X0192337Y0008405D01*
X0192331Y0008317D01*
X0192321Y0008229D01*
X0192307Y0008141D01*
X0192290Y0008055D01*
X0192268Y0007969D01*
X0192243Y0007885D01*
X0192213Y0007801D01*
X0192181Y0007719D01*
X0192144Y0007639D01*
X0192104Y0007560D01*
X0192060Y0007483D01*
X0192013Y0007408D01*
X0191963Y0007336D01*
X0191909Y0007265D01*
X0191853Y0007198D01*
X0191793Y0007132D01*
X0191731Y0007070D01*
X0191665Y0007010D01*
X0191598Y0006954D01*
X0191527Y0006900D01*
X0191455Y0006850D01*
X0191380Y0006803D01*
X0191303Y0006759D01*
X0191224Y0006719D01*
X0191144Y0006682D01*
X0191062Y0006650D01*
X0190978Y0006620D01*
X0190894Y0006595D01*
X0190808Y0006573D01*
X0190722Y0006556D01*
X0190634Y0006542D01*
X0190546Y0006532D01*
X0190458Y0006526D01*
X0190370Y0006524D01*
X0190282Y0006526D01*
X0190194Y0006532D01*
X0190106Y0006542D01*
X0190018Y0006556D01*
X0189932Y0006573D01*
X0189846Y0006595D01*
X0189762Y0006620D01*
X0189678Y0006650D01*
X0189596Y0006682D01*
X0189516Y0006719D01*
X0189437Y0006759D01*
X0189360Y0006803D01*
X0189285Y0006850D01*
X0189213Y0006900D01*
X0189142Y0006954D01*
X0189075Y0007010D01*
X0189009Y0007070D01*
X0188947Y0007132D01*
X0188887Y0007198D01*
X0188831Y0007265D01*
X0188777Y0007336D01*
X0188727Y0007408D01*
X0188680Y0007483D01*
X0188636Y0007560D01*
X0188596Y0007639D01*
X0188559Y0007719D01*
X0188527Y0007801D01*
X0188497Y0007885D01*
X0188472Y0007969D01*
X0188450Y0008055D01*
X0188433Y0008141D01*
X0188419Y0008229D01*
X0188409Y0008317D01*
X0188403Y0008405D01*
X0188401Y0008493D01*
D11*
X0168126Y0010855D03*
X0160646Y0010855D03*
X0152378Y0010855D03*
X0144898Y0010855D03*
X0125016Y0020698D03*
X0117535Y0020698D03*
X0131118Y0042351D03*
X0138598Y0042351D03*
X0138598Y0050422D03*
X0131118Y0050422D03*
X0156551Y0033178D03*
X0164031Y0033178D03*
X0167535Y0058099D03*
X0175016Y0058099D03*
X0132299Y0078965D03*
X0124819Y0078965D03*
X0144898Y0109280D03*
X0152378Y0109280D03*
X0160646Y0109280D03*
X0168126Y0109280D03*
X0164031Y0131603D03*
X0156551Y0131603D03*
X0138598Y0140776D03*
X0131118Y0140776D03*
X0131118Y0148847D03*
X0138598Y0148847D03*
X0132299Y0177391D03*
X0124819Y0177391D03*
X0167535Y0156524D03*
X0175016Y0156524D03*
X0125016Y0119123D03*
X0117535Y0119123D03*
X0069976Y0133965D03*
X0062496Y0133965D03*
X0060134Y0107745D03*
X0067614Y0107745D03*
X0032496Y0109280D03*
X0025016Y0109280D03*
X0016551Y0109280D03*
X0009071Y0109280D03*
X0062496Y0035540D03*
X0069976Y0035540D03*
X0067614Y0009320D03*
X0060134Y0009320D03*
X0032496Y0010855D03*
X0025016Y0010855D03*
X0016551Y0010855D03*
X0009071Y0010855D03*
D12*
X0080055Y0020934D03*
X0080055Y0028414D03*
X0093126Y0028375D03*
X0093126Y0020894D03*
X0101197Y0020894D03*
X0101197Y0028375D03*
X0109268Y0028375D03*
X0109268Y0020894D03*
X0117575Y0033414D03*
X0117575Y0040894D03*
X0134858Y0028375D03*
X0134858Y0020894D03*
X0142929Y0020894D03*
X0142929Y0028375D03*
X0174661Y0029674D03*
X0174661Y0037154D03*
X0176630Y0018060D03*
X0176630Y0010580D03*
X0176630Y0109005D03*
X0176630Y0116485D03*
X0174661Y0128099D03*
X0174661Y0135580D03*
X0142929Y0126800D03*
X0142929Y0119320D03*
X0134858Y0119320D03*
X0134858Y0126800D03*
X0117575Y0131839D03*
X0117575Y0139320D03*
X0109268Y0126800D03*
X0109268Y0119320D03*
X0101197Y0119320D03*
X0101197Y0126800D03*
X0093126Y0126800D03*
X0093126Y0119320D03*
X0080055Y0119359D03*
X0080055Y0126839D03*
X0066354Y0090973D03*
X0066354Y0083493D03*
X0066354Y0181918D03*
X0066354Y0189398D03*
D13*
X0156748Y0141091D03*
X0162448Y0141091D03*
X0162448Y0042666D03*
X0156748Y0042666D03*
D14*
X0160173Y0086202D02*
X0160173Y0092202D01*
X0150173Y0092202D02*
X0150173Y0086202D01*
X0132496Y0086162D02*
X0132496Y0092162D01*
X0122496Y0092162D02*
X0122496Y0086162D01*
X0112496Y0086162D02*
X0112496Y0092162D01*
X0102496Y0092162D02*
X0102496Y0086162D01*
X0092496Y0086162D02*
X0092496Y0092162D01*
X0170173Y0092202D02*
X0170173Y0086202D01*
X0180173Y0086202D02*
X0180173Y0092202D01*
X0180173Y0184627D02*
X0180173Y0190627D01*
X0170173Y0190627D02*
X0170173Y0184627D01*
X0160173Y0184627D02*
X0160173Y0190627D01*
X0150173Y0190627D02*
X0150173Y0184627D01*
X0132496Y0184587D02*
X0132496Y0190587D01*
X0122496Y0190587D02*
X0122496Y0184587D01*
X0112496Y0184587D02*
X0112496Y0190587D01*
X0102496Y0190587D02*
X0102496Y0184587D01*
X0092496Y0184587D02*
X0092496Y0190587D01*
D15*
X0184560Y0146800D02*
X0189960Y0146800D01*
X0189960Y0136800D02*
X0184560Y0136800D01*
X0184560Y0048375D02*
X0189960Y0048375D01*
X0189960Y0038375D02*
X0184560Y0038375D01*
D16*
X0181906Y0058099D03*
X0190173Y0058099D03*
X0190173Y0156524D03*
X0181906Y0156524D03*
X0082693Y0189595D03*
X0074425Y0189595D03*
X0074425Y0091170D03*
X0082693Y0091170D03*
D17*
X0081591Y0108532D03*
X0101591Y0108532D03*
X0101591Y0010107D03*
X0081591Y0010107D03*
D18*
X0155349Y0018966D03*
X0155349Y0022666D03*
X0155349Y0026366D03*
X0165549Y0026366D03*
X0165549Y0022666D03*
X0165549Y0018966D03*
X0165549Y0117391D03*
X0165549Y0121091D03*
X0165549Y0124791D03*
X0155349Y0124791D03*
X0155349Y0121091D03*
X0155349Y0117391D03*
D19*
X0115772Y0148883D03*
X0115772Y0151383D03*
X0115772Y0153983D03*
X0115772Y0156583D03*
X0115772Y0159083D03*
X0115772Y0161683D03*
X0115772Y0164183D03*
X0115772Y0166783D03*
X0115772Y0169383D03*
X0115772Y0171883D03*
X0087172Y0171883D03*
X0087172Y0169383D03*
X0087172Y0166783D03*
X0087172Y0164183D03*
X0087172Y0161683D03*
X0087172Y0159083D03*
X0087172Y0156583D03*
X0087172Y0153983D03*
X0087172Y0151383D03*
X0087172Y0148883D03*
X0087172Y0073457D03*
X0087172Y0070957D03*
X0087172Y0068357D03*
X0087172Y0065757D03*
X0087172Y0063257D03*
X0087172Y0060657D03*
X0087172Y0058157D03*
X0087172Y0055557D03*
X0087172Y0052957D03*
X0087172Y0050457D03*
X0115772Y0050457D03*
X0115772Y0052957D03*
X0115772Y0055557D03*
X0115772Y0058157D03*
X0115772Y0060657D03*
X0115772Y0063257D03*
X0115772Y0065757D03*
X0115772Y0068357D03*
X0115772Y0070957D03*
X0115772Y0073457D03*
D20*
X0070794Y0118057D03*
X0070794Y0121957D03*
X0070794Y0125857D03*
X0059394Y0125857D03*
X0059394Y0121957D03*
X0059394Y0118057D03*
X0059394Y0027432D03*
X0059394Y0023532D03*
X0059394Y0019632D03*
X0070794Y0019632D03*
X0070794Y0023532D03*
X0070794Y0027432D03*
D21*
X0065094Y0023532D03*
X0065094Y0121957D03*
D22*
X0010843Y0075816D03*
X0010843Y0174241D03*
X0188008Y0174241D03*
X0188008Y0123060D03*
X0188008Y0075816D03*
X0188008Y0024635D03*
D23*
X0042654Y0025411D02*
X0042654Y0028611D01*
X0037654Y0028611D02*
X0037654Y0025411D01*
X0032654Y0025411D02*
X0032654Y0028611D01*
X0027654Y0028611D02*
X0027654Y0025411D01*
X0022654Y0025411D02*
X0022654Y0028611D01*
X0017654Y0028611D02*
X0017654Y0025411D01*
X0012654Y0025411D02*
X0012654Y0028611D01*
X0007654Y0028611D02*
X0007654Y0025411D01*
X0007654Y0123836D02*
X0007654Y0127036D01*
X0012654Y0127036D02*
X0012654Y0123836D01*
X0017654Y0123836D02*
X0017654Y0127036D01*
X0022654Y0127036D02*
X0022654Y0123836D01*
X0027654Y0123836D02*
X0027654Y0127036D01*
X0032654Y0127036D02*
X0032654Y0123836D01*
X0037654Y0123836D02*
X0037654Y0127036D01*
X0042654Y0127036D02*
X0042654Y0123836D01*
D24*
X0042654Y0120993D03*
X0037654Y0120993D03*
X0032654Y0120993D03*
X0027654Y0120993D03*
X0022654Y0120993D03*
X0017654Y0120993D03*
X0012654Y0120993D03*
X0007654Y0120993D03*
X0007654Y0022568D03*
X0012654Y0022568D03*
X0017654Y0022568D03*
X0022654Y0022568D03*
X0027654Y0022568D03*
X0032654Y0022568D03*
X0037654Y0022568D03*
X0042654Y0022568D03*
D25*
X0117142Y0008887D03*
X0130921Y0008887D03*
X0130921Y0107312D03*
X0117142Y0107312D03*
D26*
X0101591Y0108532D02*
X0101591Y0119123D01*
X0101197Y0119320D02*
X0093126Y0119320D01*
X0081591Y0118109D02*
X0081591Y0108532D01*
X0080803Y0107745D02*
X0067614Y0107745D01*
X0152378Y0109280D02*
X0160646Y0109280D01*
X0168126Y0109280D02*
X0176630Y0109280D01*
X0176630Y0109005D01*
X0176630Y0116485D02*
X0174661Y0116485D01*
X0174661Y0117154D01*
X0165786Y0117154D01*
X0165549Y0117391D01*
X0165549Y0124791D02*
X0165549Y0130086D01*
X0164031Y0131603D01*
X0155724Y0125167D02*
X0155349Y0124791D01*
X0174661Y0128099D02*
X0174661Y0117154D01*
X0164031Y0033178D02*
X0165549Y0031661D01*
X0165549Y0026366D01*
X0165549Y0018966D02*
X0165786Y0018729D01*
X0174661Y0018729D01*
X0174661Y0029674D01*
X0174661Y0018729D02*
X0174661Y0018060D01*
X0176630Y0018060D01*
X0176630Y0010855D02*
X0168126Y0010855D01*
X0160646Y0010855D02*
X0152378Y0010855D01*
X0155349Y0026366D02*
X0155724Y0026742D01*
X0176630Y0010855D02*
X0176630Y0010580D01*
X0101591Y0010107D02*
X0101591Y0020698D01*
X0101197Y0020894D02*
X0093126Y0020894D01*
X0081591Y0019684D02*
X0081591Y0010107D01*
X0080803Y0009320D02*
X0067614Y0009320D01*
D27*
X0080803Y0009320D02*
X0081591Y0010107D01*
X0087614Y0012824D02*
X0093520Y0004950D01*
X0113205Y0004950D01*
X0117142Y0008887D01*
X0117142Y0020501D01*
X0117535Y0020698D01*
X0109268Y0020894D01*
X0101591Y0020698D02*
X0101197Y0020894D01*
X0109268Y0028375D02*
X0109268Y0035265D01*
X0111236Y0041564D02*
X0117575Y0040894D01*
X0115772Y0050457D01*
X0115772Y0052957D02*
X0108480Y0052587D01*
X0080055Y0028414D01*
X0079073Y0027432D01*
X0078805Y0023532D02*
X0080055Y0022282D01*
X0080055Y0020934D01*
X0080341Y0020934D01*
X0081591Y0019684D01*
X0086364Y0019684D01*
X0086974Y0019074D01*
X0086974Y0026751D01*
X0087024Y0026800D01*
X0093126Y0028375D02*
X0093520Y0033690D01*
X0108480Y0046682D01*
X0106118Y0055343D02*
X0106118Y0060728D01*
X0108608Y0063228D01*
X0115772Y0063257D01*
X0115772Y0065757D02*
X0110843Y0065776D01*
X0110055Y0066564D01*
X0108283Y0066564D01*
X0108874Y0071091D02*
X0115772Y0070957D01*
X0115772Y0073457D02*
X0123835Y0073454D01*
X0128793Y0066957D01*
X0130780Y0065973D01*
X0147843Y0065973D01*
X0150342Y0068539D01*
X0150213Y0073454D01*
X0150173Y0089202D01*
X0152181Y0103769D02*
X0152575Y0104162D01*
X0152575Y0109083D02*
X0152378Y0109280D01*
X0155349Y0117391D02*
X0146629Y0117391D01*
X0142929Y0119320D01*
X0134858Y0119320D01*
X0134858Y0126800D02*
X0129346Y0128965D01*
X0125016Y0132371D02*
X0127516Y0134871D01*
X0136827Y0134871D01*
X0138598Y0140776D01*
X0131118Y0140776D02*
X0131118Y0148847D01*
X0138598Y0148847D02*
X0144701Y0148650D01*
X0162417Y0148650D01*
X0162448Y0148620D01*
X0162448Y0144792D01*
X0173953Y0144792D01*
X0176315Y0142430D01*
X0181630Y0142430D01*
X0187260Y0136800D01*
X0181906Y0156524D02*
X0175016Y0156524D01*
X0167535Y0156524D02*
X0160055Y0161052D01*
X0126984Y0160855D01*
X0125802Y0159083D01*
X0115772Y0159083D01*
X0115772Y0156583D02*
X0126394Y0156524D01*
X0127378Y0157509D01*
X0132496Y0157509D01*
X0130780Y0164398D02*
X0128793Y0165382D01*
X0123835Y0171879D01*
X0115772Y0171883D01*
X0115772Y0169383D02*
X0108874Y0169517D01*
X0108283Y0164989D02*
X0110055Y0164989D01*
X0110843Y0164202D01*
X0115772Y0164183D01*
X0115772Y0166783D02*
X0122260Y0166761D01*
X0115772Y0161683D02*
X0108608Y0161653D01*
X0106118Y0159153D01*
X0106118Y0153769D01*
X0088795Y0139202D01*
X0065173Y0139202D01*
X0062496Y0133965D01*
X0061315Y0133965D01*
X0059268Y0131918D01*
X0059268Y0125984D01*
X0059394Y0125857D01*
X0047850Y0130146D02*
X0047850Y0132902D01*
X0072654Y0148257D01*
X0072654Y0155737D01*
X0079740Y0158887D01*
X0087172Y0159083D01*
X0087172Y0156583D02*
X0092339Y0156524D01*
X0094701Y0158887D01*
X0095488Y0154162D02*
X0099819Y0156918D01*
X0099819Y0178572D01*
X0092496Y0187587D01*
X0095813Y0178178D02*
X0097063Y0176928D01*
X0097063Y0166550D01*
X0094518Y0164051D01*
X0087172Y0164183D01*
X0087172Y0166783D02*
X0070426Y0166763D01*
X0067929Y0164263D01*
X0067929Y0148650D01*
X0037614Y0130934D01*
X0037654Y0127036D01*
X0037654Y0120993D01*
X0032654Y0120993D02*
X0032654Y0127036D01*
X0032496Y0131328D01*
X0065173Y0150225D01*
X0065173Y0167804D01*
X0067673Y0170304D01*
X0073835Y0170304D01*
X0075016Y0178178D02*
X0095813Y0178178D01*
X0092929Y0174438D02*
X0092929Y0169517D01*
X0087172Y0169383D01*
X0087172Y0171883D02*
X0085646Y0173847D01*
X0064917Y0173847D01*
X0062417Y0171347D01*
X0062417Y0151406D01*
X0027772Y0131721D01*
X0027654Y0127036D01*
X0027654Y0120993D01*
X0022654Y0120993D02*
X0022654Y0127036D01*
X0023047Y0132115D01*
X0059268Y0152587D01*
X0059268Y0161643D01*
X0071866Y0161249D02*
X0087172Y0161683D01*
X0087172Y0153983D02*
X0095488Y0154162D01*
X0097063Y0151406D02*
X0087172Y0151383D01*
X0097063Y0151406D02*
X0102575Y0155737D01*
X0102496Y0187587D01*
X0115567Y0175816D02*
X0124819Y0177391D01*
X0122496Y0187587D01*
X0132496Y0187587D02*
X0132299Y0177391D01*
X0132496Y0170304D01*
X0130780Y0164398D02*
X0147843Y0164398D01*
X0150342Y0166964D01*
X0150213Y0171879D01*
X0150173Y0187627D01*
X0158874Y0154162D02*
X0115772Y0153983D01*
X0115772Y0151383D02*
X0108480Y0151013D01*
X0080055Y0126839D01*
X0079073Y0125857D01*
X0078805Y0121957D02*
X0080055Y0120707D01*
X0080055Y0119359D01*
X0080341Y0119359D01*
X0081591Y0118109D01*
X0086364Y0118109D01*
X0086974Y0117499D01*
X0086974Y0125176D01*
X0087024Y0125225D01*
X0093126Y0126800D02*
X0093520Y0132115D01*
X0108480Y0145107D01*
X0111236Y0139989D02*
X0117575Y0139320D01*
X0115772Y0148883D01*
X0117575Y0139320D02*
X0131118Y0140776D01*
X0125016Y0132371D02*
X0125016Y0119123D01*
X0130921Y0107312D01*
X0117535Y0119123D02*
X0109268Y0119320D01*
X0101591Y0119123D02*
X0101197Y0119320D01*
X0109268Y0126800D02*
X0109268Y0133690D01*
X0117142Y0118926D02*
X0117142Y0107312D01*
X0113205Y0103375D01*
X0093520Y0103375D01*
X0087614Y0111249D01*
X0087614Y0116859D01*
X0086974Y0117499D01*
X0081591Y0108532D02*
X0080803Y0107745D01*
X0074425Y0091170D02*
X0066354Y0090973D01*
X0066354Y0083493D02*
X0071276Y0083493D01*
X0075016Y0079753D01*
X0095813Y0079753D01*
X0097063Y0078503D01*
X0097063Y0068125D01*
X0094518Y0065625D01*
X0087172Y0065757D01*
X0087172Y0063257D02*
X0071866Y0062824D01*
X0067929Y0065838D02*
X0070426Y0068338D01*
X0087172Y0068357D01*
X0087172Y0070957D02*
X0092929Y0071091D01*
X0092929Y0076013D01*
X0087172Y0073457D02*
X0085646Y0075422D01*
X0064917Y0075422D01*
X0062417Y0072922D01*
X0062417Y0052981D01*
X0027772Y0033296D01*
X0027654Y0028611D01*
X0027654Y0022568D01*
X0022654Y0022568D02*
X0022654Y0028611D01*
X0023047Y0033690D01*
X0059268Y0054162D01*
X0059268Y0063217D01*
X0065173Y0069379D02*
X0067673Y0071879D01*
X0073835Y0071879D01*
X0067929Y0065838D02*
X0067929Y0050225D01*
X0037614Y0032509D01*
X0037654Y0028611D01*
X0037654Y0022568D01*
X0032654Y0022568D02*
X0032654Y0028611D01*
X0032496Y0032902D01*
X0065173Y0051800D01*
X0065173Y0069379D01*
X0072654Y0057312D02*
X0079740Y0060461D01*
X0087172Y0060657D01*
X0087172Y0058157D02*
X0092339Y0058099D01*
X0094701Y0060461D01*
X0095488Y0055737D02*
X0099819Y0058493D01*
X0099819Y0080146D01*
X0092496Y0089162D01*
X0102496Y0089162D02*
X0102575Y0057312D01*
X0097063Y0052981D01*
X0087172Y0052957D01*
X0087172Y0055557D02*
X0095488Y0055737D01*
X0106118Y0055343D02*
X0088795Y0040776D01*
X0065173Y0040776D01*
X0062496Y0035540D01*
X0061315Y0035540D01*
X0059268Y0033493D01*
X0059268Y0027559D01*
X0059394Y0027432D01*
X0047850Y0031721D02*
X0047850Y0034477D01*
X0072654Y0049831D01*
X0072654Y0057312D01*
X0070094Y0035658D02*
X0081118Y0035658D01*
X0070094Y0035658D02*
X0069976Y0035540D01*
X0086974Y0019074D02*
X0087614Y0018434D01*
X0087614Y0012824D01*
X0117575Y0040894D02*
X0131118Y0042351D01*
X0131118Y0050422D01*
X0138598Y0050422D02*
X0144701Y0050225D01*
X0162417Y0050225D01*
X0162448Y0050194D01*
X0162448Y0046367D01*
X0173953Y0046367D01*
X0176315Y0044005D01*
X0181630Y0044005D01*
X0187260Y0038375D01*
X0181906Y0058099D02*
X0175016Y0058099D01*
X0167535Y0058099D02*
X0160055Y0062627D01*
X0126984Y0062430D01*
X0125802Y0060657D01*
X0115772Y0060657D01*
X0115772Y0058157D02*
X0126394Y0058099D01*
X0127378Y0059083D01*
X0132496Y0059083D01*
X0122260Y0068335D02*
X0115772Y0068357D01*
X0115567Y0077391D02*
X0124819Y0078965D01*
X0122496Y0089162D01*
X0132496Y0089162D02*
X0132299Y0078965D01*
X0132496Y0071879D01*
X0115772Y0055557D02*
X0158874Y0055737D01*
X0162448Y0046367D02*
X0162448Y0042666D01*
X0164031Y0041083D01*
X0164031Y0033178D01*
X0159661Y0028178D02*
X0156551Y0031288D01*
X0156551Y0033178D01*
X0159661Y0028178D02*
X0159661Y0023650D01*
X0155349Y0022666D01*
X0155349Y0018966D02*
X0146629Y0018966D01*
X0142929Y0020894D01*
X0134858Y0020894D01*
X0134858Y0028375D02*
X0129346Y0030540D01*
X0125016Y0033946D02*
X0127516Y0036446D01*
X0136827Y0036446D01*
X0138598Y0042351D01*
X0144701Y0050225D02*
X0144701Y0028572D01*
X0142929Y0028375D01*
X0125016Y0033946D02*
X0125016Y0020698D01*
X0130921Y0008887D01*
X0152378Y0010855D02*
X0152575Y0010658D01*
X0152575Y0005737D02*
X0152181Y0005343D01*
X0161630Y0015580D02*
X0167142Y0015580D01*
X0168126Y0014595D01*
X0168126Y0010855D01*
X0161630Y0015580D02*
X0161236Y0016761D01*
X0161236Y0020698D01*
X0162024Y0022272D01*
X0165155Y0022272D01*
X0165549Y0022666D01*
X0168126Y0109280D02*
X0168126Y0113020D01*
X0167142Y0114005D01*
X0161630Y0114005D01*
X0161236Y0115186D01*
X0161236Y0119123D01*
X0162024Y0120698D01*
X0165155Y0120698D01*
X0165549Y0121091D01*
X0159661Y0122076D02*
X0159661Y0126603D01*
X0156551Y0129713D01*
X0156551Y0131603D01*
X0164031Y0131603D02*
X0164031Y0139508D01*
X0162448Y0141091D01*
X0162448Y0144792D01*
X0144701Y0148650D02*
X0144701Y0126997D01*
X0142929Y0126800D01*
X0155349Y0121091D02*
X0159661Y0122076D01*
X0117535Y0119123D02*
X0117142Y0118926D01*
X0081118Y0134083D02*
X0070094Y0134083D01*
X0069976Y0133965D01*
X0047850Y0130146D02*
X0047457Y0115186D01*
X0018798Y0115186D01*
X0017548Y0116449D01*
X0017654Y0127036D01*
X0017654Y0120993D01*
X0007821Y0120993D02*
X0007654Y0121160D01*
X0007654Y0110698D01*
X0009071Y0109280D01*
X0007821Y0120993D02*
X0007654Y0120993D01*
X0007654Y0121160D02*
X0007654Y0127036D01*
X0032496Y0109280D02*
X0040764Y0105146D01*
X0047850Y0031721D02*
X0047457Y0016761D01*
X0018798Y0016761D01*
X0017548Y0018023D01*
X0017654Y0028611D01*
X0017654Y0022568D01*
X0007821Y0022568D02*
X0007654Y0022735D01*
X0007654Y0012272D01*
X0009071Y0010855D01*
X0007821Y0022568D02*
X0007654Y0022568D01*
X0007654Y0022735D02*
X0007654Y0028611D01*
X0032496Y0010855D02*
X0040764Y0006721D01*
X0075016Y0178178D02*
X0071276Y0181918D01*
X0066354Y0181918D01*
X0066354Y0189398D02*
X0074425Y0189595D01*
D28*
X0078187Y0189637D02*
X0082312Y0189637D01*
X0082312Y0189976D02*
X0082312Y0189214D01*
X0083074Y0189214D01*
X0083074Y0185433D01*
X0085292Y0185433D01*
X0085750Y0185556D01*
X0086160Y0185793D01*
X0086495Y0186128D01*
X0086732Y0186538D01*
X0086855Y0186996D01*
X0086855Y0189214D01*
X0083074Y0189214D01*
X0083074Y0189976D01*
X0086855Y0189976D01*
X0086855Y0192194D01*
X0086732Y0192652D01*
X0086495Y0193063D01*
X0086160Y0193398D01*
X0085750Y0193635D01*
X0085292Y0193757D01*
X0083074Y0193757D01*
X0083074Y0189976D01*
X0082312Y0189976D01*
X0078531Y0189976D01*
X0078531Y0192194D01*
X0078653Y0192652D01*
X0078890Y0193063D01*
X0079225Y0193398D01*
X0079636Y0193635D01*
X0080094Y0193757D01*
X0082312Y0193757D01*
X0082312Y0189976D01*
X0082312Y0189214D02*
X0078531Y0189214D01*
X0078531Y0186996D01*
X0078653Y0186538D01*
X0078890Y0186128D01*
X0079225Y0185793D01*
X0079636Y0185556D01*
X0080094Y0185433D01*
X0082312Y0185433D01*
X0082312Y0189214D01*
X0083074Y0189637D02*
X0088096Y0189637D01*
X0088096Y0191235D02*
X0086855Y0191235D01*
X0088096Y0191463D02*
X0088766Y0193080D01*
X0090004Y0194318D01*
X0091621Y0194987D01*
X0093371Y0194987D01*
X0094988Y0194318D01*
X0096226Y0193080D01*
X0096896Y0191463D01*
X0096896Y0185342D01*
X0098096Y0183865D01*
X0098096Y0191463D01*
X0098766Y0193080D01*
X0100004Y0194318D01*
X0101621Y0194987D01*
X0103371Y0194987D01*
X0104988Y0194318D01*
X0106226Y0193080D01*
X0106896Y0191463D01*
X0106896Y0183712D01*
X0106226Y0182095D01*
X0104988Y0180857D01*
X0104513Y0180660D01*
X0104563Y0160426D01*
X0104701Y0160564D01*
X0106136Y0162005D01*
X0106119Y0162005D01*
X0105299Y0162825D01*
X0105299Y0167153D01*
X0105890Y0167744D01*
X0105890Y0171681D01*
X0106710Y0172501D01*
X0111038Y0172501D01*
X0111122Y0172416D01*
X0111122Y0173313D01*
X0111943Y0174133D01*
X0112583Y0174133D01*
X0112583Y0177980D01*
X0113403Y0178800D01*
X0117731Y0178800D01*
X0118233Y0178298D01*
X0120860Y0178745D01*
X0120860Y0180503D01*
X0120004Y0180857D01*
X0118766Y0182095D01*
X0118096Y0183712D01*
X0118096Y0191463D01*
X0118766Y0193080D01*
X0120004Y0194318D01*
X0121621Y0194987D01*
X0123371Y0194987D01*
X0124988Y0194318D01*
X0126226Y0193080D01*
X0126896Y0191463D01*
X0126896Y0183712D01*
X0126226Y0182095D01*
X0125878Y0181747D01*
X0125879Y0181743D01*
X0127958Y0181743D01*
X0128559Y0181142D01*
X0129139Y0181722D01*
X0128766Y0182095D01*
X0128096Y0183712D01*
X0128096Y0191463D01*
X0128766Y0193080D01*
X0130004Y0194318D01*
X0131621Y0194987D01*
X0133371Y0194987D01*
X0134988Y0194318D01*
X0136226Y0193080D01*
X0136896Y0191463D01*
X0136896Y0183712D01*
X0136226Y0182095D01*
X0135656Y0181525D01*
X0136258Y0180923D01*
X0136258Y0173858D01*
X0135438Y0173038D01*
X0134911Y0173038D01*
X0135480Y0172468D01*
X0135480Y0168140D01*
X0134660Y0167320D01*
X0130332Y0167320D01*
X0129512Y0168140D01*
X0129512Y0172468D01*
X0130082Y0173038D01*
X0129160Y0173038D01*
X0128559Y0173639D01*
X0127958Y0173038D01*
X0125504Y0173038D01*
X0125835Y0172706D01*
X0125835Y0172554D01*
X0130099Y0166967D01*
X0131248Y0166398D01*
X0146999Y0166398D01*
X0148320Y0167755D01*
X0148234Y0171026D01*
X0148215Y0171045D01*
X0148213Y0171850D01*
X0148191Y0172654D01*
X0148211Y0172674D01*
X0148191Y0180685D01*
X0147681Y0180897D01*
X0146443Y0182134D01*
X0145773Y0183752D01*
X0145773Y0191502D01*
X0146443Y0193119D01*
X0147681Y0194357D01*
X0149298Y0195027D01*
X0151048Y0195027D01*
X0152666Y0194357D01*
X0153903Y0193119D01*
X0154573Y0191502D01*
X0154573Y0183752D01*
X0153903Y0182134D01*
X0152666Y0180897D01*
X0152191Y0180700D01*
X0152213Y0171907D01*
X0152320Y0167830D01*
X0152331Y0167819D01*
X0152342Y0167004D01*
X0152363Y0166189D01*
X0152352Y0166177D01*
X0152353Y0166162D01*
X0151784Y0165578D01*
X0151223Y0164987D01*
X0151207Y0164986D01*
X0149843Y0163585D01*
X0149843Y0163570D01*
X0149266Y0162993D01*
X0149261Y0162988D01*
X0159807Y0163051D01*
X0160382Y0163192D01*
X0160608Y0163055D01*
X0160872Y0163057D01*
X0161293Y0162641D01*
X0164325Y0160805D01*
X0164396Y0160877D01*
X0170674Y0160877D01*
X0171276Y0160276D01*
X0171877Y0160877D01*
X0178155Y0160877D01*
X0178854Y0160178D01*
X0178963Y0160287D01*
X0184848Y0160287D01*
X0185668Y0159467D01*
X0185668Y0153582D01*
X0184848Y0152762D01*
X0178963Y0152762D01*
X0178854Y0152871D01*
X0178854Y0152871D01*
X0178155Y0152172D01*
X0171877Y0152172D01*
X0171276Y0152773D01*
X0170674Y0152172D01*
X0164396Y0152172D01*
X0163576Y0152992D01*
X0163576Y0156583D01*
X0159502Y0159049D01*
X0135480Y0158906D01*
X0135480Y0156065D01*
X0155890Y0156150D01*
X0155890Y0156326D01*
X0156710Y0157146D01*
X0161038Y0157146D01*
X0161858Y0156326D01*
X0161858Y0151998D01*
X0161038Y0151178D01*
X0156710Y0151178D01*
X0155890Y0151998D01*
X0155890Y0152150D01*
X0142557Y0152094D01*
X0142557Y0150721D01*
X0144733Y0150650D01*
X0163246Y0150650D01*
X0163276Y0150620D01*
X0164448Y0149448D01*
X0164448Y0146792D01*
X0174781Y0146792D01*
X0175953Y0145621D01*
X0177143Y0144430D01*
X0181132Y0144430D01*
X0181084Y0144478D01*
X0180460Y0145984D01*
X0180460Y0147616D01*
X0181084Y0149122D01*
X0182237Y0150276D01*
X0183744Y0150900D01*
X0190775Y0150900D01*
X0192282Y0150276D01*
X0193436Y0149122D01*
X0194060Y0147616D01*
X0194060Y0145984D01*
X0193436Y0144478D01*
X0192282Y0143324D01*
X0190775Y0142700D01*
X0184188Y0142700D01*
X0185988Y0140900D01*
X0190775Y0140900D01*
X0192282Y0140276D01*
X0193436Y0139122D01*
X0194060Y0137616D01*
X0194060Y0135984D01*
X0193436Y0134478D01*
X0192282Y0133324D01*
X0190775Y0132700D01*
X0183744Y0132700D01*
X0182237Y0133324D01*
X0181084Y0134478D01*
X0180460Y0135984D01*
X0180460Y0137616D01*
X0181084Y0139122D01*
X0181597Y0139635D01*
X0180801Y0140430D01*
X0175487Y0140430D01*
X0173124Y0142792D01*
X0165948Y0142792D01*
X0165948Y0140420D01*
X0166031Y0140336D01*
X0166031Y0135956D01*
X0167170Y0135956D01*
X0167991Y0135136D01*
X0167991Y0130985D01*
X0168149Y0130603D01*
X0168149Y0127291D01*
X0168729Y0127291D01*
X0169549Y0126471D01*
X0169549Y0123111D01*
X0169379Y0122941D01*
X0169549Y0122771D01*
X0169549Y0119754D01*
X0172061Y0119754D01*
X0172061Y0124140D01*
X0171129Y0124140D01*
X0170309Y0124960D01*
X0170309Y0131238D01*
X0170633Y0131563D01*
X0170603Y0131580D01*
X0170268Y0131915D01*
X0170031Y0132326D01*
X0169909Y0132783D01*
X0169909Y0135100D01*
X0174182Y0135100D01*
X0174182Y0136059D01*
X0174182Y0139939D01*
X0171472Y0139939D01*
X0171014Y0139816D01*
X0170603Y0139579D01*
X0170268Y0139244D01*
X0170031Y0138833D01*
X0169909Y0138376D01*
X0169909Y0136059D01*
X0174182Y0136059D01*
X0175141Y0136059D01*
X0179414Y0136059D01*
X0179414Y0138376D01*
X0179291Y0138833D01*
X0179055Y0139244D01*
X0178719Y0139579D01*
X0178309Y0139816D01*
X0177851Y0139939D01*
X0175141Y0139939D01*
X0175141Y0136059D01*
X0175141Y0135100D01*
X0179414Y0135100D01*
X0179414Y0132783D01*
X0179291Y0132326D01*
X0179055Y0131915D01*
X0178719Y0131580D01*
X0178689Y0131563D01*
X0179014Y0131238D01*
X0179014Y0124960D01*
X0178194Y0124140D01*
X0177261Y0124140D01*
X0177261Y0120444D01*
X0180163Y0120444D01*
X0180983Y0119624D01*
X0180983Y0113346D01*
X0180381Y0112745D01*
X0180983Y0112144D01*
X0180983Y0105866D01*
X0180163Y0105046D01*
X0173097Y0105046D01*
X0172277Y0105866D01*
X0172277Y0106680D01*
X0172085Y0106680D01*
X0172085Y0105748D01*
X0171265Y0104928D01*
X0164987Y0104928D01*
X0164386Y0105529D01*
X0163785Y0104928D01*
X0157507Y0104928D01*
X0156687Y0105748D01*
X0156687Y0106680D01*
X0156337Y0106680D01*
X0156337Y0105748D01*
X0155517Y0104928D01*
X0154775Y0104928D01*
X0154775Y0103251D01*
X0154381Y0102857D01*
X0153762Y0102238D01*
X0189209Y0102238D01*
X0187669Y0102876D01*
X0186328Y0104217D01*
X0185602Y0105970D01*
X0185602Y0107867D01*
X0186328Y0109619D01*
X0187669Y0110961D01*
X0189422Y0111687D01*
X0191319Y0111687D01*
X0193071Y0110961D01*
X0194413Y0109619D01*
X0195050Y0108079D01*
X0195050Y0189452D01*
X0194806Y0188863D01*
X0193465Y0187521D01*
X0191712Y0186795D01*
X0189815Y0186795D01*
X0188063Y0187521D01*
X0186721Y0188863D01*
X0185995Y0190615D01*
X0185995Y0192512D01*
X0186721Y0194265D01*
X0187519Y0195063D01*
X0182040Y0195063D01*
X0182689Y0194732D01*
X0183300Y0194288D01*
X0183834Y0193754D01*
X0184279Y0193143D01*
X0184622Y0192469D01*
X0184855Y0191751D01*
X0184973Y0191005D01*
X0184973Y0187827D01*
X0180373Y0187827D01*
X0180373Y0187427D01*
X0184973Y0187427D01*
X0184973Y0184249D01*
X0184855Y0183503D01*
X0184622Y0182784D01*
X0184279Y0182111D01*
X0183834Y0181500D01*
X0183300Y0180966D01*
X0182689Y0180521D01*
X0182016Y0180178D01*
X0181297Y0179945D01*
X0180551Y0179827D01*
X0180373Y0179827D01*
X0180373Y0187427D01*
X0179973Y0187427D01*
X0175373Y0187427D01*
X0175373Y0184249D01*
X0175491Y0183503D01*
X0175725Y0182784D01*
X0176068Y0182111D01*
X0176512Y0181500D01*
X0177046Y0180966D01*
X0177657Y0180521D01*
X0178331Y0180178D01*
X0179049Y0179945D01*
X0179795Y0179827D01*
X0179973Y0179827D01*
X0179973Y0187427D01*
X0179973Y0187827D01*
X0175373Y0187827D01*
X0175373Y0191005D01*
X0175491Y0191751D01*
X0175725Y0192469D01*
X0176068Y0193143D01*
X0176512Y0193754D01*
X0177046Y0194288D01*
X0177657Y0194732D01*
X0178307Y0195063D01*
X0114255Y0195063D01*
X0114339Y0195036D01*
X0115012Y0194693D01*
X0115623Y0194249D01*
X0116157Y0193714D01*
X0116601Y0193103D01*
X0116944Y0192430D01*
X0117178Y0191711D01*
X0117296Y0190965D01*
X0117296Y0187787D01*
X0112696Y0187787D01*
X0112696Y0187387D01*
X0112696Y0179787D01*
X0112874Y0179787D01*
X0113620Y0179906D01*
X0114339Y0180139D01*
X0115012Y0180482D01*
X0115623Y0180926D01*
X0116157Y0181460D01*
X0116601Y0182072D01*
X0116944Y0182745D01*
X0117178Y0183463D01*
X0117296Y0184210D01*
X0117296Y0187387D01*
X0112696Y0187387D01*
X0112296Y0187387D01*
X0112296Y0179787D01*
X0112118Y0179787D01*
X0111372Y0179906D01*
X0110653Y0180139D01*
X0109980Y0180482D01*
X0109369Y0180926D01*
X0108835Y0181460D01*
X0108391Y0182072D01*
X0108048Y0182745D01*
X0107814Y0183463D01*
X0107696Y0184210D01*
X0107696Y0187387D01*
X0112296Y0187387D01*
X0112296Y0187787D01*
X0107696Y0187787D01*
X0107696Y0190965D01*
X0107814Y0191711D01*
X0108048Y0192430D01*
X0108391Y0193103D01*
X0108835Y0193714D01*
X0109369Y0194249D01*
X0109980Y0194693D01*
X0110653Y0195036D01*
X0110737Y0195063D01*
X0062792Y0195063D01*
X0062781Y0193317D01*
X0062822Y0193357D01*
X0069887Y0193357D01*
X0070685Y0192559D01*
X0071483Y0193357D01*
X0077367Y0193357D01*
X0078187Y0192537D01*
X0078187Y0186653D01*
X0077367Y0185833D01*
X0071483Y0185833D01*
X0070707Y0186609D01*
X0070707Y0186259D01*
X0070106Y0185658D01*
X0070707Y0185057D01*
X0070707Y0183918D01*
X0072104Y0183918D01*
X0075844Y0180178D01*
X0095938Y0180178D01*
X0095208Y0181077D01*
X0094988Y0180857D01*
X0093371Y0180187D01*
X0091621Y0180187D01*
X0090004Y0180857D01*
X0088766Y0182095D01*
X0088096Y0183712D01*
X0088096Y0191463D01*
X0088664Y0192834D02*
X0086628Y0192834D01*
X0083074Y0192834D02*
X0082312Y0192834D01*
X0082312Y0191235D02*
X0083074Y0191235D01*
X0083074Y0188038D02*
X0082312Y0188038D01*
X0082312Y0186440D02*
X0083074Y0186440D01*
X0086676Y0186440D02*
X0088096Y0186440D01*
X0088096Y0188038D02*
X0086855Y0188038D01*
X0088096Y0184841D02*
X0070707Y0184841D01*
X0070707Y0186440D02*
X0070876Y0186440D01*
X0072779Y0183243D02*
X0088290Y0183243D01*
X0089217Y0181644D02*
X0074378Y0181644D01*
X0077974Y0186440D02*
X0078710Y0186440D01*
X0078531Y0188038D02*
X0078187Y0188038D01*
X0078187Y0191235D02*
X0078531Y0191235D01*
X0078758Y0192834D02*
X0077891Y0192834D01*
X0070960Y0192834D02*
X0070410Y0192834D01*
X0062788Y0194432D02*
X0090281Y0194432D01*
X0094711Y0194432D02*
X0100281Y0194432D01*
X0098664Y0192834D02*
X0096328Y0192834D01*
X0096896Y0191235D02*
X0098096Y0191235D01*
X0098096Y0189637D02*
X0096896Y0189637D01*
X0096896Y0188038D02*
X0098096Y0188038D01*
X0098096Y0186440D02*
X0096896Y0186440D01*
X0097303Y0184841D02*
X0098096Y0184841D01*
X0104515Y0180046D02*
X0110940Y0180046D01*
X0112296Y0180046D02*
X0112696Y0180046D01*
X0114052Y0180046D02*
X0120860Y0180046D01*
X0119217Y0181644D02*
X0116291Y0181644D01*
X0117106Y0183243D02*
X0118290Y0183243D01*
X0118096Y0184841D02*
X0117296Y0184841D01*
X0117296Y0186440D02*
X0118096Y0186440D01*
X0118096Y0188038D02*
X0117296Y0188038D01*
X0117296Y0189637D02*
X0118096Y0189637D01*
X0118096Y0191235D02*
X0117253Y0191235D01*
X0116739Y0192834D02*
X0118664Y0192834D01*
X0120281Y0194432D02*
X0115370Y0194432D01*
X0109622Y0194432D02*
X0104711Y0194432D01*
X0106328Y0192834D02*
X0108254Y0192834D01*
X0107739Y0191235D02*
X0106896Y0191235D01*
X0106896Y0189637D02*
X0107696Y0189637D01*
X0107696Y0188038D02*
X0106896Y0188038D01*
X0106896Y0186440D02*
X0107696Y0186440D01*
X0107696Y0184841D02*
X0106896Y0184841D01*
X0106702Y0183243D02*
X0107886Y0183243D01*
X0108701Y0181644D02*
X0105776Y0181644D01*
X0104519Y0178447D02*
X0113050Y0178447D01*
X0112583Y0176849D02*
X0104523Y0176849D01*
X0104527Y0175250D02*
X0112583Y0175250D01*
X0111462Y0173652D02*
X0104531Y0173652D01*
X0104534Y0172053D02*
X0106262Y0172053D01*
X0105890Y0170455D02*
X0104538Y0170455D01*
X0104542Y0168856D02*
X0105890Y0168856D01*
X0105404Y0167258D02*
X0104546Y0167258D01*
X0104550Y0165659D02*
X0105299Y0165659D01*
X0105299Y0164061D02*
X0104554Y0164061D01*
X0104558Y0162462D02*
X0105662Y0162462D01*
X0104999Y0160864D02*
X0104562Y0160864D01*
X0097825Y0149408D02*
X0088066Y0141202D01*
X0065655Y0141202D01*
X0065346Y0141359D01*
X0065274Y0141336D01*
X0073223Y0146257D01*
X0073482Y0146257D01*
X0073904Y0146678D01*
X0074411Y0146992D01*
X0074470Y0147245D01*
X0074654Y0147428D01*
X0074654Y0148025D01*
X0074790Y0148605D01*
X0074654Y0148826D01*
X0074654Y0154437D01*
X0080190Y0156898D01*
X0082522Y0156959D01*
X0082522Y0150878D01*
X0082482Y0150838D01*
X0082245Y0150427D01*
X0082122Y0149970D01*
X0082122Y0148883D01*
X0087172Y0148883D01*
X0087172Y0148883D01*
X0082122Y0148883D01*
X0082122Y0147796D01*
X0082245Y0147338D01*
X0082482Y0146927D01*
X0082817Y0146592D01*
X0083228Y0146355D01*
X0083685Y0146233D01*
X0087172Y0146233D01*
X0087172Y0148883D01*
X0087172Y0148883D01*
X0087173Y0148883D02*
X0092222Y0148883D01*
X0092222Y0149395D01*
X0096946Y0149406D01*
X0097647Y0149322D01*
X0097757Y0149408D01*
X0097825Y0149408D01*
X0096241Y0148076D02*
X0092222Y0148076D01*
X0092222Y0147796D02*
X0092222Y0148883D01*
X0087173Y0148883D01*
X0087173Y0148883D01*
X0087172Y0148883D02*
X0087172Y0146233D01*
X0090659Y0146233D01*
X0091117Y0146355D01*
X0091528Y0146592D01*
X0091863Y0146927D01*
X0092100Y0147338D01*
X0092222Y0147796D01*
X0091328Y0146477D02*
X0094340Y0146477D01*
X0092439Y0144879D02*
X0070996Y0144879D01*
X0068414Y0143280D02*
X0090538Y0143280D01*
X0088637Y0141682D02*
X0065832Y0141682D01*
X0073702Y0146477D02*
X0083017Y0146477D01*
X0082122Y0148076D02*
X0074666Y0148076D01*
X0074654Y0149674D02*
X0082122Y0149674D01*
X0082522Y0151273D02*
X0074654Y0151273D01*
X0074654Y0152871D02*
X0082522Y0152871D01*
X0082522Y0154470D02*
X0074726Y0154470D01*
X0078323Y0156068D02*
X0082522Y0156068D01*
X0087172Y0148076D02*
X0087172Y0148076D01*
X0087172Y0146477D02*
X0087172Y0146477D01*
X0098382Y0133689D02*
X0106283Y0133689D01*
X0106283Y0132091D02*
X0096542Y0132091D01*
X0096659Y0130759D02*
X0095425Y0130759D01*
X0095453Y0131145D01*
X0108094Y0142123D01*
X0108252Y0142123D01*
X0108252Y0137825D01*
X0109072Y0137005D01*
X0113222Y0137005D01*
X0113222Y0136181D01*
X0113547Y0135856D01*
X0113517Y0135839D01*
X0113182Y0135504D01*
X0112945Y0135093D01*
X0112822Y0134635D01*
X0112822Y0132319D01*
X0117095Y0132319D01*
X0117095Y0131360D01*
X0112822Y0131360D01*
X0112822Y0130737D01*
X0112800Y0130759D01*
X0111485Y0130759D01*
X0112252Y0131526D01*
X0112252Y0135854D01*
X0111432Y0136674D01*
X0107104Y0136674D01*
X0106283Y0135854D01*
X0106283Y0131526D01*
X0107050Y0130759D01*
X0105735Y0130759D01*
X0105515Y0130539D01*
X0105255Y0130799D01*
X0104844Y0131036D01*
X0104387Y0131159D01*
X0101676Y0131159D01*
X0101676Y0127280D01*
X0100717Y0127280D01*
X0100717Y0131159D01*
X0098007Y0131159D01*
X0097549Y0131036D01*
X0097139Y0130799D01*
X0096879Y0130539D01*
X0096659Y0130759D01*
X0100717Y0130492D02*
X0101676Y0130492D01*
X0101676Y0128894D02*
X0100717Y0128894D01*
X0100717Y0127295D02*
X0101676Y0127295D01*
X0100223Y0135288D02*
X0106283Y0135288D01*
X0108252Y0138485D02*
X0103905Y0138485D01*
X0105745Y0140083D02*
X0108252Y0140083D01*
X0108252Y0141682D02*
X0107586Y0141682D01*
X0102064Y0136886D02*
X0113222Y0136886D01*
X0113057Y0135288D02*
X0112252Y0135288D01*
X0112252Y0133689D02*
X0112822Y0133689D01*
X0112252Y0132091D02*
X0117095Y0132091D01*
X0117095Y0131360D02*
X0118054Y0131360D01*
X0118054Y0127480D01*
X0120765Y0127480D01*
X0121222Y0127603D01*
X0121633Y0127840D01*
X0121968Y0128175D01*
X0122205Y0128586D01*
X0122328Y0129043D01*
X0122328Y0131360D01*
X0118054Y0131360D01*
X0118054Y0132319D01*
X0122328Y0132319D01*
X0122328Y0134635D01*
X0122205Y0135093D01*
X0121968Y0135504D01*
X0121633Y0135839D01*
X0121603Y0135856D01*
X0121928Y0136181D01*
X0121928Y0137776D01*
X0127159Y0138339D01*
X0127159Y0137244D01*
X0127532Y0136871D01*
X0126687Y0136871D01*
X0124187Y0134371D01*
X0123016Y0133199D01*
X0123016Y0123476D01*
X0121877Y0123476D01*
X0121276Y0122874D01*
X0120674Y0123476D01*
X0114396Y0123476D01*
X0113576Y0122655D01*
X0113576Y0122503D01*
X0113019Y0123060D01*
X0113620Y0123661D01*
X0113620Y0127780D01*
X0113927Y0127603D01*
X0114385Y0127480D01*
X0117095Y0127480D01*
X0117095Y0131360D01*
X0117095Y0130492D02*
X0118054Y0130492D01*
X0118054Y0128894D02*
X0117095Y0128894D01*
X0113620Y0127295D02*
X0123016Y0127295D01*
X0123016Y0128894D02*
X0122287Y0128894D01*
X0122328Y0130492D02*
X0123016Y0130492D01*
X0123016Y0132091D02*
X0118054Y0132091D01*
X0122328Y0133689D02*
X0123505Y0133689D01*
X0122093Y0135288D02*
X0125104Y0135288D01*
X0127517Y0136886D02*
X0121928Y0136886D01*
X0127016Y0126148D02*
X0127182Y0125981D01*
X0130506Y0125981D01*
X0130506Y0123661D01*
X0131107Y0123060D01*
X0130506Y0122459D01*
X0130506Y0116181D01*
X0131326Y0115361D01*
X0138391Y0115361D01*
X0138894Y0115863D01*
X0139396Y0115361D01*
X0146198Y0115361D01*
X0146439Y0115235D01*
X0146936Y0115391D01*
X0151669Y0115391D01*
X0152169Y0114891D01*
X0158529Y0114891D01*
X0159177Y0115540D01*
X0159077Y0115339D01*
X0159236Y0114861D01*
X0159236Y0114357D01*
X0159488Y0114105D01*
X0159630Y0113680D01*
X0159630Y0113633D01*
X0157507Y0113633D01*
X0156687Y0112813D01*
X0156687Y0111880D01*
X0156337Y0111880D01*
X0156337Y0112813D01*
X0155517Y0113633D01*
X0149239Y0113633D01*
X0148914Y0113308D01*
X0148897Y0113338D01*
X0148562Y0113673D01*
X0148151Y0113910D01*
X0147694Y0114033D01*
X0145377Y0114033D01*
X0145377Y0109760D01*
X0144418Y0109760D01*
X0144418Y0114033D01*
X0142102Y0114033D01*
X0141644Y0113910D01*
X0141233Y0113673D01*
X0140898Y0113338D01*
X0140661Y0112928D01*
X0140539Y0112470D01*
X0140539Y0109760D01*
X0144418Y0109760D01*
X0144418Y0108801D01*
X0140539Y0108801D01*
X0140539Y0106091D01*
X0140571Y0105968D01*
X0135321Y0105968D01*
X0135321Y0109134D01*
X0132744Y0111712D01*
X0130957Y0111712D01*
X0128975Y0115677D01*
X0128975Y0122655D01*
X0128155Y0123476D01*
X0127016Y0123476D01*
X0127016Y0126148D01*
X0127016Y0125696D02*
X0130506Y0125696D01*
X0130506Y0124098D02*
X0127016Y0124098D01*
X0128975Y0122499D02*
X0130546Y0122499D01*
X0130506Y0120901D02*
X0128975Y0120901D01*
X0128975Y0119302D02*
X0130506Y0119302D01*
X0130506Y0117704D02*
X0128975Y0117704D01*
X0128975Y0116105D02*
X0130581Y0116105D01*
X0129560Y0114507D02*
X0159236Y0114507D01*
X0156782Y0112908D02*
X0156242Y0112908D01*
X0152575Y0109083D02*
X0152575Y0104162D01*
X0152181Y0103769D02*
X0132171Y0103769D01*
X0130921Y0105019D01*
X0130921Y0107312D01*
X0134744Y0109711D02*
X0144418Y0109711D01*
X0144418Y0111310D02*
X0145377Y0111310D01*
X0145377Y0112908D02*
X0144418Y0112908D01*
X0140656Y0112908D02*
X0130359Y0112908D01*
X0133146Y0111310D02*
X0140539Y0111310D01*
X0140539Y0108113D02*
X0135321Y0108113D01*
X0135321Y0106514D02*
X0140539Y0106514D01*
X0134988Y0095892D02*
X0133371Y0096562D01*
X0131621Y0096562D01*
X0130004Y0095892D01*
X0128766Y0094655D01*
X0128096Y0093037D01*
X0128096Y0085287D01*
X0128766Y0083670D01*
X0129139Y0083297D01*
X0128559Y0082717D01*
X0127958Y0083318D01*
X0125879Y0083318D01*
X0125878Y0083321D01*
X0126226Y0083670D01*
X0126896Y0085287D01*
X0126896Y0093037D01*
X0126226Y0094655D01*
X0124988Y0095892D01*
X0123371Y0096562D01*
X0121621Y0096562D01*
X0120004Y0095892D01*
X0118766Y0094655D01*
X0118096Y0093037D01*
X0118096Y0085287D01*
X0118766Y0083670D01*
X0120004Y0082432D01*
X0120860Y0082077D01*
X0120860Y0080320D01*
X0118233Y0079873D01*
X0117731Y0080375D01*
X0113403Y0080375D01*
X0112583Y0079555D01*
X0112583Y0075707D01*
X0111943Y0075707D01*
X0111122Y0074887D01*
X0111122Y0073991D01*
X0111038Y0074076D01*
X0106710Y0074076D01*
X0105890Y0073255D01*
X0105890Y0069318D01*
X0105299Y0068728D01*
X0105299Y0064400D01*
X0106119Y0063580D01*
X0106136Y0063580D01*
X0104701Y0062139D01*
X0104563Y0062001D01*
X0104513Y0082235D01*
X0104988Y0082432D01*
X0106226Y0083670D01*
X0106896Y0085287D01*
X0106896Y0093037D01*
X0106226Y0094655D01*
X0104988Y0095892D01*
X0103371Y0096562D01*
X0101621Y0096562D01*
X0100004Y0095892D01*
X0098766Y0094655D01*
X0098096Y0093037D01*
X0098096Y0085440D01*
X0096896Y0086917D01*
X0096896Y0093037D01*
X0096226Y0094655D01*
X0094988Y0095892D01*
X0093371Y0096562D01*
X0091621Y0096562D01*
X0090004Y0095892D01*
X0088766Y0094655D01*
X0088096Y0093037D01*
X0088096Y0085287D01*
X0088766Y0083670D01*
X0090004Y0082432D01*
X0091621Y0081762D01*
X0093371Y0081762D01*
X0094988Y0082432D01*
X0095208Y0082651D01*
X0095938Y0081753D01*
X0075844Y0081753D01*
X0072104Y0085493D01*
X0070707Y0085493D01*
X0070707Y0086632D01*
X0070106Y0087233D01*
X0070707Y0087834D01*
X0070707Y0088184D01*
X0071483Y0087408D01*
X0077367Y0087408D01*
X0078187Y0088228D01*
X0078187Y0094112D01*
X0077367Y0094932D01*
X0071483Y0094932D01*
X0070685Y0094134D01*
X0069887Y0094932D01*
X0062822Y0094932D01*
X0062781Y0094892D01*
X0062792Y0096638D01*
X0110737Y0096638D01*
X0110653Y0096611D01*
X0109980Y0096268D01*
X0109369Y0095823D01*
X0108835Y0095289D01*
X0108391Y0094678D01*
X0108048Y0094005D01*
X0107814Y0093286D01*
X0107696Y0092540D01*
X0107696Y0089362D01*
X0112296Y0089362D01*
X0112296Y0088962D01*
X0112696Y0088962D01*
X0112696Y0081362D01*
X0112874Y0081362D01*
X0113620Y0081480D01*
X0114339Y0081714D01*
X0115012Y0082057D01*
X0115623Y0082501D01*
X0116157Y0083035D01*
X0116601Y0083646D01*
X0116944Y0084320D01*
X0117178Y0085038D01*
X0117296Y0085784D01*
X0117296Y0088962D01*
X0112696Y0088962D01*
X0112696Y0089362D01*
X0117296Y0089362D01*
X0117296Y0092540D01*
X0117178Y0093286D01*
X0116944Y0094005D01*
X0116601Y0094678D01*
X0116157Y0095289D01*
X0115623Y0095823D01*
X0115012Y0096268D01*
X0114339Y0096611D01*
X0114255Y0096638D01*
X0178307Y0096638D01*
X0177657Y0096307D01*
X0177046Y0095863D01*
X0176512Y0095329D01*
X0176068Y0094717D01*
X0175725Y0094044D01*
X0175491Y0093326D01*
X0175373Y0092579D01*
X0175373Y0089402D01*
X0179973Y0089402D01*
X0179973Y0089002D01*
X0175373Y0089002D01*
X0175373Y0085824D01*
X0175491Y0085078D01*
X0175725Y0084359D01*
X0176068Y0083686D01*
X0176512Y0083075D01*
X0177046Y0082540D01*
X0177657Y0082096D01*
X0178331Y0081753D01*
X0179049Y0081520D01*
X0179795Y0081402D01*
X0179973Y0081402D01*
X0179973Y0089001D01*
X0180373Y0089001D01*
X0180373Y0081402D01*
X0180551Y0081402D01*
X0181297Y0081520D01*
X0182016Y0081753D01*
X0182689Y0082096D01*
X0183300Y0082540D01*
X0183834Y0083075D01*
X0184279Y0083686D01*
X0184622Y0084359D01*
X0184855Y0085078D01*
X0184973Y0085824D01*
X0184973Y0089002D01*
X0180373Y0089002D01*
X0180373Y0089402D01*
X0184973Y0089402D01*
X0184973Y0092579D01*
X0184855Y0093326D01*
X0184622Y0094044D01*
X0184279Y0094717D01*
X0183834Y0095329D01*
X0183300Y0095863D01*
X0182689Y0096307D01*
X0182040Y0096638D01*
X0187519Y0096638D01*
X0186721Y0095840D01*
X0185995Y0094087D01*
X0185995Y0092190D01*
X0186721Y0090437D01*
X0188063Y0089096D01*
X0189815Y0088370D01*
X0191712Y0088370D01*
X0193465Y0089096D01*
X0194806Y0090437D01*
X0195050Y0091027D01*
X0195050Y0009654D01*
X0194413Y0011194D01*
X0193071Y0012535D01*
X0191319Y0013261D01*
X0189422Y0013261D01*
X0187669Y0012535D01*
X0186328Y0011194D01*
X0185602Y0009441D01*
X0185602Y0007544D01*
X0186328Y0005792D01*
X0187669Y0004450D01*
X0189209Y0003813D01*
X0153762Y0003813D01*
X0154381Y0004432D01*
X0154775Y0004826D01*
X0154775Y0006502D01*
X0155517Y0006502D01*
X0156337Y0007322D01*
X0156337Y0008255D01*
X0156687Y0008255D01*
X0156687Y0007322D01*
X0157507Y0006502D01*
X0163785Y0006502D01*
X0164386Y0007104D01*
X0164987Y0006502D01*
X0171265Y0006502D01*
X0172085Y0007322D01*
X0172085Y0008255D01*
X0172277Y0008255D01*
X0172277Y0007441D01*
X0173097Y0006620D01*
X0180163Y0006620D01*
X0180983Y0007441D01*
X0180983Y0013718D01*
X0180381Y0014320D01*
X0180983Y0014921D01*
X0180983Y0021199D01*
X0180163Y0022019D01*
X0177261Y0022019D01*
X0177261Y0025715D01*
X0178194Y0025715D01*
X0179014Y0026535D01*
X0179014Y0032813D01*
X0178689Y0033138D01*
X0178719Y0033155D01*
X0179055Y0033490D01*
X0179291Y0033900D01*
X0179414Y0034358D01*
X0179414Y0036675D01*
X0175141Y0036675D01*
X0175141Y0037634D01*
X0174182Y0037634D01*
X0174182Y0041513D01*
X0171472Y0041513D01*
X0171014Y0041391D01*
X0170603Y0041154D01*
X0170268Y0040819D01*
X0170031Y0040408D01*
X0169909Y0039950D01*
X0169909Y0037634D01*
X0174182Y0037634D01*
X0174182Y0036675D01*
X0169909Y0036675D01*
X0169909Y0034358D01*
X0170031Y0033900D01*
X0170268Y0033490D01*
X0170603Y0033155D01*
X0170633Y0033138D01*
X0170309Y0032813D01*
X0170309Y0026535D01*
X0171129Y0025715D01*
X0172061Y0025715D01*
X0172061Y0021329D01*
X0169549Y0021329D01*
X0169549Y0024346D01*
X0169379Y0024516D01*
X0169549Y0024686D01*
X0169549Y0028046D01*
X0168729Y0028866D01*
X0168149Y0028866D01*
X0168149Y0032178D01*
X0167991Y0032560D01*
X0167991Y0036711D01*
X0167170Y0037531D01*
X0166031Y0037531D01*
X0166031Y0041911D01*
X0165948Y0041995D01*
X0165948Y0044367D01*
X0173124Y0044367D01*
X0175487Y0042005D01*
X0180801Y0042005D01*
X0181597Y0041210D01*
X0181084Y0040697D01*
X0180460Y0039190D01*
X0180460Y0037559D01*
X0181084Y0036052D01*
X0182237Y0034899D01*
X0183744Y0034275D01*
X0190775Y0034275D01*
X0192282Y0034899D01*
X0193436Y0036052D01*
X0194060Y0037559D01*
X0194060Y0039190D01*
X0193436Y0040697D01*
X0192282Y0041851D01*
X0190775Y0042475D01*
X0185988Y0042475D01*
X0184188Y0044275D01*
X0190775Y0044275D01*
X0192282Y0044899D01*
X0193436Y0046052D01*
X0194060Y0047559D01*
X0194060Y0049190D01*
X0193436Y0050697D01*
X0192282Y0051851D01*
X0190775Y0052475D01*
X0183744Y0052475D01*
X0182237Y0051851D01*
X0181084Y0050697D01*
X0180460Y0049190D01*
X0180460Y0047559D01*
X0181084Y0046052D01*
X0181132Y0046005D01*
X0177143Y0046005D01*
X0175953Y0047195D01*
X0174781Y0048367D01*
X0164448Y0048367D01*
X0164448Y0051023D01*
X0163276Y0052194D01*
X0163246Y0052225D01*
X0144733Y0052225D01*
X0142557Y0052295D01*
X0142557Y0053669D01*
X0155890Y0053725D01*
X0155890Y0053573D01*
X0156710Y0052753D01*
X0161038Y0052753D01*
X0161858Y0053573D01*
X0161858Y0057901D01*
X0161038Y0058721D01*
X0156710Y0058721D01*
X0155890Y0057901D01*
X0155890Y0057725D01*
X0135480Y0057640D01*
X0135480Y0060480D01*
X0159502Y0060623D01*
X0163576Y0058158D01*
X0163576Y0054567D01*
X0164396Y0053746D01*
X0170674Y0053746D01*
X0171276Y0054348D01*
X0171877Y0053746D01*
X0178155Y0053746D01*
X0178854Y0054446D01*
X0178963Y0054337D01*
X0184848Y0054337D01*
X0185668Y0055157D01*
X0185668Y0061041D01*
X0184848Y0061861D01*
X0178963Y0061861D01*
X0178854Y0061752D01*
X0178155Y0062452D01*
X0171877Y0062452D01*
X0171276Y0061851D01*
X0170674Y0062452D01*
X0164396Y0062452D01*
X0164325Y0062380D01*
X0161293Y0064215D01*
X0160872Y0064632D01*
X0160608Y0064630D01*
X0160382Y0064767D01*
X0159807Y0064625D01*
X0149261Y0064563D01*
X0149266Y0064568D01*
X0149843Y0065145D01*
X0149843Y0065160D01*
X0151207Y0066561D01*
X0151223Y0066561D01*
X0151784Y0067153D01*
X0152353Y0067737D01*
X0152352Y0067752D01*
X0152363Y0067763D01*
X0152342Y0068579D01*
X0152331Y0069394D01*
X0152320Y0069404D01*
X0152213Y0073482D01*
X0152191Y0082275D01*
X0152666Y0082471D01*
X0153903Y0083709D01*
X0154573Y0085326D01*
X0154573Y0093077D01*
X0153903Y0094694D01*
X0152666Y0095932D01*
X0151048Y0096602D01*
X0149298Y0096602D01*
X0147681Y0095932D01*
X0146443Y0094694D01*
X0145773Y0093077D01*
X0145773Y0085326D01*
X0146443Y0083709D01*
X0147681Y0082471D01*
X0148191Y0082260D01*
X0148211Y0074249D01*
X0148191Y0074229D01*
X0148213Y0073425D01*
X0148215Y0072620D01*
X0148234Y0072601D01*
X0148320Y0069330D01*
X0146999Y0067973D01*
X0131248Y0067973D01*
X0130099Y0068542D01*
X0125835Y0074129D01*
X0125835Y0074281D01*
X0125504Y0074613D01*
X0127958Y0074613D01*
X0128559Y0075214D01*
X0129160Y0074613D01*
X0130082Y0074613D01*
X0129512Y0074043D01*
X0129512Y0069715D01*
X0130332Y0068894D01*
X0134660Y0068894D01*
X0135480Y0069715D01*
X0135480Y0074043D01*
X0134911Y0074613D01*
X0135438Y0074613D01*
X0136258Y0075433D01*
X0136258Y0082498D01*
X0135656Y0083100D01*
X0136226Y0083670D01*
X0136896Y0085287D01*
X0136896Y0093037D01*
X0136226Y0094655D01*
X0134988Y0095892D01*
X0135556Y0095325D02*
X0147074Y0095325D01*
X0146042Y0093726D02*
X0136611Y0093726D01*
X0136896Y0092128D02*
X0145773Y0092128D01*
X0145773Y0090529D02*
X0136896Y0090529D01*
X0136896Y0088931D02*
X0145773Y0088931D01*
X0145773Y0087332D02*
X0136896Y0087332D01*
X0136896Y0085734D02*
X0145773Y0085734D01*
X0146267Y0084135D02*
X0136419Y0084135D01*
X0136220Y0082537D02*
X0147616Y0082537D01*
X0148194Y0080938D02*
X0136258Y0080938D01*
X0136258Y0079340D02*
X0148198Y0079340D01*
X0148202Y0077741D02*
X0136258Y0077741D01*
X0136258Y0076143D02*
X0148206Y0076143D01*
X0148210Y0074544D02*
X0134979Y0074544D01*
X0135480Y0072946D02*
X0148214Y0072946D01*
X0148267Y0071347D02*
X0135480Y0071347D01*
X0135480Y0069749D02*
X0148309Y0069749D01*
X0147171Y0068150D02*
X0130891Y0068150D01*
X0129512Y0069749D02*
X0129178Y0069749D01*
X0129512Y0071347D02*
X0127958Y0071347D01*
X0126738Y0072946D02*
X0129512Y0072946D01*
X0130013Y0074544D02*
X0125572Y0074544D01*
X0120860Y0080938D02*
X0104516Y0080938D01*
X0104520Y0079340D02*
X0112583Y0079340D01*
X0112583Y0077741D02*
X0104524Y0077741D01*
X0104528Y0076143D02*
X0112583Y0076143D01*
X0111122Y0074544D02*
X0104532Y0074544D01*
X0104536Y0072946D02*
X0105890Y0072946D01*
X0105890Y0071347D02*
X0104540Y0071347D01*
X0104544Y0069749D02*
X0105890Y0069749D01*
X0105299Y0068150D02*
X0104548Y0068150D01*
X0104552Y0066552D02*
X0105299Y0066552D01*
X0105299Y0064953D02*
X0104556Y0064953D01*
X0104560Y0063355D02*
X0105912Y0063355D01*
X0097825Y0050983D02*
X0088066Y0042776D01*
X0065655Y0042776D01*
X0065346Y0042934D01*
X0065274Y0042911D01*
X0073223Y0047831D01*
X0073482Y0047831D01*
X0073904Y0048253D01*
X0074411Y0048567D01*
X0074470Y0048820D01*
X0074654Y0049003D01*
X0074654Y0049599D01*
X0074790Y0050180D01*
X0074654Y0050400D01*
X0074654Y0056012D01*
X0080190Y0058473D01*
X0082522Y0058534D01*
X0082522Y0052453D01*
X0082482Y0052413D01*
X0082245Y0052002D01*
X0082122Y0051544D01*
X0082122Y0050458D01*
X0087172Y0050458D01*
X0087172Y0050457D01*
X0087172Y0050457D01*
X0087172Y0047807D01*
X0083685Y0047807D01*
X0083228Y0047930D01*
X0082817Y0048167D01*
X0082482Y0048502D01*
X0082245Y0048913D01*
X0082122Y0049370D01*
X0082122Y0050457D01*
X0087172Y0050457D01*
X0087172Y0047807D01*
X0090659Y0047807D01*
X0091117Y0047930D01*
X0091528Y0048167D01*
X0091863Y0048502D01*
X0092100Y0048913D01*
X0092222Y0049370D01*
X0092222Y0050457D01*
X0087173Y0050457D01*
X0087173Y0050458D01*
X0092222Y0050458D01*
X0092222Y0050970D01*
X0096946Y0050981D01*
X0097647Y0050897D01*
X0097757Y0050983D01*
X0097825Y0050983D01*
X0097330Y0050566D02*
X0092222Y0050566D01*
X0092115Y0048968D02*
X0095429Y0048968D01*
X0093528Y0047369D02*
X0072476Y0047369D01*
X0074618Y0048968D02*
X0082230Y0048968D01*
X0082122Y0050566D02*
X0074654Y0050566D01*
X0074654Y0052165D02*
X0082339Y0052165D01*
X0082522Y0053763D02*
X0074654Y0053763D01*
X0074654Y0055362D02*
X0082522Y0055362D01*
X0082522Y0056960D02*
X0076787Y0056960D01*
X0087172Y0048968D02*
X0087172Y0048968D01*
X0089726Y0044172D02*
X0067312Y0044172D01*
X0069894Y0045771D02*
X0091627Y0045771D01*
X0099437Y0036180D02*
X0106283Y0036180D01*
X0106283Y0037429D02*
X0106283Y0033100D01*
X0107050Y0032334D01*
X0105735Y0032334D01*
X0105515Y0032114D01*
X0105255Y0032374D01*
X0104844Y0032611D01*
X0104387Y0032734D01*
X0101676Y0032734D01*
X0101676Y0028854D01*
X0100717Y0028854D01*
X0100717Y0032734D01*
X0098007Y0032734D01*
X0097549Y0032611D01*
X0097139Y0032374D01*
X0096879Y0032114D01*
X0096659Y0032334D01*
X0095425Y0032334D01*
X0095453Y0032720D01*
X0108094Y0043698D01*
X0108252Y0043698D01*
X0108252Y0039400D01*
X0109072Y0038580D01*
X0113222Y0038580D01*
X0113222Y0037756D01*
X0113547Y0037431D01*
X0113517Y0037414D01*
X0113182Y0037078D01*
X0112945Y0036668D01*
X0112822Y0036210D01*
X0112822Y0033894D01*
X0117095Y0033894D01*
X0117095Y0032935D01*
X0112822Y0032935D01*
X0112822Y0032312D01*
X0112800Y0032334D01*
X0111485Y0032334D01*
X0112252Y0033100D01*
X0112252Y0037429D01*
X0111432Y0038249D01*
X0107104Y0038249D01*
X0106283Y0037429D01*
X0106633Y0037778D02*
X0101278Y0037778D01*
X0103119Y0039377D02*
X0108275Y0039377D01*
X0108252Y0040975D02*
X0104959Y0040975D01*
X0106800Y0042574D02*
X0108252Y0042574D01*
X0111902Y0037778D02*
X0113222Y0037778D01*
X0112822Y0036180D02*
X0112252Y0036180D01*
X0112252Y0034581D02*
X0112822Y0034581D01*
X0112134Y0032983D02*
X0117095Y0032983D01*
X0117095Y0032935D02*
X0118054Y0032935D01*
X0118054Y0033894D01*
X0122328Y0033894D01*
X0122328Y0036210D01*
X0122205Y0036668D01*
X0121968Y0037078D01*
X0121633Y0037414D01*
X0121603Y0037431D01*
X0121928Y0037756D01*
X0121928Y0039351D01*
X0127159Y0039914D01*
X0127159Y0038819D01*
X0127532Y0038446D01*
X0126687Y0038446D01*
X0124187Y0035946D01*
X0123016Y0034774D01*
X0123016Y0025050D01*
X0121877Y0025050D01*
X0121276Y0024449D01*
X0120674Y0025050D01*
X0114396Y0025050D01*
X0113576Y0024230D01*
X0113576Y0024078D01*
X0113019Y0024635D01*
X0113620Y0025236D01*
X0113620Y0029355D01*
X0113927Y0029178D01*
X0114385Y0029055D01*
X0117095Y0029055D01*
X0117095Y0032935D01*
X0118054Y0032935D02*
X0118054Y0029055D01*
X0120765Y0029055D01*
X0121222Y0029178D01*
X0121633Y0029415D01*
X0121968Y0029750D01*
X0122205Y0030160D01*
X0122328Y0030618D01*
X0122328Y0032935D01*
X0118054Y0032935D01*
X0118054Y0032983D02*
X0123016Y0032983D01*
X0123016Y0034581D02*
X0122328Y0034581D01*
X0122328Y0036180D02*
X0124422Y0036180D01*
X0126020Y0037778D02*
X0121928Y0037778D01*
X0122167Y0039377D02*
X0127159Y0039377D01*
X0123016Y0031384D02*
X0122328Y0031384D01*
X0121989Y0029786D02*
X0123016Y0029786D01*
X0123016Y0028187D02*
X0113620Y0028187D01*
X0113620Y0026589D02*
X0123016Y0026589D01*
X0121817Y0024990D02*
X0120734Y0024990D01*
X0118054Y0029786D02*
X0117095Y0029786D01*
X0117095Y0031384D02*
X0118054Y0031384D01*
X0114336Y0024990D02*
X0113375Y0024990D01*
X0106401Y0032983D02*
X0095756Y0032983D01*
X0097597Y0034581D02*
X0106283Y0034581D01*
X0101676Y0031384D02*
X0100717Y0031384D01*
X0100717Y0029786D02*
X0101676Y0029786D01*
X0085999Y0011611D02*
X0086099Y0011510D01*
X0091520Y0004283D01*
X0091520Y0004121D01*
X0091828Y0003813D01*
X0043003Y0003813D01*
X0043748Y0004557D01*
X0043748Y0008885D01*
X0042928Y0009705D01*
X0039267Y0009705D01*
X0036455Y0011112D01*
X0036455Y0014388D01*
X0036082Y0014761D01*
X0047430Y0014761D01*
X0048232Y0014740D01*
X0048254Y0014761D01*
X0048285Y0014761D01*
X0048852Y0015328D01*
X0049434Y0015880D01*
X0049435Y0015911D01*
X0049457Y0015932D01*
X0049457Y0016734D01*
X0049829Y0030871D01*
X0049850Y0030893D01*
X0049850Y0031695D01*
X0049871Y0032497D01*
X0049850Y0032519D01*
X0049850Y0033363D01*
X0051416Y0034332D01*
X0057357Y0034411D01*
X0057268Y0034321D01*
X0057268Y0029485D01*
X0056594Y0028812D01*
X0056594Y0026052D01*
X0056882Y0025765D01*
X0056554Y0025437D01*
X0056317Y0025027D01*
X0056194Y0024569D01*
X0056194Y0023532D01*
X0056194Y0022495D01*
X0056317Y0022037D01*
X0056554Y0021627D01*
X0056882Y0021299D01*
X0056594Y0021012D01*
X0056594Y0018252D01*
X0057415Y0017432D01*
X0061374Y0017432D01*
X0061469Y0017527D01*
X0061565Y0017432D01*
X0068624Y0017432D01*
X0068719Y0017527D01*
X0068815Y0017432D01*
X0072774Y0017432D01*
X0073594Y0018252D01*
X0073594Y0021012D01*
X0073274Y0021332D01*
X0075702Y0021332D01*
X0075702Y0017795D01*
X0076522Y0016975D01*
X0078991Y0016975D01*
X0078991Y0014061D01*
X0078958Y0014047D01*
X0077650Y0012740D01*
X0077310Y0011920D01*
X0071573Y0011920D01*
X0071573Y0012852D01*
X0070753Y0013672D01*
X0064475Y0013672D01*
X0064151Y0013348D01*
X0064133Y0013378D01*
X0063798Y0013713D01*
X0063388Y0013950D01*
X0062930Y0014072D01*
X0060613Y0014072D01*
X0060613Y0009799D01*
X0059654Y0009799D01*
X0059654Y0008840D01*
X0055775Y0008840D01*
X0055775Y0006130D01*
X0055897Y0005672D01*
X0056134Y0005262D01*
X0056470Y0004927D01*
X0056880Y0004690D01*
X0057338Y0004567D01*
X0059654Y0004567D01*
X0059654Y0008840D01*
X0060613Y0008840D01*
X0060613Y0004567D01*
X0062930Y0004567D01*
X0063388Y0004690D01*
X0063798Y0004927D01*
X0064133Y0005262D01*
X0064151Y0005292D01*
X0064475Y0004967D01*
X0070753Y0004967D01*
X0071573Y0005787D01*
X0071573Y0006720D01*
X0078405Y0006720D01*
X0078958Y0006167D01*
X0080666Y0005459D01*
X0082515Y0005459D01*
X0084223Y0006167D01*
X0085531Y0007474D01*
X0086239Y0009183D01*
X0086239Y0011032D01*
X0085999Y0011611D01*
X0086239Y0010604D02*
X0086779Y0010604D01*
X0086165Y0009005D02*
X0087978Y0009005D01*
X0089177Y0007407D02*
X0085463Y0007407D01*
X0083358Y0005808D02*
X0090376Y0005808D01*
X0091520Y0004210D02*
X0043401Y0004210D01*
X0043748Y0005808D02*
X0055861Y0005808D01*
X0055775Y0007407D02*
X0043748Y0007407D01*
X0043628Y0009005D02*
X0059654Y0009005D01*
X0059654Y0009799D02*
X0055775Y0009799D01*
X0055775Y0012509D01*
X0055897Y0012967D01*
X0056134Y0013378D01*
X0056470Y0013713D01*
X0056880Y0013950D01*
X0057338Y0014072D01*
X0059654Y0014072D01*
X0059654Y0009799D01*
X0059654Y0010604D02*
X0060613Y0010604D01*
X0060613Y0012202D02*
X0059654Y0012202D01*
X0059654Y0013801D02*
X0060613Y0013801D01*
X0063646Y0013801D02*
X0078711Y0013801D01*
X0078991Y0015399D02*
X0048928Y0015399D01*
X0049464Y0016998D02*
X0076500Y0016998D01*
X0075702Y0018596D02*
X0073594Y0018596D01*
X0073594Y0020195D02*
X0075702Y0020195D01*
X0078805Y0023532D02*
X0070794Y0023532D01*
X0070794Y0027432D02*
X0079073Y0027432D01*
X0077427Y0012202D02*
X0071573Y0012202D01*
X0071573Y0005808D02*
X0079823Y0005808D01*
X0060613Y0005808D02*
X0059654Y0005808D01*
X0059654Y0007407D02*
X0060613Y0007407D01*
X0055775Y0010604D02*
X0037471Y0010604D01*
X0036455Y0012202D02*
X0055775Y0012202D01*
X0056622Y0013801D02*
X0036455Y0013801D01*
X0036000Y0006867D02*
X0035635Y0006502D01*
X0029357Y0006502D01*
X0029032Y0006827D01*
X0029015Y0006797D01*
X0028680Y0006462D01*
X0028270Y0006225D01*
X0027812Y0006102D01*
X0025495Y0006102D01*
X0025495Y0010376D01*
X0024536Y0010376D01*
X0017031Y0010376D01*
X0017031Y0011335D01*
X0016072Y0011335D01*
X0016072Y0015608D01*
X0013755Y0015608D01*
X0013297Y0015485D01*
X0012887Y0015248D01*
X0012552Y0014913D01*
X0012534Y0014883D01*
X0012210Y0015208D01*
X0009654Y0015208D01*
X0009654Y0017868D01*
X0009833Y0017868D01*
X0009871Y0017905D01*
X0009948Y0017827D01*
X0010359Y0017590D01*
X0010817Y0017468D01*
X0012653Y0017468D01*
X0012653Y0022568D01*
X0012653Y0028611D01*
X0012654Y0028611D01*
X0012654Y0022568D01*
X0012653Y0022568D01*
X0012654Y0022568D01*
X0012654Y0017468D01*
X0014491Y0017468D01*
X0014948Y0017590D01*
X0015359Y0017827D01*
X0015436Y0017905D01*
X0015474Y0017868D01*
X0015546Y0017868D01*
X0015540Y0017215D01*
X0015544Y0017211D01*
X0015544Y0017205D01*
X0016123Y0016620D01*
X0016700Y0016032D01*
X0016705Y0016032D01*
X0016798Y0015938D01*
X0016798Y0015932D01*
X0017122Y0015608D01*
X0017031Y0015608D01*
X0017031Y0011335D01*
X0020910Y0011335D01*
X0024536Y0011335D01*
X0024536Y0010376D01*
X0024536Y0006102D01*
X0022220Y0006102D01*
X0021762Y0006225D01*
X0021351Y0006462D01*
X0021016Y0006797D01*
X0020783Y0007200D01*
X0020551Y0006797D01*
X0020215Y0006462D01*
X0019805Y0006225D01*
X0019347Y0006102D01*
X0017031Y0006102D01*
X0017031Y0010376D01*
X0016072Y0010376D01*
X0016072Y0006102D01*
X0013755Y0006102D01*
X0013297Y0006225D01*
X0012887Y0006462D01*
X0012552Y0006797D01*
X0012534Y0006827D01*
X0012210Y0006502D01*
X0005932Y0006502D01*
X0005112Y0007322D01*
X0005112Y0014388D01*
X0005654Y0014930D01*
X0005654Y0017868D01*
X0005474Y0017868D01*
X0004654Y0018688D01*
X0004654Y0029208D01*
X0005110Y0030310D01*
X0005954Y0031154D01*
X0007057Y0031611D01*
X0008250Y0031611D01*
X0009353Y0031154D01*
X0009899Y0030608D01*
X0010013Y0030778D01*
X0010486Y0031252D01*
X0011043Y0031624D01*
X0011662Y0031880D01*
X0012319Y0032011D01*
X0012653Y0032011D01*
X0012653Y0028611D01*
X0012654Y0028611D01*
X0012654Y0032011D01*
X0012988Y0032011D01*
X0013645Y0031880D01*
X0014264Y0031624D01*
X0014821Y0031252D01*
X0015294Y0030778D01*
X0015408Y0030608D01*
X0015954Y0031154D01*
X0017057Y0031611D01*
X0018250Y0031611D01*
X0019353Y0031154D01*
X0020154Y0030354D01*
X0020835Y0031036D01*
X0021006Y0033236D01*
X0020898Y0033427D01*
X0021039Y0033933D01*
X0003800Y0033706D01*
X0003800Y0003813D01*
X0038524Y0003813D01*
X0037780Y0004557D01*
X0037780Y0005977D01*
X0036000Y0006867D01*
X0037780Y0005808D02*
X0003800Y0005808D01*
X0003800Y0004210D02*
X0038127Y0004210D01*
X0025495Y0007407D02*
X0024536Y0007407D01*
X0024536Y0009005D02*
X0025495Y0009005D01*
X0024536Y0010604D02*
X0017031Y0010604D01*
X0017031Y0012202D02*
X0016072Y0012202D01*
X0016072Y0013801D02*
X0017031Y0013801D01*
X0017031Y0015399D02*
X0016072Y0015399D01*
X0015749Y0016998D02*
X0009654Y0016998D01*
X0009654Y0015399D02*
X0013148Y0015399D01*
X0012654Y0018596D02*
X0012653Y0018596D01*
X0012653Y0020195D02*
X0012654Y0020195D01*
X0012653Y0021793D02*
X0012654Y0021793D01*
X0012653Y0023392D02*
X0012654Y0023392D01*
X0012653Y0024990D02*
X0012654Y0024990D01*
X0012653Y0026589D02*
X0012654Y0026589D01*
X0012653Y0028187D02*
X0012654Y0028187D01*
X0012653Y0029786D02*
X0012654Y0029786D01*
X0012653Y0031384D02*
X0012654Y0031384D01*
X0014623Y0031384D02*
X0016509Y0031384D01*
X0018798Y0031384D02*
X0020863Y0031384D01*
X0020986Y0032983D02*
X0003800Y0032983D01*
X0003800Y0031384D02*
X0006509Y0031384D01*
X0004893Y0029786D02*
X0003800Y0029786D01*
X0003800Y0028187D02*
X0004654Y0028187D01*
X0004654Y0026589D02*
X0003800Y0026589D01*
X0003800Y0024990D02*
X0004654Y0024990D01*
X0004654Y0023392D02*
X0003800Y0023392D01*
X0003800Y0021793D02*
X0004654Y0021793D01*
X0004654Y0020195D02*
X0003800Y0020195D01*
X0003800Y0018596D02*
X0004745Y0018596D01*
X0005654Y0016998D02*
X0003800Y0016998D01*
X0003800Y0015399D02*
X0005654Y0015399D01*
X0005112Y0013801D02*
X0003800Y0013801D01*
X0003800Y0012202D02*
X0005112Y0012202D01*
X0005112Y0010604D02*
X0003800Y0010604D01*
X0003800Y0009005D02*
X0005112Y0009005D01*
X0005112Y0007407D02*
X0003800Y0007407D01*
X0016072Y0007407D02*
X0017031Y0007407D01*
X0017031Y0009005D02*
X0016072Y0009005D01*
X0010684Y0031384D02*
X0008798Y0031384D01*
X0049674Y0024990D02*
X0056307Y0024990D01*
X0056194Y0023532D02*
X0059394Y0023532D01*
X0056194Y0023532D01*
X0056194Y0023392D02*
X0049632Y0023392D01*
X0049590Y0021793D02*
X0056458Y0021793D01*
X0056594Y0020195D02*
X0049548Y0020195D01*
X0049506Y0018596D02*
X0056594Y0018596D01*
X0059394Y0023532D02*
X0059394Y0023532D01*
X0056594Y0026589D02*
X0049716Y0026589D01*
X0049758Y0028187D02*
X0056594Y0028187D01*
X0057268Y0029786D02*
X0049800Y0029786D01*
X0049850Y0031384D02*
X0057268Y0031384D01*
X0057268Y0032983D02*
X0049850Y0032983D01*
X0075060Y0082537D02*
X0089899Y0082537D01*
X0088573Y0084135D02*
X0073462Y0084135D01*
X0070707Y0085734D02*
X0088096Y0085734D01*
X0088096Y0087332D02*
X0086099Y0087332D01*
X0086160Y0087368D02*
X0086495Y0087703D01*
X0086732Y0088113D01*
X0086855Y0088571D01*
X0086855Y0090789D01*
X0083074Y0090789D01*
X0083074Y0091551D01*
X0086855Y0091551D01*
X0086855Y0093769D01*
X0086732Y0094227D01*
X0086495Y0094637D01*
X0086160Y0094973D01*
X0085750Y0095210D01*
X0085292Y0095332D01*
X0083074Y0095332D01*
X0083074Y0091551D01*
X0082312Y0091551D01*
X0082312Y0090789D01*
X0083074Y0090789D01*
X0083074Y0087008D01*
X0085292Y0087008D01*
X0085750Y0087131D01*
X0086160Y0087368D01*
X0086855Y0088931D02*
X0088096Y0088931D01*
X0088096Y0090529D02*
X0086855Y0090529D01*
X0086855Y0092128D02*
X0088096Y0092128D01*
X0088381Y0093726D02*
X0086855Y0093726D01*
X0085320Y0095325D02*
X0089436Y0095325D01*
X0083074Y0095325D02*
X0082312Y0095325D01*
X0082312Y0095332D02*
X0080094Y0095332D01*
X0079636Y0095210D01*
X0079225Y0094973D01*
X0078890Y0094637D01*
X0078653Y0094227D01*
X0078531Y0093769D01*
X0078531Y0091551D01*
X0082312Y0091551D01*
X0082312Y0095332D01*
X0082312Y0093726D02*
X0083074Y0093726D01*
X0083074Y0092128D02*
X0082312Y0092128D01*
X0082312Y0090789D02*
X0078531Y0090789D01*
X0078531Y0088571D01*
X0078653Y0088113D01*
X0078890Y0087703D01*
X0079225Y0087368D01*
X0079636Y0087131D01*
X0080094Y0087008D01*
X0082312Y0087008D01*
X0082312Y0090789D01*
X0082312Y0090529D02*
X0083074Y0090529D01*
X0083074Y0088931D02*
X0082312Y0088931D01*
X0082312Y0087332D02*
X0083074Y0087332D01*
X0079287Y0087332D02*
X0070205Y0087332D01*
X0078187Y0088931D02*
X0078531Y0088931D01*
X0078531Y0090529D02*
X0078187Y0090529D01*
X0078187Y0092128D02*
X0078531Y0092128D01*
X0078531Y0093726D02*
X0078187Y0093726D01*
X0080066Y0095325D02*
X0062784Y0095325D01*
X0062930Y0102992D02*
X0060613Y0102992D01*
X0060613Y0107265D01*
X0059654Y0107265D01*
X0059654Y0102992D01*
X0057338Y0102992D01*
X0056880Y0103115D01*
X0056470Y0103352D01*
X0056134Y0103687D01*
X0055897Y0104097D01*
X0055775Y0104555D01*
X0055775Y0107265D01*
X0059654Y0107265D01*
X0059654Y0108224D01*
X0055775Y0108224D01*
X0055775Y0110935D01*
X0055897Y0111392D01*
X0056134Y0111803D01*
X0056470Y0112138D01*
X0056880Y0112375D01*
X0057338Y0112498D01*
X0059654Y0112498D01*
X0059654Y0108224D01*
X0060613Y0108224D01*
X0060613Y0112498D01*
X0062930Y0112498D01*
X0063388Y0112375D01*
X0063798Y0112138D01*
X0064133Y0111803D01*
X0064151Y0111773D01*
X0064475Y0112098D01*
X0070753Y0112098D01*
X0071573Y0111278D01*
X0071573Y0110345D01*
X0077310Y0110345D01*
X0077650Y0111165D01*
X0078958Y0112473D01*
X0078991Y0112486D01*
X0078991Y0115400D01*
X0076522Y0115400D01*
X0075702Y0116220D01*
X0075702Y0119757D01*
X0073274Y0119757D01*
X0073594Y0119437D01*
X0073594Y0116678D01*
X0072774Y0115857D01*
X0068815Y0115857D01*
X0068719Y0115953D01*
X0068624Y0115857D01*
X0061565Y0115857D01*
X0061469Y0115953D01*
X0061374Y0115857D01*
X0057415Y0115857D01*
X0056594Y0116678D01*
X0056594Y0119437D01*
X0056882Y0119725D01*
X0056554Y0120052D01*
X0056317Y0120463D01*
X0056194Y0120920D01*
X0056194Y0121957D01*
X0059394Y0121957D01*
X0059394Y0121958D01*
X0056194Y0121958D01*
X0056194Y0122994D01*
X0056317Y0123452D01*
X0056554Y0123863D01*
X0056882Y0124190D01*
X0056594Y0124478D01*
X0056594Y0127237D01*
X0057268Y0127911D01*
X0057268Y0132747D01*
X0057357Y0132836D01*
X0051416Y0132758D01*
X0049850Y0131788D01*
X0049850Y0130944D01*
X0049871Y0130922D01*
X0049850Y0130120D01*
X0049850Y0129318D01*
X0049829Y0129296D01*
X0049457Y0115160D01*
X0049457Y0114357D01*
X0049435Y0114336D01*
X0049434Y0114305D01*
X0048852Y0113753D01*
X0048285Y0113186D01*
X0048254Y0113186D01*
X0048232Y0113165D01*
X0047430Y0113186D01*
X0036082Y0113186D01*
X0036455Y0112813D01*
X0036455Y0109537D01*
X0039267Y0108131D01*
X0042928Y0108131D01*
X0043748Y0107311D01*
X0043748Y0102982D01*
X0043003Y0102238D01*
X0091828Y0102238D01*
X0091520Y0102546D01*
X0091520Y0102708D01*
X0086099Y0109935D01*
X0085999Y0110036D01*
X0086239Y0109457D01*
X0086239Y0107608D01*
X0085531Y0105899D01*
X0084223Y0104592D01*
X0082515Y0103884D01*
X0080666Y0103884D01*
X0078958Y0104592D01*
X0078405Y0105145D01*
X0071573Y0105145D01*
X0071573Y0104212D01*
X0070753Y0103392D01*
X0064475Y0103392D01*
X0064151Y0103717D01*
X0064133Y0103687D01*
X0063798Y0103352D01*
X0063388Y0103115D01*
X0062930Y0102992D01*
X0063738Y0103317D02*
X0091063Y0103317D01*
X0089864Y0104916D02*
X0084547Y0104916D01*
X0085786Y0106514D02*
X0088665Y0106514D01*
X0087466Y0108113D02*
X0086239Y0108113D01*
X0086267Y0109711D02*
X0086133Y0109711D01*
X0078991Y0112908D02*
X0036360Y0112908D01*
X0036455Y0111310D02*
X0055875Y0111310D01*
X0055775Y0109711D02*
X0036455Y0109711D01*
X0036000Y0105292D02*
X0035635Y0104928D01*
X0029357Y0104928D01*
X0029032Y0105252D01*
X0029015Y0105222D01*
X0028680Y0104887D01*
X0028270Y0104650D01*
X0027812Y0104528D01*
X0025495Y0104528D01*
X0025495Y0108801D01*
X0024536Y0108801D01*
X0017031Y0108801D01*
X0017031Y0109760D01*
X0020910Y0109760D01*
X0024536Y0109760D01*
X0024536Y0108801D01*
X0024536Y0104528D01*
X0022220Y0104528D01*
X0021762Y0104650D01*
X0021351Y0104887D01*
X0021016Y0105222D01*
X0020783Y0105626D01*
X0020551Y0105222D01*
X0020215Y0104887D01*
X0019805Y0104650D01*
X0019347Y0104528D01*
X0017031Y0104528D01*
X0017031Y0108801D01*
X0016072Y0108801D01*
X0016072Y0104528D01*
X0013755Y0104528D01*
X0013297Y0104650D01*
X0012887Y0104887D01*
X0012552Y0105222D01*
X0012534Y0105252D01*
X0012210Y0104928D01*
X0005932Y0104928D01*
X0005112Y0105748D01*
X0005112Y0112813D01*
X0005654Y0113355D01*
X0005654Y0116293D01*
X0005474Y0116293D01*
X0004654Y0117113D01*
X0004654Y0127633D01*
X0005110Y0128736D01*
X0005954Y0129579D01*
X0007057Y0130036D01*
X0008250Y0130036D01*
X0009353Y0129579D01*
X0009899Y0129033D01*
X0010013Y0129204D01*
X0010486Y0129677D01*
X0011043Y0130049D01*
X0011662Y0130306D01*
X0012319Y0130436D01*
X0012653Y0130436D01*
X0012653Y0127036D01*
X0012653Y0120993D01*
X0012654Y0120993D01*
X0012654Y0127036D01*
X0012653Y0127036D01*
X0012654Y0127036D01*
X0012654Y0130436D01*
X0012988Y0130436D01*
X0013645Y0130306D01*
X0014264Y0130049D01*
X0014821Y0129677D01*
X0015294Y0129204D01*
X0015408Y0129033D01*
X0015954Y0129579D01*
X0017057Y0130036D01*
X0018250Y0130036D01*
X0019353Y0129579D01*
X0020154Y0128779D01*
X0020835Y0129461D01*
X0021006Y0131662D01*
X0020898Y0131852D01*
X0021039Y0132358D01*
X0003800Y0132131D01*
X0003800Y0102238D01*
X0038524Y0102238D01*
X0037780Y0102982D01*
X0037780Y0104403D01*
X0036000Y0105292D01*
X0036753Y0104916D02*
X0028709Y0104916D01*
X0025495Y0104916D02*
X0024536Y0104916D01*
X0024536Y0106514D02*
X0025495Y0106514D01*
X0025495Y0108113D02*
X0024536Y0108113D01*
X0024536Y0109711D02*
X0017031Y0109711D01*
X0017031Y0109760D02*
X0016072Y0109760D01*
X0016072Y0114033D01*
X0013755Y0114033D01*
X0013297Y0113910D01*
X0012887Y0113673D01*
X0012552Y0113338D01*
X0012534Y0113308D01*
X0012210Y0113633D01*
X0009654Y0113633D01*
X0009654Y0116293D01*
X0009833Y0116293D01*
X0009871Y0116330D01*
X0009948Y0116253D01*
X0010359Y0116016D01*
X0010817Y0115893D01*
X0012653Y0115893D01*
X0012653Y0120993D01*
X0012654Y0120993D01*
X0012654Y0115893D01*
X0014491Y0115893D01*
X0014948Y0116016D01*
X0015359Y0116253D01*
X0015436Y0116330D01*
X0015474Y0116293D01*
X0015546Y0116293D01*
X0015540Y0115640D01*
X0015544Y0115636D01*
X0015544Y0115630D01*
X0016123Y0115045D01*
X0016700Y0114457D01*
X0016705Y0114457D01*
X0016798Y0114363D01*
X0016798Y0114357D01*
X0017122Y0114033D01*
X0017031Y0114033D01*
X0017031Y0109760D01*
X0017031Y0111310D02*
X0016072Y0111310D01*
X0016072Y0112908D02*
X0017031Y0112908D01*
X0016651Y0114507D02*
X0009654Y0114507D01*
X0009654Y0116105D02*
X0010203Y0116105D01*
X0012653Y0116105D02*
X0012654Y0116105D01*
X0012653Y0117704D02*
X0012654Y0117704D01*
X0012653Y0119302D02*
X0012654Y0119302D01*
X0012653Y0120901D02*
X0012654Y0120901D01*
X0012653Y0122499D02*
X0012654Y0122499D01*
X0012653Y0124098D02*
X0012654Y0124098D01*
X0012653Y0125696D02*
X0012654Y0125696D01*
X0012653Y0127295D02*
X0012654Y0127295D01*
X0012653Y0128894D02*
X0012654Y0128894D01*
X0020039Y0128894D02*
X0020268Y0128894D01*
X0020915Y0130492D02*
X0003800Y0130492D01*
X0003800Y0128894D02*
X0005268Y0128894D01*
X0004654Y0127295D02*
X0003800Y0127295D01*
X0003800Y0125696D02*
X0004654Y0125696D01*
X0004654Y0124098D02*
X0003800Y0124098D01*
X0003800Y0122499D02*
X0004654Y0122499D01*
X0004654Y0120901D02*
X0003800Y0120901D01*
X0003800Y0119302D02*
X0004654Y0119302D01*
X0004654Y0117704D02*
X0003800Y0117704D01*
X0003800Y0116105D02*
X0005654Y0116105D01*
X0005654Y0114507D02*
X0003800Y0114507D01*
X0003800Y0112908D02*
X0005207Y0112908D01*
X0005112Y0111310D02*
X0003800Y0111310D01*
X0003800Y0109711D02*
X0005112Y0109711D01*
X0005112Y0108113D02*
X0003800Y0108113D01*
X0003800Y0106514D02*
X0005112Y0106514D01*
X0003800Y0104916D02*
X0012858Y0104916D01*
X0016072Y0104916D02*
X0017031Y0104916D01*
X0017031Y0106514D02*
X0016072Y0106514D01*
X0016072Y0108113D02*
X0017031Y0108113D01*
X0020244Y0104916D02*
X0021323Y0104916D01*
X0015545Y0116105D02*
X0015104Y0116105D01*
X0003800Y0103317D02*
X0037780Y0103317D01*
X0043748Y0103317D02*
X0056529Y0103317D01*
X0055775Y0104916D02*
X0043748Y0104916D01*
X0043748Y0106514D02*
X0055775Y0106514D01*
X0059654Y0106514D02*
X0060613Y0106514D01*
X0060613Y0104916D02*
X0059654Y0104916D01*
X0059654Y0103317D02*
X0060613Y0103317D01*
X0059654Y0108113D02*
X0042946Y0108113D01*
X0049457Y0114507D02*
X0078991Y0114507D01*
X0075817Y0116105D02*
X0073022Y0116105D01*
X0073594Y0117704D02*
X0075702Y0117704D01*
X0075702Y0119302D02*
X0073594Y0119302D01*
X0070794Y0121957D02*
X0078805Y0121957D01*
X0079073Y0125857D02*
X0070794Y0125857D01*
X0057268Y0128894D02*
X0049818Y0128894D01*
X0049860Y0130492D02*
X0057268Y0130492D01*
X0057268Y0132091D02*
X0050339Y0132091D01*
X0049776Y0127295D02*
X0056652Y0127295D01*
X0056594Y0125696D02*
X0049734Y0125696D01*
X0049692Y0124098D02*
X0056789Y0124098D01*
X0056194Y0122499D02*
X0049650Y0122499D01*
X0049608Y0120901D02*
X0056200Y0120901D01*
X0056594Y0119302D02*
X0049566Y0119302D01*
X0049524Y0117704D02*
X0056594Y0117704D01*
X0057167Y0116105D02*
X0049482Y0116105D01*
X0059654Y0111310D02*
X0060613Y0111310D01*
X0060613Y0109711D02*
X0059654Y0109711D01*
X0071541Y0111310D02*
X0077795Y0111310D01*
X0078634Y0104916D02*
X0071573Y0104916D01*
X0095093Y0082537D02*
X0095301Y0082537D01*
X0097857Y0085734D02*
X0098096Y0085734D01*
X0098096Y0087332D02*
X0096896Y0087332D01*
X0096896Y0088931D02*
X0098096Y0088931D01*
X0098096Y0090529D02*
X0096896Y0090529D01*
X0096896Y0092128D02*
X0098096Y0092128D01*
X0098381Y0093726D02*
X0096611Y0093726D01*
X0095556Y0095325D02*
X0099436Y0095325D01*
X0105556Y0095325D02*
X0108870Y0095325D01*
X0107957Y0093726D02*
X0106611Y0093726D01*
X0106896Y0092128D02*
X0107696Y0092128D01*
X0107696Y0090529D02*
X0106896Y0090529D01*
X0106896Y0088931D02*
X0107696Y0088931D01*
X0107696Y0088962D02*
X0107696Y0085784D01*
X0107814Y0085038D01*
X0108048Y0084320D01*
X0108391Y0083646D01*
X0108835Y0083035D01*
X0109369Y0082501D01*
X0109980Y0082057D01*
X0110653Y0081714D01*
X0111372Y0081480D01*
X0112118Y0081362D01*
X0112296Y0081362D01*
X0112296Y0088962D01*
X0107696Y0088962D01*
X0107696Y0087332D02*
X0106896Y0087332D01*
X0106896Y0085734D02*
X0107704Y0085734D01*
X0108142Y0084135D02*
X0106419Y0084135D01*
X0105093Y0082537D02*
X0109333Y0082537D01*
X0112296Y0082537D02*
X0112696Y0082537D01*
X0112696Y0084135D02*
X0112296Y0084135D01*
X0112296Y0085734D02*
X0112696Y0085734D01*
X0112696Y0087332D02*
X0112296Y0087332D01*
X0112296Y0088931D02*
X0112696Y0088931D01*
X0117296Y0088931D02*
X0118096Y0088931D01*
X0118096Y0090529D02*
X0117296Y0090529D01*
X0117296Y0092128D02*
X0118096Y0092128D01*
X0118381Y0093726D02*
X0117035Y0093726D01*
X0116122Y0095325D02*
X0119436Y0095325D01*
X0125556Y0095325D02*
X0129436Y0095325D01*
X0128381Y0093726D02*
X0126611Y0093726D01*
X0126896Y0092128D02*
X0128096Y0092128D01*
X0128096Y0090529D02*
X0126896Y0090529D01*
X0126896Y0088931D02*
X0128096Y0088931D01*
X0128096Y0087332D02*
X0126896Y0087332D01*
X0126896Y0085734D02*
X0128096Y0085734D01*
X0128573Y0084135D02*
X0126419Y0084135D01*
X0119899Y0082537D02*
X0115659Y0082537D01*
X0116850Y0084135D02*
X0118573Y0084135D01*
X0118096Y0085734D02*
X0117288Y0085734D01*
X0117296Y0087332D02*
X0118096Y0087332D01*
X0135480Y0060158D02*
X0160272Y0060158D01*
X0161200Y0058559D02*
X0162913Y0058559D01*
X0163576Y0056960D02*
X0161858Y0056960D01*
X0161858Y0055362D02*
X0163576Y0055362D01*
X0164379Y0053763D02*
X0161858Y0053763D01*
X0163306Y0052165D02*
X0182996Y0052165D01*
X0181030Y0050566D02*
X0164448Y0050566D01*
X0164448Y0048968D02*
X0180460Y0048968D01*
X0180538Y0047369D02*
X0175779Y0047369D01*
X0173319Y0044172D02*
X0165948Y0044172D01*
X0165948Y0042574D02*
X0174917Y0042574D01*
X0175141Y0041513D02*
X0175141Y0037634D01*
X0179414Y0037634D01*
X0179414Y0039950D01*
X0179291Y0040408D01*
X0179055Y0040819D01*
X0178719Y0041154D01*
X0178309Y0041391D01*
X0177851Y0041513D01*
X0175141Y0041513D01*
X0175141Y0040975D02*
X0174182Y0040975D01*
X0174182Y0039377D02*
X0175141Y0039377D01*
X0175141Y0037778D02*
X0174182Y0037778D01*
X0169909Y0037778D02*
X0166031Y0037778D01*
X0166031Y0039377D02*
X0169909Y0039377D01*
X0170425Y0040975D02*
X0166031Y0040975D01*
X0167991Y0036180D02*
X0169909Y0036180D01*
X0169909Y0034581D02*
X0167991Y0034581D01*
X0167991Y0032983D02*
X0170479Y0032983D01*
X0170309Y0031384D02*
X0168149Y0031384D01*
X0168149Y0029786D02*
X0170309Y0029786D01*
X0170309Y0028187D02*
X0169408Y0028187D01*
X0169549Y0026589D02*
X0170309Y0026589D01*
X0169549Y0024990D02*
X0172061Y0024990D01*
X0172061Y0023392D02*
X0169549Y0023392D01*
X0169549Y0021793D02*
X0172061Y0021793D01*
X0177261Y0023392D02*
X0183550Y0023392D01*
X0183550Y0024549D02*
X0183550Y0021740D01*
X0183673Y0021282D01*
X0183910Y0020872D01*
X0184245Y0020537D01*
X0184656Y0020300D01*
X0185113Y0020177D01*
X0187922Y0020177D01*
X0187922Y0024549D01*
X0183550Y0024549D01*
X0183550Y0024720D02*
X0187922Y0024720D01*
X0187922Y0024549D01*
X0188094Y0024549D01*
X0188094Y0024720D01*
X0192465Y0024720D01*
X0192465Y0027529D01*
X0192343Y0027987D01*
X0192106Y0028397D01*
X0191771Y0028732D01*
X0191360Y0028969D01*
X0190902Y0029092D01*
X0188094Y0029092D01*
X0188094Y0024721D01*
X0187922Y0024721D01*
X0187922Y0029092D01*
X0185113Y0029092D01*
X0184656Y0028969D01*
X0184245Y0028732D01*
X0183910Y0028397D01*
X0183673Y0027987D01*
X0183550Y0027529D01*
X0183550Y0024720D01*
X0183550Y0024990D02*
X0177261Y0024990D01*
X0179014Y0026589D02*
X0183550Y0026589D01*
X0183789Y0028187D02*
X0179014Y0028187D01*
X0179014Y0029786D02*
X0195050Y0029786D01*
X0195050Y0031384D02*
X0179014Y0031384D01*
X0178844Y0032983D02*
X0195050Y0032983D01*
X0195050Y0034581D02*
X0191515Y0034581D01*
X0193488Y0036180D02*
X0195050Y0036180D01*
X0195050Y0037778D02*
X0194060Y0037778D01*
X0193983Y0039377D02*
X0195050Y0039377D01*
X0195050Y0040975D02*
X0193158Y0040975D01*
X0195050Y0042574D02*
X0185889Y0042574D01*
X0184291Y0044172D02*
X0195050Y0044172D01*
X0195050Y0045771D02*
X0193154Y0045771D01*
X0193981Y0047369D02*
X0195050Y0047369D01*
X0195050Y0048968D02*
X0194060Y0048968D01*
X0193490Y0050566D02*
X0195050Y0050566D01*
X0195050Y0052165D02*
X0191523Y0052165D01*
X0190554Y0053937D02*
X0192772Y0053937D01*
X0193230Y0054060D01*
X0193641Y0054297D01*
X0193976Y0054632D01*
X0194213Y0055042D01*
X0194335Y0055500D01*
X0194335Y0057718D01*
X0190554Y0057718D01*
X0190554Y0053937D01*
X0189792Y0053937D02*
X0189792Y0057718D01*
X0186011Y0057718D01*
X0186011Y0055500D01*
X0186134Y0055042D01*
X0186371Y0054632D01*
X0186706Y0054297D01*
X0187116Y0054060D01*
X0187574Y0053937D01*
X0189792Y0053937D01*
X0189792Y0055362D02*
X0190554Y0055362D01*
X0190554Y0056960D02*
X0189792Y0056960D01*
X0189792Y0057718D02*
X0190554Y0057718D01*
X0190554Y0058480D01*
X0189792Y0058480D01*
X0189792Y0057718D01*
X0189792Y0058480D02*
X0186011Y0058480D01*
X0186011Y0060698D01*
X0186134Y0061156D01*
X0186371Y0061567D01*
X0186706Y0061902D01*
X0187116Y0062139D01*
X0187574Y0062261D01*
X0189792Y0062261D01*
X0189792Y0058480D01*
X0189792Y0058559D02*
X0190554Y0058559D01*
X0190554Y0058480D02*
X0190554Y0062261D01*
X0192772Y0062261D01*
X0193230Y0062139D01*
X0193641Y0061902D01*
X0193976Y0061567D01*
X0194213Y0061156D01*
X0194335Y0060698D01*
X0194335Y0058480D01*
X0190554Y0058480D01*
X0190554Y0060158D02*
X0189792Y0060158D01*
X0189792Y0061756D02*
X0190554Y0061756D01*
X0193786Y0061756D02*
X0195050Y0061756D01*
X0195050Y0060158D02*
X0194335Y0060158D01*
X0194335Y0058559D02*
X0195050Y0058559D01*
X0195050Y0056960D02*
X0194335Y0056960D01*
X0194298Y0055362D02*
X0195050Y0055362D01*
X0195050Y0053763D02*
X0178172Y0053763D01*
X0171860Y0053763D02*
X0170691Y0053763D01*
X0178851Y0061756D02*
X0178858Y0061756D01*
X0184953Y0061756D02*
X0186560Y0061756D01*
X0186011Y0060158D02*
X0185668Y0060158D01*
X0185668Y0058559D02*
X0186011Y0058559D01*
X0186011Y0056960D02*
X0185668Y0056960D01*
X0185668Y0055362D02*
X0186048Y0055362D01*
X0195050Y0063355D02*
X0162715Y0063355D01*
X0156548Y0058559D02*
X0135480Y0058559D01*
X0146701Y0048225D02*
X0153927Y0048225D01*
X0153248Y0047546D01*
X0153248Y0044551D01*
X0153238Y0044551D01*
X0149301Y0040614D01*
X0148013Y0039325D01*
X0148013Y0029527D01*
X0147831Y0029089D01*
X0148013Y0028652D01*
X0148013Y0028178D01*
X0148348Y0027843D01*
X0148379Y0027768D01*
X0148379Y0027294D01*
X0148714Y0026959D01*
X0148895Y0026522D01*
X0149333Y0026340D01*
X0150218Y0025455D01*
X0151123Y0024550D01*
X0151071Y0024461D01*
X0150949Y0024003D01*
X0150949Y0022666D01*
X0150949Y0021329D01*
X0151046Y0020966D01*
X0147282Y0020966D01*
X0147282Y0024033D01*
X0146681Y0024635D01*
X0147282Y0025236D01*
X0147282Y0031514D01*
X0146701Y0032095D01*
X0146701Y0048225D01*
X0146701Y0047369D02*
X0153248Y0047369D01*
X0153248Y0045771D02*
X0146701Y0045771D01*
X0146701Y0044172D02*
X0152860Y0044172D01*
X0154150Y0042351D02*
X0150213Y0038414D01*
X0150213Y0029089D01*
X0150579Y0028206D01*
X0152418Y0026366D01*
X0155349Y0026366D01*
X0156072Y0029342D02*
X0156072Y0032698D01*
X0157031Y0032698D01*
X0157031Y0029015D01*
X0156242Y0029342D01*
X0156072Y0029342D01*
X0156072Y0029786D02*
X0157031Y0029786D01*
X0157031Y0031384D02*
X0156072Y0031384D01*
X0158970Y0028425D02*
X0159347Y0028425D01*
X0159805Y0028548D01*
X0160215Y0028785D01*
X0160551Y0029120D01*
X0160568Y0029150D01*
X0160893Y0028825D01*
X0162328Y0028825D01*
X0161549Y0028046D01*
X0161549Y0024686D01*
X0161719Y0024516D01*
X0161549Y0024346D01*
X0161549Y0024272D01*
X0161195Y0024272D01*
X0160943Y0024020D01*
X0160605Y0023908D01*
X0160380Y0023457D01*
X0160024Y0023101D01*
X0160024Y0022745D01*
X0159749Y0022195D01*
X0159749Y0022666D01*
X0155349Y0022666D01*
X0155349Y0022666D01*
X0159749Y0022666D01*
X0159749Y0024003D01*
X0159626Y0024461D01*
X0159389Y0024871D01*
X0159349Y0024912D01*
X0159349Y0028046D01*
X0158970Y0028425D01*
X0159208Y0028187D02*
X0161690Y0028187D01*
X0161549Y0026589D02*
X0159349Y0026589D01*
X0159349Y0024990D02*
X0161549Y0024990D01*
X0160315Y0023392D02*
X0159749Y0023392D01*
X0155349Y0022666D02*
X0155349Y0022666D01*
X0150949Y0022666D01*
X0155349Y0022666D01*
X0150949Y0023392D02*
X0147282Y0023392D01*
X0147282Y0021793D02*
X0150949Y0021793D01*
X0150683Y0024990D02*
X0147036Y0024990D01*
X0147282Y0026589D02*
X0148867Y0026589D01*
X0148013Y0028187D02*
X0147282Y0028187D01*
X0147282Y0029786D02*
X0148013Y0029786D01*
X0148013Y0031384D02*
X0147282Y0031384D01*
X0146701Y0032983D02*
X0148013Y0032983D01*
X0148013Y0034581D02*
X0146701Y0034581D01*
X0146701Y0036180D02*
X0148013Y0036180D01*
X0148013Y0037778D02*
X0146701Y0037778D01*
X0146701Y0039377D02*
X0148064Y0039377D01*
X0146701Y0040975D02*
X0149663Y0040975D01*
X0151261Y0042574D02*
X0146701Y0042574D01*
X0154150Y0042351D02*
X0156433Y0042351D01*
X0156748Y0042666D01*
X0178898Y0040975D02*
X0181362Y0040975D01*
X0180537Y0039377D02*
X0179414Y0039377D01*
X0179414Y0037778D02*
X0180460Y0037778D01*
X0181031Y0036180D02*
X0179414Y0036180D01*
X0179414Y0034581D02*
X0183004Y0034581D01*
X0187922Y0028187D02*
X0188094Y0028187D01*
X0188094Y0026589D02*
X0187922Y0026589D01*
X0187922Y0024990D02*
X0188094Y0024990D01*
X0188094Y0024549D02*
X0192465Y0024549D01*
X0192465Y0021740D01*
X0192343Y0021282D01*
X0192106Y0020872D01*
X0191771Y0020537D01*
X0191360Y0020300D01*
X0190902Y0020177D01*
X0188094Y0020177D01*
X0188094Y0024549D01*
X0188094Y0023392D02*
X0187922Y0023392D01*
X0187922Y0021793D02*
X0188094Y0021793D01*
X0188094Y0020195D02*
X0187922Y0020195D01*
X0185048Y0020195D02*
X0180983Y0020195D01*
X0180983Y0018596D02*
X0195050Y0018596D01*
X0195050Y0016998D02*
X0180983Y0016998D01*
X0180983Y0015399D02*
X0195050Y0015399D01*
X0195050Y0013801D02*
X0180900Y0013801D01*
X0180983Y0012202D02*
X0187336Y0012202D01*
X0186083Y0010604D02*
X0180983Y0010604D01*
X0180983Y0009005D02*
X0185602Y0009005D01*
X0185659Y0007407D02*
X0180949Y0007407D01*
X0186321Y0005808D02*
X0154775Y0005808D01*
X0154159Y0004210D02*
X0188250Y0004210D01*
X0194657Y0010604D02*
X0195050Y0010604D01*
X0195050Y0012202D02*
X0193404Y0012202D01*
X0195050Y0020195D02*
X0190968Y0020195D01*
X0192465Y0021793D02*
X0195050Y0021793D01*
X0195050Y0023392D02*
X0192465Y0023392D01*
X0192465Y0024990D02*
X0195050Y0024990D01*
X0195050Y0026589D02*
X0192465Y0026589D01*
X0192227Y0028187D02*
X0195050Y0028187D01*
X0183550Y0021793D02*
X0180388Y0021793D01*
X0172311Y0007407D02*
X0172085Y0007407D01*
X0159630Y0015208D02*
X0157507Y0015208D01*
X0156687Y0014388D01*
X0156687Y0013455D01*
X0156337Y0013455D01*
X0156337Y0014388D01*
X0155517Y0015208D01*
X0149239Y0015208D01*
X0148914Y0014883D01*
X0148897Y0014913D01*
X0148562Y0015248D01*
X0148151Y0015485D01*
X0147694Y0015608D01*
X0145377Y0015608D01*
X0145377Y0011335D01*
X0144418Y0011335D01*
X0144418Y0015608D01*
X0142102Y0015608D01*
X0141644Y0015485D01*
X0141233Y0015248D01*
X0140898Y0014913D01*
X0140661Y0014503D01*
X0140539Y0014045D01*
X0140539Y0011335D01*
X0144418Y0011335D01*
X0144418Y0010376D01*
X0140539Y0010376D01*
X0140539Y0007665D01*
X0140571Y0007543D01*
X0135321Y0007543D01*
X0135321Y0010709D01*
X0132744Y0013287D01*
X0130957Y0013287D01*
X0128975Y0017252D01*
X0128975Y0024230D01*
X0128155Y0025050D01*
X0127016Y0025050D01*
X0127016Y0027722D01*
X0127182Y0027556D01*
X0130506Y0027556D01*
X0130506Y0025236D01*
X0131107Y0024635D01*
X0130506Y0024033D01*
X0130506Y0017756D01*
X0131326Y0016935D01*
X0138391Y0016935D01*
X0138894Y0017438D01*
X0139396Y0016935D01*
X0146198Y0016935D01*
X0146439Y0016810D01*
X0146936Y0016966D01*
X0151669Y0016966D01*
X0152169Y0016466D01*
X0158529Y0016466D01*
X0159177Y0017115D01*
X0159077Y0016914D01*
X0159236Y0016436D01*
X0159236Y0015932D01*
X0159488Y0015680D01*
X0159630Y0015255D01*
X0159630Y0015208D01*
X0159582Y0015399D02*
X0148300Y0015399D01*
X0145377Y0015399D02*
X0144418Y0015399D01*
X0144418Y0013801D02*
X0145377Y0013801D01*
X0145377Y0012202D02*
X0144418Y0012202D01*
X0144418Y0010604D02*
X0135321Y0010604D01*
X0135321Y0009005D02*
X0140539Y0009005D01*
X0140539Y0012202D02*
X0133828Y0012202D01*
X0130700Y0013801D02*
X0140539Y0013801D01*
X0141495Y0015399D02*
X0129901Y0015399D01*
X0129102Y0016998D02*
X0131263Y0016998D01*
X0130506Y0018596D02*
X0128975Y0018596D01*
X0128975Y0020195D02*
X0130506Y0020195D01*
X0130506Y0021793D02*
X0128975Y0021793D01*
X0128975Y0023392D02*
X0130506Y0023392D01*
X0130751Y0024990D02*
X0128215Y0024990D01*
X0127016Y0026589D02*
X0130506Y0026589D01*
X0138453Y0016998D02*
X0139334Y0016998D01*
X0130921Y0008887D02*
X0130921Y0006593D01*
X0132171Y0005343D01*
X0152181Y0005343D01*
X0152575Y0005737D02*
X0152575Y0010658D01*
X0156337Y0013801D02*
X0156687Y0013801D01*
X0159060Y0016998D02*
X0159119Y0016998D01*
X0156687Y0007407D02*
X0156337Y0007407D01*
X0149651Y0064953D02*
X0195050Y0064953D01*
X0195050Y0066552D02*
X0151198Y0066552D01*
X0152353Y0068150D02*
X0195050Y0068150D01*
X0195050Y0069749D02*
X0152311Y0069749D01*
X0152269Y0071347D02*
X0195050Y0071347D01*
X0195050Y0072946D02*
X0192065Y0072946D01*
X0192065Y0072578D02*
X0191245Y0071758D01*
X0184770Y0071758D01*
X0183950Y0072578D01*
X0183950Y0079053D01*
X0184770Y0079873D01*
X0191245Y0079873D01*
X0192065Y0079053D01*
X0192065Y0072578D01*
X0192065Y0074544D02*
X0195050Y0074544D01*
X0195050Y0076143D02*
X0192065Y0076143D01*
X0192065Y0077741D02*
X0195050Y0077741D01*
X0195050Y0079340D02*
X0191779Y0079340D01*
X0195050Y0080938D02*
X0152194Y0080938D01*
X0152198Y0079340D02*
X0184237Y0079340D01*
X0183950Y0077741D02*
X0152202Y0077741D01*
X0152206Y0076143D02*
X0183950Y0076143D01*
X0183950Y0074544D02*
X0152210Y0074544D01*
X0152227Y0072946D02*
X0183950Y0072946D01*
X0183295Y0082537D02*
X0195050Y0082537D01*
X0195050Y0084135D02*
X0184508Y0084135D01*
X0184959Y0085734D02*
X0195050Y0085734D01*
X0195050Y0087332D02*
X0184973Y0087332D01*
X0184973Y0088931D02*
X0188462Y0088931D01*
X0186683Y0090529D02*
X0184973Y0090529D01*
X0184973Y0092128D02*
X0186021Y0092128D01*
X0185995Y0093726D02*
X0184725Y0093726D01*
X0183837Y0095325D02*
X0186508Y0095325D01*
X0180373Y0088931D02*
X0179973Y0088931D01*
X0179973Y0087332D02*
X0180373Y0087332D01*
X0180373Y0085734D02*
X0179973Y0085734D01*
X0179973Y0084135D02*
X0180373Y0084135D01*
X0180373Y0082537D02*
X0179973Y0082537D01*
X0177051Y0082537D02*
X0172731Y0082537D01*
X0172666Y0082471D02*
X0173903Y0083709D01*
X0174573Y0085326D01*
X0174573Y0093077D01*
X0173903Y0094694D01*
X0172666Y0095932D01*
X0171048Y0096602D01*
X0169298Y0096602D01*
X0167681Y0095932D01*
X0166443Y0094694D01*
X0165773Y0093077D01*
X0165773Y0085326D01*
X0166443Y0083709D01*
X0167681Y0082471D01*
X0169298Y0081802D01*
X0171048Y0081802D01*
X0172666Y0082471D01*
X0174080Y0084135D02*
X0175839Y0084135D01*
X0175387Y0085734D02*
X0174573Y0085734D01*
X0174573Y0087332D02*
X0175373Y0087332D01*
X0175373Y0088931D02*
X0174573Y0088931D01*
X0174573Y0090529D02*
X0175373Y0090529D01*
X0175373Y0092128D02*
X0174573Y0092128D01*
X0174304Y0093726D02*
X0175622Y0093726D01*
X0176509Y0095325D02*
X0173273Y0095325D01*
X0167074Y0095325D02*
X0163273Y0095325D01*
X0162666Y0095932D02*
X0163903Y0094694D01*
X0164573Y0093077D01*
X0164573Y0085326D01*
X0163903Y0083709D01*
X0162666Y0082471D01*
X0161048Y0081802D01*
X0159298Y0081802D01*
X0157681Y0082471D01*
X0156443Y0083709D01*
X0155773Y0085326D01*
X0155773Y0093077D01*
X0156443Y0094694D01*
X0157681Y0095932D01*
X0159298Y0096602D01*
X0161048Y0096602D01*
X0162666Y0095932D01*
X0164304Y0093726D02*
X0166042Y0093726D01*
X0165773Y0092128D02*
X0164573Y0092128D01*
X0164573Y0090529D02*
X0165773Y0090529D01*
X0165773Y0088931D02*
X0164573Y0088931D01*
X0164573Y0087332D02*
X0165773Y0087332D01*
X0165773Y0085734D02*
X0164573Y0085734D01*
X0164080Y0084135D02*
X0166267Y0084135D01*
X0167616Y0082537D02*
X0162731Y0082537D01*
X0157616Y0082537D02*
X0152731Y0082537D01*
X0154080Y0084135D02*
X0156267Y0084135D01*
X0155773Y0085734D02*
X0154573Y0085734D01*
X0154573Y0087332D02*
X0155773Y0087332D01*
X0155773Y0088931D02*
X0154573Y0088931D01*
X0154573Y0090529D02*
X0155773Y0090529D01*
X0155773Y0092128D02*
X0154573Y0092128D01*
X0154304Y0093726D02*
X0156042Y0093726D01*
X0157074Y0095325D02*
X0153273Y0095325D01*
X0154775Y0103317D02*
X0187227Y0103317D01*
X0186038Y0104916D02*
X0154775Y0104916D01*
X0156337Y0106514D02*
X0156687Y0106514D01*
X0151046Y0119391D02*
X0147282Y0119391D01*
X0147282Y0122459D01*
X0146681Y0123060D01*
X0147282Y0123661D01*
X0147282Y0129939D01*
X0146701Y0130520D01*
X0146701Y0146650D01*
X0153927Y0146650D01*
X0153248Y0145971D01*
X0153248Y0142976D01*
X0153238Y0142976D01*
X0149301Y0139039D01*
X0148013Y0137751D01*
X0148013Y0127952D01*
X0147831Y0127515D01*
X0148013Y0127077D01*
X0148013Y0126603D01*
X0148348Y0126268D01*
X0148379Y0126193D01*
X0148379Y0125719D01*
X0148714Y0125385D01*
X0148895Y0124947D01*
X0149333Y0124766D01*
X0150218Y0123880D01*
X0151123Y0122975D01*
X0151071Y0122886D01*
X0150949Y0122428D01*
X0150949Y0121091D01*
X0150949Y0119754D01*
X0151046Y0119391D01*
X0150949Y0120901D02*
X0147282Y0120901D01*
X0147241Y0122499D02*
X0150968Y0122499D01*
X0150949Y0121091D02*
X0155349Y0121091D01*
X0155349Y0121091D01*
X0159749Y0121091D01*
X0159749Y0120620D01*
X0160024Y0121170D01*
X0160024Y0121526D01*
X0160380Y0121882D01*
X0160605Y0122333D01*
X0160943Y0122446D01*
X0161195Y0122698D01*
X0161549Y0122698D01*
X0161549Y0122771D01*
X0161719Y0122941D01*
X0161549Y0123111D01*
X0161549Y0126471D01*
X0162328Y0127250D01*
X0160893Y0127250D01*
X0160568Y0127575D01*
X0160551Y0127545D01*
X0160215Y0127210D01*
X0159805Y0126973D01*
X0159347Y0126850D01*
X0158970Y0126850D01*
X0159349Y0126471D01*
X0159349Y0123337D01*
X0159389Y0123297D01*
X0159626Y0122886D01*
X0159749Y0122428D01*
X0159749Y0121091D01*
X0155349Y0121091D01*
X0150949Y0121091D01*
X0150000Y0124098D02*
X0147282Y0124098D01*
X0147282Y0125696D02*
X0148402Y0125696D01*
X0147922Y0127295D02*
X0147282Y0127295D01*
X0147282Y0128894D02*
X0148013Y0128894D01*
X0148013Y0130492D02*
X0146729Y0130492D01*
X0146701Y0132091D02*
X0148013Y0132091D01*
X0148013Y0133689D02*
X0146701Y0133689D01*
X0146701Y0135288D02*
X0148013Y0135288D01*
X0148013Y0136886D02*
X0146701Y0136886D01*
X0146701Y0138485D02*
X0148747Y0138485D01*
X0150213Y0136839D02*
X0150213Y0127515D01*
X0150579Y0126631D01*
X0152418Y0124791D01*
X0155349Y0124791D01*
X0156072Y0127767D02*
X0156072Y0131124D01*
X0157031Y0131124D01*
X0157031Y0127440D01*
X0156242Y0127767D01*
X0156072Y0127767D01*
X0156072Y0128894D02*
X0157031Y0128894D01*
X0157031Y0130492D02*
X0156072Y0130492D01*
X0160300Y0127295D02*
X0160848Y0127295D01*
X0161549Y0125696D02*
X0159349Y0125696D01*
X0159349Y0124098D02*
X0161549Y0124098D01*
X0160997Y0122499D02*
X0159730Y0122499D01*
X0159749Y0120901D02*
X0159889Y0120901D01*
X0155349Y0121091D02*
X0155349Y0121091D01*
X0168149Y0127295D02*
X0170309Y0127295D01*
X0170309Y0128894D02*
X0168149Y0128894D01*
X0168149Y0130492D02*
X0170309Y0130492D01*
X0170167Y0132091D02*
X0167991Y0132091D01*
X0167991Y0133689D02*
X0169909Y0133689D01*
X0167839Y0135288D02*
X0174182Y0135288D01*
X0175141Y0135288D02*
X0180748Y0135288D01*
X0180460Y0136886D02*
X0179414Y0136886D01*
X0179385Y0138485D02*
X0180820Y0138485D01*
X0181148Y0140083D02*
X0166031Y0140083D01*
X0166031Y0138485D02*
X0169938Y0138485D01*
X0169909Y0136886D02*
X0166031Y0136886D01*
X0165948Y0141682D02*
X0174235Y0141682D01*
X0174182Y0138485D02*
X0175141Y0138485D01*
X0175141Y0136886D02*
X0174182Y0136886D01*
X0179414Y0133689D02*
X0181873Y0133689D01*
X0179156Y0132091D02*
X0195050Y0132091D01*
X0195050Y0133689D02*
X0192647Y0133689D01*
X0193771Y0135288D02*
X0195050Y0135288D01*
X0195050Y0136886D02*
X0194060Y0136886D01*
X0193700Y0138485D02*
X0195050Y0138485D01*
X0195050Y0140083D02*
X0192475Y0140083D01*
X0192176Y0143280D02*
X0195050Y0143280D01*
X0195050Y0141682D02*
X0185207Y0141682D01*
X0180918Y0144879D02*
X0176695Y0144879D01*
X0175096Y0146477D02*
X0180460Y0146477D01*
X0180650Y0148076D02*
X0164448Y0148076D01*
X0164222Y0149674D02*
X0181636Y0149674D01*
X0184957Y0152871D02*
X0186556Y0152871D01*
X0186706Y0152722D02*
X0187116Y0152485D01*
X0187574Y0152362D01*
X0189792Y0152362D01*
X0189792Y0156143D01*
X0190554Y0156143D01*
X0190554Y0152362D01*
X0192772Y0152362D01*
X0193230Y0152485D01*
X0193641Y0152722D01*
X0193976Y0153057D01*
X0194213Y0153467D01*
X0194335Y0153925D01*
X0194335Y0156143D01*
X0190554Y0156143D01*
X0190554Y0156906D01*
X0189792Y0156906D01*
X0189792Y0160687D01*
X0187574Y0160687D01*
X0187116Y0160564D01*
X0186706Y0160327D01*
X0186371Y0159992D01*
X0186134Y0159581D01*
X0186011Y0159124D01*
X0186011Y0156906D01*
X0189792Y0156906D01*
X0189792Y0156143D01*
X0186011Y0156143D01*
X0186011Y0153925D01*
X0186134Y0153467D01*
X0186371Y0153057D01*
X0186706Y0152722D01*
X0186011Y0154470D02*
X0185668Y0154470D01*
X0185668Y0156068D02*
X0186011Y0156068D01*
X0186011Y0157667D02*
X0185668Y0157667D01*
X0185668Y0159265D02*
X0186049Y0159265D01*
X0189792Y0159265D02*
X0190554Y0159265D01*
X0190554Y0160687D02*
X0190554Y0156906D01*
X0194335Y0156906D01*
X0194335Y0159124D01*
X0194213Y0159581D01*
X0193976Y0159992D01*
X0193641Y0160327D01*
X0193230Y0160564D01*
X0192772Y0160687D01*
X0190554Y0160687D01*
X0190554Y0157667D02*
X0189792Y0157667D01*
X0189792Y0156068D02*
X0190554Y0156068D01*
X0190554Y0154470D02*
X0189792Y0154470D01*
X0189792Y0152871D02*
X0190554Y0152871D01*
X0193790Y0152871D02*
X0195050Y0152871D01*
X0195050Y0151273D02*
X0161133Y0151273D01*
X0161858Y0152871D02*
X0163697Y0152871D01*
X0163576Y0154470D02*
X0161858Y0154470D01*
X0161858Y0156068D02*
X0163576Y0156068D01*
X0161786Y0157667D02*
X0135480Y0157667D01*
X0135480Y0156068D02*
X0136304Y0156068D01*
X0142557Y0151273D02*
X0156615Y0151273D01*
X0153754Y0146477D02*
X0146701Y0146477D01*
X0146701Y0144879D02*
X0153248Y0144879D01*
X0153248Y0143280D02*
X0146701Y0143280D01*
X0146701Y0141682D02*
X0151944Y0141682D01*
X0150345Y0140083D02*
X0146701Y0140083D01*
X0150213Y0136839D02*
X0154150Y0140776D01*
X0156433Y0140776D01*
X0156748Y0141091D01*
X0169549Y0125696D02*
X0170309Y0125696D01*
X0169549Y0124098D02*
X0172061Y0124098D01*
X0172061Y0122499D02*
X0169549Y0122499D01*
X0169549Y0120901D02*
X0172061Y0120901D01*
X0177261Y0120901D02*
X0183550Y0120901D01*
X0183550Y0120165D02*
X0183673Y0119708D01*
X0183910Y0119297D01*
X0184245Y0118962D01*
X0184656Y0118725D01*
X0185113Y0118602D01*
X0187922Y0118602D01*
X0187922Y0122974D01*
X0183550Y0122974D01*
X0183550Y0120165D01*
X0183907Y0119302D02*
X0180983Y0119302D01*
X0180983Y0117704D02*
X0195050Y0117704D01*
X0195050Y0119302D02*
X0192109Y0119302D01*
X0192106Y0119297D02*
X0192343Y0119708D01*
X0192465Y0120165D01*
X0192465Y0122974D01*
X0188094Y0122974D01*
X0188094Y0123146D01*
X0187922Y0123146D01*
X0187922Y0127517D01*
X0185113Y0127517D01*
X0184656Y0127395D01*
X0184245Y0127158D01*
X0183910Y0126823D01*
X0183673Y0126412D01*
X0183550Y0125954D01*
X0183550Y0123146D01*
X0187922Y0123146D01*
X0187922Y0122974D01*
X0188094Y0122974D01*
X0188094Y0118602D01*
X0190902Y0118602D01*
X0191360Y0118725D01*
X0191771Y0118962D01*
X0192106Y0119297D01*
X0192465Y0120901D02*
X0195050Y0120901D01*
X0195050Y0122499D02*
X0192465Y0122499D01*
X0192465Y0123146D02*
X0192465Y0125954D01*
X0192343Y0126412D01*
X0192106Y0126823D01*
X0191771Y0127158D01*
X0191360Y0127395D01*
X0190902Y0127517D01*
X0188094Y0127517D01*
X0188094Y0123146D01*
X0192465Y0123146D01*
X0192465Y0124098D02*
X0195050Y0124098D01*
X0195050Y0125696D02*
X0192465Y0125696D01*
X0191533Y0127295D02*
X0195050Y0127295D01*
X0195050Y0128894D02*
X0179014Y0128894D01*
X0179014Y0130492D02*
X0195050Y0130492D01*
X0188094Y0127295D02*
X0187922Y0127295D01*
X0187922Y0125696D02*
X0188094Y0125696D01*
X0188094Y0124098D02*
X0187922Y0124098D01*
X0187922Y0122499D02*
X0188094Y0122499D01*
X0188094Y0120901D02*
X0187922Y0120901D01*
X0187922Y0119302D02*
X0188094Y0119302D01*
X0183550Y0122499D02*
X0177261Y0122499D01*
X0177261Y0124098D02*
X0183550Y0124098D01*
X0183550Y0125696D02*
X0179014Y0125696D01*
X0179014Y0127295D02*
X0184483Y0127295D01*
X0180983Y0116105D02*
X0195050Y0116105D01*
X0195050Y0114507D02*
X0180983Y0114507D01*
X0180545Y0112908D02*
X0195050Y0112908D01*
X0195050Y0111310D02*
X0192228Y0111310D01*
X0194320Y0109711D02*
X0195050Y0109711D01*
X0195037Y0108113D02*
X0195050Y0108113D01*
X0188512Y0111310D02*
X0180983Y0111310D01*
X0180983Y0109711D02*
X0186420Y0109711D01*
X0185704Y0108113D02*
X0180983Y0108113D01*
X0180983Y0106514D02*
X0185602Y0106514D01*
X0172277Y0106514D02*
X0172085Y0106514D01*
X0193066Y0088931D02*
X0195050Y0088931D01*
X0195050Y0090529D02*
X0194844Y0090529D01*
X0195050Y0144879D02*
X0193602Y0144879D01*
X0194060Y0146477D02*
X0195050Y0146477D01*
X0195050Y0148076D02*
X0193869Y0148076D01*
X0192884Y0149674D02*
X0195050Y0149674D01*
X0195050Y0154470D02*
X0194335Y0154470D01*
X0194335Y0156068D02*
X0195050Y0156068D01*
X0195050Y0157667D02*
X0194335Y0157667D01*
X0194297Y0159265D02*
X0195050Y0159265D01*
X0195050Y0160864D02*
X0178168Y0160864D01*
X0171863Y0160864D02*
X0170688Y0160864D01*
X0164383Y0160864D02*
X0164229Y0160864D01*
X0161588Y0162462D02*
X0195050Y0162462D01*
X0195050Y0164061D02*
X0150306Y0164061D01*
X0151863Y0165659D02*
X0195050Y0165659D01*
X0195050Y0167258D02*
X0152338Y0167258D01*
X0152293Y0168856D02*
X0195050Y0168856D01*
X0195050Y0170455D02*
X0191517Y0170455D01*
X0191245Y0170183D02*
X0192065Y0171004D01*
X0192065Y0177478D01*
X0191245Y0178298D01*
X0184770Y0178298D01*
X0183950Y0177478D01*
X0183950Y0171004D01*
X0184770Y0170183D01*
X0191245Y0170183D01*
X0192065Y0172053D02*
X0195050Y0172053D01*
X0195050Y0173652D02*
X0192065Y0173652D01*
X0192065Y0175250D02*
X0195050Y0175250D01*
X0195050Y0176849D02*
X0192065Y0176849D01*
X0195050Y0178447D02*
X0152196Y0178447D01*
X0152200Y0176849D02*
X0183950Y0176849D01*
X0183950Y0175250D02*
X0152204Y0175250D01*
X0152208Y0173652D02*
X0183950Y0173652D01*
X0183950Y0172053D02*
X0152212Y0172053D01*
X0152251Y0170455D02*
X0184499Y0170455D01*
X0181608Y0180046D02*
X0195050Y0180046D01*
X0195050Y0181644D02*
X0183940Y0181644D01*
X0184771Y0183243D02*
X0195050Y0183243D01*
X0195050Y0184841D02*
X0184973Y0184841D01*
X0184973Y0186440D02*
X0195050Y0186440D01*
X0195050Y0188038D02*
X0193982Y0188038D01*
X0187545Y0188038D02*
X0184973Y0188038D01*
X0184973Y0189637D02*
X0186401Y0189637D01*
X0185995Y0191235D02*
X0184937Y0191235D01*
X0184436Y0192834D02*
X0186129Y0192834D01*
X0186889Y0194432D02*
X0183101Y0194432D01*
X0177245Y0194432D02*
X0172483Y0194432D01*
X0172666Y0194357D02*
X0171048Y0195027D01*
X0169298Y0195027D01*
X0167681Y0194357D01*
X0166443Y0193119D01*
X0165773Y0191502D01*
X0165773Y0183752D01*
X0166443Y0182134D01*
X0167681Y0180897D01*
X0169298Y0180227D01*
X0171048Y0180227D01*
X0172666Y0180897D01*
X0173903Y0182134D01*
X0174573Y0183752D01*
X0174573Y0191502D01*
X0173903Y0193119D01*
X0172666Y0194357D01*
X0174022Y0192834D02*
X0175911Y0192834D01*
X0175410Y0191235D02*
X0174573Y0191235D01*
X0174573Y0189637D02*
X0175373Y0189637D01*
X0175373Y0188038D02*
X0174573Y0188038D01*
X0174573Y0186440D02*
X0175373Y0186440D01*
X0175373Y0184841D02*
X0174573Y0184841D01*
X0174363Y0183243D02*
X0175576Y0183243D01*
X0176407Y0181644D02*
X0173413Y0181644D01*
X0178739Y0180046D02*
X0152192Y0180046D01*
X0153413Y0181644D02*
X0156933Y0181644D01*
X0156443Y0182134D02*
X0157681Y0180897D01*
X0159298Y0180227D01*
X0161048Y0180227D01*
X0162666Y0180897D01*
X0163903Y0182134D01*
X0164573Y0183752D01*
X0164573Y0191502D01*
X0163903Y0193119D01*
X0162666Y0194357D01*
X0161048Y0195027D01*
X0159298Y0195027D01*
X0157681Y0194357D01*
X0156443Y0193119D01*
X0155773Y0191502D01*
X0155773Y0183752D01*
X0156443Y0182134D01*
X0155984Y0183243D02*
X0154363Y0183243D01*
X0154573Y0184841D02*
X0155773Y0184841D01*
X0155773Y0186440D02*
X0154573Y0186440D01*
X0154573Y0188038D02*
X0155773Y0188038D01*
X0155773Y0189637D02*
X0154573Y0189637D01*
X0154573Y0191235D02*
X0155773Y0191235D01*
X0156325Y0192834D02*
X0154022Y0192834D01*
X0152483Y0194432D02*
X0157863Y0194432D01*
X0162483Y0194432D02*
X0167863Y0194432D01*
X0166325Y0192834D02*
X0164022Y0192834D01*
X0164573Y0191235D02*
X0165773Y0191235D01*
X0165773Y0189637D02*
X0164573Y0189637D01*
X0164573Y0188038D02*
X0165773Y0188038D01*
X0165773Y0186440D02*
X0164573Y0186440D01*
X0164573Y0184841D02*
X0165773Y0184841D01*
X0165984Y0183243D02*
X0164363Y0183243D01*
X0163413Y0181644D02*
X0166933Y0181644D01*
X0179973Y0181644D02*
X0180373Y0181644D01*
X0180373Y0180046D02*
X0179973Y0180046D01*
X0179973Y0183243D02*
X0180373Y0183243D01*
X0180373Y0184841D02*
X0179973Y0184841D01*
X0179973Y0186440D02*
X0180373Y0186440D01*
X0148192Y0180046D02*
X0136258Y0180046D01*
X0136258Y0178447D02*
X0148196Y0178447D01*
X0148200Y0176849D02*
X0136258Y0176849D01*
X0136258Y0175250D02*
X0148204Y0175250D01*
X0148208Y0173652D02*
X0136052Y0173652D01*
X0135480Y0172053D02*
X0148207Y0172053D01*
X0148249Y0170455D02*
X0135480Y0170455D01*
X0135480Y0168856D02*
X0148291Y0168856D01*
X0147836Y0167258D02*
X0129877Y0167258D01*
X0129512Y0168856D02*
X0128657Y0168856D01*
X0129512Y0170455D02*
X0127437Y0170455D01*
X0126217Y0172053D02*
X0129512Y0172053D01*
X0129061Y0181644D02*
X0128057Y0181644D01*
X0128290Y0183243D02*
X0126702Y0183243D01*
X0126896Y0184841D02*
X0128096Y0184841D01*
X0128096Y0186440D02*
X0126896Y0186440D01*
X0126896Y0188038D02*
X0128096Y0188038D01*
X0128096Y0189637D02*
X0126896Y0189637D01*
X0126896Y0191235D02*
X0128096Y0191235D01*
X0128664Y0192834D02*
X0126328Y0192834D01*
X0124711Y0194432D02*
X0130281Y0194432D01*
X0134711Y0194432D02*
X0147863Y0194432D01*
X0146325Y0192834D02*
X0136328Y0192834D01*
X0136896Y0191235D02*
X0145773Y0191235D01*
X0145773Y0189637D02*
X0136896Y0189637D01*
X0136896Y0188038D02*
X0145773Y0188038D01*
X0145773Y0186440D02*
X0136896Y0186440D01*
X0136896Y0184841D02*
X0145773Y0184841D01*
X0145984Y0183243D02*
X0136702Y0183243D01*
X0135776Y0181644D02*
X0146933Y0181644D01*
X0119109Y0178447D02*
X0118084Y0178447D01*
X0112696Y0181644D02*
X0112296Y0181644D01*
X0112296Y0183243D02*
X0112696Y0183243D01*
X0112696Y0184841D02*
X0112296Y0184841D01*
X0112296Y0186440D02*
X0112696Y0186440D01*
X0113620Y0125696D02*
X0123016Y0125696D01*
X0123016Y0124098D02*
X0113620Y0124098D01*
X0020965Y0132091D02*
X0003800Y0132091D01*
D29*
X0012811Y0131721D03*
X0012811Y0114792D03*
X0040764Y0105146D03*
X0053756Y0114792D03*
X0081118Y0134083D03*
X0087024Y0125225D03*
X0101787Y0133296D03*
X0109268Y0133690D03*
X0111236Y0139989D03*
X0108480Y0145107D03*
X0094701Y0158887D03*
X0108283Y0164989D03*
X0108874Y0169517D03*
X0115567Y0175816D03*
X0122260Y0166761D03*
X0132496Y0170304D03*
X0132496Y0157509D03*
X0158874Y0154162D03*
X0129346Y0128965D03*
X0117142Y0126209D03*
X0139189Y0109280D03*
X0149819Y0121485D03*
X0115567Y0077391D03*
X0108874Y0071091D03*
X0108283Y0066564D03*
X0122260Y0068335D03*
X0132496Y0071879D03*
X0132496Y0059083D03*
X0111236Y0041564D03*
X0108480Y0046682D03*
X0109268Y0035265D03*
X0101787Y0034871D03*
X0117142Y0027784D03*
X0129346Y0030540D03*
X0149819Y0023060D03*
X0139189Y0010855D03*
X0158874Y0055737D03*
X0094701Y0060461D03*
X0092929Y0076013D03*
X0084465Y0083296D03*
X0073835Y0071879D03*
X0071866Y0062824D03*
X0059268Y0063217D03*
X0087220Y0045894D03*
X0081118Y0035658D03*
X0087024Y0026800D03*
X0053756Y0016367D03*
X0040764Y0006721D03*
X0012811Y0016367D03*
X0012811Y0033296D03*
X0087220Y0144320D03*
X0071866Y0161249D03*
X0073835Y0170304D03*
X0084465Y0181721D03*
X0092929Y0174438D03*
X0059268Y0161643D03*
M02*
