%
M48
M72
T01C0.0197
T02C0.0354
T03C0.0360
T04C0.0394
T05C0.0400
T06C0.0433
%
T01
X1281Y1637
X1265Y2861
X1281Y3330
X1765Y2861
X2265Y2861
X2765Y2861
X3265Y2861
X3765Y2861
X4265Y2861
X5376Y1637
X4076Y672
X765Y2861
X5927Y6322
X7187Y6282
X7383Y7188
X8446Y8330
X9293Y7601
X9470Y6046
X10828Y6656
X10887Y7109
X11557Y7739
X12226Y6834
X13250Y7188
X13250Y5908
X11124Y4156
X10848Y4668
X10927Y3526
X10179Y3487
X11714Y2778
X12935Y3054
X14982Y2306
X13919Y1086
X15887Y5574
X13919Y10928
X14982Y12149
X12935Y12897
X11714Y12621
X10927Y13369
X11124Y13999
X10848Y14511
X10179Y13330
X8702Y12523
X8112Y13408
X8722Y14432
X9470Y15889
X10828Y16499
X10887Y16952
X11557Y17582
X12226Y16676
X13250Y17030
X13250Y15751
X15887Y15416
X9293Y17444
X8446Y18172
X7383Y17030
X7187Y16125
X5927Y16164
X4265Y12704
X3765Y12704
X3265Y12704
X2765Y12704
X2265Y12704
X1765Y12704
X1265Y12704
X1281Y13172
X765Y12704
X1281Y11479
X4076Y10515
X5376Y11479
X8722Y4589
X8112Y3566
X8702Y2680
T02
X1084Y7582
X1084Y17424
X18801Y17424
X18801Y12306
X18801Y7582
X18801Y2463
T03
X18726Y3837
X18726Y4837
X18726Y13680
X18726Y14680
T04
X19037Y10692
X19076Y9314
X19037Y849
X5415Y7385
X5415Y17227
X19076Y19156
T05
X18017Y18763
X17017Y18763
X16017Y18763
X15017Y18763
X13250Y18759
X12250Y18759
X11250Y18759
X10250Y18759
X9250Y18759
X11714Y10731
X13092Y10731
X13250Y8916
X12250Y8916
X11250Y8916
X10250Y8916
X9250Y8916
X15017Y8920
X16017Y8920
X17017Y8920
X18017Y8920
X13092Y889
X11714Y889
T06
X10159Y1011
X8159Y1011
X8159Y10853
X10159Y10853
M30
