G75*
%MOIN*%
%OFA0B0*%
%FSLAX25Y25*%
%IPPOS*%
%LPD*%
%AMOC8*
5,1,8,0,0,1.08239X$1,22.5*
%
%ADD10C,0.00000*%
%ADD11C,0.00300*%
%ADD12C,0.00591*%
%ADD13R,0.11811X0.11811*%
%ADD14C,0.00600*%
%ADD15C,0.00500*%
%ADD16R,0.00787X0.00787*%
D10*
X0001000Y0001013D02*
X0197850Y0001013D01*
X0197850Y0099438D01*
X0001000Y0099438D01*
X0001000Y0197863D01*
X0197850Y0197863D01*
X0197850Y0099438D01*
X0188795Y0093139D02*
X0188797Y0093227D01*
X0188803Y0093315D01*
X0188813Y0093403D01*
X0188827Y0093491D01*
X0188844Y0093577D01*
X0188866Y0093663D01*
X0188891Y0093747D01*
X0188921Y0093831D01*
X0188953Y0093913D01*
X0188990Y0093993D01*
X0189030Y0094072D01*
X0189074Y0094149D01*
X0189121Y0094224D01*
X0189171Y0094296D01*
X0189225Y0094367D01*
X0189281Y0094434D01*
X0189341Y0094500D01*
X0189403Y0094562D01*
X0189469Y0094622D01*
X0189536Y0094678D01*
X0189607Y0094732D01*
X0189679Y0094782D01*
X0189754Y0094829D01*
X0189831Y0094873D01*
X0189910Y0094913D01*
X0189990Y0094950D01*
X0190072Y0094982D01*
X0190156Y0095012D01*
X0190240Y0095037D01*
X0190326Y0095059D01*
X0190412Y0095076D01*
X0190500Y0095090D01*
X0190588Y0095100D01*
X0190676Y0095106D01*
X0190764Y0095108D01*
X0190852Y0095106D01*
X0190940Y0095100D01*
X0191028Y0095090D01*
X0191116Y0095076D01*
X0191202Y0095059D01*
X0191288Y0095037D01*
X0191372Y0095012D01*
X0191456Y0094982D01*
X0191538Y0094950D01*
X0191618Y0094913D01*
X0191697Y0094873D01*
X0191774Y0094829D01*
X0191849Y0094782D01*
X0191921Y0094732D01*
X0191992Y0094678D01*
X0192059Y0094622D01*
X0192125Y0094562D01*
X0192187Y0094500D01*
X0192247Y0094434D01*
X0192303Y0094367D01*
X0192357Y0094296D01*
X0192407Y0094224D01*
X0192454Y0094149D01*
X0192498Y0094072D01*
X0192538Y0093993D01*
X0192575Y0093913D01*
X0192607Y0093831D01*
X0192637Y0093747D01*
X0192662Y0093663D01*
X0192684Y0093577D01*
X0192701Y0093491D01*
X0192715Y0093403D01*
X0192725Y0093315D01*
X0192731Y0093227D01*
X0192733Y0093139D01*
X0192731Y0093051D01*
X0192725Y0092963D01*
X0192715Y0092875D01*
X0192701Y0092787D01*
X0192684Y0092701D01*
X0192662Y0092615D01*
X0192637Y0092531D01*
X0192607Y0092447D01*
X0192575Y0092365D01*
X0192538Y0092285D01*
X0192498Y0092206D01*
X0192454Y0092129D01*
X0192407Y0092054D01*
X0192357Y0091982D01*
X0192303Y0091911D01*
X0192247Y0091844D01*
X0192187Y0091778D01*
X0192125Y0091716D01*
X0192059Y0091656D01*
X0191992Y0091600D01*
X0191921Y0091546D01*
X0191849Y0091496D01*
X0191774Y0091449D01*
X0191697Y0091405D01*
X0191618Y0091365D01*
X0191538Y0091328D01*
X0191456Y0091296D01*
X0191372Y0091266D01*
X0191288Y0091241D01*
X0191202Y0091219D01*
X0191116Y0091202D01*
X0191028Y0091188D01*
X0190940Y0091178D01*
X0190852Y0091172D01*
X0190764Y0091170D01*
X0190676Y0091172D01*
X0190588Y0091178D01*
X0190500Y0091188D01*
X0190412Y0091202D01*
X0190326Y0091219D01*
X0190240Y0091241D01*
X0190156Y0091266D01*
X0190072Y0091296D01*
X0189990Y0091328D01*
X0189910Y0091365D01*
X0189831Y0091405D01*
X0189754Y0091449D01*
X0189679Y0091496D01*
X0189607Y0091546D01*
X0189536Y0091600D01*
X0189469Y0091656D01*
X0189403Y0091716D01*
X0189341Y0091778D01*
X0189281Y0091844D01*
X0189225Y0091911D01*
X0189171Y0091982D01*
X0189121Y0092054D01*
X0189074Y0092129D01*
X0189030Y0092206D01*
X0188990Y0092285D01*
X0188953Y0092365D01*
X0188921Y0092447D01*
X0188891Y0092531D01*
X0188866Y0092615D01*
X0188844Y0092701D01*
X0188827Y0092787D01*
X0188813Y0092875D01*
X0188803Y0092963D01*
X0188797Y0093051D01*
X0188795Y0093139D01*
X0188401Y0106918D02*
X0188403Y0107006D01*
X0188409Y0107094D01*
X0188419Y0107182D01*
X0188433Y0107270D01*
X0188450Y0107356D01*
X0188472Y0107442D01*
X0188497Y0107526D01*
X0188527Y0107610D01*
X0188559Y0107692D01*
X0188596Y0107772D01*
X0188636Y0107851D01*
X0188680Y0107928D01*
X0188727Y0108003D01*
X0188777Y0108075D01*
X0188831Y0108146D01*
X0188887Y0108213D01*
X0188947Y0108279D01*
X0189009Y0108341D01*
X0189075Y0108401D01*
X0189142Y0108457D01*
X0189213Y0108511D01*
X0189285Y0108561D01*
X0189360Y0108608D01*
X0189437Y0108652D01*
X0189516Y0108692D01*
X0189596Y0108729D01*
X0189678Y0108761D01*
X0189762Y0108791D01*
X0189846Y0108816D01*
X0189932Y0108838D01*
X0190018Y0108855D01*
X0190106Y0108869D01*
X0190194Y0108879D01*
X0190282Y0108885D01*
X0190370Y0108887D01*
X0190458Y0108885D01*
X0190546Y0108879D01*
X0190634Y0108869D01*
X0190722Y0108855D01*
X0190808Y0108838D01*
X0190894Y0108816D01*
X0190978Y0108791D01*
X0191062Y0108761D01*
X0191144Y0108729D01*
X0191224Y0108692D01*
X0191303Y0108652D01*
X0191380Y0108608D01*
X0191455Y0108561D01*
X0191527Y0108511D01*
X0191598Y0108457D01*
X0191665Y0108401D01*
X0191731Y0108341D01*
X0191793Y0108279D01*
X0191853Y0108213D01*
X0191909Y0108146D01*
X0191963Y0108075D01*
X0192013Y0108003D01*
X0192060Y0107928D01*
X0192104Y0107851D01*
X0192144Y0107772D01*
X0192181Y0107692D01*
X0192213Y0107610D01*
X0192243Y0107526D01*
X0192268Y0107442D01*
X0192290Y0107356D01*
X0192307Y0107270D01*
X0192321Y0107182D01*
X0192331Y0107094D01*
X0192337Y0107006D01*
X0192339Y0106918D01*
X0192337Y0106830D01*
X0192331Y0106742D01*
X0192321Y0106654D01*
X0192307Y0106566D01*
X0192290Y0106480D01*
X0192268Y0106394D01*
X0192243Y0106310D01*
X0192213Y0106226D01*
X0192181Y0106144D01*
X0192144Y0106064D01*
X0192104Y0105985D01*
X0192060Y0105908D01*
X0192013Y0105833D01*
X0191963Y0105761D01*
X0191909Y0105690D01*
X0191853Y0105623D01*
X0191793Y0105557D01*
X0191731Y0105495D01*
X0191665Y0105435D01*
X0191598Y0105379D01*
X0191527Y0105325D01*
X0191455Y0105275D01*
X0191380Y0105228D01*
X0191303Y0105184D01*
X0191224Y0105144D01*
X0191144Y0105107D01*
X0191062Y0105075D01*
X0190978Y0105045D01*
X0190894Y0105020D01*
X0190808Y0104998D01*
X0190722Y0104981D01*
X0190634Y0104967D01*
X0190546Y0104957D01*
X0190458Y0104951D01*
X0190370Y0104949D01*
X0190282Y0104951D01*
X0190194Y0104957D01*
X0190106Y0104967D01*
X0190018Y0104981D01*
X0189932Y0104998D01*
X0189846Y0105020D01*
X0189762Y0105045D01*
X0189678Y0105075D01*
X0189596Y0105107D01*
X0189516Y0105144D01*
X0189437Y0105184D01*
X0189360Y0105228D01*
X0189285Y0105275D01*
X0189213Y0105325D01*
X0189142Y0105379D01*
X0189075Y0105435D01*
X0189009Y0105495D01*
X0188947Y0105557D01*
X0188887Y0105623D01*
X0188831Y0105690D01*
X0188777Y0105761D01*
X0188727Y0105833D01*
X0188680Y0105908D01*
X0188636Y0105985D01*
X0188596Y0106064D01*
X0188559Y0106144D01*
X0188527Y0106226D01*
X0188497Y0106310D01*
X0188472Y0106394D01*
X0188450Y0106480D01*
X0188433Y0106566D01*
X0188419Y0106654D01*
X0188409Y0106742D01*
X0188403Y0106830D01*
X0188401Y0106918D01*
X0161649Y0127191D02*
X0161647Y0127122D01*
X0161641Y0127054D01*
X0161631Y0126986D01*
X0161618Y0126919D01*
X0161600Y0126853D01*
X0161579Y0126788D01*
X0161554Y0126724D01*
X0161526Y0126662D01*
X0161494Y0126601D01*
X0161459Y0126542D01*
X0161420Y0126486D01*
X0161378Y0126431D01*
X0161333Y0126380D01*
X0161285Y0126330D01*
X0161235Y0126284D01*
X0161182Y0126241D01*
X0161126Y0126200D01*
X0161069Y0126163D01*
X0161009Y0126130D01*
X0160947Y0126099D01*
X0160884Y0126073D01*
X0160820Y0126050D01*
X0160754Y0126030D01*
X0160687Y0126015D01*
X0160620Y0126003D01*
X0160552Y0125995D01*
X0160483Y0125991D01*
X0160415Y0125991D01*
X0160346Y0125995D01*
X0160278Y0126003D01*
X0160211Y0126015D01*
X0160144Y0126030D01*
X0160078Y0126050D01*
X0160014Y0126073D01*
X0159951Y0126099D01*
X0159889Y0126130D01*
X0159829Y0126163D01*
X0159772Y0126200D01*
X0159716Y0126241D01*
X0159663Y0126284D01*
X0159613Y0126330D01*
X0159565Y0126380D01*
X0159520Y0126431D01*
X0159478Y0126486D01*
X0159439Y0126542D01*
X0159404Y0126601D01*
X0159372Y0126662D01*
X0159344Y0126724D01*
X0159319Y0126788D01*
X0159298Y0126853D01*
X0159280Y0126919D01*
X0159267Y0126986D01*
X0159257Y0127054D01*
X0159251Y0127122D01*
X0159249Y0127191D01*
X0188795Y0191564D02*
X0188797Y0191652D01*
X0188803Y0191740D01*
X0188813Y0191828D01*
X0188827Y0191916D01*
X0188844Y0192002D01*
X0188866Y0192088D01*
X0188891Y0192172D01*
X0188921Y0192256D01*
X0188953Y0192338D01*
X0188990Y0192418D01*
X0189030Y0192497D01*
X0189074Y0192574D01*
X0189121Y0192649D01*
X0189171Y0192721D01*
X0189225Y0192792D01*
X0189281Y0192859D01*
X0189341Y0192925D01*
X0189403Y0192987D01*
X0189469Y0193047D01*
X0189536Y0193103D01*
X0189607Y0193157D01*
X0189679Y0193207D01*
X0189754Y0193254D01*
X0189831Y0193298D01*
X0189910Y0193338D01*
X0189990Y0193375D01*
X0190072Y0193407D01*
X0190156Y0193437D01*
X0190240Y0193462D01*
X0190326Y0193484D01*
X0190412Y0193501D01*
X0190500Y0193515D01*
X0190588Y0193525D01*
X0190676Y0193531D01*
X0190764Y0193533D01*
X0190852Y0193531D01*
X0190940Y0193525D01*
X0191028Y0193515D01*
X0191116Y0193501D01*
X0191202Y0193484D01*
X0191288Y0193462D01*
X0191372Y0193437D01*
X0191456Y0193407D01*
X0191538Y0193375D01*
X0191618Y0193338D01*
X0191697Y0193298D01*
X0191774Y0193254D01*
X0191849Y0193207D01*
X0191921Y0193157D01*
X0191992Y0193103D01*
X0192059Y0193047D01*
X0192125Y0192987D01*
X0192187Y0192925D01*
X0192247Y0192859D01*
X0192303Y0192792D01*
X0192357Y0192721D01*
X0192407Y0192649D01*
X0192454Y0192574D01*
X0192498Y0192497D01*
X0192538Y0192418D01*
X0192575Y0192338D01*
X0192607Y0192256D01*
X0192637Y0192172D01*
X0192662Y0192088D01*
X0192684Y0192002D01*
X0192701Y0191916D01*
X0192715Y0191828D01*
X0192725Y0191740D01*
X0192731Y0191652D01*
X0192733Y0191564D01*
X0192731Y0191476D01*
X0192725Y0191388D01*
X0192715Y0191300D01*
X0192701Y0191212D01*
X0192684Y0191126D01*
X0192662Y0191040D01*
X0192637Y0190956D01*
X0192607Y0190872D01*
X0192575Y0190790D01*
X0192538Y0190710D01*
X0192498Y0190631D01*
X0192454Y0190554D01*
X0192407Y0190479D01*
X0192357Y0190407D01*
X0192303Y0190336D01*
X0192247Y0190269D01*
X0192187Y0190203D01*
X0192125Y0190141D01*
X0192059Y0190081D01*
X0191992Y0190025D01*
X0191921Y0189971D01*
X0191849Y0189921D01*
X0191774Y0189874D01*
X0191697Y0189830D01*
X0191618Y0189790D01*
X0191538Y0189753D01*
X0191456Y0189721D01*
X0191372Y0189691D01*
X0191288Y0189666D01*
X0191202Y0189644D01*
X0191116Y0189627D01*
X0191028Y0189613D01*
X0190940Y0189603D01*
X0190852Y0189597D01*
X0190764Y0189595D01*
X0190676Y0189597D01*
X0190588Y0189603D01*
X0190500Y0189613D01*
X0190412Y0189627D01*
X0190326Y0189644D01*
X0190240Y0189666D01*
X0190156Y0189691D01*
X0190072Y0189721D01*
X0189990Y0189753D01*
X0189910Y0189790D01*
X0189831Y0189830D01*
X0189754Y0189874D01*
X0189679Y0189921D01*
X0189607Y0189971D01*
X0189536Y0190025D01*
X0189469Y0190081D01*
X0189403Y0190141D01*
X0189341Y0190203D01*
X0189281Y0190269D01*
X0189225Y0190336D01*
X0189171Y0190407D01*
X0189121Y0190479D01*
X0189074Y0190554D01*
X0189030Y0190631D01*
X0188990Y0190710D01*
X0188953Y0190790D01*
X0188921Y0190872D01*
X0188891Y0190956D01*
X0188866Y0191040D01*
X0188844Y0191126D01*
X0188827Y0191212D01*
X0188813Y0191300D01*
X0188803Y0191388D01*
X0188797Y0191476D01*
X0188795Y0191564D01*
X0052181Y0172272D02*
X0052183Y0172360D01*
X0052189Y0172448D01*
X0052199Y0172536D01*
X0052213Y0172624D01*
X0052230Y0172710D01*
X0052252Y0172796D01*
X0052277Y0172880D01*
X0052307Y0172964D01*
X0052339Y0173046D01*
X0052376Y0173126D01*
X0052416Y0173205D01*
X0052460Y0173282D01*
X0052507Y0173357D01*
X0052557Y0173429D01*
X0052611Y0173500D01*
X0052667Y0173567D01*
X0052727Y0173633D01*
X0052789Y0173695D01*
X0052855Y0173755D01*
X0052922Y0173811D01*
X0052993Y0173865D01*
X0053065Y0173915D01*
X0053140Y0173962D01*
X0053217Y0174006D01*
X0053296Y0174046D01*
X0053376Y0174083D01*
X0053458Y0174115D01*
X0053542Y0174145D01*
X0053626Y0174170D01*
X0053712Y0174192D01*
X0053798Y0174209D01*
X0053886Y0174223D01*
X0053974Y0174233D01*
X0054062Y0174239D01*
X0054150Y0174241D01*
X0054238Y0174239D01*
X0054326Y0174233D01*
X0054414Y0174223D01*
X0054502Y0174209D01*
X0054588Y0174192D01*
X0054674Y0174170D01*
X0054758Y0174145D01*
X0054842Y0174115D01*
X0054924Y0174083D01*
X0055004Y0174046D01*
X0055083Y0174006D01*
X0055160Y0173962D01*
X0055235Y0173915D01*
X0055307Y0173865D01*
X0055378Y0173811D01*
X0055445Y0173755D01*
X0055511Y0173695D01*
X0055573Y0173633D01*
X0055633Y0173567D01*
X0055689Y0173500D01*
X0055743Y0173429D01*
X0055793Y0173357D01*
X0055840Y0173282D01*
X0055884Y0173205D01*
X0055924Y0173126D01*
X0055961Y0173046D01*
X0055993Y0172964D01*
X0056023Y0172880D01*
X0056048Y0172796D01*
X0056070Y0172710D01*
X0056087Y0172624D01*
X0056101Y0172536D01*
X0056111Y0172448D01*
X0056117Y0172360D01*
X0056119Y0172272D01*
X0056117Y0172184D01*
X0056111Y0172096D01*
X0056101Y0172008D01*
X0056087Y0171920D01*
X0056070Y0171834D01*
X0056048Y0171748D01*
X0056023Y0171664D01*
X0055993Y0171580D01*
X0055961Y0171498D01*
X0055924Y0171418D01*
X0055884Y0171339D01*
X0055840Y0171262D01*
X0055793Y0171187D01*
X0055743Y0171115D01*
X0055689Y0171044D01*
X0055633Y0170977D01*
X0055573Y0170911D01*
X0055511Y0170849D01*
X0055445Y0170789D01*
X0055378Y0170733D01*
X0055307Y0170679D01*
X0055235Y0170629D01*
X0055160Y0170582D01*
X0055083Y0170538D01*
X0055004Y0170498D01*
X0054924Y0170461D01*
X0054842Y0170429D01*
X0054758Y0170399D01*
X0054674Y0170374D01*
X0054588Y0170352D01*
X0054502Y0170335D01*
X0054414Y0170321D01*
X0054326Y0170311D01*
X0054238Y0170305D01*
X0054150Y0170303D01*
X0054062Y0170305D01*
X0053974Y0170311D01*
X0053886Y0170321D01*
X0053798Y0170335D01*
X0053712Y0170352D01*
X0053626Y0170374D01*
X0053542Y0170399D01*
X0053458Y0170429D01*
X0053376Y0170461D01*
X0053296Y0170498D01*
X0053217Y0170538D01*
X0053140Y0170582D01*
X0053065Y0170629D01*
X0052993Y0170679D01*
X0052922Y0170733D01*
X0052855Y0170789D01*
X0052789Y0170849D01*
X0052727Y0170911D01*
X0052667Y0170977D01*
X0052611Y0171044D01*
X0052557Y0171115D01*
X0052507Y0171187D01*
X0052460Y0171262D01*
X0052416Y0171339D01*
X0052376Y0171418D01*
X0052339Y0171498D01*
X0052307Y0171580D01*
X0052277Y0171664D01*
X0052252Y0171748D01*
X0052230Y0171834D01*
X0052213Y0171920D01*
X0052199Y0172008D01*
X0052189Y0172096D01*
X0052183Y0172184D01*
X0052181Y0172272D01*
X0001000Y0099438D02*
X0001000Y0001013D01*
X0052181Y0073847D02*
X0052183Y0073935D01*
X0052189Y0074023D01*
X0052199Y0074111D01*
X0052213Y0074199D01*
X0052230Y0074285D01*
X0052252Y0074371D01*
X0052277Y0074455D01*
X0052307Y0074539D01*
X0052339Y0074621D01*
X0052376Y0074701D01*
X0052416Y0074780D01*
X0052460Y0074857D01*
X0052507Y0074932D01*
X0052557Y0075004D01*
X0052611Y0075075D01*
X0052667Y0075142D01*
X0052727Y0075208D01*
X0052789Y0075270D01*
X0052855Y0075330D01*
X0052922Y0075386D01*
X0052993Y0075440D01*
X0053065Y0075490D01*
X0053140Y0075537D01*
X0053217Y0075581D01*
X0053296Y0075621D01*
X0053376Y0075658D01*
X0053458Y0075690D01*
X0053542Y0075720D01*
X0053626Y0075745D01*
X0053712Y0075767D01*
X0053798Y0075784D01*
X0053886Y0075798D01*
X0053974Y0075808D01*
X0054062Y0075814D01*
X0054150Y0075816D01*
X0054238Y0075814D01*
X0054326Y0075808D01*
X0054414Y0075798D01*
X0054502Y0075784D01*
X0054588Y0075767D01*
X0054674Y0075745D01*
X0054758Y0075720D01*
X0054842Y0075690D01*
X0054924Y0075658D01*
X0055004Y0075621D01*
X0055083Y0075581D01*
X0055160Y0075537D01*
X0055235Y0075490D01*
X0055307Y0075440D01*
X0055378Y0075386D01*
X0055445Y0075330D01*
X0055511Y0075270D01*
X0055573Y0075208D01*
X0055633Y0075142D01*
X0055689Y0075075D01*
X0055743Y0075004D01*
X0055793Y0074932D01*
X0055840Y0074857D01*
X0055884Y0074780D01*
X0055924Y0074701D01*
X0055961Y0074621D01*
X0055993Y0074539D01*
X0056023Y0074455D01*
X0056048Y0074371D01*
X0056070Y0074285D01*
X0056087Y0074199D01*
X0056101Y0074111D01*
X0056111Y0074023D01*
X0056117Y0073935D01*
X0056119Y0073847D01*
X0056117Y0073759D01*
X0056111Y0073671D01*
X0056101Y0073583D01*
X0056087Y0073495D01*
X0056070Y0073409D01*
X0056048Y0073323D01*
X0056023Y0073239D01*
X0055993Y0073155D01*
X0055961Y0073073D01*
X0055924Y0072993D01*
X0055884Y0072914D01*
X0055840Y0072837D01*
X0055793Y0072762D01*
X0055743Y0072690D01*
X0055689Y0072619D01*
X0055633Y0072552D01*
X0055573Y0072486D01*
X0055511Y0072424D01*
X0055445Y0072364D01*
X0055378Y0072308D01*
X0055307Y0072254D01*
X0055235Y0072204D01*
X0055160Y0072157D01*
X0055083Y0072113D01*
X0055004Y0072073D01*
X0054924Y0072036D01*
X0054842Y0072004D01*
X0054758Y0071974D01*
X0054674Y0071949D01*
X0054588Y0071927D01*
X0054502Y0071910D01*
X0054414Y0071896D01*
X0054326Y0071886D01*
X0054238Y0071880D01*
X0054150Y0071878D01*
X0054062Y0071880D01*
X0053974Y0071886D01*
X0053886Y0071896D01*
X0053798Y0071910D01*
X0053712Y0071927D01*
X0053626Y0071949D01*
X0053542Y0071974D01*
X0053458Y0072004D01*
X0053376Y0072036D01*
X0053296Y0072073D01*
X0053217Y0072113D01*
X0053140Y0072157D01*
X0053065Y0072204D01*
X0052993Y0072254D01*
X0052922Y0072308D01*
X0052855Y0072364D01*
X0052789Y0072424D01*
X0052727Y0072486D01*
X0052667Y0072552D01*
X0052611Y0072619D01*
X0052557Y0072690D01*
X0052507Y0072762D01*
X0052460Y0072837D01*
X0052416Y0072914D01*
X0052376Y0072993D01*
X0052339Y0073073D01*
X0052307Y0073155D01*
X0052277Y0073239D01*
X0052252Y0073323D01*
X0052230Y0073409D01*
X0052213Y0073495D01*
X0052199Y0073583D01*
X0052189Y0073671D01*
X0052183Y0073759D01*
X0052181Y0073847D01*
X0159249Y0028766D02*
X0159251Y0028697D01*
X0159257Y0028629D01*
X0159267Y0028561D01*
X0159280Y0028494D01*
X0159298Y0028428D01*
X0159319Y0028363D01*
X0159344Y0028299D01*
X0159372Y0028237D01*
X0159404Y0028176D01*
X0159439Y0028117D01*
X0159478Y0028061D01*
X0159520Y0028006D01*
X0159565Y0027955D01*
X0159613Y0027905D01*
X0159663Y0027859D01*
X0159716Y0027816D01*
X0159772Y0027775D01*
X0159829Y0027738D01*
X0159889Y0027705D01*
X0159951Y0027674D01*
X0160014Y0027648D01*
X0160078Y0027625D01*
X0160144Y0027605D01*
X0160211Y0027590D01*
X0160278Y0027578D01*
X0160346Y0027570D01*
X0160415Y0027566D01*
X0160483Y0027566D01*
X0160552Y0027570D01*
X0160620Y0027578D01*
X0160687Y0027590D01*
X0160754Y0027605D01*
X0160820Y0027625D01*
X0160884Y0027648D01*
X0160947Y0027674D01*
X0161009Y0027705D01*
X0161069Y0027738D01*
X0161126Y0027775D01*
X0161182Y0027816D01*
X0161235Y0027859D01*
X0161285Y0027905D01*
X0161333Y0027955D01*
X0161378Y0028006D01*
X0161420Y0028061D01*
X0161459Y0028117D01*
X0161494Y0028176D01*
X0161526Y0028237D01*
X0161554Y0028299D01*
X0161579Y0028363D01*
X0161600Y0028428D01*
X0161618Y0028494D01*
X0161631Y0028561D01*
X0161641Y0028629D01*
X0161647Y0028697D01*
X0161649Y0028766D01*
X0188401Y0008493D02*
X0188403Y0008581D01*
X0188409Y0008669D01*
X0188419Y0008757D01*
X0188433Y0008845D01*
X0188450Y0008931D01*
X0188472Y0009017D01*
X0188497Y0009101D01*
X0188527Y0009185D01*
X0188559Y0009267D01*
X0188596Y0009347D01*
X0188636Y0009426D01*
X0188680Y0009503D01*
X0188727Y0009578D01*
X0188777Y0009650D01*
X0188831Y0009721D01*
X0188887Y0009788D01*
X0188947Y0009854D01*
X0189009Y0009916D01*
X0189075Y0009976D01*
X0189142Y0010032D01*
X0189213Y0010086D01*
X0189285Y0010136D01*
X0189360Y0010183D01*
X0189437Y0010227D01*
X0189516Y0010267D01*
X0189596Y0010304D01*
X0189678Y0010336D01*
X0189762Y0010366D01*
X0189846Y0010391D01*
X0189932Y0010413D01*
X0190018Y0010430D01*
X0190106Y0010444D01*
X0190194Y0010454D01*
X0190282Y0010460D01*
X0190370Y0010462D01*
X0190458Y0010460D01*
X0190546Y0010454D01*
X0190634Y0010444D01*
X0190722Y0010430D01*
X0190808Y0010413D01*
X0190894Y0010391D01*
X0190978Y0010366D01*
X0191062Y0010336D01*
X0191144Y0010304D01*
X0191224Y0010267D01*
X0191303Y0010227D01*
X0191380Y0010183D01*
X0191455Y0010136D01*
X0191527Y0010086D01*
X0191598Y0010032D01*
X0191665Y0009976D01*
X0191731Y0009916D01*
X0191793Y0009854D01*
X0191853Y0009788D01*
X0191909Y0009721D01*
X0191963Y0009650D01*
X0192013Y0009578D01*
X0192060Y0009503D01*
X0192104Y0009426D01*
X0192144Y0009347D01*
X0192181Y0009267D01*
X0192213Y0009185D01*
X0192243Y0009101D01*
X0192268Y0009017D01*
X0192290Y0008931D01*
X0192307Y0008845D01*
X0192321Y0008757D01*
X0192331Y0008669D01*
X0192337Y0008581D01*
X0192339Y0008493D01*
X0192337Y0008405D01*
X0192331Y0008317D01*
X0192321Y0008229D01*
X0192307Y0008141D01*
X0192290Y0008055D01*
X0192268Y0007969D01*
X0192243Y0007885D01*
X0192213Y0007801D01*
X0192181Y0007719D01*
X0192144Y0007639D01*
X0192104Y0007560D01*
X0192060Y0007483D01*
X0192013Y0007408D01*
X0191963Y0007336D01*
X0191909Y0007265D01*
X0191853Y0007198D01*
X0191793Y0007132D01*
X0191731Y0007070D01*
X0191665Y0007010D01*
X0191598Y0006954D01*
X0191527Y0006900D01*
X0191455Y0006850D01*
X0191380Y0006803D01*
X0191303Y0006759D01*
X0191224Y0006719D01*
X0191144Y0006682D01*
X0191062Y0006650D01*
X0190978Y0006620D01*
X0190894Y0006595D01*
X0190808Y0006573D01*
X0190722Y0006556D01*
X0190634Y0006542D01*
X0190546Y0006532D01*
X0190458Y0006526D01*
X0190370Y0006524D01*
X0190282Y0006526D01*
X0190194Y0006532D01*
X0190106Y0006542D01*
X0190018Y0006556D01*
X0189932Y0006573D01*
X0189846Y0006595D01*
X0189762Y0006620D01*
X0189678Y0006650D01*
X0189596Y0006682D01*
X0189516Y0006719D01*
X0189437Y0006759D01*
X0189360Y0006803D01*
X0189285Y0006850D01*
X0189213Y0006900D01*
X0189142Y0006954D01*
X0189075Y0007010D01*
X0189009Y0007070D01*
X0188947Y0007132D01*
X0188887Y0007198D01*
X0188831Y0007265D01*
X0188777Y0007336D01*
X0188727Y0007408D01*
X0188680Y0007483D01*
X0188636Y0007560D01*
X0188596Y0007639D01*
X0188559Y0007719D01*
X0188527Y0007801D01*
X0188497Y0007885D01*
X0188472Y0007969D01*
X0188450Y0008055D01*
X0188433Y0008141D01*
X0188419Y0008229D01*
X0188409Y0008317D01*
X0188403Y0008405D01*
X0188401Y0008493D01*
D11*
X0184680Y0011077D02*
X0181777Y0011077D01*
X0181777Y0012528D01*
X0182261Y0013012D01*
X0183229Y0013012D01*
X0183712Y0012528D01*
X0183712Y0011077D01*
X0183712Y0012044D02*
X0184680Y0013012D01*
X0184680Y0014023D02*
X0184680Y0015958D01*
X0184680Y0014991D02*
X0181777Y0014991D01*
X0182745Y0014023D01*
X0169864Y0006613D02*
X0169864Y0006129D01*
X0169380Y0005645D01*
X0169864Y0005162D01*
X0169864Y0004678D01*
X0169380Y0004194D01*
X0168413Y0004194D01*
X0167929Y0004678D01*
X0166917Y0004194D02*
X0164982Y0004194D01*
X0165950Y0004194D02*
X0165950Y0007097D01*
X0164982Y0006129D01*
X0163971Y0006613D02*
X0163971Y0005645D01*
X0163487Y0005162D01*
X0162036Y0005162D01*
X0163003Y0005162D02*
X0163971Y0004194D01*
X0162036Y0004194D02*
X0162036Y0007097D01*
X0163487Y0007097D01*
X0163971Y0006613D01*
X0167929Y0006613D02*
X0168413Y0007097D01*
X0169380Y0007097D01*
X0169864Y0006613D01*
X0169380Y0005645D02*
X0168896Y0005645D01*
X0152383Y0005921D02*
X0152383Y0006405D01*
X0151899Y0006889D01*
X0150931Y0006889D01*
X0150448Y0006405D01*
X0149436Y0006405D02*
X0148952Y0006889D01*
X0147985Y0006889D01*
X0147501Y0006405D01*
X0147501Y0004470D01*
X0147985Y0003986D01*
X0148952Y0003986D01*
X0149436Y0004470D01*
X0150448Y0003986D02*
X0152383Y0005921D01*
X0152383Y0003986D02*
X0150448Y0003986D01*
X0136753Y0014588D02*
X0136269Y0014104D01*
X0135301Y0014104D01*
X0134818Y0014588D01*
X0133828Y0014588D02*
X0133828Y0014104D01*
X0133344Y0014104D01*
X0133344Y0014588D01*
X0133828Y0014588D01*
X0132333Y0014588D02*
X0131849Y0014104D01*
X0130882Y0014104D01*
X0130398Y0014588D01*
X0131365Y0015556D02*
X0131849Y0015556D01*
X0132333Y0015072D01*
X0132333Y0014588D01*
X0131849Y0015556D02*
X0132333Y0016039D01*
X0132333Y0016523D01*
X0131849Y0017007D01*
X0130882Y0017007D01*
X0130398Y0016523D01*
X0129386Y0015556D02*
X0127451Y0015556D01*
X0128419Y0016523D02*
X0128419Y0014588D01*
X0134818Y0016523D02*
X0135301Y0017007D01*
X0136269Y0017007D01*
X0136753Y0016523D01*
X0136753Y0016039D01*
X0136269Y0015556D01*
X0136753Y0015072D01*
X0136753Y0014588D01*
X0136269Y0015556D02*
X0135785Y0015556D01*
X0126393Y0024667D02*
X0126393Y0025150D01*
X0128328Y0027085D01*
X0128328Y0027569D01*
X0126393Y0027569D01*
X0124414Y0027569D02*
X0124414Y0024667D01*
X0123447Y0024667D02*
X0125382Y0024667D01*
X0123447Y0026602D02*
X0124414Y0027569D01*
X0122435Y0027085D02*
X0122435Y0026118D01*
X0121952Y0025634D01*
X0120500Y0025634D01*
X0120500Y0024667D02*
X0120500Y0027569D01*
X0121952Y0027569D01*
X0122435Y0027085D01*
X0121468Y0025634D02*
X0122435Y0024667D01*
X0122132Y0033249D02*
X0124067Y0033249D01*
X0124551Y0033733D01*
X0124551Y0034700D01*
X0124067Y0035184D01*
X0124067Y0036196D02*
X0124551Y0036679D01*
X0124551Y0037647D01*
X0124067Y0038131D01*
X0123583Y0038131D01*
X0123100Y0037647D01*
X0123100Y0037163D01*
X0123100Y0037647D02*
X0122616Y0038131D01*
X0122132Y0038131D01*
X0121648Y0037647D01*
X0121648Y0036679D01*
X0122132Y0036196D01*
X0122132Y0035184D02*
X0121648Y0034700D01*
X0121648Y0033733D01*
X0122132Y0033249D01*
X0133313Y0032202D02*
X0134280Y0031234D01*
X0133797Y0030223D02*
X0134764Y0030223D01*
X0135248Y0029739D01*
X0135248Y0028288D01*
X0135248Y0029255D02*
X0136215Y0030223D01*
X0136215Y0031234D02*
X0136215Y0033169D01*
X0136215Y0032202D02*
X0133313Y0032202D01*
X0133797Y0030223D02*
X0133313Y0029739D01*
X0133313Y0028288D01*
X0136215Y0028288D01*
X0139792Y0029391D02*
X0139792Y0032293D01*
X0141243Y0032293D01*
X0141727Y0031810D01*
X0141727Y0030842D01*
X0141243Y0030358D01*
X0139792Y0030358D01*
X0140759Y0030358D02*
X0141727Y0029391D01*
X0142738Y0029391D02*
X0144673Y0029391D01*
X0143706Y0029391D02*
X0143706Y0032293D01*
X0142738Y0031326D01*
X0145685Y0031810D02*
X0145685Y0029875D01*
X0147620Y0031810D01*
X0147620Y0029875D01*
X0147136Y0029391D01*
X0146169Y0029391D01*
X0145685Y0029875D01*
X0145685Y0031810D02*
X0146169Y0032293D01*
X0147136Y0032293D01*
X0147620Y0031810D01*
X0152199Y0032136D02*
X0155335Y0029000D01*
X0155335Y0030568D02*
X0152199Y0030568D01*
X0152199Y0029000D02*
X0155335Y0032136D01*
X0154697Y0033328D02*
X0155181Y0033812D01*
X0155181Y0034779D01*
X0154697Y0035263D01*
X0155181Y0036274D02*
X0155181Y0038209D01*
X0155181Y0037242D02*
X0152278Y0037242D01*
X0153246Y0036274D01*
X0152762Y0035263D02*
X0152278Y0034779D01*
X0152278Y0033812D01*
X0152762Y0033328D01*
X0154697Y0033328D01*
X0153767Y0032136D02*
X0153767Y0029000D01*
X0145063Y0038033D02*
X0142160Y0038033D01*
X0142160Y0039484D01*
X0142644Y0039968D01*
X0143611Y0039968D01*
X0144095Y0039484D01*
X0144095Y0038033D01*
X0144095Y0039000D02*
X0145063Y0039968D01*
X0145063Y0040979D02*
X0145063Y0042914D01*
X0145063Y0041947D02*
X0142160Y0041947D01*
X0143128Y0040979D01*
X0143611Y0043926D02*
X0142160Y0043926D01*
X0142160Y0045861D01*
X0143128Y0045377D02*
X0143611Y0045861D01*
X0144579Y0045861D01*
X0145063Y0045377D01*
X0145063Y0044409D01*
X0144579Y0043926D01*
X0143611Y0043926D02*
X0143128Y0044893D01*
X0143128Y0045377D01*
X0150940Y0044610D02*
X0150940Y0043643D01*
X0150940Y0044127D02*
X0153842Y0044127D01*
X0153842Y0044610D02*
X0153842Y0043643D01*
X0153842Y0045607D02*
X0153842Y0047542D01*
X0153842Y0046575D02*
X0150940Y0046575D01*
X0151907Y0045607D01*
X0146249Y0056152D02*
X0146733Y0056635D01*
X0146733Y0057119D01*
X0146249Y0057603D01*
X0144798Y0057603D01*
X0144798Y0056635D01*
X0145282Y0056152D01*
X0146249Y0056152D01*
X0144798Y0057603D02*
X0145765Y0058570D01*
X0146733Y0059054D01*
X0143786Y0056152D02*
X0141851Y0056152D01*
X0142819Y0056152D02*
X0142819Y0059054D01*
X0141851Y0058087D01*
X0140840Y0058570D02*
X0140840Y0057603D01*
X0140356Y0057119D01*
X0138905Y0057119D01*
X0138905Y0056152D02*
X0138905Y0059054D01*
X0140356Y0059054D01*
X0140840Y0058570D01*
X0139872Y0057119D02*
X0140840Y0056152D01*
X0143079Y0069076D02*
X0145014Y0069076D01*
X0144047Y0069076D02*
X0144047Y0071978D01*
X0143079Y0071011D01*
X0143563Y0073876D02*
X0143079Y0074360D01*
X0143563Y0073876D02*
X0144530Y0073876D01*
X0145014Y0074360D01*
X0145014Y0074843D01*
X0144530Y0075327D01*
X0143563Y0075327D01*
X0143079Y0075811D01*
X0143079Y0076295D01*
X0143563Y0076778D01*
X0144530Y0076778D01*
X0145014Y0076295D01*
X0146026Y0076778D02*
X0146026Y0073876D01*
X0147961Y0073876D01*
X0148972Y0073876D02*
X0148972Y0076778D01*
X0150907Y0073876D01*
X0150907Y0076778D01*
X0151919Y0076295D02*
X0151919Y0075811D01*
X0152402Y0075327D01*
X0153370Y0075327D01*
X0153854Y0074843D01*
X0153854Y0074360D01*
X0153370Y0073876D01*
X0152402Y0073876D01*
X0151919Y0074360D01*
X0151919Y0076295D02*
X0152402Y0076778D01*
X0153370Y0076778D01*
X0153854Y0076295D01*
X0154865Y0076295D02*
X0154865Y0074360D01*
X0155349Y0073876D01*
X0156316Y0073876D01*
X0156800Y0074360D01*
X0156800Y0076295D01*
X0156316Y0076778D01*
X0155349Y0076778D01*
X0154865Y0076295D01*
X0157812Y0076778D02*
X0157812Y0073876D01*
X0157812Y0074843D02*
X0159263Y0074843D01*
X0159747Y0075327D01*
X0159747Y0076295D01*
X0159263Y0076778D01*
X0157812Y0076778D01*
X0158779Y0074843D02*
X0159747Y0073876D01*
X0158779Y0071978D02*
X0158779Y0069076D01*
X0157812Y0069076D02*
X0159747Y0069076D01*
X0160758Y0069560D02*
X0161242Y0069076D01*
X0162209Y0069076D01*
X0162693Y0069560D01*
X0162693Y0070527D01*
X0162209Y0071011D01*
X0161726Y0071011D01*
X0160758Y0070527D01*
X0160758Y0071978D01*
X0162693Y0071978D01*
X0164672Y0073876D02*
X0165640Y0074843D01*
X0165640Y0076778D01*
X0166651Y0076295D02*
X0167135Y0076778D01*
X0168103Y0076778D01*
X0168586Y0076295D01*
X0168586Y0075811D01*
X0168103Y0075327D01*
X0168586Y0074843D01*
X0168586Y0074360D01*
X0168103Y0073876D01*
X0167135Y0073876D01*
X0166651Y0074360D01*
X0167619Y0075327D02*
X0168103Y0075327D01*
X0164672Y0073876D02*
X0163705Y0074843D01*
X0163705Y0076778D01*
X0158779Y0071978D02*
X0157812Y0071011D01*
X0156800Y0071495D02*
X0156800Y0069560D01*
X0156316Y0069076D01*
X0155349Y0069076D01*
X0154865Y0069560D01*
X0156800Y0071495D01*
X0156316Y0071978D01*
X0155349Y0071978D01*
X0154865Y0071495D01*
X0154865Y0069560D01*
X0153854Y0069076D02*
X0151919Y0069076D01*
X0153854Y0071011D01*
X0153854Y0071495D01*
X0153370Y0071978D01*
X0152402Y0071978D01*
X0151919Y0071495D01*
X0150907Y0071978D02*
X0148972Y0069076D01*
X0147961Y0069076D02*
X0146026Y0069076D01*
X0147961Y0071011D01*
X0147961Y0071495D01*
X0147477Y0071978D01*
X0146509Y0071978D01*
X0146026Y0071495D01*
X0146026Y0075327D02*
X0146993Y0075327D01*
X0146026Y0076778D02*
X0147961Y0076778D01*
X0137396Y0077657D02*
X0136429Y0076690D01*
X0136429Y0077174D02*
X0136429Y0075722D01*
X0137396Y0075722D02*
X0134494Y0075722D01*
X0134494Y0077174D01*
X0134978Y0077657D01*
X0135945Y0077657D01*
X0136429Y0077174D01*
X0136913Y0078669D02*
X0137396Y0079153D01*
X0137396Y0080120D01*
X0136913Y0080604D01*
X0136429Y0080604D01*
X0135945Y0080120D01*
X0135945Y0079636D01*
X0135945Y0080120D02*
X0135461Y0080604D01*
X0134978Y0080604D01*
X0134494Y0080120D01*
X0134494Y0079153D01*
X0134978Y0078669D01*
X0113406Y0080670D02*
X0112922Y0080186D01*
X0111471Y0080186D01*
X0111471Y0079219D02*
X0111471Y0082121D01*
X0112922Y0082121D01*
X0113406Y0081637D01*
X0113406Y0080670D01*
X0110460Y0080186D02*
X0110460Y0079702D01*
X0109976Y0079219D01*
X0109008Y0079219D01*
X0108525Y0079702D01*
X0107513Y0079702D02*
X0107029Y0079219D01*
X0106062Y0079219D01*
X0105578Y0079702D01*
X0105578Y0081637D01*
X0106062Y0082121D01*
X0107029Y0082121D01*
X0107513Y0081637D01*
X0108525Y0081637D02*
X0108525Y0081153D01*
X0109008Y0080670D01*
X0109976Y0080670D01*
X0110460Y0080186D01*
X0110460Y0081637D02*
X0109976Y0082121D01*
X0109008Y0082121D01*
X0108525Y0081637D01*
X0104581Y0082121D02*
X0103614Y0082121D01*
X0104098Y0082121D02*
X0104098Y0079219D01*
X0104581Y0079219D02*
X0103614Y0079219D01*
X0103284Y0060724D02*
X0102317Y0060724D01*
X0101833Y0060240D01*
X0101833Y0057822D01*
X0100822Y0058789D02*
X0099854Y0057822D01*
X0099854Y0060724D01*
X0098887Y0060724D02*
X0100822Y0060724D01*
X0103284Y0060724D02*
X0103768Y0060240D01*
X0103768Y0057822D01*
X0115686Y0048323D02*
X0118822Y0045187D01*
X0117254Y0045187D02*
X0117254Y0048323D01*
X0118822Y0048323D02*
X0115686Y0045187D01*
X0115686Y0046755D02*
X0118822Y0046755D01*
X0104516Y0033868D02*
X0102581Y0033868D01*
X0102581Y0032417D01*
X0103548Y0032901D01*
X0104032Y0032901D01*
X0104516Y0032417D01*
X0104516Y0031449D01*
X0104032Y0030966D01*
X0103065Y0030966D01*
X0102581Y0031449D01*
X0101569Y0030966D02*
X0100602Y0031933D01*
X0101085Y0031933D02*
X0099634Y0031933D01*
X0099634Y0030966D02*
X0099634Y0033868D01*
X0101085Y0033868D01*
X0101569Y0033384D01*
X0101569Y0032417D01*
X0101085Y0031933D01*
X0096635Y0032417D02*
X0094701Y0032417D01*
X0096152Y0033868D01*
X0096152Y0030966D01*
X0093689Y0030966D02*
X0091754Y0030966D01*
X0092721Y0030966D02*
X0092721Y0033868D01*
X0091754Y0032901D01*
X0090742Y0033384D02*
X0090742Y0032417D01*
X0090259Y0031933D01*
X0088807Y0031933D01*
X0088807Y0030966D02*
X0088807Y0033868D01*
X0090259Y0033868D01*
X0090742Y0033384D01*
X0089775Y0031933D02*
X0090742Y0030966D01*
X0083413Y0030977D02*
X0083413Y0032912D01*
X0082930Y0033396D01*
X0081962Y0033396D01*
X0081478Y0032912D01*
X0081478Y0032428D01*
X0081962Y0031945D01*
X0083413Y0031945D01*
X0083413Y0030977D02*
X0082930Y0030493D01*
X0081962Y0030493D01*
X0081478Y0030977D01*
X0080467Y0030493D02*
X0079499Y0031461D01*
X0079983Y0031461D02*
X0078532Y0031461D01*
X0078532Y0030493D02*
X0078532Y0033396D01*
X0079983Y0033396D01*
X0080467Y0032912D01*
X0080467Y0031945D01*
X0079983Y0031461D01*
X0068178Y0039695D02*
X0068178Y0042597D01*
X0066727Y0041146D01*
X0068662Y0041146D01*
X0065716Y0041146D02*
X0065716Y0042114D01*
X0065232Y0042597D01*
X0063781Y0042597D01*
X0063781Y0039695D01*
X0063781Y0040662D02*
X0065232Y0040662D01*
X0065716Y0041146D01*
X0064748Y0040662D02*
X0065716Y0039695D01*
X0041780Y0013396D02*
X0039845Y0013396D01*
X0039845Y0011945D01*
X0040812Y0012428D01*
X0041296Y0012428D01*
X0041780Y0011945D01*
X0041780Y0010977D01*
X0041296Y0010493D01*
X0040328Y0010493D01*
X0039845Y0010977D01*
X0038833Y0010977D02*
X0038349Y0010493D01*
X0037382Y0010493D01*
X0036898Y0010977D01*
X0036898Y0012912D01*
X0037382Y0013396D01*
X0038349Y0013396D01*
X0038833Y0012912D01*
X0052751Y0011466D02*
X0054202Y0010015D01*
X0054202Y0011950D01*
X0055653Y0011466D02*
X0052751Y0011466D01*
X0053234Y0009003D02*
X0052751Y0008519D01*
X0052751Y0007552D01*
X0053234Y0007068D01*
X0055169Y0007068D01*
X0055653Y0007552D01*
X0055653Y0008519D01*
X0055169Y0009003D01*
X0016949Y0007282D02*
X0015982Y0006799D01*
X0015015Y0005831D01*
X0016466Y0005831D01*
X0016949Y0005347D01*
X0016949Y0004864D01*
X0016466Y0004380D01*
X0015498Y0004380D01*
X0015015Y0004864D01*
X0015015Y0005831D01*
X0014003Y0004864D02*
X0013519Y0004380D01*
X0012552Y0004380D01*
X0012068Y0004864D01*
X0012068Y0006799D01*
X0012552Y0007282D01*
X0013519Y0007282D01*
X0014003Y0006799D01*
X0058302Y0084883D02*
X0058302Y0086334D01*
X0058786Y0086818D01*
X0059753Y0086818D01*
X0060237Y0086334D01*
X0060237Y0084883D01*
X0061204Y0084883D02*
X0058302Y0084883D01*
X0060237Y0085851D02*
X0061204Y0086818D01*
X0061204Y0087830D02*
X0060721Y0087830D01*
X0058786Y0089765D01*
X0058302Y0089765D01*
X0058302Y0087830D01*
X0055169Y0105493D02*
X0053234Y0105493D01*
X0052751Y0105977D01*
X0052751Y0106945D01*
X0053234Y0107428D01*
X0053718Y0108440D02*
X0052751Y0109407D01*
X0055653Y0109407D01*
X0055653Y0108440D02*
X0055653Y0110375D01*
X0055169Y0111386D02*
X0053234Y0113321D01*
X0055169Y0113321D01*
X0055653Y0112838D01*
X0055653Y0111870D01*
X0055169Y0111386D01*
X0053234Y0111386D01*
X0052751Y0111870D01*
X0052751Y0112838D01*
X0053234Y0113321D01*
X0055169Y0107428D02*
X0055653Y0106945D01*
X0055653Y0105977D01*
X0055169Y0105493D01*
X0044726Y0108919D02*
X0042791Y0108919D01*
X0043759Y0108919D02*
X0043759Y0111821D01*
X0042791Y0110853D01*
X0041780Y0108919D02*
X0039845Y0108919D01*
X0040812Y0108919D02*
X0040812Y0111821D01*
X0039845Y0110853D01*
X0038833Y0111337D02*
X0038349Y0111821D01*
X0037382Y0111821D01*
X0036898Y0111337D01*
X0036898Y0109402D01*
X0037382Y0108919D01*
X0038349Y0108919D01*
X0038833Y0109402D01*
X0016949Y0105224D02*
X0016466Y0105708D01*
X0015498Y0105708D01*
X0015015Y0105224D01*
X0016949Y0105224D02*
X0016949Y0104740D01*
X0015015Y0102805D01*
X0016949Y0102805D01*
X0014003Y0102805D02*
X0012068Y0102805D01*
X0013035Y0102805D02*
X0013035Y0105708D01*
X0012068Y0104740D01*
X0011056Y0105224D02*
X0010573Y0105708D01*
X0009605Y0105708D01*
X0009121Y0105224D01*
X0009121Y0103289D01*
X0009605Y0102805D01*
X0010573Y0102805D01*
X0011056Y0103289D01*
X0060834Y0138120D02*
X0060834Y0141023D01*
X0062285Y0141023D01*
X0062769Y0140539D01*
X0062769Y0139571D01*
X0062285Y0139088D01*
X0060834Y0139088D01*
X0061802Y0139088D02*
X0062769Y0138120D01*
X0063781Y0138120D02*
X0065716Y0140055D01*
X0065716Y0140539D01*
X0065232Y0141023D01*
X0064264Y0141023D01*
X0063781Y0140539D01*
X0063781Y0138120D02*
X0065716Y0138120D01*
X0066727Y0138120D02*
X0068662Y0138120D01*
X0067695Y0138120D02*
X0067695Y0141023D01*
X0066727Y0140055D01*
X0078532Y0131821D02*
X0078532Y0128919D01*
X0078532Y0129886D02*
X0079983Y0129886D01*
X0080467Y0130370D01*
X0080467Y0131337D01*
X0079983Y0131821D01*
X0078532Y0131821D01*
X0079499Y0129886D02*
X0080467Y0128919D01*
X0081478Y0128919D02*
X0083413Y0130853D01*
X0083413Y0131337D01*
X0082930Y0131821D01*
X0081962Y0131821D01*
X0081478Y0131337D01*
X0081478Y0128919D02*
X0083413Y0128919D01*
X0084425Y0129402D02*
X0084909Y0128919D01*
X0085876Y0128919D01*
X0086360Y0129402D01*
X0086360Y0130370D01*
X0085876Y0130853D01*
X0085392Y0130853D01*
X0084425Y0130370D01*
X0084425Y0131821D01*
X0086360Y0131821D01*
X0088807Y0132293D02*
X0088807Y0129391D01*
X0088807Y0130358D02*
X0090259Y0130358D01*
X0090742Y0130842D01*
X0090742Y0131810D01*
X0090259Y0132293D01*
X0088807Y0132293D01*
X0089775Y0130358D02*
X0090742Y0129391D01*
X0091754Y0129391D02*
X0093689Y0131326D01*
X0093689Y0131810D01*
X0093205Y0132293D01*
X0092238Y0132293D01*
X0091754Y0131810D01*
X0091754Y0129391D02*
X0093689Y0129391D01*
X0094701Y0129875D02*
X0095184Y0129391D01*
X0096152Y0129391D01*
X0096635Y0129875D01*
X0096635Y0131810D01*
X0096152Y0132293D01*
X0095184Y0132293D01*
X0094701Y0131810D01*
X0094701Y0131326D01*
X0095184Y0130842D01*
X0096635Y0130842D01*
X0099634Y0130358D02*
X0101085Y0130358D01*
X0101569Y0130842D01*
X0101569Y0131810D01*
X0101085Y0132293D01*
X0099634Y0132293D01*
X0099634Y0129391D01*
X0100602Y0130358D02*
X0101569Y0129391D01*
X0102581Y0129391D02*
X0104516Y0131326D01*
X0104516Y0131810D01*
X0104032Y0132293D01*
X0103065Y0132293D01*
X0102581Y0131810D01*
X0102581Y0129391D02*
X0104516Y0129391D01*
X0105527Y0129391D02*
X0107462Y0131326D01*
X0107462Y0131810D01*
X0106979Y0132293D01*
X0106011Y0132293D01*
X0105527Y0131810D01*
X0105527Y0129391D02*
X0107462Y0129391D01*
X0107690Y0116338D02*
X0107206Y0115854D01*
X0107690Y0116338D02*
X0108657Y0116338D01*
X0109141Y0115854D01*
X0109141Y0115370D01*
X0107206Y0113435D01*
X0109141Y0113435D01*
X0110152Y0113435D02*
X0110152Y0113919D01*
X0112087Y0115854D01*
X0112087Y0116338D01*
X0110152Y0116338D01*
X0106194Y0115854D02*
X0106194Y0114886D01*
X0105710Y0114403D01*
X0104259Y0114403D01*
X0105227Y0114403D02*
X0106194Y0113435D01*
X0104259Y0113435D02*
X0104259Y0116338D01*
X0105710Y0116338D01*
X0106194Y0115854D01*
X0108667Y0110764D02*
X0108184Y0110281D01*
X0108184Y0109313D01*
X0108667Y0108829D01*
X0110602Y0108829D01*
X0111086Y0109313D01*
X0111086Y0110281D01*
X0110602Y0110764D01*
X0108667Y0110764D01*
X0108184Y0107833D02*
X0108184Y0106865D01*
X0108184Y0107349D02*
X0111086Y0107349D01*
X0111086Y0106865D02*
X0111086Y0107833D01*
X0110119Y0105853D02*
X0108184Y0105853D01*
X0108184Y0103919D02*
X0110119Y0103919D01*
X0111086Y0104886D01*
X0110119Y0105853D01*
X0127451Y0113981D02*
X0129386Y0113981D01*
X0128419Y0114948D02*
X0128419Y0113013D01*
X0130398Y0113013D02*
X0130882Y0112530D01*
X0131849Y0112530D01*
X0132333Y0113013D01*
X0132333Y0113497D01*
X0131849Y0113981D01*
X0131365Y0113981D01*
X0131849Y0113981D02*
X0132333Y0114465D01*
X0132333Y0114948D01*
X0131849Y0115432D01*
X0130882Y0115432D01*
X0130398Y0114948D01*
X0133344Y0113013D02*
X0133828Y0113013D01*
X0133828Y0112530D01*
X0133344Y0112530D01*
X0133344Y0113013D01*
X0134818Y0113013D02*
X0135301Y0112530D01*
X0136269Y0112530D01*
X0136753Y0113013D01*
X0136753Y0113497D01*
X0136269Y0113981D01*
X0135785Y0113981D01*
X0136269Y0113981D02*
X0136753Y0114465D01*
X0136753Y0114948D01*
X0136269Y0115432D01*
X0135301Y0115432D01*
X0134818Y0114948D01*
X0128328Y0123092D02*
X0126393Y0123092D01*
X0128328Y0125027D01*
X0128328Y0125510D01*
X0127845Y0125994D01*
X0126877Y0125994D01*
X0126393Y0125510D01*
X0125382Y0125510D02*
X0125382Y0125027D01*
X0124898Y0124543D01*
X0125382Y0124059D01*
X0125382Y0123575D01*
X0124898Y0123092D01*
X0123931Y0123092D01*
X0123447Y0123575D01*
X0122435Y0123092D02*
X0121468Y0124059D01*
X0121952Y0124059D02*
X0120500Y0124059D01*
X0120500Y0123092D02*
X0120500Y0125994D01*
X0121952Y0125994D01*
X0122435Y0125510D01*
X0122435Y0124543D01*
X0121952Y0124059D01*
X0123447Y0125510D02*
X0123931Y0125994D01*
X0124898Y0125994D01*
X0125382Y0125510D01*
X0124898Y0124543D02*
X0124414Y0124543D01*
X0124067Y0131674D02*
X0122132Y0131674D01*
X0121648Y0132158D01*
X0121648Y0133126D01*
X0122132Y0133609D01*
X0122132Y0134621D02*
X0122616Y0134621D01*
X0123100Y0135105D01*
X0123100Y0136556D01*
X0124067Y0136556D02*
X0122132Y0136556D01*
X0121648Y0136072D01*
X0121648Y0135105D01*
X0122132Y0134621D01*
X0124067Y0134621D02*
X0124551Y0135105D01*
X0124551Y0136072D01*
X0124067Y0136556D01*
X0124067Y0133609D02*
X0124551Y0133126D01*
X0124551Y0132158D01*
X0124067Y0131674D01*
X0133313Y0131111D02*
X0133313Y0130143D01*
X0133797Y0129659D01*
X0133797Y0128648D02*
X0134764Y0128648D01*
X0135248Y0128164D01*
X0135248Y0126713D01*
X0135248Y0127680D02*
X0136215Y0128648D01*
X0136215Y0129659D02*
X0134280Y0131594D01*
X0133797Y0131594D01*
X0133313Y0131111D01*
X0134764Y0132606D02*
X0134764Y0134057D01*
X0135248Y0134541D01*
X0135732Y0134541D01*
X0136215Y0134057D01*
X0136215Y0133090D01*
X0135732Y0132606D01*
X0134764Y0132606D01*
X0133797Y0133573D01*
X0133313Y0134541D01*
X0136215Y0131594D02*
X0136215Y0129659D01*
X0133797Y0128648D02*
X0133313Y0128164D01*
X0133313Y0126713D01*
X0136215Y0126713D01*
X0139792Y0127816D02*
X0139792Y0130719D01*
X0141243Y0130719D01*
X0141727Y0130235D01*
X0141727Y0129267D01*
X0141243Y0128784D01*
X0139792Y0128784D01*
X0140759Y0128784D02*
X0141727Y0127816D01*
X0142738Y0127816D02*
X0144673Y0127816D01*
X0143706Y0127816D02*
X0143706Y0130719D01*
X0142738Y0129751D01*
X0145685Y0129751D02*
X0145685Y0130235D01*
X0146169Y0130719D01*
X0147136Y0130719D01*
X0147620Y0130235D01*
X0147620Y0129751D01*
X0147136Y0129267D01*
X0146169Y0129267D01*
X0145685Y0129751D01*
X0146169Y0129267D02*
X0145685Y0128784D01*
X0145685Y0128300D01*
X0146169Y0127816D01*
X0147136Y0127816D01*
X0147620Y0128300D01*
X0147620Y0128784D01*
X0147136Y0129267D01*
X0152199Y0128993D02*
X0155335Y0128993D01*
X0155335Y0127425D02*
X0152199Y0130561D01*
X0152762Y0131753D02*
X0154697Y0131753D01*
X0155181Y0132237D01*
X0155181Y0133204D01*
X0154697Y0133688D01*
X0154697Y0134700D02*
X0155181Y0134700D01*
X0154697Y0134700D02*
X0152762Y0136635D01*
X0152278Y0136635D01*
X0152278Y0134700D01*
X0152762Y0133688D02*
X0152278Y0133204D01*
X0152278Y0132237D01*
X0152762Y0131753D01*
X0153767Y0130561D02*
X0153767Y0127425D01*
X0152199Y0127425D02*
X0155335Y0130561D01*
X0153842Y0142068D02*
X0153842Y0143036D01*
X0153842Y0142552D02*
X0150940Y0142552D01*
X0150940Y0142068D02*
X0150940Y0143036D01*
X0151423Y0144032D02*
X0150940Y0144516D01*
X0150940Y0145484D01*
X0151423Y0145967D01*
X0151907Y0145967D01*
X0153842Y0144032D01*
X0153842Y0145967D01*
X0145063Y0143802D02*
X0145063Y0142835D01*
X0144579Y0142351D01*
X0142644Y0144286D01*
X0144579Y0144286D01*
X0145063Y0143802D01*
X0144579Y0142351D02*
X0142644Y0142351D01*
X0142160Y0142835D01*
X0142160Y0143802D01*
X0142644Y0144286D01*
X0142644Y0141339D02*
X0143128Y0141339D01*
X0143611Y0140856D01*
X0144095Y0141339D01*
X0144579Y0141339D01*
X0145063Y0140856D01*
X0145063Y0139888D01*
X0144579Y0139404D01*
X0145063Y0138393D02*
X0144095Y0137425D01*
X0144095Y0137909D02*
X0144095Y0136458D01*
X0145063Y0136458D02*
X0142160Y0136458D01*
X0142160Y0137909D01*
X0142644Y0138393D01*
X0143611Y0138393D01*
X0144095Y0137909D01*
X0142644Y0139404D02*
X0142160Y0139888D01*
X0142160Y0140856D01*
X0142644Y0141339D01*
X0143611Y0140856D02*
X0143611Y0140372D01*
X0143303Y0154577D02*
X0142335Y0154577D01*
X0141851Y0155061D01*
X0140840Y0154577D02*
X0139872Y0155544D01*
X0140356Y0155544D02*
X0138905Y0155544D01*
X0138905Y0154577D02*
X0138905Y0157479D01*
X0140356Y0157479D01*
X0140840Y0156995D01*
X0140840Y0156028D01*
X0140356Y0155544D01*
X0141851Y0156995D02*
X0142335Y0157479D01*
X0143303Y0157479D01*
X0143786Y0156995D01*
X0143786Y0156512D01*
X0143303Y0156028D01*
X0143786Y0155544D01*
X0143786Y0155061D01*
X0143303Y0154577D01*
X0143303Y0156028D02*
X0142819Y0156028D01*
X0144798Y0156512D02*
X0145765Y0157479D01*
X0145765Y0154577D01*
X0144798Y0154577D02*
X0146733Y0154577D01*
X0146026Y0167501D02*
X0147961Y0169436D01*
X0147961Y0169920D01*
X0147477Y0170404D01*
X0146509Y0170404D01*
X0146026Y0169920D01*
X0144047Y0170404D02*
X0144047Y0167501D01*
X0145014Y0167501D02*
X0143079Y0167501D01*
X0143079Y0169436D02*
X0144047Y0170404D01*
X0144530Y0172301D02*
X0143563Y0172301D01*
X0143079Y0172785D01*
X0143563Y0173752D02*
X0143079Y0174236D01*
X0143079Y0174720D01*
X0143563Y0175204D01*
X0144530Y0175204D01*
X0145014Y0174720D01*
X0144530Y0173752D02*
X0145014Y0173269D01*
X0145014Y0172785D01*
X0144530Y0172301D01*
X0144530Y0173752D02*
X0143563Y0173752D01*
X0146026Y0173752D02*
X0146993Y0173752D01*
X0146026Y0172301D02*
X0147961Y0172301D01*
X0148972Y0172301D02*
X0148972Y0175204D01*
X0150907Y0172301D01*
X0150907Y0175204D01*
X0151919Y0174720D02*
X0151919Y0174236D01*
X0152402Y0173752D01*
X0153370Y0173752D01*
X0153854Y0173269D01*
X0153854Y0172785D01*
X0153370Y0172301D01*
X0152402Y0172301D01*
X0151919Y0172785D01*
X0151919Y0174720D02*
X0152402Y0175204D01*
X0153370Y0175204D01*
X0153854Y0174720D01*
X0154865Y0174720D02*
X0154865Y0172785D01*
X0155349Y0172301D01*
X0156316Y0172301D01*
X0156800Y0172785D01*
X0156800Y0174720D01*
X0156316Y0175204D01*
X0155349Y0175204D01*
X0154865Y0174720D01*
X0157812Y0175204D02*
X0157812Y0172301D01*
X0157812Y0173269D02*
X0159263Y0173269D01*
X0159747Y0173752D01*
X0159747Y0174720D01*
X0159263Y0175204D01*
X0157812Y0175204D01*
X0158779Y0173269D02*
X0159747Y0172301D01*
X0158779Y0170404D02*
X0158779Y0167501D01*
X0157812Y0167501D02*
X0159747Y0167501D01*
X0160758Y0167985D02*
X0161242Y0167501D01*
X0162209Y0167501D01*
X0162693Y0167985D01*
X0162693Y0168952D01*
X0162209Y0169436D01*
X0161726Y0169436D01*
X0160758Y0168952D01*
X0160758Y0170404D01*
X0162693Y0170404D01*
X0164672Y0172301D02*
X0165640Y0173269D01*
X0165640Y0175204D01*
X0166651Y0174720D02*
X0167135Y0175204D01*
X0168103Y0175204D01*
X0168586Y0174720D01*
X0168586Y0174236D01*
X0168103Y0173752D01*
X0168586Y0173269D01*
X0168586Y0172785D01*
X0168103Y0172301D01*
X0167135Y0172301D01*
X0166651Y0172785D01*
X0167619Y0173752D02*
X0168103Y0173752D01*
X0164672Y0172301D02*
X0163705Y0173269D01*
X0163705Y0175204D01*
X0158779Y0170404D02*
X0157812Y0169436D01*
X0156800Y0169920D02*
X0156800Y0167985D01*
X0156316Y0167501D01*
X0155349Y0167501D01*
X0154865Y0167985D01*
X0156800Y0169920D01*
X0156316Y0170404D01*
X0155349Y0170404D01*
X0154865Y0169920D01*
X0154865Y0167985D01*
X0153854Y0167501D02*
X0151919Y0167501D01*
X0153854Y0169436D01*
X0153854Y0169920D01*
X0153370Y0170404D01*
X0152402Y0170404D01*
X0151919Y0169920D01*
X0150907Y0170404D02*
X0148972Y0167501D01*
X0147961Y0167501D02*
X0146026Y0167501D01*
X0146026Y0172301D02*
X0146026Y0175204D01*
X0147961Y0175204D01*
X0137396Y0176082D02*
X0137396Y0174148D01*
X0135461Y0176082D01*
X0134978Y0176082D01*
X0134494Y0175599D01*
X0134494Y0174631D01*
X0134978Y0174148D01*
X0134978Y0173136D02*
X0135945Y0173136D01*
X0136429Y0172652D01*
X0136429Y0171201D01*
X0137396Y0171201D02*
X0134494Y0171201D01*
X0134494Y0172652D01*
X0134978Y0173136D01*
X0136429Y0172168D02*
X0137396Y0173136D01*
X0136913Y0177094D02*
X0134978Y0177094D01*
X0134494Y0177578D01*
X0134494Y0178545D01*
X0134978Y0179029D01*
X0136913Y0177094D01*
X0137396Y0177578D01*
X0137396Y0178545D01*
X0136913Y0179029D01*
X0134978Y0179029D01*
X0113406Y0177644D02*
X0111471Y0177644D01*
X0112439Y0177644D02*
X0112439Y0180546D01*
X0111471Y0179579D01*
X0110460Y0180062D02*
X0110460Y0179095D01*
X0109976Y0178611D01*
X0108525Y0178611D01*
X0108525Y0177644D02*
X0108525Y0180546D01*
X0109976Y0180546D01*
X0110460Y0180062D01*
X0107513Y0180062D02*
X0107029Y0180546D01*
X0106062Y0180546D01*
X0105578Y0180062D01*
X0105578Y0179579D01*
X0106062Y0179095D01*
X0107029Y0179095D01*
X0107513Y0178611D01*
X0107513Y0178127D01*
X0107029Y0177644D01*
X0106062Y0177644D01*
X0105578Y0178127D01*
X0104567Y0178127D02*
X0104083Y0177644D01*
X0103115Y0177644D01*
X0102632Y0178127D01*
X0102632Y0180062D01*
X0103115Y0180546D01*
X0104083Y0180546D01*
X0104567Y0180062D01*
X0101635Y0180546D02*
X0100667Y0180546D01*
X0101151Y0180546D02*
X0101151Y0177644D01*
X0100667Y0177644D02*
X0101635Y0177644D01*
X0102317Y0159149D02*
X0101833Y0158665D01*
X0101833Y0156247D01*
X0100822Y0156730D02*
X0100338Y0156247D01*
X0099370Y0156247D01*
X0098887Y0156730D01*
X0098887Y0157214D01*
X0099370Y0157698D01*
X0098887Y0158182D01*
X0098887Y0158665D01*
X0099370Y0159149D01*
X0100338Y0159149D01*
X0100822Y0158665D01*
X0099854Y0157698D02*
X0099370Y0157698D01*
X0102317Y0159149D02*
X0103284Y0159149D01*
X0103768Y0158665D01*
X0103768Y0156247D01*
X0115686Y0146749D02*
X0118822Y0143613D01*
X0117254Y0143613D02*
X0117254Y0146749D01*
X0118822Y0146749D02*
X0115686Y0143613D01*
X0115686Y0145181D02*
X0118822Y0145181D01*
X0082438Y0183328D02*
X0081470Y0183328D01*
X0080986Y0183812D01*
X0079975Y0183328D02*
X0078040Y0183328D01*
X0078040Y0186230D01*
X0080986Y0185747D02*
X0081470Y0186230D01*
X0082438Y0186230D01*
X0082921Y0185747D01*
X0082921Y0185263D01*
X0082438Y0184779D01*
X0082921Y0184295D01*
X0082921Y0183812D01*
X0082438Y0183328D01*
X0082438Y0184779D02*
X0081954Y0184779D01*
X0061204Y0185243D02*
X0060237Y0184276D01*
X0060237Y0184759D02*
X0060237Y0183308D01*
X0061204Y0183308D02*
X0058302Y0183308D01*
X0058302Y0184759D01*
X0058786Y0185243D01*
X0059753Y0185243D01*
X0060237Y0184759D01*
X0061204Y0186255D02*
X0059269Y0188190D01*
X0058786Y0188190D01*
X0058302Y0187706D01*
X0058302Y0186739D01*
X0058786Y0186255D01*
X0061204Y0186255D02*
X0061204Y0188190D01*
X0059753Y0189201D02*
X0059753Y0191136D01*
X0061204Y0190653D02*
X0058302Y0190653D01*
X0059753Y0189201D01*
X0147501Y0104830D02*
X0147501Y0102895D01*
X0147985Y0102411D01*
X0148952Y0102411D01*
X0149436Y0102895D01*
X0150448Y0102895D02*
X0150448Y0103379D01*
X0150931Y0103863D01*
X0151899Y0103863D01*
X0152383Y0103379D01*
X0152383Y0102895D01*
X0151899Y0102411D01*
X0150931Y0102411D01*
X0150448Y0102895D01*
X0150931Y0103863D02*
X0150448Y0104346D01*
X0150448Y0104830D01*
X0150931Y0105314D01*
X0151899Y0105314D01*
X0152383Y0104830D01*
X0152383Y0104346D01*
X0151899Y0103863D01*
X0149436Y0104830D02*
X0148952Y0105314D01*
X0147985Y0105314D01*
X0147501Y0104830D01*
X0162036Y0105522D02*
X0162036Y0102619D01*
X0162036Y0103587D02*
X0163487Y0103587D01*
X0163971Y0104071D01*
X0163971Y0105038D01*
X0163487Y0105522D01*
X0162036Y0105522D01*
X0163003Y0103587D02*
X0163971Y0102619D01*
X0164982Y0102619D02*
X0166917Y0104554D01*
X0166917Y0105038D01*
X0166434Y0105522D01*
X0165466Y0105522D01*
X0164982Y0105038D01*
X0164982Y0102619D02*
X0166917Y0102619D01*
X0167929Y0103103D02*
X0167929Y0103587D01*
X0168413Y0104071D01*
X0169380Y0104071D01*
X0169864Y0103587D01*
X0169864Y0103103D01*
X0169380Y0102619D01*
X0168413Y0102619D01*
X0167929Y0103103D01*
X0168413Y0104071D02*
X0167929Y0104554D01*
X0167929Y0105038D01*
X0168413Y0105522D01*
X0169380Y0105522D01*
X0169864Y0105038D01*
X0169864Y0104554D01*
X0169380Y0104071D01*
X0181777Y0109502D02*
X0181777Y0110953D01*
X0182261Y0111437D01*
X0183229Y0111437D01*
X0183712Y0110953D01*
X0183712Y0109502D01*
X0183712Y0110469D02*
X0184680Y0111437D01*
X0184196Y0112448D02*
X0183712Y0112448D01*
X0183229Y0112932D01*
X0183229Y0113900D01*
X0183712Y0114383D01*
X0184196Y0114383D01*
X0184680Y0113900D01*
X0184680Y0112932D01*
X0184196Y0112448D01*
X0183229Y0112932D02*
X0182745Y0112448D01*
X0182261Y0112448D01*
X0181777Y0112932D01*
X0181777Y0113900D01*
X0182261Y0114383D01*
X0182745Y0114383D01*
X0183229Y0113900D01*
X0184680Y0109502D02*
X0181777Y0109502D01*
X0185886Y0128174D02*
X0186369Y0128174D01*
X0186853Y0128658D01*
X0186853Y0131077D01*
X0186369Y0131077D02*
X0187337Y0131077D01*
X0188348Y0131077D02*
X0189800Y0131077D01*
X0190283Y0130593D01*
X0190283Y0129626D01*
X0189800Y0129142D01*
X0188348Y0129142D01*
X0188348Y0128174D02*
X0188348Y0131077D01*
X0185886Y0128174D02*
X0185402Y0128658D01*
X0191295Y0128174D02*
X0193230Y0128174D01*
X0192262Y0128174D02*
X0192262Y0131077D01*
X0191295Y0130109D01*
X0179588Y0137788D02*
X0179588Y0139723D01*
X0179105Y0140207D01*
X0178137Y0140207D01*
X0177653Y0139723D01*
X0177653Y0139239D01*
X0178137Y0138756D01*
X0179588Y0138756D01*
X0179588Y0137788D02*
X0179105Y0137304D01*
X0178137Y0137304D01*
X0177653Y0137788D01*
X0176642Y0137304D02*
X0174707Y0137304D01*
X0175674Y0137304D02*
X0175674Y0140207D01*
X0174707Y0139239D01*
X0173695Y0138756D02*
X0173211Y0138272D01*
X0171760Y0138272D01*
X0171760Y0137304D02*
X0171760Y0140207D01*
X0173211Y0140207D01*
X0173695Y0139723D01*
X0173695Y0138756D01*
X0172728Y0138272D02*
X0173695Y0137304D01*
X0174594Y0160296D02*
X0172660Y0160296D01*
X0174594Y0162231D01*
X0174594Y0162715D01*
X0174111Y0163199D01*
X0173143Y0163199D01*
X0172660Y0162715D01*
X0171648Y0162715D02*
X0171648Y0161748D01*
X0171164Y0161264D01*
X0169713Y0161264D01*
X0170680Y0161264D02*
X0171648Y0160296D01*
X0169713Y0160296D02*
X0169713Y0163199D01*
X0171164Y0163199D01*
X0171648Y0162715D01*
X0175606Y0162715D02*
X0176090Y0163199D01*
X0177057Y0163199D01*
X0177541Y0162715D01*
X0177541Y0162231D01*
X0177057Y0161748D01*
X0177541Y0161264D01*
X0177541Y0160780D01*
X0177057Y0160296D01*
X0176090Y0160296D01*
X0175606Y0160780D01*
X0176574Y0161748D02*
X0177057Y0161748D01*
X0185520Y0160887D02*
X0187455Y0160887D01*
X0188467Y0162338D02*
X0190402Y0162338D01*
X0189918Y0160887D02*
X0189918Y0163789D01*
X0188467Y0162338D01*
X0185520Y0163789D02*
X0185520Y0160887D01*
X0185520Y0065364D02*
X0185520Y0062462D01*
X0187455Y0062462D01*
X0188467Y0062462D02*
X0190402Y0064397D01*
X0190402Y0064881D01*
X0189918Y0065364D01*
X0188950Y0065364D01*
X0188467Y0064881D01*
X0188467Y0062462D02*
X0190402Y0062462D01*
X0174594Y0062355D02*
X0174111Y0061871D01*
X0173143Y0061871D01*
X0172660Y0062355D01*
X0172660Y0063322D01*
X0174111Y0063322D01*
X0174594Y0062839D01*
X0174594Y0062355D01*
X0172660Y0063322D02*
X0173627Y0064290D01*
X0174594Y0064774D01*
X0171648Y0064290D02*
X0171648Y0063322D01*
X0171164Y0062839D01*
X0169713Y0062839D01*
X0170680Y0062839D02*
X0171648Y0061871D01*
X0169713Y0061871D02*
X0169713Y0064774D01*
X0171164Y0064774D01*
X0171648Y0064290D01*
X0171760Y0041782D02*
X0173211Y0041782D01*
X0173695Y0041298D01*
X0173695Y0040330D01*
X0173211Y0039847D01*
X0171760Y0039847D01*
X0172728Y0039847D02*
X0173695Y0038879D01*
X0174707Y0038879D02*
X0176642Y0040814D01*
X0176642Y0041298D01*
X0176158Y0041782D01*
X0175190Y0041782D01*
X0174707Y0041298D01*
X0174707Y0038879D02*
X0176642Y0038879D01*
X0171760Y0038879D02*
X0171760Y0041782D01*
X0186369Y0032652D02*
X0187337Y0032652D01*
X0186853Y0032652D02*
X0186853Y0030233D01*
X0186369Y0029749D01*
X0185886Y0029749D01*
X0185402Y0030233D01*
X0188348Y0030717D02*
X0189800Y0030717D01*
X0190283Y0031200D01*
X0190283Y0032168D01*
X0189800Y0032652D01*
X0188348Y0032652D01*
X0188348Y0029749D01*
X0191295Y0029749D02*
X0193230Y0031684D01*
X0193230Y0032168D01*
X0192746Y0032652D01*
X0191779Y0032652D01*
X0191295Y0032168D01*
X0191295Y0029749D02*
X0193230Y0029749D01*
X0136215Y0034181D02*
X0136215Y0036116D01*
X0136215Y0035148D02*
X0133313Y0035148D01*
X0134280Y0034181D01*
X0112087Y0017429D02*
X0111604Y0017912D01*
X0110636Y0017912D01*
X0110152Y0017429D01*
X0112087Y0017429D02*
X0112087Y0016945D01*
X0110152Y0015010D01*
X0112087Y0015010D01*
X0110602Y0012339D02*
X0108667Y0012339D01*
X0108184Y0011855D01*
X0108184Y0010888D01*
X0108667Y0010404D01*
X0110602Y0010404D01*
X0111086Y0010888D01*
X0111086Y0011855D01*
X0110602Y0012339D01*
X0109141Y0015010D02*
X0107206Y0015010D01*
X0108173Y0015010D02*
X0108173Y0017912D01*
X0107206Y0016945D01*
X0106194Y0017429D02*
X0106194Y0016461D01*
X0105710Y0015977D01*
X0104259Y0015977D01*
X0104259Y0015010D02*
X0104259Y0017912D01*
X0105710Y0017912D01*
X0106194Y0017429D01*
X0105227Y0015977D02*
X0106194Y0015010D01*
X0108184Y0009407D02*
X0108184Y0008440D01*
X0108184Y0008924D02*
X0111086Y0008924D01*
X0111086Y0009407D02*
X0111086Y0008440D01*
X0110119Y0007428D02*
X0108184Y0007428D01*
X0108184Y0005493D02*
X0110119Y0005493D01*
X0111086Y0006461D01*
X0110119Y0007428D01*
X0082921Y0084903D02*
X0080986Y0084903D01*
X0081954Y0084903D02*
X0081954Y0087805D01*
X0080986Y0086838D01*
X0079975Y0084903D02*
X0078040Y0084903D01*
X0078040Y0087805D01*
D12*
X0141748Y0078965D02*
X0141748Y0067154D01*
X0181315Y0067154D01*
X0181315Y0078965D01*
X0181118Y0078965D02*
X0141748Y0078965D01*
X0141748Y0165580D02*
X0141748Y0177391D01*
X0181118Y0177391D01*
X0181315Y0177391D02*
X0181315Y0165580D01*
X0141748Y0165580D01*
D13*
X0175213Y0171485D03*
X0175213Y0073060D03*
D14*
X0177673Y0084202D02*
X0182673Y0084202D01*
X0185173Y0086702D01*
X0185173Y0091702D01*
X0182673Y0094202D01*
X0177673Y0094202D01*
X0175173Y0091702D01*
X0172673Y0094202D01*
X0167673Y0094202D01*
X0165173Y0091702D01*
X0162673Y0094202D01*
X0157673Y0094202D01*
X0155173Y0091702D01*
X0152673Y0094202D01*
X0147673Y0094202D01*
X0145173Y0091702D01*
X0145173Y0086702D01*
X0147673Y0084202D01*
X0152673Y0084202D01*
X0155173Y0086702D01*
X0157673Y0084202D01*
X0162673Y0084202D01*
X0165173Y0086702D01*
X0167673Y0084202D01*
X0172673Y0084202D01*
X0175173Y0086702D01*
X0177673Y0084202D01*
X0162649Y0114991D02*
X0158249Y0114991D01*
X0158249Y0127191D02*
X0159249Y0127191D01*
X0161649Y0127191D01*
X0162649Y0127191D01*
X0182260Y0132800D02*
X0182260Y0140800D01*
X0183260Y0141800D01*
X0182260Y0142800D01*
X0182260Y0150800D01*
X0183260Y0151800D01*
X0191260Y0151800D01*
X0192260Y0150800D01*
X0192260Y0142800D01*
X0191260Y0141800D01*
X0192260Y0140800D01*
X0192260Y0132800D01*
X0191260Y0131800D01*
X0183260Y0131800D01*
X0182260Y0132800D01*
X0137496Y0091662D02*
X0134996Y0094162D01*
X0129996Y0094162D01*
X0127496Y0091662D01*
X0124996Y0094162D01*
X0119996Y0094162D01*
X0117496Y0091662D01*
X0114996Y0094162D01*
X0109996Y0094162D01*
X0107496Y0091662D01*
X0104996Y0094162D01*
X0099996Y0094162D01*
X0097496Y0091662D01*
X0094996Y0094162D01*
X0089996Y0094162D01*
X0087496Y0091662D01*
X0087496Y0086662D01*
X0089996Y0084162D01*
X0094996Y0084162D01*
X0097496Y0086662D01*
X0099996Y0084162D01*
X0104996Y0084162D01*
X0107496Y0086662D01*
X0109996Y0084162D01*
X0114996Y0084162D01*
X0117496Y0086662D01*
X0119996Y0084162D01*
X0124996Y0084162D01*
X0127496Y0086662D01*
X0129996Y0084162D01*
X0134996Y0084162D01*
X0137496Y0086662D01*
X0137496Y0091662D01*
X0133421Y0102312D02*
X0128421Y0102312D01*
X0125921Y0104812D01*
X0125921Y0109812D01*
X0128421Y0112312D01*
X0133421Y0112312D01*
X0135921Y0109812D01*
X0135921Y0104812D01*
X0133421Y0102312D01*
X0122142Y0104812D02*
X0119642Y0102312D01*
X0114642Y0102312D01*
X0112142Y0104812D01*
X0112142Y0109812D01*
X0114642Y0112312D01*
X0119642Y0112312D01*
X0122142Y0109812D01*
X0122142Y0104812D01*
X0112472Y0076757D02*
X0090472Y0076757D01*
X0090472Y0075657D01*
X0112472Y0075657D02*
X0112472Y0076757D01*
X0112472Y0048257D02*
X0112472Y0047157D01*
X0102672Y0047157D01*
X0100272Y0047157D01*
X0090472Y0047157D01*
X0090472Y0048257D01*
X0100272Y0047157D02*
X0100274Y0047226D01*
X0100280Y0047294D01*
X0100290Y0047362D01*
X0100303Y0047429D01*
X0100321Y0047495D01*
X0100342Y0047560D01*
X0100367Y0047624D01*
X0100395Y0047686D01*
X0100427Y0047747D01*
X0100462Y0047806D01*
X0100501Y0047862D01*
X0100543Y0047917D01*
X0100588Y0047968D01*
X0100636Y0048018D01*
X0100686Y0048064D01*
X0100739Y0048107D01*
X0100795Y0048148D01*
X0100852Y0048185D01*
X0100912Y0048218D01*
X0100974Y0048249D01*
X0101037Y0048275D01*
X0101101Y0048298D01*
X0101167Y0048318D01*
X0101234Y0048333D01*
X0101301Y0048345D01*
X0101369Y0048353D01*
X0101438Y0048357D01*
X0101506Y0048357D01*
X0101575Y0048353D01*
X0101643Y0048345D01*
X0101710Y0048333D01*
X0101777Y0048318D01*
X0101843Y0048298D01*
X0101907Y0048275D01*
X0101970Y0048249D01*
X0102032Y0048218D01*
X0102092Y0048185D01*
X0102149Y0048148D01*
X0102205Y0048107D01*
X0102258Y0048064D01*
X0102308Y0048018D01*
X0102356Y0047968D01*
X0102401Y0047917D01*
X0102443Y0047862D01*
X0102482Y0047806D01*
X0102517Y0047747D01*
X0102549Y0047686D01*
X0102577Y0047624D01*
X0102602Y0047560D01*
X0102623Y0047495D01*
X0102641Y0047429D01*
X0102654Y0047362D01*
X0102664Y0047294D01*
X0102670Y0047226D01*
X0102672Y0047157D01*
X0114642Y0013887D02*
X0112142Y0011387D01*
X0112142Y0006387D01*
X0114642Y0003887D01*
X0119642Y0003887D01*
X0122142Y0006387D01*
X0122142Y0011387D01*
X0119642Y0013887D01*
X0114642Y0013887D01*
X0125921Y0011387D02*
X0125921Y0006387D01*
X0128421Y0003887D01*
X0133421Y0003887D01*
X0135921Y0006387D01*
X0135921Y0011387D01*
X0133421Y0013887D01*
X0128421Y0013887D01*
X0125921Y0011387D01*
X0158249Y0016566D02*
X0162649Y0016566D01*
X0162649Y0028766D02*
X0161649Y0028766D01*
X0159249Y0028766D01*
X0158249Y0028766D01*
X0182260Y0034375D02*
X0182260Y0042375D01*
X0183260Y0043375D01*
X0182260Y0044375D01*
X0182260Y0052375D01*
X0183260Y0053375D01*
X0191260Y0053375D01*
X0192260Y0052375D01*
X0192260Y0044375D01*
X0191260Y0043375D01*
X0192260Y0042375D01*
X0192260Y0034375D01*
X0191260Y0033375D01*
X0183260Y0033375D01*
X0182260Y0034375D01*
X0112472Y0145583D02*
X0102672Y0145583D01*
X0100272Y0145583D01*
X0090472Y0145583D01*
X0090472Y0146683D01*
X0100272Y0145583D02*
X0100274Y0145652D01*
X0100280Y0145720D01*
X0100290Y0145788D01*
X0100303Y0145855D01*
X0100321Y0145921D01*
X0100342Y0145986D01*
X0100367Y0146050D01*
X0100395Y0146112D01*
X0100427Y0146173D01*
X0100462Y0146232D01*
X0100501Y0146288D01*
X0100543Y0146343D01*
X0100588Y0146394D01*
X0100636Y0146444D01*
X0100686Y0146490D01*
X0100739Y0146533D01*
X0100795Y0146574D01*
X0100852Y0146611D01*
X0100912Y0146644D01*
X0100974Y0146675D01*
X0101037Y0146701D01*
X0101101Y0146724D01*
X0101167Y0146744D01*
X0101234Y0146759D01*
X0101301Y0146771D01*
X0101369Y0146779D01*
X0101438Y0146783D01*
X0101506Y0146783D01*
X0101575Y0146779D01*
X0101643Y0146771D01*
X0101710Y0146759D01*
X0101777Y0146744D01*
X0101843Y0146724D01*
X0101907Y0146701D01*
X0101970Y0146675D01*
X0102032Y0146644D01*
X0102092Y0146611D01*
X0102149Y0146574D01*
X0102205Y0146533D01*
X0102258Y0146490D01*
X0102308Y0146444D01*
X0102356Y0146394D01*
X0102401Y0146343D01*
X0102443Y0146288D01*
X0102482Y0146232D01*
X0102517Y0146173D01*
X0102549Y0146112D01*
X0102577Y0146050D01*
X0102602Y0145986D01*
X0102623Y0145921D01*
X0102641Y0145855D01*
X0102654Y0145788D01*
X0102664Y0145720D01*
X0102670Y0145652D01*
X0102672Y0145583D01*
X0112472Y0145583D02*
X0112472Y0146683D01*
X0112472Y0174083D02*
X0112472Y0175183D01*
X0090472Y0175183D01*
X0090472Y0174083D01*
X0089996Y0182587D02*
X0087496Y0185087D01*
X0087496Y0190087D01*
X0089996Y0192587D01*
X0094996Y0192587D01*
X0097496Y0190087D01*
X0099996Y0192587D01*
X0104996Y0192587D01*
X0107496Y0190087D01*
X0109996Y0192587D01*
X0114996Y0192587D01*
X0117496Y0190087D01*
X0119996Y0192587D01*
X0124996Y0192587D01*
X0127496Y0190087D01*
X0129996Y0192587D01*
X0134996Y0192587D01*
X0137496Y0190087D01*
X0137496Y0185087D01*
X0134996Y0182587D01*
X0129996Y0182587D01*
X0127496Y0185087D01*
X0124996Y0182587D01*
X0119996Y0182587D01*
X0117496Y0185087D01*
X0114996Y0182587D01*
X0109996Y0182587D01*
X0107496Y0185087D01*
X0104996Y0182587D01*
X0099996Y0182587D01*
X0097496Y0185087D01*
X0094996Y0182587D01*
X0089996Y0182587D01*
X0145173Y0185127D02*
X0147673Y0182627D01*
X0152673Y0182627D01*
X0155173Y0185127D01*
X0157673Y0182627D01*
X0162673Y0182627D01*
X0165173Y0185127D01*
X0167673Y0182627D01*
X0172673Y0182627D01*
X0175173Y0185127D01*
X0177673Y0182627D01*
X0182673Y0182627D01*
X0185173Y0185127D01*
X0185173Y0190127D01*
X0182673Y0192627D01*
X0177673Y0192627D01*
X0175173Y0190127D01*
X0172673Y0192627D01*
X0167673Y0192627D01*
X0165173Y0190127D01*
X0162673Y0192627D01*
X0157673Y0192627D01*
X0155173Y0190127D01*
X0152673Y0192627D01*
X0147673Y0192627D01*
X0145173Y0190127D01*
X0145173Y0185127D01*
X0056394Y0125857D02*
X0056392Y0125913D01*
X0056386Y0125968D01*
X0056377Y0126023D01*
X0056363Y0126078D01*
X0056346Y0126131D01*
X0056325Y0126182D01*
X0056300Y0126233D01*
X0056272Y0126281D01*
X0056241Y0126327D01*
X0056207Y0126371D01*
X0056169Y0126413D01*
X0056129Y0126452D01*
X0056087Y0126487D01*
X0056041Y0126520D01*
X0055994Y0126550D01*
X0055945Y0126576D01*
X0055894Y0126599D01*
X0055841Y0126618D01*
X0055788Y0126633D01*
X0055733Y0126645D01*
X0055678Y0126653D01*
X0055622Y0126657D01*
X0055566Y0126657D01*
X0055510Y0126653D01*
X0055455Y0126645D01*
X0055400Y0126633D01*
X0055347Y0126618D01*
X0055294Y0126599D01*
X0055243Y0126576D01*
X0055194Y0126550D01*
X0055147Y0126520D01*
X0055101Y0126487D01*
X0055059Y0126452D01*
X0055019Y0126413D01*
X0054981Y0126371D01*
X0054947Y0126327D01*
X0054916Y0126281D01*
X0054888Y0126233D01*
X0054863Y0126182D01*
X0054842Y0126131D01*
X0054825Y0126078D01*
X0054811Y0126023D01*
X0054802Y0125968D01*
X0054796Y0125913D01*
X0054794Y0125857D01*
X0054796Y0125801D01*
X0054802Y0125746D01*
X0054811Y0125691D01*
X0054825Y0125636D01*
X0054842Y0125583D01*
X0054863Y0125532D01*
X0054888Y0125481D01*
X0054916Y0125433D01*
X0054947Y0125387D01*
X0054981Y0125343D01*
X0055019Y0125301D01*
X0055059Y0125262D01*
X0055101Y0125227D01*
X0055147Y0125194D01*
X0055194Y0125164D01*
X0055243Y0125138D01*
X0055294Y0125115D01*
X0055347Y0125096D01*
X0055400Y0125081D01*
X0055455Y0125069D01*
X0055510Y0125061D01*
X0055566Y0125057D01*
X0055622Y0125057D01*
X0055678Y0125061D01*
X0055733Y0125069D01*
X0055788Y0125081D01*
X0055841Y0125096D01*
X0055894Y0125115D01*
X0055945Y0125138D01*
X0055994Y0125164D01*
X0056041Y0125194D01*
X0056087Y0125227D01*
X0056129Y0125262D01*
X0056169Y0125301D01*
X0056207Y0125343D01*
X0056241Y0125387D01*
X0056272Y0125433D01*
X0056300Y0125481D01*
X0056325Y0125532D01*
X0056346Y0125583D01*
X0056363Y0125636D01*
X0056377Y0125691D01*
X0056386Y0125746D01*
X0056392Y0125801D01*
X0056394Y0125857D01*
X0056394Y0027432D02*
X0056392Y0027488D01*
X0056386Y0027543D01*
X0056377Y0027598D01*
X0056363Y0027653D01*
X0056346Y0027706D01*
X0056325Y0027757D01*
X0056300Y0027808D01*
X0056272Y0027856D01*
X0056241Y0027902D01*
X0056207Y0027946D01*
X0056169Y0027988D01*
X0056129Y0028027D01*
X0056087Y0028062D01*
X0056041Y0028095D01*
X0055994Y0028125D01*
X0055945Y0028151D01*
X0055894Y0028174D01*
X0055841Y0028193D01*
X0055788Y0028208D01*
X0055733Y0028220D01*
X0055678Y0028228D01*
X0055622Y0028232D01*
X0055566Y0028232D01*
X0055510Y0028228D01*
X0055455Y0028220D01*
X0055400Y0028208D01*
X0055347Y0028193D01*
X0055294Y0028174D01*
X0055243Y0028151D01*
X0055194Y0028125D01*
X0055147Y0028095D01*
X0055101Y0028062D01*
X0055059Y0028027D01*
X0055019Y0027988D01*
X0054981Y0027946D01*
X0054947Y0027902D01*
X0054916Y0027856D01*
X0054888Y0027808D01*
X0054863Y0027757D01*
X0054842Y0027706D01*
X0054825Y0027653D01*
X0054811Y0027598D01*
X0054802Y0027543D01*
X0054796Y0027488D01*
X0054794Y0027432D01*
X0054796Y0027376D01*
X0054802Y0027321D01*
X0054811Y0027266D01*
X0054825Y0027211D01*
X0054842Y0027158D01*
X0054863Y0027107D01*
X0054888Y0027056D01*
X0054916Y0027008D01*
X0054947Y0026962D01*
X0054981Y0026918D01*
X0055019Y0026876D01*
X0055059Y0026837D01*
X0055101Y0026802D01*
X0055147Y0026769D01*
X0055194Y0026739D01*
X0055243Y0026713D01*
X0055294Y0026690D01*
X0055347Y0026671D01*
X0055400Y0026656D01*
X0055455Y0026644D01*
X0055510Y0026636D01*
X0055566Y0026632D01*
X0055622Y0026632D01*
X0055678Y0026636D01*
X0055733Y0026644D01*
X0055788Y0026656D01*
X0055841Y0026671D01*
X0055894Y0026690D01*
X0055945Y0026713D01*
X0055994Y0026739D01*
X0056041Y0026769D01*
X0056087Y0026802D01*
X0056129Y0026837D01*
X0056169Y0026876D01*
X0056207Y0026918D01*
X0056241Y0026962D01*
X0056272Y0027008D01*
X0056300Y0027056D01*
X0056325Y0027107D01*
X0056346Y0027158D01*
X0056363Y0027211D01*
X0056377Y0027266D01*
X0056386Y0027321D01*
X0056392Y0027376D01*
X0056394Y0027432D01*
D15*
X0048638Y0025068D02*
X0048638Y0097871D01*
X0001394Y0097871D01*
X0001394Y0025068D01*
X0048638Y0025068D01*
X0086591Y0010107D02*
X0086593Y0010248D01*
X0086599Y0010389D01*
X0086609Y0010529D01*
X0086623Y0010669D01*
X0086641Y0010809D01*
X0086662Y0010948D01*
X0086688Y0011087D01*
X0086717Y0011225D01*
X0086751Y0011361D01*
X0086788Y0011497D01*
X0086829Y0011632D01*
X0086874Y0011766D01*
X0086923Y0011898D01*
X0086975Y0012029D01*
X0087031Y0012158D01*
X0087091Y0012285D01*
X0087154Y0012411D01*
X0087220Y0012535D01*
X0087291Y0012658D01*
X0087364Y0012778D01*
X0087441Y0012896D01*
X0087521Y0013012D01*
X0087605Y0013125D01*
X0087691Y0013236D01*
X0087781Y0013345D01*
X0087874Y0013451D01*
X0087969Y0013554D01*
X0088068Y0013655D01*
X0088169Y0013753D01*
X0088273Y0013848D01*
X0088380Y0013940D01*
X0088489Y0014029D01*
X0088601Y0014114D01*
X0088715Y0014197D01*
X0088831Y0014277D01*
X0088950Y0014353D01*
X0089071Y0014425D01*
X0089193Y0014495D01*
X0089318Y0014560D01*
X0089444Y0014623D01*
X0089572Y0014681D01*
X0089702Y0014736D01*
X0089833Y0014788D01*
X0089966Y0014835D01*
X0090100Y0014879D01*
X0090235Y0014920D01*
X0090371Y0014956D01*
X0090508Y0014988D01*
X0090646Y0015017D01*
X0090784Y0015042D01*
X0090924Y0015062D01*
X0091064Y0015079D01*
X0091204Y0015092D01*
X0091345Y0015101D01*
X0091485Y0015106D01*
X0091626Y0015107D01*
X0091767Y0015104D01*
X0091908Y0015097D01*
X0092048Y0015086D01*
X0092188Y0015071D01*
X0092328Y0015052D01*
X0092467Y0015030D01*
X0092605Y0015003D01*
X0092743Y0014973D01*
X0092879Y0014938D01*
X0093015Y0014900D01*
X0093149Y0014858D01*
X0093283Y0014812D01*
X0093415Y0014763D01*
X0093545Y0014709D01*
X0093674Y0014652D01*
X0093801Y0014592D01*
X0093927Y0014528D01*
X0094050Y0014460D01*
X0094172Y0014389D01*
X0094292Y0014315D01*
X0094409Y0014237D01*
X0094524Y0014156D01*
X0094637Y0014072D01*
X0094748Y0013985D01*
X0094856Y0013894D01*
X0094961Y0013801D01*
X0095064Y0013704D01*
X0095164Y0013605D01*
X0095261Y0013503D01*
X0095355Y0013398D01*
X0095446Y0013291D01*
X0095534Y0013181D01*
X0095619Y0013069D01*
X0095701Y0012954D01*
X0095780Y0012837D01*
X0095855Y0012718D01*
X0095927Y0012597D01*
X0095995Y0012474D01*
X0096060Y0012349D01*
X0096122Y0012222D01*
X0096179Y0012093D01*
X0096234Y0011963D01*
X0096284Y0011832D01*
X0096331Y0011699D01*
X0096374Y0011565D01*
X0096413Y0011429D01*
X0096448Y0011293D01*
X0096480Y0011156D01*
X0096507Y0011018D01*
X0096531Y0010879D01*
X0096551Y0010739D01*
X0096567Y0010599D01*
X0096579Y0010459D01*
X0096587Y0010318D01*
X0096591Y0010177D01*
X0096591Y0010037D01*
X0096587Y0009896D01*
X0096579Y0009755D01*
X0096567Y0009615D01*
X0096551Y0009475D01*
X0096531Y0009335D01*
X0096507Y0009196D01*
X0096480Y0009058D01*
X0096448Y0008921D01*
X0096413Y0008785D01*
X0096374Y0008649D01*
X0096331Y0008515D01*
X0096284Y0008382D01*
X0096234Y0008251D01*
X0096179Y0008121D01*
X0096122Y0007992D01*
X0096060Y0007865D01*
X0095995Y0007740D01*
X0095927Y0007617D01*
X0095855Y0007496D01*
X0095780Y0007377D01*
X0095701Y0007260D01*
X0095619Y0007145D01*
X0095534Y0007033D01*
X0095446Y0006923D01*
X0095355Y0006816D01*
X0095261Y0006711D01*
X0095164Y0006609D01*
X0095064Y0006510D01*
X0094961Y0006413D01*
X0094856Y0006320D01*
X0094748Y0006229D01*
X0094637Y0006142D01*
X0094524Y0006058D01*
X0094409Y0005977D01*
X0094292Y0005899D01*
X0094172Y0005825D01*
X0094050Y0005754D01*
X0093927Y0005686D01*
X0093801Y0005622D01*
X0093674Y0005562D01*
X0093545Y0005505D01*
X0093415Y0005451D01*
X0093283Y0005402D01*
X0093149Y0005356D01*
X0093015Y0005314D01*
X0092879Y0005276D01*
X0092743Y0005241D01*
X0092605Y0005211D01*
X0092467Y0005184D01*
X0092328Y0005162D01*
X0092188Y0005143D01*
X0092048Y0005128D01*
X0091908Y0005117D01*
X0091767Y0005110D01*
X0091626Y0005107D01*
X0091485Y0005108D01*
X0091345Y0005113D01*
X0091204Y0005122D01*
X0091064Y0005135D01*
X0090924Y0005152D01*
X0090784Y0005172D01*
X0090646Y0005197D01*
X0090508Y0005226D01*
X0090371Y0005258D01*
X0090235Y0005294D01*
X0090100Y0005335D01*
X0089966Y0005379D01*
X0089833Y0005426D01*
X0089702Y0005478D01*
X0089572Y0005533D01*
X0089444Y0005591D01*
X0089318Y0005654D01*
X0089193Y0005719D01*
X0089071Y0005789D01*
X0088950Y0005861D01*
X0088831Y0005937D01*
X0088715Y0006017D01*
X0088601Y0006100D01*
X0088489Y0006185D01*
X0088380Y0006274D01*
X0088273Y0006366D01*
X0088169Y0006461D01*
X0088068Y0006559D01*
X0087969Y0006660D01*
X0087874Y0006763D01*
X0087781Y0006869D01*
X0087691Y0006978D01*
X0087605Y0007089D01*
X0087521Y0007202D01*
X0087441Y0007318D01*
X0087364Y0007436D01*
X0087291Y0007556D01*
X0087220Y0007679D01*
X0087154Y0007803D01*
X0087091Y0007929D01*
X0087031Y0008056D01*
X0086975Y0008185D01*
X0086923Y0008316D01*
X0086874Y0008448D01*
X0086829Y0008582D01*
X0086788Y0008717D01*
X0086751Y0008853D01*
X0086717Y0008989D01*
X0086688Y0009127D01*
X0086662Y0009266D01*
X0086641Y0009405D01*
X0086623Y0009545D01*
X0086609Y0009685D01*
X0086599Y0009825D01*
X0086593Y0009966D01*
X0086591Y0010107D01*
X0091393Y0077912D02*
X0090642Y0078663D01*
X0091393Y0077912D02*
X0092894Y0077912D01*
X0093645Y0078663D01*
X0093645Y0080164D01*
X0092894Y0080915D01*
X0092143Y0080915D01*
X0090642Y0080164D01*
X0090642Y0082416D01*
X0093645Y0082416D01*
X0086591Y0108532D02*
X0086593Y0108673D01*
X0086599Y0108814D01*
X0086609Y0108954D01*
X0086623Y0109094D01*
X0086641Y0109234D01*
X0086662Y0109373D01*
X0086688Y0109512D01*
X0086717Y0109650D01*
X0086751Y0109786D01*
X0086788Y0109922D01*
X0086829Y0110057D01*
X0086874Y0110191D01*
X0086923Y0110323D01*
X0086975Y0110454D01*
X0087031Y0110583D01*
X0087091Y0110710D01*
X0087154Y0110836D01*
X0087220Y0110960D01*
X0087291Y0111083D01*
X0087364Y0111203D01*
X0087441Y0111321D01*
X0087521Y0111437D01*
X0087605Y0111550D01*
X0087691Y0111661D01*
X0087781Y0111770D01*
X0087874Y0111876D01*
X0087969Y0111979D01*
X0088068Y0112080D01*
X0088169Y0112178D01*
X0088273Y0112273D01*
X0088380Y0112365D01*
X0088489Y0112454D01*
X0088601Y0112539D01*
X0088715Y0112622D01*
X0088831Y0112702D01*
X0088950Y0112778D01*
X0089071Y0112850D01*
X0089193Y0112920D01*
X0089318Y0112985D01*
X0089444Y0113048D01*
X0089572Y0113106D01*
X0089702Y0113161D01*
X0089833Y0113213D01*
X0089966Y0113260D01*
X0090100Y0113304D01*
X0090235Y0113345D01*
X0090371Y0113381D01*
X0090508Y0113413D01*
X0090646Y0113442D01*
X0090784Y0113467D01*
X0090924Y0113487D01*
X0091064Y0113504D01*
X0091204Y0113517D01*
X0091345Y0113526D01*
X0091485Y0113531D01*
X0091626Y0113532D01*
X0091767Y0113529D01*
X0091908Y0113522D01*
X0092048Y0113511D01*
X0092188Y0113496D01*
X0092328Y0113477D01*
X0092467Y0113455D01*
X0092605Y0113428D01*
X0092743Y0113398D01*
X0092879Y0113363D01*
X0093015Y0113325D01*
X0093149Y0113283D01*
X0093283Y0113237D01*
X0093415Y0113188D01*
X0093545Y0113134D01*
X0093674Y0113077D01*
X0093801Y0113017D01*
X0093927Y0112953D01*
X0094050Y0112885D01*
X0094172Y0112814D01*
X0094292Y0112740D01*
X0094409Y0112662D01*
X0094524Y0112581D01*
X0094637Y0112497D01*
X0094748Y0112410D01*
X0094856Y0112319D01*
X0094961Y0112226D01*
X0095064Y0112129D01*
X0095164Y0112030D01*
X0095261Y0111928D01*
X0095355Y0111823D01*
X0095446Y0111716D01*
X0095534Y0111606D01*
X0095619Y0111494D01*
X0095701Y0111379D01*
X0095780Y0111262D01*
X0095855Y0111143D01*
X0095927Y0111022D01*
X0095995Y0110899D01*
X0096060Y0110774D01*
X0096122Y0110647D01*
X0096179Y0110518D01*
X0096234Y0110388D01*
X0096284Y0110257D01*
X0096331Y0110124D01*
X0096374Y0109990D01*
X0096413Y0109854D01*
X0096448Y0109718D01*
X0096480Y0109581D01*
X0096507Y0109443D01*
X0096531Y0109304D01*
X0096551Y0109164D01*
X0096567Y0109024D01*
X0096579Y0108884D01*
X0096587Y0108743D01*
X0096591Y0108602D01*
X0096591Y0108462D01*
X0096587Y0108321D01*
X0096579Y0108180D01*
X0096567Y0108040D01*
X0096551Y0107900D01*
X0096531Y0107760D01*
X0096507Y0107621D01*
X0096480Y0107483D01*
X0096448Y0107346D01*
X0096413Y0107210D01*
X0096374Y0107074D01*
X0096331Y0106940D01*
X0096284Y0106807D01*
X0096234Y0106676D01*
X0096179Y0106546D01*
X0096122Y0106417D01*
X0096060Y0106290D01*
X0095995Y0106165D01*
X0095927Y0106042D01*
X0095855Y0105921D01*
X0095780Y0105802D01*
X0095701Y0105685D01*
X0095619Y0105570D01*
X0095534Y0105458D01*
X0095446Y0105348D01*
X0095355Y0105241D01*
X0095261Y0105136D01*
X0095164Y0105034D01*
X0095064Y0104935D01*
X0094961Y0104838D01*
X0094856Y0104745D01*
X0094748Y0104654D01*
X0094637Y0104567D01*
X0094524Y0104483D01*
X0094409Y0104402D01*
X0094292Y0104324D01*
X0094172Y0104250D01*
X0094050Y0104179D01*
X0093927Y0104111D01*
X0093801Y0104047D01*
X0093674Y0103987D01*
X0093545Y0103930D01*
X0093415Y0103876D01*
X0093283Y0103827D01*
X0093149Y0103781D01*
X0093015Y0103739D01*
X0092879Y0103701D01*
X0092743Y0103666D01*
X0092605Y0103636D01*
X0092467Y0103609D01*
X0092328Y0103587D01*
X0092188Y0103568D01*
X0092048Y0103553D01*
X0091908Y0103542D01*
X0091767Y0103535D01*
X0091626Y0103532D01*
X0091485Y0103533D01*
X0091345Y0103538D01*
X0091204Y0103547D01*
X0091064Y0103560D01*
X0090924Y0103577D01*
X0090784Y0103597D01*
X0090646Y0103622D01*
X0090508Y0103651D01*
X0090371Y0103683D01*
X0090235Y0103719D01*
X0090100Y0103760D01*
X0089966Y0103804D01*
X0089833Y0103851D01*
X0089702Y0103903D01*
X0089572Y0103958D01*
X0089444Y0104016D01*
X0089318Y0104079D01*
X0089193Y0104144D01*
X0089071Y0104214D01*
X0088950Y0104286D01*
X0088831Y0104362D01*
X0088715Y0104442D01*
X0088601Y0104525D01*
X0088489Y0104610D01*
X0088380Y0104699D01*
X0088273Y0104791D01*
X0088169Y0104886D01*
X0088068Y0104984D01*
X0087969Y0105085D01*
X0087874Y0105188D01*
X0087781Y0105294D01*
X0087691Y0105403D01*
X0087605Y0105514D01*
X0087521Y0105627D01*
X0087441Y0105743D01*
X0087364Y0105861D01*
X0087291Y0105981D01*
X0087220Y0106104D01*
X0087154Y0106228D01*
X0087091Y0106354D01*
X0087031Y0106481D01*
X0086975Y0106610D01*
X0086923Y0106741D01*
X0086874Y0106873D01*
X0086829Y0107007D01*
X0086788Y0107142D01*
X0086751Y0107278D01*
X0086717Y0107414D01*
X0086688Y0107552D01*
X0086662Y0107691D01*
X0086641Y0107830D01*
X0086623Y0107970D01*
X0086609Y0108110D01*
X0086599Y0108250D01*
X0086593Y0108391D01*
X0086591Y0108532D01*
X0048638Y0123493D02*
X0048638Y0196296D01*
X0001394Y0196296D01*
X0001394Y0123493D01*
X0048638Y0123493D01*
X0091393Y0176337D02*
X0090642Y0177088D01*
X0091393Y0176337D02*
X0092894Y0176337D01*
X0093645Y0177088D01*
X0093645Y0178589D01*
X0092894Y0179340D01*
X0092143Y0179340D01*
X0090642Y0178589D01*
X0090642Y0180841D01*
X0093645Y0180841D01*
X0136642Y0184337D02*
X0139645Y0184337D01*
X0138143Y0184337D02*
X0138143Y0188841D01*
X0136642Y0187340D01*
X0140923Y0188379D02*
X0142425Y0189881D01*
X0142425Y0185377D01*
X0143926Y0185377D02*
X0140923Y0185377D01*
X0186423Y0187629D02*
X0189426Y0187629D01*
X0188675Y0185377D02*
X0188675Y0189881D01*
X0186423Y0187629D01*
X0188675Y0091455D02*
X0186423Y0089203D01*
X0189426Y0089203D01*
X0188675Y0086952D02*
X0188675Y0091455D01*
X0143926Y0086952D02*
X0140923Y0086952D01*
X0142425Y0086952D02*
X0142425Y0091455D01*
X0140923Y0089954D01*
X0138143Y0090416D02*
X0138143Y0085912D01*
X0136642Y0085912D02*
X0139645Y0085912D01*
X0136642Y0088915D02*
X0138143Y0090416D01*
D16*
X0186433Y0058099D03*
X0186433Y0156524D03*
X0078953Y0189595D03*
X0078953Y0091170D03*
M02*
