G75*
%MOIN*%
%OFA0B0*%
%FSLAX25Y25*%
%IPPOS*%
%LPD*%
%AMOC8*
5,1,8,0,0,1.08239X$1,22.5*
%
%ADD10C,0.00000*%
%ADD11R,0.05118X0.05906*%
%ADD12R,0.05906X0.05118*%
%ADD13R,0.04200X0.08600*%
%ADD14R,0.04724X0.04724*%
%ADD15R,0.05200X0.02200*%
%ADD16R,0.06500X0.01700*%
%ADD17R,0.02800X0.01600*%
%ADD18R,0.05900X0.09400*%
%ADD19R,0.03200X0.06600*%
D10*
X0001000Y0001013D02*
X0197850Y0001013D01*
X0197850Y0099438D01*
X0001000Y0099438D01*
X0001000Y0197863D01*
X0197850Y0197863D01*
X0197850Y0099438D01*
X0188795Y0093139D02*
X0188797Y0093227D01*
X0188803Y0093315D01*
X0188813Y0093403D01*
X0188827Y0093491D01*
X0188844Y0093577D01*
X0188866Y0093663D01*
X0188891Y0093747D01*
X0188921Y0093831D01*
X0188953Y0093913D01*
X0188990Y0093993D01*
X0189030Y0094072D01*
X0189074Y0094149D01*
X0189121Y0094224D01*
X0189171Y0094296D01*
X0189225Y0094367D01*
X0189281Y0094434D01*
X0189341Y0094500D01*
X0189403Y0094562D01*
X0189469Y0094622D01*
X0189536Y0094678D01*
X0189607Y0094732D01*
X0189679Y0094782D01*
X0189754Y0094829D01*
X0189831Y0094873D01*
X0189910Y0094913D01*
X0189990Y0094950D01*
X0190072Y0094982D01*
X0190156Y0095012D01*
X0190240Y0095037D01*
X0190326Y0095059D01*
X0190412Y0095076D01*
X0190500Y0095090D01*
X0190588Y0095100D01*
X0190676Y0095106D01*
X0190764Y0095108D01*
X0190852Y0095106D01*
X0190940Y0095100D01*
X0191028Y0095090D01*
X0191116Y0095076D01*
X0191202Y0095059D01*
X0191288Y0095037D01*
X0191372Y0095012D01*
X0191456Y0094982D01*
X0191538Y0094950D01*
X0191618Y0094913D01*
X0191697Y0094873D01*
X0191774Y0094829D01*
X0191849Y0094782D01*
X0191921Y0094732D01*
X0191992Y0094678D01*
X0192059Y0094622D01*
X0192125Y0094562D01*
X0192187Y0094500D01*
X0192247Y0094434D01*
X0192303Y0094367D01*
X0192357Y0094296D01*
X0192407Y0094224D01*
X0192454Y0094149D01*
X0192498Y0094072D01*
X0192538Y0093993D01*
X0192575Y0093913D01*
X0192607Y0093831D01*
X0192637Y0093747D01*
X0192662Y0093663D01*
X0192684Y0093577D01*
X0192701Y0093491D01*
X0192715Y0093403D01*
X0192725Y0093315D01*
X0192731Y0093227D01*
X0192733Y0093139D01*
X0192731Y0093051D01*
X0192725Y0092963D01*
X0192715Y0092875D01*
X0192701Y0092787D01*
X0192684Y0092701D01*
X0192662Y0092615D01*
X0192637Y0092531D01*
X0192607Y0092447D01*
X0192575Y0092365D01*
X0192538Y0092285D01*
X0192498Y0092206D01*
X0192454Y0092129D01*
X0192407Y0092054D01*
X0192357Y0091982D01*
X0192303Y0091911D01*
X0192247Y0091844D01*
X0192187Y0091778D01*
X0192125Y0091716D01*
X0192059Y0091656D01*
X0191992Y0091600D01*
X0191921Y0091546D01*
X0191849Y0091496D01*
X0191774Y0091449D01*
X0191697Y0091405D01*
X0191618Y0091365D01*
X0191538Y0091328D01*
X0191456Y0091296D01*
X0191372Y0091266D01*
X0191288Y0091241D01*
X0191202Y0091219D01*
X0191116Y0091202D01*
X0191028Y0091188D01*
X0190940Y0091178D01*
X0190852Y0091172D01*
X0190764Y0091170D01*
X0190676Y0091172D01*
X0190588Y0091178D01*
X0190500Y0091188D01*
X0190412Y0091202D01*
X0190326Y0091219D01*
X0190240Y0091241D01*
X0190156Y0091266D01*
X0190072Y0091296D01*
X0189990Y0091328D01*
X0189910Y0091365D01*
X0189831Y0091405D01*
X0189754Y0091449D01*
X0189679Y0091496D01*
X0189607Y0091546D01*
X0189536Y0091600D01*
X0189469Y0091656D01*
X0189403Y0091716D01*
X0189341Y0091778D01*
X0189281Y0091844D01*
X0189225Y0091911D01*
X0189171Y0091982D01*
X0189121Y0092054D01*
X0189074Y0092129D01*
X0189030Y0092206D01*
X0188990Y0092285D01*
X0188953Y0092365D01*
X0188921Y0092447D01*
X0188891Y0092531D01*
X0188866Y0092615D01*
X0188844Y0092701D01*
X0188827Y0092787D01*
X0188813Y0092875D01*
X0188803Y0092963D01*
X0188797Y0093051D01*
X0188795Y0093139D01*
X0188401Y0106918D02*
X0188403Y0107006D01*
X0188409Y0107094D01*
X0188419Y0107182D01*
X0188433Y0107270D01*
X0188450Y0107356D01*
X0188472Y0107442D01*
X0188497Y0107526D01*
X0188527Y0107610D01*
X0188559Y0107692D01*
X0188596Y0107772D01*
X0188636Y0107851D01*
X0188680Y0107928D01*
X0188727Y0108003D01*
X0188777Y0108075D01*
X0188831Y0108146D01*
X0188887Y0108213D01*
X0188947Y0108279D01*
X0189009Y0108341D01*
X0189075Y0108401D01*
X0189142Y0108457D01*
X0189213Y0108511D01*
X0189285Y0108561D01*
X0189360Y0108608D01*
X0189437Y0108652D01*
X0189516Y0108692D01*
X0189596Y0108729D01*
X0189678Y0108761D01*
X0189762Y0108791D01*
X0189846Y0108816D01*
X0189932Y0108838D01*
X0190018Y0108855D01*
X0190106Y0108869D01*
X0190194Y0108879D01*
X0190282Y0108885D01*
X0190370Y0108887D01*
X0190458Y0108885D01*
X0190546Y0108879D01*
X0190634Y0108869D01*
X0190722Y0108855D01*
X0190808Y0108838D01*
X0190894Y0108816D01*
X0190978Y0108791D01*
X0191062Y0108761D01*
X0191144Y0108729D01*
X0191224Y0108692D01*
X0191303Y0108652D01*
X0191380Y0108608D01*
X0191455Y0108561D01*
X0191527Y0108511D01*
X0191598Y0108457D01*
X0191665Y0108401D01*
X0191731Y0108341D01*
X0191793Y0108279D01*
X0191853Y0108213D01*
X0191909Y0108146D01*
X0191963Y0108075D01*
X0192013Y0108003D01*
X0192060Y0107928D01*
X0192104Y0107851D01*
X0192144Y0107772D01*
X0192181Y0107692D01*
X0192213Y0107610D01*
X0192243Y0107526D01*
X0192268Y0107442D01*
X0192290Y0107356D01*
X0192307Y0107270D01*
X0192321Y0107182D01*
X0192331Y0107094D01*
X0192337Y0107006D01*
X0192339Y0106918D01*
X0192337Y0106830D01*
X0192331Y0106742D01*
X0192321Y0106654D01*
X0192307Y0106566D01*
X0192290Y0106480D01*
X0192268Y0106394D01*
X0192243Y0106310D01*
X0192213Y0106226D01*
X0192181Y0106144D01*
X0192144Y0106064D01*
X0192104Y0105985D01*
X0192060Y0105908D01*
X0192013Y0105833D01*
X0191963Y0105761D01*
X0191909Y0105690D01*
X0191853Y0105623D01*
X0191793Y0105557D01*
X0191731Y0105495D01*
X0191665Y0105435D01*
X0191598Y0105379D01*
X0191527Y0105325D01*
X0191455Y0105275D01*
X0191380Y0105228D01*
X0191303Y0105184D01*
X0191224Y0105144D01*
X0191144Y0105107D01*
X0191062Y0105075D01*
X0190978Y0105045D01*
X0190894Y0105020D01*
X0190808Y0104998D01*
X0190722Y0104981D01*
X0190634Y0104967D01*
X0190546Y0104957D01*
X0190458Y0104951D01*
X0190370Y0104949D01*
X0190282Y0104951D01*
X0190194Y0104957D01*
X0190106Y0104967D01*
X0190018Y0104981D01*
X0189932Y0104998D01*
X0189846Y0105020D01*
X0189762Y0105045D01*
X0189678Y0105075D01*
X0189596Y0105107D01*
X0189516Y0105144D01*
X0189437Y0105184D01*
X0189360Y0105228D01*
X0189285Y0105275D01*
X0189213Y0105325D01*
X0189142Y0105379D01*
X0189075Y0105435D01*
X0189009Y0105495D01*
X0188947Y0105557D01*
X0188887Y0105623D01*
X0188831Y0105690D01*
X0188777Y0105761D01*
X0188727Y0105833D01*
X0188680Y0105908D01*
X0188636Y0105985D01*
X0188596Y0106064D01*
X0188559Y0106144D01*
X0188527Y0106226D01*
X0188497Y0106310D01*
X0188472Y0106394D01*
X0188450Y0106480D01*
X0188433Y0106566D01*
X0188419Y0106654D01*
X0188409Y0106742D01*
X0188403Y0106830D01*
X0188401Y0106918D01*
X0188795Y0191564D02*
X0188797Y0191652D01*
X0188803Y0191740D01*
X0188813Y0191828D01*
X0188827Y0191916D01*
X0188844Y0192002D01*
X0188866Y0192088D01*
X0188891Y0192172D01*
X0188921Y0192256D01*
X0188953Y0192338D01*
X0188990Y0192418D01*
X0189030Y0192497D01*
X0189074Y0192574D01*
X0189121Y0192649D01*
X0189171Y0192721D01*
X0189225Y0192792D01*
X0189281Y0192859D01*
X0189341Y0192925D01*
X0189403Y0192987D01*
X0189469Y0193047D01*
X0189536Y0193103D01*
X0189607Y0193157D01*
X0189679Y0193207D01*
X0189754Y0193254D01*
X0189831Y0193298D01*
X0189910Y0193338D01*
X0189990Y0193375D01*
X0190072Y0193407D01*
X0190156Y0193437D01*
X0190240Y0193462D01*
X0190326Y0193484D01*
X0190412Y0193501D01*
X0190500Y0193515D01*
X0190588Y0193525D01*
X0190676Y0193531D01*
X0190764Y0193533D01*
X0190852Y0193531D01*
X0190940Y0193525D01*
X0191028Y0193515D01*
X0191116Y0193501D01*
X0191202Y0193484D01*
X0191288Y0193462D01*
X0191372Y0193437D01*
X0191456Y0193407D01*
X0191538Y0193375D01*
X0191618Y0193338D01*
X0191697Y0193298D01*
X0191774Y0193254D01*
X0191849Y0193207D01*
X0191921Y0193157D01*
X0191992Y0193103D01*
X0192059Y0193047D01*
X0192125Y0192987D01*
X0192187Y0192925D01*
X0192247Y0192859D01*
X0192303Y0192792D01*
X0192357Y0192721D01*
X0192407Y0192649D01*
X0192454Y0192574D01*
X0192498Y0192497D01*
X0192538Y0192418D01*
X0192575Y0192338D01*
X0192607Y0192256D01*
X0192637Y0192172D01*
X0192662Y0192088D01*
X0192684Y0192002D01*
X0192701Y0191916D01*
X0192715Y0191828D01*
X0192725Y0191740D01*
X0192731Y0191652D01*
X0192733Y0191564D01*
X0192731Y0191476D01*
X0192725Y0191388D01*
X0192715Y0191300D01*
X0192701Y0191212D01*
X0192684Y0191126D01*
X0192662Y0191040D01*
X0192637Y0190956D01*
X0192607Y0190872D01*
X0192575Y0190790D01*
X0192538Y0190710D01*
X0192498Y0190631D01*
X0192454Y0190554D01*
X0192407Y0190479D01*
X0192357Y0190407D01*
X0192303Y0190336D01*
X0192247Y0190269D01*
X0192187Y0190203D01*
X0192125Y0190141D01*
X0192059Y0190081D01*
X0191992Y0190025D01*
X0191921Y0189971D01*
X0191849Y0189921D01*
X0191774Y0189874D01*
X0191697Y0189830D01*
X0191618Y0189790D01*
X0191538Y0189753D01*
X0191456Y0189721D01*
X0191372Y0189691D01*
X0191288Y0189666D01*
X0191202Y0189644D01*
X0191116Y0189627D01*
X0191028Y0189613D01*
X0190940Y0189603D01*
X0190852Y0189597D01*
X0190764Y0189595D01*
X0190676Y0189597D01*
X0190588Y0189603D01*
X0190500Y0189613D01*
X0190412Y0189627D01*
X0190326Y0189644D01*
X0190240Y0189666D01*
X0190156Y0189691D01*
X0190072Y0189721D01*
X0189990Y0189753D01*
X0189910Y0189790D01*
X0189831Y0189830D01*
X0189754Y0189874D01*
X0189679Y0189921D01*
X0189607Y0189971D01*
X0189536Y0190025D01*
X0189469Y0190081D01*
X0189403Y0190141D01*
X0189341Y0190203D01*
X0189281Y0190269D01*
X0189225Y0190336D01*
X0189171Y0190407D01*
X0189121Y0190479D01*
X0189074Y0190554D01*
X0189030Y0190631D01*
X0188990Y0190710D01*
X0188953Y0190790D01*
X0188921Y0190872D01*
X0188891Y0190956D01*
X0188866Y0191040D01*
X0188844Y0191126D01*
X0188827Y0191212D01*
X0188813Y0191300D01*
X0188803Y0191388D01*
X0188797Y0191476D01*
X0188795Y0191564D01*
X0052181Y0172272D02*
X0052183Y0172360D01*
X0052189Y0172448D01*
X0052199Y0172536D01*
X0052213Y0172624D01*
X0052230Y0172710D01*
X0052252Y0172796D01*
X0052277Y0172880D01*
X0052307Y0172964D01*
X0052339Y0173046D01*
X0052376Y0173126D01*
X0052416Y0173205D01*
X0052460Y0173282D01*
X0052507Y0173357D01*
X0052557Y0173429D01*
X0052611Y0173500D01*
X0052667Y0173567D01*
X0052727Y0173633D01*
X0052789Y0173695D01*
X0052855Y0173755D01*
X0052922Y0173811D01*
X0052993Y0173865D01*
X0053065Y0173915D01*
X0053140Y0173962D01*
X0053217Y0174006D01*
X0053296Y0174046D01*
X0053376Y0174083D01*
X0053458Y0174115D01*
X0053542Y0174145D01*
X0053626Y0174170D01*
X0053712Y0174192D01*
X0053798Y0174209D01*
X0053886Y0174223D01*
X0053974Y0174233D01*
X0054062Y0174239D01*
X0054150Y0174241D01*
X0054238Y0174239D01*
X0054326Y0174233D01*
X0054414Y0174223D01*
X0054502Y0174209D01*
X0054588Y0174192D01*
X0054674Y0174170D01*
X0054758Y0174145D01*
X0054842Y0174115D01*
X0054924Y0174083D01*
X0055004Y0174046D01*
X0055083Y0174006D01*
X0055160Y0173962D01*
X0055235Y0173915D01*
X0055307Y0173865D01*
X0055378Y0173811D01*
X0055445Y0173755D01*
X0055511Y0173695D01*
X0055573Y0173633D01*
X0055633Y0173567D01*
X0055689Y0173500D01*
X0055743Y0173429D01*
X0055793Y0173357D01*
X0055840Y0173282D01*
X0055884Y0173205D01*
X0055924Y0173126D01*
X0055961Y0173046D01*
X0055993Y0172964D01*
X0056023Y0172880D01*
X0056048Y0172796D01*
X0056070Y0172710D01*
X0056087Y0172624D01*
X0056101Y0172536D01*
X0056111Y0172448D01*
X0056117Y0172360D01*
X0056119Y0172272D01*
X0056117Y0172184D01*
X0056111Y0172096D01*
X0056101Y0172008D01*
X0056087Y0171920D01*
X0056070Y0171834D01*
X0056048Y0171748D01*
X0056023Y0171664D01*
X0055993Y0171580D01*
X0055961Y0171498D01*
X0055924Y0171418D01*
X0055884Y0171339D01*
X0055840Y0171262D01*
X0055793Y0171187D01*
X0055743Y0171115D01*
X0055689Y0171044D01*
X0055633Y0170977D01*
X0055573Y0170911D01*
X0055511Y0170849D01*
X0055445Y0170789D01*
X0055378Y0170733D01*
X0055307Y0170679D01*
X0055235Y0170629D01*
X0055160Y0170582D01*
X0055083Y0170538D01*
X0055004Y0170498D01*
X0054924Y0170461D01*
X0054842Y0170429D01*
X0054758Y0170399D01*
X0054674Y0170374D01*
X0054588Y0170352D01*
X0054502Y0170335D01*
X0054414Y0170321D01*
X0054326Y0170311D01*
X0054238Y0170305D01*
X0054150Y0170303D01*
X0054062Y0170305D01*
X0053974Y0170311D01*
X0053886Y0170321D01*
X0053798Y0170335D01*
X0053712Y0170352D01*
X0053626Y0170374D01*
X0053542Y0170399D01*
X0053458Y0170429D01*
X0053376Y0170461D01*
X0053296Y0170498D01*
X0053217Y0170538D01*
X0053140Y0170582D01*
X0053065Y0170629D01*
X0052993Y0170679D01*
X0052922Y0170733D01*
X0052855Y0170789D01*
X0052789Y0170849D01*
X0052727Y0170911D01*
X0052667Y0170977D01*
X0052611Y0171044D01*
X0052557Y0171115D01*
X0052507Y0171187D01*
X0052460Y0171262D01*
X0052416Y0171339D01*
X0052376Y0171418D01*
X0052339Y0171498D01*
X0052307Y0171580D01*
X0052277Y0171664D01*
X0052252Y0171748D01*
X0052230Y0171834D01*
X0052213Y0171920D01*
X0052199Y0172008D01*
X0052189Y0172096D01*
X0052183Y0172184D01*
X0052181Y0172272D01*
X0001000Y0099438D02*
X0001000Y0001013D01*
X0052181Y0073847D02*
X0052183Y0073935D01*
X0052189Y0074023D01*
X0052199Y0074111D01*
X0052213Y0074199D01*
X0052230Y0074285D01*
X0052252Y0074371D01*
X0052277Y0074455D01*
X0052307Y0074539D01*
X0052339Y0074621D01*
X0052376Y0074701D01*
X0052416Y0074780D01*
X0052460Y0074857D01*
X0052507Y0074932D01*
X0052557Y0075004D01*
X0052611Y0075075D01*
X0052667Y0075142D01*
X0052727Y0075208D01*
X0052789Y0075270D01*
X0052855Y0075330D01*
X0052922Y0075386D01*
X0052993Y0075440D01*
X0053065Y0075490D01*
X0053140Y0075537D01*
X0053217Y0075581D01*
X0053296Y0075621D01*
X0053376Y0075658D01*
X0053458Y0075690D01*
X0053542Y0075720D01*
X0053626Y0075745D01*
X0053712Y0075767D01*
X0053798Y0075784D01*
X0053886Y0075798D01*
X0053974Y0075808D01*
X0054062Y0075814D01*
X0054150Y0075816D01*
X0054238Y0075814D01*
X0054326Y0075808D01*
X0054414Y0075798D01*
X0054502Y0075784D01*
X0054588Y0075767D01*
X0054674Y0075745D01*
X0054758Y0075720D01*
X0054842Y0075690D01*
X0054924Y0075658D01*
X0055004Y0075621D01*
X0055083Y0075581D01*
X0055160Y0075537D01*
X0055235Y0075490D01*
X0055307Y0075440D01*
X0055378Y0075386D01*
X0055445Y0075330D01*
X0055511Y0075270D01*
X0055573Y0075208D01*
X0055633Y0075142D01*
X0055689Y0075075D01*
X0055743Y0075004D01*
X0055793Y0074932D01*
X0055840Y0074857D01*
X0055884Y0074780D01*
X0055924Y0074701D01*
X0055961Y0074621D01*
X0055993Y0074539D01*
X0056023Y0074455D01*
X0056048Y0074371D01*
X0056070Y0074285D01*
X0056087Y0074199D01*
X0056101Y0074111D01*
X0056111Y0074023D01*
X0056117Y0073935D01*
X0056119Y0073847D01*
X0056117Y0073759D01*
X0056111Y0073671D01*
X0056101Y0073583D01*
X0056087Y0073495D01*
X0056070Y0073409D01*
X0056048Y0073323D01*
X0056023Y0073239D01*
X0055993Y0073155D01*
X0055961Y0073073D01*
X0055924Y0072993D01*
X0055884Y0072914D01*
X0055840Y0072837D01*
X0055793Y0072762D01*
X0055743Y0072690D01*
X0055689Y0072619D01*
X0055633Y0072552D01*
X0055573Y0072486D01*
X0055511Y0072424D01*
X0055445Y0072364D01*
X0055378Y0072308D01*
X0055307Y0072254D01*
X0055235Y0072204D01*
X0055160Y0072157D01*
X0055083Y0072113D01*
X0055004Y0072073D01*
X0054924Y0072036D01*
X0054842Y0072004D01*
X0054758Y0071974D01*
X0054674Y0071949D01*
X0054588Y0071927D01*
X0054502Y0071910D01*
X0054414Y0071896D01*
X0054326Y0071886D01*
X0054238Y0071880D01*
X0054150Y0071878D01*
X0054062Y0071880D01*
X0053974Y0071886D01*
X0053886Y0071896D01*
X0053798Y0071910D01*
X0053712Y0071927D01*
X0053626Y0071949D01*
X0053542Y0071974D01*
X0053458Y0072004D01*
X0053376Y0072036D01*
X0053296Y0072073D01*
X0053217Y0072113D01*
X0053140Y0072157D01*
X0053065Y0072204D01*
X0052993Y0072254D01*
X0052922Y0072308D01*
X0052855Y0072364D01*
X0052789Y0072424D01*
X0052727Y0072486D01*
X0052667Y0072552D01*
X0052611Y0072619D01*
X0052557Y0072690D01*
X0052507Y0072762D01*
X0052460Y0072837D01*
X0052416Y0072914D01*
X0052376Y0072993D01*
X0052339Y0073073D01*
X0052307Y0073155D01*
X0052277Y0073239D01*
X0052252Y0073323D01*
X0052230Y0073409D01*
X0052213Y0073495D01*
X0052199Y0073583D01*
X0052189Y0073671D01*
X0052183Y0073759D01*
X0052181Y0073847D01*
X0188401Y0008493D02*
X0188403Y0008581D01*
X0188409Y0008669D01*
X0188419Y0008757D01*
X0188433Y0008845D01*
X0188450Y0008931D01*
X0188472Y0009017D01*
X0188497Y0009101D01*
X0188527Y0009185D01*
X0188559Y0009267D01*
X0188596Y0009347D01*
X0188636Y0009426D01*
X0188680Y0009503D01*
X0188727Y0009578D01*
X0188777Y0009650D01*
X0188831Y0009721D01*
X0188887Y0009788D01*
X0188947Y0009854D01*
X0189009Y0009916D01*
X0189075Y0009976D01*
X0189142Y0010032D01*
X0189213Y0010086D01*
X0189285Y0010136D01*
X0189360Y0010183D01*
X0189437Y0010227D01*
X0189516Y0010267D01*
X0189596Y0010304D01*
X0189678Y0010336D01*
X0189762Y0010366D01*
X0189846Y0010391D01*
X0189932Y0010413D01*
X0190018Y0010430D01*
X0190106Y0010444D01*
X0190194Y0010454D01*
X0190282Y0010460D01*
X0190370Y0010462D01*
X0190458Y0010460D01*
X0190546Y0010454D01*
X0190634Y0010444D01*
X0190722Y0010430D01*
X0190808Y0010413D01*
X0190894Y0010391D01*
X0190978Y0010366D01*
X0191062Y0010336D01*
X0191144Y0010304D01*
X0191224Y0010267D01*
X0191303Y0010227D01*
X0191380Y0010183D01*
X0191455Y0010136D01*
X0191527Y0010086D01*
X0191598Y0010032D01*
X0191665Y0009976D01*
X0191731Y0009916D01*
X0191793Y0009854D01*
X0191853Y0009788D01*
X0191909Y0009721D01*
X0191963Y0009650D01*
X0192013Y0009578D01*
X0192060Y0009503D01*
X0192104Y0009426D01*
X0192144Y0009347D01*
X0192181Y0009267D01*
X0192213Y0009185D01*
X0192243Y0009101D01*
X0192268Y0009017D01*
X0192290Y0008931D01*
X0192307Y0008845D01*
X0192321Y0008757D01*
X0192331Y0008669D01*
X0192337Y0008581D01*
X0192339Y0008493D01*
X0192337Y0008405D01*
X0192331Y0008317D01*
X0192321Y0008229D01*
X0192307Y0008141D01*
X0192290Y0008055D01*
X0192268Y0007969D01*
X0192243Y0007885D01*
X0192213Y0007801D01*
X0192181Y0007719D01*
X0192144Y0007639D01*
X0192104Y0007560D01*
X0192060Y0007483D01*
X0192013Y0007408D01*
X0191963Y0007336D01*
X0191909Y0007265D01*
X0191853Y0007198D01*
X0191793Y0007132D01*
X0191731Y0007070D01*
X0191665Y0007010D01*
X0191598Y0006954D01*
X0191527Y0006900D01*
X0191455Y0006850D01*
X0191380Y0006803D01*
X0191303Y0006759D01*
X0191224Y0006719D01*
X0191144Y0006682D01*
X0191062Y0006650D01*
X0190978Y0006620D01*
X0190894Y0006595D01*
X0190808Y0006573D01*
X0190722Y0006556D01*
X0190634Y0006542D01*
X0190546Y0006532D01*
X0190458Y0006526D01*
X0190370Y0006524D01*
X0190282Y0006526D01*
X0190194Y0006532D01*
X0190106Y0006542D01*
X0190018Y0006556D01*
X0189932Y0006573D01*
X0189846Y0006595D01*
X0189762Y0006620D01*
X0189678Y0006650D01*
X0189596Y0006682D01*
X0189516Y0006719D01*
X0189437Y0006759D01*
X0189360Y0006803D01*
X0189285Y0006850D01*
X0189213Y0006900D01*
X0189142Y0006954D01*
X0189075Y0007010D01*
X0189009Y0007070D01*
X0188947Y0007132D01*
X0188887Y0007198D01*
X0188831Y0007265D01*
X0188777Y0007336D01*
X0188727Y0007408D01*
X0188680Y0007483D01*
X0188636Y0007560D01*
X0188596Y0007639D01*
X0188559Y0007719D01*
X0188527Y0007801D01*
X0188497Y0007885D01*
X0188472Y0007969D01*
X0188450Y0008055D01*
X0188433Y0008141D01*
X0188419Y0008229D01*
X0188409Y0008317D01*
X0188403Y0008405D01*
X0188401Y0008493D01*
D11*
X0168126Y0010855D03*
X0160646Y0010855D03*
X0152378Y0010855D03*
X0144898Y0010855D03*
X0125016Y0020698D03*
X0117535Y0020698D03*
X0131118Y0042351D03*
X0138598Y0042351D03*
X0138598Y0050422D03*
X0131118Y0050422D03*
X0156551Y0033178D03*
X0164031Y0033178D03*
X0167535Y0058099D03*
X0175016Y0058099D03*
X0132299Y0078965D03*
X0124819Y0078965D03*
X0144898Y0109280D03*
X0152378Y0109280D03*
X0160646Y0109280D03*
X0168126Y0109280D03*
X0164031Y0131603D03*
X0156551Y0131603D03*
X0138598Y0140776D03*
X0131118Y0140776D03*
X0131118Y0148847D03*
X0138598Y0148847D03*
X0132299Y0177391D03*
X0124819Y0177391D03*
X0167535Y0156524D03*
X0175016Y0156524D03*
X0125016Y0119123D03*
X0117535Y0119123D03*
X0069976Y0133965D03*
X0062496Y0133965D03*
X0060134Y0107745D03*
X0067614Y0107745D03*
X0032496Y0109280D03*
X0025016Y0109280D03*
X0016551Y0109280D03*
X0009071Y0109280D03*
X0062496Y0035540D03*
X0069976Y0035540D03*
X0067614Y0009320D03*
X0060134Y0009320D03*
X0032496Y0010855D03*
X0025016Y0010855D03*
X0016551Y0010855D03*
X0009071Y0010855D03*
D12*
X0080055Y0020934D03*
X0080055Y0028414D03*
X0093126Y0028375D03*
X0093126Y0020894D03*
X0101197Y0020894D03*
X0101197Y0028375D03*
X0109268Y0028375D03*
X0109268Y0020894D03*
X0117575Y0033414D03*
X0117575Y0040894D03*
X0134858Y0028375D03*
X0134858Y0020894D03*
X0142929Y0020894D03*
X0142929Y0028375D03*
X0174661Y0029674D03*
X0174661Y0037154D03*
X0176630Y0018060D03*
X0176630Y0010580D03*
X0176630Y0109005D03*
X0176630Y0116485D03*
X0174661Y0128099D03*
X0174661Y0135580D03*
X0142929Y0126800D03*
X0142929Y0119320D03*
X0134858Y0119320D03*
X0134858Y0126800D03*
X0117575Y0131839D03*
X0117575Y0139320D03*
X0109268Y0126800D03*
X0109268Y0119320D03*
X0101197Y0119320D03*
X0101197Y0126800D03*
X0093126Y0126800D03*
X0093126Y0119320D03*
X0080055Y0119359D03*
X0080055Y0126839D03*
X0066354Y0090973D03*
X0066354Y0083493D03*
X0066354Y0181918D03*
X0066354Y0189398D03*
D13*
X0156748Y0141091D03*
X0162448Y0141091D03*
X0162448Y0042666D03*
X0156748Y0042666D03*
D14*
X0181906Y0058099D03*
X0190173Y0058099D03*
X0190173Y0156524D03*
X0181906Y0156524D03*
X0082693Y0189595D03*
X0074425Y0189595D03*
X0074425Y0091170D03*
X0082693Y0091170D03*
D15*
X0155349Y0117391D03*
X0155349Y0121091D03*
X0155349Y0124791D03*
X0165549Y0124791D03*
X0165549Y0121091D03*
X0165549Y0117391D03*
X0165549Y0026366D03*
X0165549Y0022666D03*
X0165549Y0018966D03*
X0155349Y0018966D03*
X0155349Y0022666D03*
X0155349Y0026366D03*
D16*
X0115772Y0050457D03*
X0115772Y0052957D03*
X0115772Y0055557D03*
X0115772Y0058157D03*
X0115772Y0060657D03*
X0115772Y0063257D03*
X0115772Y0065757D03*
X0115772Y0068357D03*
X0115772Y0070957D03*
X0115772Y0073457D03*
X0087172Y0073457D03*
X0087172Y0070957D03*
X0087172Y0068357D03*
X0087172Y0065757D03*
X0087172Y0063257D03*
X0087172Y0060657D03*
X0087172Y0058157D03*
X0087172Y0055557D03*
X0087172Y0052957D03*
X0087172Y0050457D03*
X0087172Y0148883D03*
X0087172Y0151383D03*
X0087172Y0153983D03*
X0087172Y0156583D03*
X0087172Y0159083D03*
X0087172Y0161683D03*
X0087172Y0164183D03*
X0087172Y0166783D03*
X0087172Y0169383D03*
X0087172Y0171883D03*
X0115772Y0171883D03*
X0115772Y0169383D03*
X0115772Y0166783D03*
X0115772Y0164183D03*
X0115772Y0161683D03*
X0115772Y0159083D03*
X0115772Y0156583D03*
X0115772Y0153983D03*
X0115772Y0151383D03*
X0115772Y0148883D03*
D17*
X0070794Y0125857D03*
X0070794Y0121957D03*
X0070794Y0118057D03*
X0059394Y0118057D03*
X0059394Y0121957D03*
X0059394Y0125857D03*
X0059394Y0027432D03*
X0059394Y0023532D03*
X0059394Y0019632D03*
X0070794Y0019632D03*
X0070794Y0023532D03*
X0070794Y0027432D03*
D18*
X0065094Y0023532D03*
X0065094Y0121957D03*
D19*
X0042654Y0120993D03*
X0037654Y0120993D03*
X0032654Y0120993D03*
X0027654Y0120993D03*
X0022654Y0120993D03*
X0017654Y0120993D03*
X0012654Y0120993D03*
X0007654Y0120993D03*
X0007654Y0022568D03*
X0012654Y0022568D03*
X0017654Y0022568D03*
X0022654Y0022568D03*
X0027654Y0022568D03*
X0032654Y0022568D03*
X0037654Y0022568D03*
X0042654Y0022568D03*
M02*
